<?xml version="1.0" encoding="utf-8" ?>
<svg baseProfile="full" height="200mm" version="1.1" viewBox="0,0,200,200" width="200mm" xmlns="http://www.w3.org/2000/svg" xmlns:ev="http://www.w3.org/2001/xml-events" xmlns:xlink="http://www.w3.org/1999/xlink"><defs /><rect fill="#1a1a1a" height="200" width="200" x="0" y="0" /><text alignment-baseline="middle" fill="#e1ed5e" style="dominant-baseline: central; font-size:9.0px; font-family:Arial;" text-anchor="middle" x="100.0" y="100.0">2024</text><line stroke="#e1ed5e" stroke-width="0.3" x1="100.0" x2="100.0" y1="15.0" y2="10.0" /><path d="M 100.0 14.0 a86.0,86.0 0 0,1 42.35913384403234,11.155469271406648" fill="none" id="id49" stroke="none" /><text fill="#e1ed5e" style="font-size:6.75px; font-family:Arial;" text-anchor="middle"><textPath startOffset="22.145653131862478" xlink:href="#id49">January</textPath></text><path d="M 100.36049292484886 79.00309439819443 l 0.6100134333695475 -35.530224294038284 a56.53546052569967,56.53546052569967 0 0,0 0.9702203455400632,0.02498943449261486 l -1.219847092980352 35.51451714219562" fill="#6dff28" stroke="none" /><path d="M 100.72087961077811 79.0123766808444 l 0.3000314225243204 -8.735087503798267 a29.74023870117485,29.74023870117485 0 0,0 0.5100794216069154,0.021905005100470335 l -0.44993660473207214 8.728649930271967" fill="#ff2803" stroke="none" /><path d="M 101.44090949804482 79.04949213459386 l 1.4066339939526165 -20.452149558344694 a41.50046440327248,41.50046440327248 0 0,0 0.710312077988708,0.0549826471638728 l -1.7575150667165578 20.424989144185766" fill="#ffd413" stroke="none" /><path d="M 101.80034050326958 79.07731436759882 l 2.458318882650624 -28.569391774769716 a49.67496256508587,49.67496256508587 0 0,0 0.8489697977829741,0.08039832252061836 l -2.9483882438186106 28.522981696743912" fill="#bfff1e" stroke="none" /><path d="M 102.87502721639298 79.19773525538626 l 4.416655240910375 -31.956717168880196 a53.26048071137291,53.26048071137291 0 0,0 0.904603634905382,0.132945582594083 l -4.964583981423439 31.876190512987232" fill="#93ff23" stroke="none" /><path d="M 104.29559338865022 79.4440306129975 l 7.612468026328186 -36.428415250426696 a58.215307429999676,58.215307429999676 0 0,0 0.976458057377012,0.2128144888427792 l -8.236688500324332 36.292369303450194" fill="#5aff2a" stroke="none" /><path d="M 104.9986988182912 79.60360301121754 l 6.467421116093667 -26.389285166529604 a48.17023937129214,48.17023937129214 0 0,0 0.8014488885902465,0.20372517343814156 l -6.919475297909307 26.274374761256194" fill="#d2ff1c" stroke="none" /><path d="M 105.3480935250658 79.69241777938227 l 4.954548768435547 -18.813228678499446 a40.45469421009542,40.45469421009542 0 0,0 0.6700426221795611,0.18262309622223252 l -5.2767727915498 18.725405088133073" fill="#ffc612" stroke="none" /><path d="M 106.38641147887787 79.99465700312896 l 6.375111140416004 -19.969944847588266 a41.9628418700417,41.9628418700417 0 0,0 0.6843485335320272,0.22495895586104597 l -6.716982411595773 19.8575649703252" fill="#ffda14" stroke="none" /><path d="M 106.72888874123014 80.10723608172694 l 12.653488298747128 -37.4077897777205 a60.489916462062325,60.489916462062325 0 0,0 0.980784162133869,0.34116764378865166 l -13.293778232926016 37.18506370136326" fill="#41ff2d" stroke="none" /><path d="M 108.4095320186766 80.7573450057729 l 5.005399234500381 -11.453332999262027 a33.49931431274218,33.49931431274218 0 0,0 0.5249607311357124,0.2348082578060732 l -5.201273368491725 11.365720990546102" fill="#ff6109" stroke="none" /><path d="M 109.06512990194946 81.05736502329252 l 17.00204507050335 -35.527735080642806 a60.386412587842585,60.386412587842585 0 0,0 0.931215276209758,0.4555040553867668 l -17.609420595975177 35.23063727515882" fill="#42ff2d" stroke="none" /><line stroke="#e1ed5e" stroke-width="0.3" x1="143.13028292997686" x2="145.6673583964461" y1="26.7553504044142" y2="22.446841604673864" /><path d="M 143.63769802327073 25.89364864446614 a86.0,86.0 0 0,1 29.32050498858742,28.57503671076993" fill="none" id="id50" stroke="none" /><text fill="#e1ed5e" style="font-size:6.75px; font-family:Arial;" text-anchor="middle"><textPath startOffset="20.669276256404974" xlink:href="#id50">February</textPath></text><path d="M 110.96478420261332 82.08984904055464 l 8.935339320231195 -14.595205262778139 a38.11316176018612,38.11316176018612 0 0,0 0.5550653348335778,0.34640182139081943 l -9.184568783854486 14.439667644545773" fill="#ffa50f" stroke="none" /><path d="M 111.8722381534696 82.67804972795209 l 18.417810768908478 -26.872136334780784 a53.57802119089443,53.57802119089443 0 0,0 0.7541869556773649,0.5264810681735165 l -18.8763928157596 26.55201045080214" fill="#8fff24" stroke="none" /><path d="M 112.45986205192187 83.09580414077388 l 15.282241948528446 -20.733296242726816 a46.75687271510329,46.75687271510329 0 0,0 0.6420097378704656,0.48177607619936624 l -15.635904675309678 20.467901139263436" fill="#e4ff1a" stroke="none" /><path d="M 113.59037401385872 83.9905735841838 l 16.6579721298389 -19.623049283075098 a46.740087386108144,46.740087386108144 0 0,0 0.6072216646003523,0.5245036115070529 l -16.992373274202112 19.334201539103322" fill="#e4ff1a" stroke="none" /><path d="M 114.39649973595853 84.71141617570332 l 21.845047732703815 -23.198683675380757 a52.86510685239398,52.86510685239398 0 0,0 0.6553448500642086,0.6278055418612577 l -22.240065068633335 22.820266003213916" fill="#98ff23" stroke="none" /><path d="M 114.91283532996326 85.21462403516908 l 23.677901638414635 -23.47552762678491 a54.34281666797783,54.34281666797783 0 0,0 0.6511128541097564,0.6680991482283217 l -24.077401293675205 23.06560578648885" fill="#86ff25" stroke="none" /><path d="M 115.41159269507618 85.73525988315684 l 31.332978174114267 -29.001336823757104 a63.694649065480455,63.694649065480455 0 0,0 0.735831824159777,0.8088080735144902 l -31.826207699115923 28.459191174684943" fill="#31ff44" stroke="none" /><path d="M 115.6541949942343 86.00192230759917 l 10.484002209379739 -9.374859423193087 a35.06422026032412,35.06422026032412 0 0,0 0.3973760225179135,0.45214096831505285 l -10.643389295856242 9.193506177066736" fill="#ff780b" stroke="none" /><path d="M 116.7966241395341 87.39550010848427 l 7.879120983248298 -5.912639275224454 a30.850880705175065,30.850880705175065 0 0,0 0.3142352893760602,0.4263205206733526 l -7.979458292208184 5.7765124452822265" fill="#ff3905" stroke="none" /><path d="M 117.21940702142032 87.97951657250589 l 20.149132459740372 -14.065659317385428 a45.57295893686624,45.57295893686624 0 0,0 0.44229698833462355,0.6453245241858582 l -20.38761918489032 13.717700058129521" fill="#f3ff19" stroke="none" /><path d="M 117.42321728460499 88.27688183743584 l 15.479300385152916 -10.415164118357984 a39.657019698390386,39.657019698390386 0 0,0 0.375184792348076,0.5680775947800067 l -15.655809616421717 10.147906645238917" fill="#ffba11" stroke="none" /><line stroke="#e1ed5e" stroke-width="0.3" x1="172.87174338648825" x2="177.1583165268699" y1="56.24261187166439" y2="53.66864786411523" /><path d="M 173.72905801456457 55.72781907015455 a86.0,86.0 0 0,1 12.242430191666344,42.057860355516425" fill="none" id="id51" stroke="none" /><text fill="#e1ed5e" style="font-size:6.75px; font-family:Arial;" text-anchor="middle"><textPath startOffset="22.145653131862474" xlink:href="#id51">March</textPath></text><path d="M 118.00360718960297 89.18935116829356 l 15.191440538262892 -9.12202355768746 a38.71979625770517,38.71979625770517 0 0,0 0.3372794606644434,0.572774260541316 l -15.345793709057103 8.859898128852587" fill="#ffad10" stroke="none" /><path d="M 118.18653347947321 89.5 l 33.939754810922686 -19.595126576316115 a60.19025315263222,60.19025315263222 0 0,0 0.5089419386106866,0.8992516396504083 l -34.27113011455475 19.00961816656659" fill="#44ff2d" stroke="none" /><path d="M 118.70294669586156 90.45014215332178 l 19.91894026932077 -10.170752829583744 a43.36533913387531,43.36533913387531 0 0,0 0.33283948215240383,0.6659019246347736 l -20.090599664684913 9.82731904878522" fill="#ffed16" stroke="none" /><path d="M 118.8641267826498 90.77261029715802 l 14.943017693137229 -7.309378757879159 a37.63492697920695,37.63492697920695 0 0,0 0.2788940601489864,0.5827813209205163 l -15.066291011246127 7.05178493489354" fill="#ff9e0e" stroke="none" /><path d="M 119.16976305983485 91.42560881287824 l 29.879237909020755 -13.364603068141895 a53.731964090058064,53.731964090058064 0 0,0 0.36938452701358265,0.8452240859232462 l -30.10425631805131 12.8497169124428" fill="#8dff24" stroke="none" /><path d="M 119.31412917781788 91.75594674310238 l 35.18200445769874 -15.01710565168989 a59.252933218454636,59.252933218454636 0 0,0 0.39127859394311226,0.9389261854927952 l -35.43460889617833 14.410946956755817" fill="#4eff2b" stroke="none" /><path d="M 119.58574465831526 92.42381321644754 l 12.410178552636406 -4.800523665159312 a34.30629772581657,34.30629772581657 0 0,0 0.20774802012620494,0.5510763053343314 l -12.490757256577051 4.586779079630823" fill="#ff6d0a" stroke="none" /><path d="M 119.71291397450082 92.76114493625339 l 17.278268537483914 -6.344819535920808 a39.40639287304302,39.40639287304302 0 0,0 0.2277311018216223,0.6370044226437275 l -17.38463980934948 6.047280156896163" fill="#ffb711" stroke="none" /><path d="M 119.83427380445688 93.10060997987247 l 25.164878480635316 -8.753651036520592 a47.643902030564526,47.643902030564526 0 0,0 0.2620745360813431,0.7747767983311845 l -25.311438438289024 8.320372563715246" fill="#d8ff1c" stroke="none" /><path d="M 120.05942366710727 93.78553927170692 l 18.655761400522287 -5.7796025700408595 a40.53052071248589,40.53052071248589 0 0,0 0.20018927430801145,0.6663649861385094 l -18.752226994833926 5.458499980311627" fill="#ffc712" stroke="none" /><path d="M 120.16314734710363 94.1308016681162 l 38.055941526983744 -11.077529945270422 a60.635417938928924,60.635417938928924 0 0,0 0.28233440951220995,1.0019052169351155 l -38.240494428570535 10.422616804432293" fill="#3fff2d" stroke="none" /><path d="M 120.43855184770803 95.1765574152323 l 27.22133205296419 -6.424160244655179 a48.96910355350603,48.96910355350603 0 0,0 0.1860572658489363,0.819802643199864 l -27.327600180370794 5.9559232675162885" fill="#c8ff1d" stroke="none" /><path d="M 120.65975698304385 96.23510406497455 l 19.864093428776588 -3.619899530490428 a41.1912327597403,41.1912327597403 0 0,0 0.12079855177278395,0.6967339456594894 l -19.923306798041605 3.278372551910346" fill="#ffd013" stroke="none" /><path d="M 120.7213421655516 96.59031103205396 l 42.26024541009429 -6.953907300321591 a63.82855553089389,63.82855553089389 0 0,0 0.16862442951542253,1.0826898004928416 l -42.373391331747975 6.2274293178973075" fill="#32ff46" stroke="none" /><path d="M 120.86939407059847 97.66154086499901 l 7.357259202263625 -0.8243962393877998 a28.403302785163493,28.403302785163493 0 0,0 0.05013535618404007,0.4850140919518213 l -7.370326950929331 0.6979776251530471" fill="#ff1302" stroke="none" /><path d="M 120.9064616781168 98.02013634271609 l 24.642674989714624 -2.3336869424185633 a45.752929632548984,45.752929632548984 0 0,0 0.06733606218606068,0.7825471116625705 l -24.679104674598427 1.9103187833803306" fill="#f1ff19" stroke="none" /><path d="M 120.96210409425399 98.7389718711861 l 27.98191542023765 -1.6833225464558108 a49.032501946503814,49.032501946503814 0 0,0 0.04333168100450559,0.8406230353357967 l -28.00668869069873 1.2027277177432834" fill="#c7ff1e" stroke="none" /><path d="M 120.98066250479742 99.09900007780936 l 30.716166181633938 -1.3190843393681586 a51.74447671358416,51.74447671358416 0 0,0 0.030493052167376525,0.8877719430148642 l -30.734283920798163 0.7916061317891745" fill="#a5ff21" stroke="none" /><line stroke="#e1ed5e" stroke-width="0.3" x1="184.99686870605535" x2="189.99668451229388" y1="99.2704041080226" y2="99.22748670261217" /><path d="M 185.99683186730306 99.26182062694052 a86.0,86.0 0 0,1 -10.086455211305974,41.156179273409016" fill="none" id="id52" stroke="none" /><text fill="#e1ed5e" style="font-size:6.75px; font-family:Arial;" text-anchor="middle"><textPath startOffset="21.40746469413373" xlink:href="#id52">April</textPath></text><path d="M 120.99922638620191 99.81974689727618 l 15.081021517281183 -0.12945243175819773 a36.08157710376425,36.08157710376425 0 0,0 0.0,0.6194110689640474 l -15.081021517281183 -0.1294524317581959" fill="#ff870c" stroke="none" /><path d="M 120.99922638620191 100.18025310272382 l 32.4069306048893 0.27817452337793147 a53.408124479759195,53.408124479759195 0 0,0 -0.015739039596658313,0.9167201514779503 l -32.39738013369397 -0.8344415908249528" fill="#91ff24" stroke="none" /><path d="M 120.96210409425399 101.26102812881392 l 26.805769787851162 1.6125685458386931 a47.85423004359467,47.85423004359467 0 0,0 -0.05636781394162948,0.8195756436766477 l -26.77413801274447 -2.072487613669684" fill="#d6ff1c" stroke="none" /><path d="M 120.9064616781168 101.97986365728391 l 62.7193850343504 5.939590971851738 a84.0,84.0 0 0,0 -0.14827043007333573,1.4343819108682743 l -62.6081822117954 -7.015377405002943" fill="#4dd2ff" stroke="none" /><path d="M 120.82617615685814 102.69636545807757 l 17.29807630442412 2.2395822971602013 a38.44245317320453,38.44245317320453 0 0,0 -0.09034980291272394,0.6537261661724799 l -17.257081984956187 -2.5361967715327665" fill="#ffa90f" stroke="none" /><path d="M 120.77682067341334 103.0534771498775 l 24.378430521164308 3.582789769250189 a45.64029742527227,45.64029742527227 0 0,0 -0.12057407616760839,0.7741720630021701 l -24.313334952858433 -4.00075001418381" fill="#f2ff19" stroke="none" /><path d="M 120.43855184770803 104.8234425847677 l 15.301043189804787 3.61100453021336 a36.72136369446025,36.72136369446025 0 0,0 -0.15005481182458694,0.6122748385744217 l -15.236800851463904 -3.873135193395881" fill="#ff910d" stroke="none" /><path d="M 120.35273937422433 105.17358676015961 l 30.410734844349875 7.730289877180191 a52.377861229831936,52.377861229831936 0 0,0 -0.22899231589755517,0.8695211220940625 l -30.273553047647592 -8.251191503647057" fill="#9eff22" stroke="none" /><path d="M 120.16314734710363 105.8691983318838 l 16.64698866181767 4.845695783642808 a38.337906423046,38.337906423046 0 0,0 -0.1893594636930864,0.6303160688064503 l -16.561352878120953 -5.130749456039981" fill="#ffa80f" stroke="none" /><path d="M 119.94978838288452 106.5578916946017 l 40.46540547028904 13.301782523165242 a63.59561548056892,63.59561548056892 0 0,0 -0.34982003390875704,1.0341807713047355 l -40.23110001480792 -13.994464968944138" fill="#31ff43" stroke="none" /><path d="M 119.71291397450082 107.23885506374661 l 16.369254283127695 6.011016910561812 a38.43802770053868,38.43802770053868 0 0,0 -0.23276846181900446,0.6174459995317749 l -16.26365513749425 -6.2911311902877465" fill="#ffa90f" stroke="none" /><path d="M 119.4528033332814 107.91128576633889 l 26.178085909770758 10.646399642237625 a49.260184133185966,49.260184133185966 0 0,0 -0.3252911634593704,0.7805803742124228 l -25.991468901774905 -11.094212525891326" fill="#c4ff1e" stroke="none" /><path d="M 119.16976305983485 108.57439118712176 l 23.94888769102212 10.712032846640623 a47.23541250570874,47.23541250570874 0 0,0 -0.33743074689695585,0.7373470785240664 l -23.761472479270108 -11.121568907379377" fill="#deff1b" stroke="none" /><path d="M 119.0197475246899 108.90220220490707 l 35.05846036808885 16.409129657704867 a59.70859309642015,59.70859309642015 0 0,0 -0.44247121732545625,0.9245946663922716 l -34.77160989280348 -17.008536826162242" fill="#49ff2c" stroke="none" /><path d="M 118.8641267826498 109.22738970284198 l 26.952464084327275 13.183800788843348 a51.00413177308849,51.00413177308849 0 0,0 -0.3914690659879354,0.7832003667070268 l -26.722175105127608 -13.64453301171412" fill="#aeff20" stroke="none" /><line stroke="#e1ed5e" stroke-width="0.3" x1="174.33088141563837" x2="178.70328620479359" y1="141.23008692659167" y2="143.65538615756765" /><path d="M 175.20536237346943 141.71514677278685 a86.0,86.0 0 0,1 -30.301960400862466,31.631185727798858" fill="none" id="id53" stroke="none" /><text fill="#e1ed5e" style="font-size:6.75px; font-family:Arial;" text-anchor="middle"><textPath startOffset="22.145653131862474" xlink:href="#id53">May</textPath></text><path d="M 118.36410011445183 110.18625677009912 l 20.08634844024285 11.141558884498654 a43.96945206224122,43.96945206224122 0 0,0 -0.37178607831171384,0.6569103765228261 l -19.892128996909758 -11.484726031120603" fill="#fff617" stroke="none" /><path d="M 117.81537515405839 111.11811171558189 l 41.54828420006127 25.92920223865151 a69.97533510556055,69.97533510556055 0 0,0 -0.6447137793083693,1.01359714518519 l -41.09705272912701 -26.63861305851537" fill="#3aff92" stroke="none" /><path d="M 117.423217284605 111.72311816256416 l 12.939477548049002 8.70625796486262 a36.595800940227406,36.595800940227406 0 0,0 -0.3551714200515188,0.5182057162816502 l -12.788116391182163 -8.927098416214315" fill="#ff8f0d" stroke="none" /><path d="M 117.21940702142032 112.02048342749411 l 29.32831672332694 20.473442824744325 a56.767471575746775,56.767471575746775 0 0,0 -0.5646603669906249,0.7942655205273962 l -28.972541257806355 -20.973885571981224" fill="#6aff28" stroke="none" /><path d="M 116.79662413953412 112.60449989151573 l 5.716398638408634 4.289692108314381 a28.14693443214185,28.14693443214185 0 0,0 -0.29332861638153757,0.3839765748185192 l -5.641918044672792 -4.387189596373777" fill="#ff0f01" stroke="none" /><path d="M 116.57777611688842 112.89097897827486 l 21.502452221381414 16.720436903765734 a48.23836378686505,48.23836378686505 0 0,0 -0.5139305385736264,0.649334446701664 l -21.212255252166226 -17.08709129438208" fill="#d1ff1c" stroke="none" /><path d="M 116.35404254752997 113.17365903436017 l 36.41043617080482 29.32967001965898 a67.7541378447976,67.7541378447976 0 0,0 -0.7374011292463319,0.8995094779340649 l -35.901588222319866 -29.95038177929154" fill="#37ff77" stroke="none" /><path d="M 115.6541949942343 113.99807769240083 l 20.772240450578646 18.574665498898344 a48.865824440210275,48.865824440210275 0 0,0 -0.5645219694977177,0.6205085341714118 l -20.45032078023905 -18.928511608627428" fill="#c9ff1d" stroke="none" /><path d="M 115.16444852881244 114.52719865689866 l 4.499255701218029 4.310185184485359 a27.230649901053663,27.230649901053663 0 0,0 -0.32626623468316995,0.33477789927142715 l -4.424602665384052 -4.3867857758245234" fill="#ff0000" stroke="none" /><path d="M 114.65682725009322 115.03919595460226 l 27.639596268873355 28.360660687396464 a60.60144386928276,60.60144386928276 0 0,0 -0.7512487254982478,0.7196792850936374 l -27.148675057509795 -28.83095210279568" fill="#40ff2d" stroke="none" /><path d="M 114.13192950727249 115.5334660781643 l 38.310831083644395 42.1103144307241 a77.92976690426534,77.92976690426534 0 0,0 -0.9972597056513408,0.8917557782019357 l -37.58230635116968 -42.76176573880943" fill="#45ffed" stroke="none" /><path d="M 113.59037401385872 116.0094264158162 l 20.179603777755 23.771522509303434 a52.18175253313232,52.18175253313232 0 0,0 -0.6878689709325512,0.5738447604596577 l -19.768560472660553 -24.114429453674962" fill="#a0ff22" stroke="none" /><path d="M 113.03279911837588 116.46651593811092 l 5.689023686766939 7.187895582488837 a30.166833336183103,30.166833336183103 0 0,0 -0.4088181318725771,0.3178994520584819 l -5.564795610259131 -7.2844960861681125" fill="#ff2e04" stroke="none" /><path d="M 112.7482090630111 116.68781488649013 l 17.669609710770924 23.130086313490878 a50.10697511251398,50.10697511251398 0 0,0 -0.6880093575436201,0.5162950483668367 l -17.269947364316536 -23.43000038912173" fill="#b9ff1f" stroke="none" /><path d="M 112.16784306229584 117.11559508785304 l 24.169522291023313 33.99745993452519 a62.71322439917488,62.71322439917488 0 0,0 -0.8827779514627485,0.6162475701117356 l -23.582349248386805 -34.407352320442044" fill="#30ff37" stroke="none" /><path d="M 111.5731344415666 117.5232005979908 l 23.376834934958794 35.39550758523387 a63.4183730097308,63.4183730097308 0 0,0 -0.9135699530632303,0.5921650061365489 l -22.765779349638553 -35.791586433074315" fill="#31ff40" stroke="none" /><path d="M 110.96478420261333 117.91015095944535 l 26.79339006328925 43.76498906694774 a72.31530004894859,72.31530004894859 0 0,0 -1.0642995449928767,0.6390812969585101 l -26.038157761738937 -44.218484364442176" fill="#3dffae" stroke="none" /><line stroke="#e1ed5e" stroke-width="0.3" x1="143.1302829299769" x2="145.66735839644613" y1="173.24464959558577" y2="177.55315839532614" /><path d="M 143.63769802327073 174.10635135553383 a86.0,86.0 0 0,1 -40.68552437913181,11.842963189579606" fill="none" id="id54" stroke="none" /><text fill="#e1ed5e" style="font-size:6.75px; font-family:Arial;" text-anchor="middle"><textPath startOffset="21.407464694133747" xlink:href="#id54">June</textPath></text><path d="M 110.02825361518725 118.45085714620011 l 12.005894889089735 22.08949434380179 a46.141345875921644,46.141345875921644 0 0,0 -0.6991758243990116,0.3722717452575523 l -11.62493024890417 -22.292336556781912" fill="#ecff1a" stroke="none" /><path d="M 109.71004243097381 118.62028667847754 l 14.413575100379811 27.63993075609267 a52.17237429802046,52.17237429802046 0 0,0 -0.7976728174125866,0.4072974242147117 l -13.936975061253642 -27.88328613198022" fill="#a0ff22" stroke="none" /><path d="M 109.3889696526874 118.78422872680471 l 6.84188082900853 13.688344852286374 a36.30301009845675,36.30301009845675 0 0,0 -0.5598265591105148,0.27383922332757904 l -6.605894020635946 -13.803777825711176" fill="#ff8a0c" stroke="none" /><path d="M 109.06512990194946 118.94263497670748 l 5.077361188859215 10.609732092728027 a32.76205814139672,32.76205814139672 0 0,0 -0.5093896066649493,0.23842005650826323 l -4.8944828683227595 -10.695328380806822" fill="#ff5608" stroke="none" /><path d="M 108.73861861582097 119.09545874513695 l 14.45486211060383 31.58648239894003 a55.73685231818103,55.73685231818103 0 0,0 -0.8734405269013645,0.3906788379679935 l -13.91050818084684 -31.829964987817874" fill="#76ff27" stroke="none" /><path d="M 107.74402155503746 119.51999308798841 l 9.481322889234217 23.899127339392173 a46.71116044278047,46.71116044278047 0 0,0 -0.747885132951325,0.28929803582809344 l -9.069665493789364 -24.058365263358308" fill="#e4ff1a" stroke="none" /><path d="M 107.407793817531 119.65005319985036 l 6.451349046494034 17.112969812200266 a39.28862051421531,39.28862051421531 0 0,0 -0.6331283523121272,0.23249350071047853 l -6.156631542527779 -17.221194161919467" fill="#ffb510" stroke="none" /><path d="M 107.06938296918513 119.77432235084164 l 14.5551087197188 40.71322956046359 a64.23676966524951,64.23676966524951 0 0,0 -1.0415356806424236,0.36230017551821775 l -13.854067267031356 -40.95708816855039" fill="#32ff4b" stroke="none" /><path d="M 106.38641147887787 120.00534299687104 l 10.89418194453779 34.12586977704282 a56.82259326570841,56.82259326570841 0 0,0 -0.9317805835986881,0.2886680066314745 l -10.306760728067477 -34.307854371480936" fill="#6aff28" stroke="none" /><path d="M 105.3480935250658 120.30758222061773 l 3.6543900287176316 13.876314171875999 a35.349448124530696,35.349448124530696 0 0,0 -0.5881385743864015,0.14950252571101635 l -3.415646161105833 -13.937001929422284" fill="#ff7d0b" stroke="none" /><path d="M 104.9986988182912 120.39639698878246 l 5.147168660035113 21.002204608555342 a42.62373565400925,42.62373565400925 0 0,0 -0.7121570632610928,0.16806712782646924 l -4.785879443034141 -21.087467880028036" fill="#ffe315" stroke="none" /><path d="M 104.29559338865022 120.5559693870025 l 9.661208452994938 46.23237984441017 a68.23104799652496,68.23104799652496 0 0,0 -1.1485673934608294,0.2297456461980732 l -8.866144574003151 -46.391414887271104" fill="#38ff7d" stroke="none" /><path d="M 103.58742460773223 120.69131181640829 l 4.944582969062731 28.519040593762725 a49.94450858326379,49.94450858326379 0 0,0 -0.8460183477155171,0.13921199716884525 l -4.4542871182941415 -28.59971858942724" fill="#bbff1f" stroke="none" /><path d="M 102.51750503828377 120.84855314841334 l 3.45332113623352 28.598452893816383 a49.80619611801933,49.80619611801933 0 0,0 -0.8497034260436174,0.09521104119993078 l -2.961881808589103 -28.653519695523286" fill="#bdff1f" stroke="none" /><path d="M 101.08105385017728 120.97215588758144 l 1.8238260864151619 35.38173883739818 a56.42871412782772,56.42871412782772 0 0,0 -0.9678175805363606,0.04156225117097729 l -1.2161827452779717 -35.40783365699499" fill="#6eff28" stroke="none" /><line stroke="#e1ed5e" stroke-width="0.3" x1="101.45913802915013" x2="101.54496967792366" y1="184.9874750549273" y2="189.98673829345242" /><path d="M 101.47630435890484 185.9873277026323 a86.0,86.0 0 0,1 -42.54439059252881,-10.42667462771756" fill="none" id="id55" stroke="none" /><text fill="#e1ed5e" style="font-size:6.75px; font-family:Arial;" text-anchor="middle"><textPath startOffset="22.145653131862474" xlink:href="#id55">July</textPath></text><path d="M 100.36049292484886 120.99690560180557 l 0.2983534921095143 17.377595170332548 a38.380156176232106,38.380156176232106 0 0,0 -0.6588464169583644,0.005655404093993453 l -2.128455262990375e-15 -17.380156176232106" fill="#ffa80f" stroke="none" /><path d="M 100.0 121.0 l 1.792058102010461e-15 14.633264899382922 a35.63326489938292,35.63326489938292 0 0,0 -0.6116923754996424,-0.005250643360308162 l 0.2511994506507884 -14.63110865421705" fill="#ff810b" stroke="none" /><path d="M 99.27912038922189 120.98762331915562 l -0.3631212447084739 10.571878839655819 a31.578113217333282,31.578113217333282 0 0,0 -0.5416010909387436,-0.02325868121097811 l 0.5445480962480562 -10.564087590019012" fill="#ff4406" stroke="none" /><path d="M 98.55909050195518 120.95050786540614 l -2.1365485479096877 31.064946978655847 a52.13833281478432,52.13833281478432 0 0,0 -0.8923873035410106,-0.06907642114582713 l 2.6695048462259345 -31.023692790514968" fill="#a1ff22" stroke="none" /><path d="M 98.19965949673042 120.92268563240118 l -1.0628119070986584 12.351485387466305 a33.3971271037553,33.3971271037553 0 0,0 -0.5707734999630437,-0.054052843877471016 l 1.2746849704467174 -12.33142078808365" fill="#ff6008" stroke="none" /><path d="M 97.84075906011543 120.88869738790638 l -1.879962506774449 18.186931888537032 a39.28383850686619,39.28383850686619 0 0,0 -0.6701899516343913,-0.07509618196310079 l 2.1918883600096395 -18.15197994606696" fill="#ffb510" stroke="none" /><path d="M 97.48249496171623 120.84855314841334 l -1.4692091715186821 12.167159561843508 a33.255543537233855,33.255543537233855 0 0,0 -0.5661711599827322,-0.07330219180127417 l 1.6778581533922083 -12.140145773841837" fill="#ff5d08" stroke="none" /><path d="M 96.76829788921471 120.74984581791261 l -3.5948835564646693 23.081731227964383 a44.35999795086734,44.35999795086734 0 0,0 -0.7514213921735007,-0.12364610413277224 l 3.990582451691233 -23.016619125335943" fill="#fffb17" stroke="none" /><path d="M 96.05791012581884 120.62667999033965 l -1.4676463354094018 7.679345795172289 a28.8183334290417,28.8183334290417 0 0,0 -0.4851134356336627,-0.0970362735208746 l 1.5992562565740225 -7.6530201249885526" fill="#ff1902" stroke="none" /><path d="M 95.70440661134978 120.55596938700252 l -5.0092840463097845 23.971237542829936 a45.48904154905604,45.48904154905604 0 0,0 -0.7629976221691045,-0.16629178050551024 l 5.420044085098025 -23.881714304190705" fill="#f4ff19" stroke="none" /><path d="M 95.35216902796893 120.47920084513623 l -2.3028521027188864 10.14679126930803 a31.40483065070751,31.40483065070751 0 0,0 -0.524711680598919,-0.12383052790551129 l 2.4766959370576935 -10.105764597756291" fill="#ff4106" stroke="none" /><path d="M 94.30408787586889 120.21278271476187 l -5.787814477998047 20.538911747163482 a42.33883061907315,42.33883061907315 0 0,0 -0.6978648717268203,-0.20313829336806347 l 6.139539362106475 -20.436529759492903" fill="#ffe014" stroke="none" /><path d="M 93.95794788825049 120.11202640906438 l -7.81131358921619 26.001322446441133 a48.14931654669924,48.14931654669924 0 0,0 -0.7895556273183204,-0.24460635161807856 l 8.256509849406143 -25.863399507016407" fill="#d2ff1c" stroke="none" /><path d="M 93.27111125876986 119.89276391827306 l -9.989291096831503 29.53156414707614 a52.17529819568868,52.17529819568868 0 0,0 -0.845970851307704,-0.2942725761665982 l 10.494767720184228 -29.355733138340952" fill="#a0ff22" stroke="none" /><path d="M 92.93061703081489 119.77432235084164 l -3.586922436831486 10.03326044472991 a31.655154983369645,31.655154983369645 0 0,0 -0.5101165644020224,-0.18732186829908315 l 3.758628152887627 -9.970207727422109" fill="#ff4506" stroke="none" /><path d="M 91.92203290615298 119.3841803445677 l -12.033226774264348 28.875363715840123 a52.282346080863704,52.282346080863704 0 0,0 -0.8254758165816704,-0.3523465402725013 l 12.527137666016449 -28.664542525908217" fill="#9fff22" stroke="none" /><path d="M 91.59046798132341 119.24265499422711 l -5.990466404338166 13.707359460333912 a35.95919085767375,35.95919085767375 0 0,0 -0.5635089407341243,-0.25205038164601007 l 6.224888747927925 -13.602505327778045" fill="#ff850c" stroke="none" /><path d="M 90.93487009805054 118.94263497670748 l -10.515870774736772 21.974125434785776 a45.360741507077776,45.360741507077776 0 0,0 -0.6995052963304652,-0.3421630930926436 l 10.891536320329307 -21.79036859159591" fill="#f6ff19" stroke="none" /><path d="M 90.6110303473126 118.78422872680471 l -5.779004181284403 11.56187956399834 a33.92570881536889,33.92570881536889 0 0,0 -0.5186962659374524,-0.26485000924488056 l 5.976627668935438 -11.460971603080624" fill="#ff6709" stroke="none" /><path d="M 90.28995756902619 118.62028667847754 l -6.464783879004567 12.39707550169713 a34.98144883754958,34.98144883754958 0 0,0 -0.5300708695284976,-0.2822328816634649 l 6.676643564319626 -12.284272152311091" fill="#ff770b" stroke="none" /><line stroke="#e1ed5e" stroke-width="0.3" x1="58.13341422392154" x2="55.67067388415222" y1="173.97424548756322" y2="178.32567169271397" /><path d="M 57.64086615596768 174.84453072859336 a86.0,86.0 0 0,1 -31.369924170532247,-30.572349798747897" fill="none" id="id56" stroke="none" /><text fill="#e1ed5e" style="font-size:6.75px; font-family:Arial;" text-anchor="middle"><textPath startOffset="22.145653131862474" xlink:href="#id56">August</textPath></text><path d="M 89.65649057296885 118.27599006163327 l -11.399356618493046 20.141570879622584 a44.14364294605414,44.14364294605414 0 0,0 -0.6562846582780589,-0.37890612412186175 l 11.743433744631504 -19.94291785822455" fill="#fff817" stroke="none" /><path d="M 89.34428304082925 118.09573695890944 l -6.112173114633363 10.379806197323301 a33.045706159343176,33.045706159343176 0 0,0 -0.48634977668006873,-0.2920390669322881 l 6.2894556478708585 -10.273353129855094" fill="#ff5a08" stroke="none" /><path d="M 88.72937992617639 117.7192867562869 l -16.613541173942444 26.11924616128026 a51.9552058686715,51.9552058686715 0 0,0 -0.7484379168722886,-0.4851284153462409 l 17.059464723071745 -25.830203904230125" fill="#a3ff22" stroke="none" /><path d="M 87.54013794807813 116.9041958592261 l -13.109919235896154 17.786123276384256 a43.09561412530681,43.09561412530681 0 0,0 -0.5917376916231989,-0.44405099548040705 l 13.41330991643012 -17.558453253639833" fill="#ffea16" stroke="none" /><path d="M 87.2517909369889 116.68781488649013 l -16.018153255593834 20.968276801199657 a47.38654705965559,47.38654705965559 0 0,0 -0.642178097678702,-0.4993615729344561 l 16.375741297907762 -20.69021417664441" fill="#dcff1b" stroke="none" /><path d="M 86.68645165197938 116.24036423190432 l -16.949178486179687 20.67524185526687 a47.734626930820546,47.734626930820546 0 0,0 -0.6292461849360974,-0.5249395473897773 l 17.301599005277676 -20.38124012396522" fill="#d7ff1c" stroke="none" /><path d="M 86.40962598614128 116.0094264158162 l -8.355631448945974 9.842912836921931 a33.91121644253002,33.91121644253002 0 0,0 -0.440555986272629,-0.38054176809242785 l 8.523366914981466 -9.698026936364782" fill="#ff6709" stroke="none" /><path d="M 86.13680546590413 115.77377054828092 l -9.5900595010511 10.911727289254776 a35.52704490489266,35.52704490489266 0 0,0 -0.4546361647410108,-0.40653846193711973 l 9.775960692615481 -10.745493297434274" fill="#ff7f0b" stroke="none" /><path d="M 85.60350026404147 115.28858382429668 l -12.87184818303039 13.669456710254895 a39.77600922455343,39.77600922455343 0 0,0 -0.49308521922030074,-0.4723644859741371 l 13.104605888116007 -13.446480093975175" fill="#ffbc11" stroke="none" /><path d="M 85.34317274990678 115.03919595460226 l -28.73489442200031 29.484533083005534 a62.170764488485666,62.170764488485666 0 0,0 -0.7579151447975966,-0.7514372765020884 l 29.23680148692787 -28.986915796274786" fill="#2fff30" stroke="none" /><path d="M 85.08716467003676 114.78537596483092 l -31.29089602507141 31.023454076338584 a65.0633053331059,65.0633053331059 0 0,0 -0.7795612563125892,-0.799898524575053 l 31.81884408253481 -30.481732859695793" fill="#33ff55" stroke="none" /><path d="M 84.3458050057657 113.99807769240083 l -12.904004384616897 11.538840290764083 a38.31063731969371,38.31063731969371 0 0,0 -0.43416703879914975,-0.4940023912093932 l 13.100182487374639 -11.31562562174339" fill="#ffa70f" stroke="none" /><path d="M 83.8745106332314 113.45245675266167 l -16.614686236189616 13.860562180022265 a42.63707426324761,42.63707426324761 0 0,0 -0.4640399495820949,-0.5660532866497737 l 16.85017300501034 -13.573306611673997" fill="#ffe415" stroke="none" /><path d="M 83.64595745247003 113.17365903436017 l -12.076891780786124 9.728289140287972 a36.507769816510184,36.507769816510184 0 0,0 -0.3889530309697183,-0.49142944853719195 l 12.242111242397403 -9.519539747836099" fill="#ff8d0d" stroke="none" /><path d="M 83.4222238831116 112.89097897827486 l -27.404258334147016 21.309717033807416 a55.71451302993617,55.71451302993617 0 0,0 -0.5806195718699949,-0.7600496577164642 l 27.766029883371306 -20.83614646285008" fill="#76ff27" stroke="none" /><path d="M 82.98947788004972 112.3143062007846 l -14.357927150644008 10.394032005297785 a38.72529191269794,38.72529191269794 0 0,0 -0.38519660883725815,-0.5418272698225203 l 14.534238858011227 -10.14602750876576" fill="#ffad10" stroke="none" /><path d="M 82.78059297857968 112.02048342749411 l -9.917329361395796 6.923066112866987 a33.09472058650097,33.09472058650097 0 0,0 -0.321192557750383,-0.46862954071369034 l 10.034711655961503 -6.751801837083246" fill="#ff5b08" stroke="none" /><path d="M 82.37810715431573 111.42229804090323 l -11.107922003028934 7.200020840257039 a34.237304533986894,34.237304533986894 0 0,0 -0.31544346255919853,-0.49592951690955794 l 11.229883157214022 -7.00827764866881" fill="#ff6c0a" stroke="none" /><path d="M 81.99639281039703 110.81064883170644 l -31.092761001810448 18.670309614001447 a57.267619825381146,57.267619825381146 0 0,0 -0.49884539163599045,-0.8471485330172992 l 31.40868010357621 -18.13380991269059" fill="#65ff29" stroke="none" /><line stroke="#e1ed5e" stroke-width="0.3" x1="26.387840678322732" x2="22.057713659400548" y1="142.50000000000003" y2="145.00000000000006" /><path d="M 25.521815274538298 143.00000000000003 a86.0,86.0 0 0,1 -11.493303480769221,-40.785679425670985" fill="none" id="id57" stroke="none" /><text fill="#e1ed5e" style="font-size:6.75px; font-family:Arial;" text-anchor="middle"><textPath startOffset="21.40746469413373" xlink:href="#id57">September</textPath></text><path d="M 81.63589988554817 110.18625677009913 l -21.200590053391704 11.759609924556536 a45.243626877794085,45.243626877794085 0 0,0 -0.370900036537196,-0.6824142918866923 l 21.399335439544227 -11.393940799195256" fill="#f8ff18" stroke="none" /><path d="M 81.4637452351635 109.86951160357371 l -19.602004497440802 10.436963307593095 a43.20740379697127,43.20740379697127 0 0,0 -0.34296788445220244,-0.6576861404477445 l 19.778280450867953 -10.098930924040848" fill="#ffeb16" stroke="none" /><path d="M 81.29705330413844 109.54985784667822 l -17.822121441389147 9.100102195616193 a41.010993794469115,41.010993794469115 0 0,0 -0.31476931138406894,-0.6297494783705861 l 17.975710665984952 -8.792820861081855" fill="#ffcd13" stroke="none" /><path d="M 81.1358732173502 109.22738970284198 l -28.120463817507233 13.755127987554694 a52.30437719019089,52.30437719019089 0 0,0 -0.3876021900134362,-0.8099395023581517 l 28.35244526548058 -13.270375983131437" fill="#9eff22" stroke="none" /><path d="M 80.68587082218212 108.24405325689762 l -22.381530108948507 9.553344315463233 a45.335144906648125,45.335144906648125 0 0,0 -0.2993720444164513,-0.7183839240333892 l 22.542227997901442 -9.167727881988563" fill="#f6ff19" stroke="none" /><path d="M 80.5471966667186 107.91128576633889 l -27.78584042299642 11.300259406217673 a50.99581288546841,50.99581288546841 0 0,0 -0.32283099696065504,-0.813745001156563 l 27.975730094923197 -10.821613387847545" fill="#aeff20" stroke="none" /><line stroke="#e1ed5e" stroke-width="0.3" x1="15.003131293944662" x2="10.003315487706104" y1="100.72959589197737" y2="100.7725132973878" /><path d="M 14.003168132696942 100.73817937305945 a86.0,86.0 0 0,1 10.791469493833604,-42.45332614584628" fill="none" id="id58" stroke="none" /><text fill="#e1ed5e" style="font-size:6.75px; font-family:Arial;" text-anchor="middle"><textPath startOffset="22.145653131862435" xlink:href="#id58">October</textPath></text><line stroke="#e1ed5e" stroke-width="0.3" x1="26.387840678322718" x2="22.05771365940052" y1="57.49999999999999" y2="54.99999999999999" /><path d="M 25.521815274538284 56.99999999999999 a86.0,86.0 0 0,1 29.574782752854787,-30.34633250058573" fill="none" id="id59" stroke="none" /><text fill="#e1ed5e" style="font-size:6.75px; font-family:Arial;" text-anchor="middle"><textPath startOffset="21.40746469413373" xlink:href="#id59">November</textPath></text><line stroke="#e1ed5e" stroke-width="0.3" x1="56.869717070023135" x2="54.33264160355391" y1="26.7553504044142" y2="22.446841604673864" /><path d="M 56.362301976729285 25.89364864446614 a86.0,86.0 0 0,1 42.16139366436587,-11.88097634709845" fill="none" id="id60" stroke="none" /><text fill="#e1ed5e" style="font-size:6.75px; font-family:Arial;" text-anchor="middle"><textPath startOffset="22.145653131862474" xlink:href="#id60">December</textPath></text></svg>