<?xml version="1.0" encoding="utf-8" ?>
<svg baseProfile="full" height="200mm" version="1.1" viewBox="0,0,200,200" width="200mm" xmlns="http://www.w3.org/2000/svg" xmlns:ev="http://www.w3.org/2001/xml-events" xmlns:xlink="http://www.w3.org/1999/xlink"><defs /><rect fill="#1a1a1a" height="200" width="200" x="0" y="0" /><rect fill="#1a1a1a" height="200" width="180" x="10" y="0" /><text alignment-baseline="middle" fill="#e1ed5e" style="dominant-baseline: central; font-size:9.0px; font-family:Arial;" text-anchor="middle" x="100.0" y="100.0">2025</text><line stroke="#e1ed5e" stroke-width="0.3" x1="100.0" x2="100.0" y1="15.0" y2="10.0" /><path d="M 100.0 14.0 a86.0,86.0 0 0,1 42.46469731375804,11.215312516191453" fill="none" id="id61" stroke="none" /><text fill="#e1ed5e" style="font-size:6.75px; font-family:Arial;" text-anchor="middle"><textPath startOffset="22.20632615414155" xlink:href="#id61">January</textPath></text><path d="M 100.36148047927253 79.00311137660856 l 0.3293807865386708 -19.132351776106372 a40.13518686052534,40.13518686052534 0 0,0 0.690656548708132,0.017837621017834242 l -0.6586639704416706 19.12384736294618" fill="#ffc011" stroke="none" /><path d="M 101.08401301168833 79.027996857942 l 2.808544851589305 -54.33588971446463 a75.40842614196676,75.40842614196676 0 0,0 1.2957248566331778,0.07816166182321076 l -3.7434317570620945 54.279494783261114" fill="#41ffd1" stroke="none" /><path d="M 102.16513564639614 79.11191278185805 l 1.4468139165821334 -13.958097880976784 a35.03288163436663,35.03288163436663 0 0,0 0.5992846454793871,0.06733661258802422 l -1.6868652655712457 13.931125314918159" fill="#ff760a" stroke="none" /><path d="M 102.88285421437855 79.19881850522331 l 4.849186256854667 -34.98921413636394 a56.32364241176154,56.32364241176154 0 0,0 0.959194364842385,0.14136031558309614 l -5.450749602125708 34.90055933661988" fill="#70ff27" stroke="none" /><path d="M 103.95276090670814 79.375362276772 l 1.6959331271785343 -8.84900634680893 a30.01005563233248,30.01005563233248 0 0,0 0.5065034176123295,0.10159982063627294 l -1.848002954257989 8.818502570095447" fill="#ff2a04" stroke="none" /><path d="M 104.307194497241 79.44645832069477 l 3.407849753007609 -16.261950088420328 a37.61518764917652,37.61518764917652 0 0,0 0.63257510479224,0.1382564168146357 l -3.687267581953377 16.200880173509823" fill="#ff9c0e" stroke="none" /><path d="M 104.66035177308747 79.52364482259891 l 4.310165423320905 -18.937728819299494 a40.42202612524547,40.42202612524547 0 0,0 0.6771195864687335,0.16025232926072808 l -4.635508696752162 18.860730577897897" fill="#ffc412" stroke="none" /><path d="M 105.36241919743992 79.69619591428918 l 3.9762499533920304 -15.055331759223774 a36.571563122311844,36.571563122311844 0 0,0 0.6072657740542112,0.16598867564652836 l -4.234813616669952 14.984656542750953" fill="#ff8d0d" stroke="none" /><path d="M 105.71112130821622 79.79150937346287 l 4.758159375203915 -16.836486907579047 a38.49592444053533,38.49592444053533 0 0,0 0.6361172551735984,0.1857000702688359 l -5.04726684810094 16.75208850839151" fill="#ffa90f" stroke="none" /><path d="M 106.40334571778207 80.00007090966166 l 8.781352965284288 -27.42729260036735 a49.798759335899746,49.798759335899746 0 0,0 0.8141318814776269,0.2684064812257659 l -9.252167669004333 27.272072394882347" fill="#beff1f" stroke="none" /><path d="M 107.08798089147638 80.2323363322302 l 4.884835245012625 -13.623312714061823 a35.47260393557552,35.47260393557552 0 0,0 0.5729968669436418,0.21103958181482432 l -5.118614437728843 13.537209864440673" fill="#ff7d0b" stroke="none" /><path d="M 107.4271985657038 80.35727306442388 l 6.7668227564818055 -17.89622970911094 a40.13282331541545,40.13282331541545 0 0,0 0.6440684330185183,0.24988854580772119 l -7.07387435449999 17.777098459412674" fill="#ffc011" stroke="none" /><path d="M 108.09893153111575 80.62456947434976 l 5.699570163244561 -13.635332673173046 a35.77861282914767,35.77861282914767 0 0,0 0.5661816269932176,0.24240942486512754 l -5.933435548028093 13.535203720345129" fill="#ff810b" stroke="none" /><path d="M 108.43124777332544 80.76684994638697 l 7.784345327589428 -17.757452488627045 a40.38873773779537,40.38873773779537 0 0,0 0.6343299008800226,0.2846053362520695 l -8.08885734693623 17.620826821858444" fill="#ffc312" stroke="none" /><path d="M 109.41281617654863 81.2277094730956 l 5.583150498007283 -11.13466163985512 a33.45601297837555,33.45601297837555 0 0,0 0.5125772048993721,0.2625619529561086 l -5.773988190495411 11.03690716158651" fill="#ff5f08" stroke="none" /><path d="M 110.05341064243156 81.56283822128135 l 9.45875463479244 -17.346609586484952 a40.75785675085076,40.75785675085076 0 0,0 0.6130678632688804,0.34117160215463993 l -9.755946587133355 17.18122258677013" fill="#ffc812" stroke="none" /><line stroke="#e1ed5e" stroke-width="0.3" x1="143.23703022742887" x2="145.7803849466894" y1="26.81831364943548" y2="22.513508569990506" /><path d="M 143.74570117128098 25.957352633546492 a86.0,86.0 0 0,1 28.547481713284135,27.462654790039103" fill="none" id="id62" stroke="none" /><text fill="#e1ed5e" style="font-size:6.75px; font-family:Arial;" text-anchor="middle"><textPath startOffset="19.985693538727396" xlink:href="#id62">February</textPath></text><path d="M 110.99172775467656 82.1063720568725 l 9.430276715147222 -15.351714189772371 a39.016804585961026,39.016804585961026 0 0,0 0.5692381743225002,0.3564568925387392 l -9.693134041841985 15.187112955910688" fill="#ffb010" stroke="none" /><path d="M 111.2981086023043 82.29822771554956 l 19.91123640097926 -31.196741426269256 a58.00937733376753,58.00937733376753 0 0,0 0.8370835307549305,0.5444624133962606 l -20.44528695751847 30.849380088713467" fill="#5dff2a" stroke="none" /><path d="M 111.90073688211348 82.69761687909136 l 25.96444786619 -37.74949643487082 a66.81677677535188,66.81677677535188 0 0,0 0.9420174741224767,0.6599434409936489 l -26.610396479896128 37.29696815111324" fill="#36ff6b" stroke="none" /><path d="M 112.48926042617603 83.11751280151076 l 5.368145564217179 -7.25644639274063 a30.026239585195103,30.026239585195103 0 0,0 0.41286629373320866,0.3109623328239411 l -5.4922580117087705 7.162967470410842" fill="#ff2a04" stroke="none" /><path d="M 113.06298171725822 83.55741782278167 l 15.81721666054469 -19.90938136369527 a46.42769767736885,46.42769767736885 0 0,0 0.6214603823611262,0.5025110761966795 l -16.15758044147031 19.63416419023446" fill="#e9ff1a" stroke="none" /><path d="M 113.89432698308785 84.25364557470407 l 10.775765525037384 -12.212108104815506 a37.28658058078137,37.28658058078137 0 0,0 0.4776038326831865,0.4287974366601031 l -10.984380345316561 12.024811659386105" fill="#ff970e" stroke="none" /><path d="M 114.68862486808459 84.99185889309783 l 24.025265177636232 -24.547877909263203 a55.34838681370397,55.34838681370397 0 0,0 0.6751559628648568,0.6722566285964566 l -24.444256940668414 24.13068543001663" fill="#7bff26" stroke="none" /><path d="M 115.4437574822437 85.77008943001954 l 27.276848130285686 -25.132945137941494 a58.09031376558369,58.09031376558369 0 0,0 0.6712373358966061,0.7411970314345474 l -27.705429106798327 24.659695319237397" fill="#5cff2a" stroke="none" /><path d="M 115.68641384162765 86.03803664274999 l 15.39526180287727 -13.702818460432749 a41.610223670273655,41.610223670273655 0 0,0 0.47159865675574963,0.5391187887427307 l -15.628852323210868 13.43578411548707" fill="#ffd413" stroke="none" /><path d="M 116.38621287248628 86.86637796730983 l 20.139797449863867 -16.14213665962924 a46.810463329039436,46.810463329039436 0 0,0 0.4985223385259788,0.6330727441918845 l -20.41467386898381 15.793071521484318" fill="#e4ff1a" stroke="none" /><path d="M 116.82858285166822 87.43820079747576 l 27.658712652004994 -20.64601622116753 a55.51466893033879,55.51466893033879 0 0,0 0.5650266811591224,0.7706957581112869 l -28.010001945677743 20.16685801938475" fill="#79ff26" stroke="none" /><path d="M 117.2510076193507 88.02491185347247 l 19.4289843671706 -13.48696873412722 a44.651295084520946,44.651295084520946 0 0,0 0.43285291692449573,0.6351582443421181 l -19.658261749763827 13.150532466514695" fill="#fffd18" stroke="none" /><path d="M 117.65298651832404 88.62581576622439 l 15.04205733927637 -9.691908576169311 a38.8940375781125,38.8940375781125 0 0,0 0.35777403479352954,0.5659126034230635 l -15.206658970315855 9.431548325032042" fill="#ffae10" stroke="none" /><line stroke="#e1ed5e" stroke-width="0.3" x1="172.23445277983987" x2="176.4835382374775" y1="55.19839476539836" y2="52.563006222186495" /><path d="M 173.08426987136738 54.67131705675599 a86.0,86.0 0 0,1 12.851231095245387,41.99856678651699" fill="none" id="id63" stroke="none" /><text fill="#e1ed5e" style="font-size:6.75px; font-family:Arial;" text-anchor="middle"><textPath startOffset="22.20632615414155" xlink:href="#id63">March</textPath></text><path d="M 117.84615892207809 88.93136811851018 l 20.83948952187674 -12.92517001125967 a45.52232336774753,45.52232336774753 0 0,0 0.4072821612431247,0.669464785449942 l -21.05888748140609 12.564537452602647" fill="#f5ff19" stroke="none" /><path d="M 118.21658344932153 89.55222093294921 l 24.5737202891226 -14.093795422753583 a49.32848033810613,49.32848033810613 0 0,0 0.41610301707390296,0.7402008373521207 l -24.81268094748894 13.668711075466668" fill="#c4ff1e" stroke="none" /><path d="M 118.3937258080291 89.86733742301442 l 17.506410240690865 -9.643861703417045 a40.98695744904661,40.98695744904661 0 0,0 0.3351013634132722,0.6208919333278602 l -17.669819703322602 9.341088786756726" fill="#ffcc13" stroke="none" /><path d="M 118.73160827565052 90.50648371742162 l 10.949685932210548 -5.549497947898462 a33.2756893691466,33.2756893691466 0 0,0 0.2545431575821964,0.5131434732516931 l -11.043589102746152 5.360194886147818" fill="#ff5c08" stroke="none" /><path d="M 119.04729006885535 91.15688171328212 l 23.22887960679675 -10.78451209008006 a46.61028209153778,46.61028209153778 0 0,0 0.33159372143621646,0.7306228107712944 l -23.411075645196313 10.383067270466702" fill="#e7ff1a" stroke="none" /><path d="M 119.196687751892 91.48605970444005 l 27.40228437898983 -12.1532118550858 a50.976419859309885,50.976419859309885 0 0,0 0.3488469101306141,0.8051867653926467 l -27.607421998963122 11.67972594510655" fill="#b0ff20" stroke="none" /><path d="M 119.47837535516314 92.15188598940014 l 15.222148511627651 -6.133219779742566 a37.41128240500033,37.41128240500033 0 0,0 0.23552442100658544,0.5993839615851044 l -15.325466482515937 5.870286813261677" fill="#ff990e" stroke="none" /><path d="M 119.7369772167798 92.82701384747503 l 35.61307040243773 -12.942815814186819 a58.89204751249199,58.89204751249199 0 0,0 0.3380597567825347,0.95574045604066 l -35.83058324003007 12.327877731719544" fill="#53ff2b" stroke="none" /><path d="M 119.85752413597 93.16781622104841 l 17.14648409446442 -5.899422792796656 a39.13298392680835,39.13298392680835 0 0,0 0.21367113523017475,0.6388494977627936 l -17.245492523466364 5.603400192111549" fill="#ffb210" stroke="none" /><path d="M 120.08093135843002 93.85539295169968 l 24.997035819441965 -7.648896345551135 a47.141105850048696,47.141105850048696 0 0,0 0.23075369928657327,0.777986760185625 l -25.12499541584024 7.21748019861898" fill="#e0ff1b" stroke="none" /><path d="M 120.18372546131832 94.20196356495316 l 19.626703722213097 -5.6380247293468875 a41.42045106867771,41.42045106867771 0 0,0 0.19095464916936314,0.6869654721194686 l -19.720845141948825 5.299347953808467" fill="#ffd213" stroke="none" /><path d="M 120.45610955862082 95.25157060432595 l 11.397314620403538 -2.645632280184102 a32.700348316115054,32.700348316115054 0 0,0 0.12255718854603445,0.5493998452021652 l -11.44116619595161 2.4490542654319727" fill="#ff5307" stroke="none" /><path d="M 120.53481517161879 95.60439243477599 l 33.84197672491598 -7.244089984300021 a55.608614944120355,55.608614944120355 0 0,0 0.19230175097304025,0.9377316323213387 l -33.96165777180401 6.66048269581527" fill="#78ff26" stroke="none" /><path d="M 120.6074358757038 95.95851677861258 l 15.56003056530017 -3.0515976287995366 a36.85644346255397,36.85644346255397 0 0,0 0.11673712648423697,0.6236143975717636 l -15.610253415694267 2.78330515376521" fill="#ff910d" stroke="none" /><path d="M 120.73433829027371 96.67025291283417 l 14.095715065180082 -2.2636442756323576 a35.276318454186566,35.276318454186566 0 0,0 0.09112058939514704,0.6003708346221834 l -14.13259154801453 2.020674328618092" fill="#ff7a0b" stroke="none" /><path d="M 120.78858239683441 97.02765380044208 l 17.662928784469724 -2.525441044675328 a38.84255883317692,38.84255883317692 0 0,0 0.08893836359669201,0.6626941132000688 l -17.703783147124252 2.221028589410595" fill="#ffae10" stroke="none" /><path d="M 120.83666639777658 97.38593545837742 l 28.611386555648927 -3.589442267490524 a49.83566431397785,49.83566431397785 0 0,0 0.09945690948716443,0.8520860631749728 l -28.66893381813968 3.0964124659906984" fill="#beff1f" stroke="none" /><path d="M 120.96714384426684 98.82574320788733 l 28.41648480298684 -1.5914542550819466 a49.46101430385784,49.46101430385784 0 0,0 0.040290451802401275,0.8504677581087622 l -28.439668863022735 1.1020753903501845" fill="#c2ff1e" stroke="none" /><path d="M 120.98425023603335 99.18683210126433 l 7.1414811308608765 -0.27674199171865677 a28.146841181418708,28.146841181418708 0 0,0 0.014593876518653294,0.484299713073047 l -7.145186701835175 0.15377213122061067" fill="#ff0d01" stroke="none" /><line stroke="#e1ed5e" stroke-width="0.3" x1="184.98032266829074" x2="189.97916517819016" y1="98.17113171792111" y2="98.06355123074" /><path d="M 185.9800911702706 98.14961562048488 a86.0,86.0 0 0,1 -9.607161424134198,41.387399972396054" fill="none" id="id64" stroke="none" /><text fill="#e1ed5e" style="font-size:6.75px; font-family:Arial;" text-anchor="middle"><textPath startOffset="21.466115282336823" xlink:href="#id64">April</textPath></text><path d="M 120.99513854157772 99.54816195383933 l 15.593951197661317 -0.33559866381079906 a36.5975620023834,36.5975620023834 0 0,0 0.00813336006543272,0.6299377003450346 l -15.597417564844465 0.0671247054053017" fill="#ff8d0d" stroke="none" /><path d="M 120.99980553446 99.90962569577887 l 37.9005948404496 -0.1631081717710137 a58.90094581320648,58.90094581320648 0 0,0 -0.0043634457644019745,1.0139111255386906 l -37.8977870973957 -0.48931243197136154" fill="#53ff2b" stroke="none" /><path d="M 120.9764740272857 100.99374915477107 l 34.79379241130737 1.6483371683458585 a55.832815071161,55.832815071161 0 0,0 -0.053742139657614964,0.959602005514088 l -34.76026392076223 -2.24701089019537" fill="#76ff27" stroke="none" /><path d="M 120.95626037817324 101.35467743843564 l 14.49902454451651 0.9372617573619434 a35.52928671147711,35.52928671147711 0 0,0 -0.04470504871993535,0.609964871456944 l -14.480742937132238 -1.1866997653156577" fill="#ff7e0b" stroke="none" /><path d="M 120.92983693683757 101.71520430193887 l 21.24573636690091 1.7410923230954531 a42.316958419282,42.316958419282 0 0,0 -0.06574323108358529,0.7254710767122754 l -21.21261853954025 -2.1065447883562993" fill="#ffde14" stroke="none" /><path d="M 120.89721153311464 102.0752229133903 l 55.75264899553909 5.536584366503032 a77.026883158598,77.026883158598 0 0,0 -0.14238125365543625,1.3182735771881207 l -55.649085440382606 -6.495454265575944" fill="#44ffe3" stroke="none" /><path d="M 120.8583938346157 102.4346265915055 l 15.998137690555136 1.8673293708431735 a37.106747919588685,37.106747919588685 0 0,0 -0.07951179300662614,0.6337872226137907 l -15.963624388301662 -2.1424343477443593" fill="#ff950d" stroke="none" /><path d="M 120.70491114924044 103.5080841355445 l 22.955823163884993 3.8894617068928676 a44.28299227979395,44.28299227979395 0 0,0 -0.1338054001913889,0.7504517435144914 l -22.885471321354416 -4.284032201140577" fill="#fff917" stroke="none" /><path d="M 120.64145759157962 103.86396538481128 l 33.64337680461846 6.297851923705173 a55.22776273247284,55.22776273247284 0 0,0 -0.182961864519155,0.9329186054330126 l -33.52998500712364 -6.876034256206131" fill="#7dff26" stroke="none" /><path d="M 120.5718875245553 104.21870165774334 l 26.944476779199558 5.525536182314571 a48.50520639818745,48.50520639818745 0 0,0 -0.1747710985232451,0.8164723880059848 l -26.84537164195187 -5.988522389736725" fill="#ceff1d" stroke="none" /><path d="M 120.49622156327973 104.57218783832717 l 20.102013929081025 4.484250100862026 a41.59610310160756,41.59610310160756 0 0,0 -0.16190675842951324,0.6974900778207902 l -20.02184660472096 -4.8296088360313805" fill="#ffd413" stroke="none" /><path d="M 120.41448212921028 104.9243191809786 l 19.589508247071652 4.725321494634707 a41.15136463343724,41.15136463343724 0 0,0 -0.17202972457781762,0.6871732356072868 l -19.505267208198777 -5.061822569639389" fill="#ffce13" stroke="none" /><path d="M 120.32669344350535 105.2749913415812 l 24.829816575855943 6.443599290495452 a46.65228572675589,46.65228572675589 0 0,0 -0.20840669843238188,0.7755588540616876 l -24.715221801081785 -6.870049077732688" fill="#e6ff1a" stroke="none" /><path d="M 120.23288151984713 105.62410040840565 l 17.915548974161204 4.979955336740039 a39.594807076210664,39.594807076210664 0 0,0 -0.18818348987048564,0.6550914155936988 l -17.82717284740462 -5.28760422783832" fill="#ffb811" stroke="none" /><path d="M 120.13307415673323 105.97154293290107 l 19.37945475561714 5.748016680834556 a41.21392990954911,41.21392990954911 0 0,0 -0.20758716115424,0.6784068535648172 l -19.277640821956766 -6.08075050695143" fill="#ffcf13" stroke="none" /><path d="M 120.02730092923936 106.31721596034902 l 36.77819843051274 11.600955262968753 a59.56446606407992,59.56446606407992 0 0,0 -0.31684821063988167,0.9751585216698078 l -36.57305796885661 -12.232312684616355" fill="#4cff2c" stroke="none" /><path d="M 119.9155931802556 106.66101706037122 l 19.168081799301966 6.411002611075773 a41.21178652034381,41.21178652034381 0 0,0 -0.23080399847631416,0.6708244565290443 l -19.05488696988242 -6.7399997706941175" fill="#ffcf13" stroke="none" /><path d="M 119.79798401119884 107.00284435728193 l 24.40283055643408 8.631647756012272 a46.88442547459581,46.88442547459581 0 0,0 -0.2756709087057662,0.7585279448140854 l -24.250635386723086 -9.050423497832488" fill="#e3ff1b" stroke="none" /><path d="M 119.67450827220406 107.3425965602758 l 13.833212848061354 5.162604303520898 a35.765170533878106,35.765170533878106 0 0,0 -0.22022100673067585,0.574927557163377 l -13.742297561737173 -5.399955427517419" fill="#ff810b" stroke="none" /><path d="M 119.54520255179757 107.68017299344265 l 23.587581500322056 9.268602151311034 a46.34326314572815,46.34326314572815 0 0,0 -0.29813589036998117,0.7399488299518805 l -23.42454299569468 -9.673250349105729" fill="#eaff1a" stroke="none" /><path d="M 119.12269723197855 108.67885076344098 l 57.368091695935625 26.036552290322952 a84.0,84.0 0 0,0 -0.6089015326406746,1.3115197308846775 l -56.911415546455125 -27.02019208848646" fill="#4dd2ff" stroke="none" /><path d="M 118.81262510543309 109.33194174019688 l 26.90722112745179 13.347239874538186 a51.03576802863629,51.03576802863629 0 0,0 -0.39715871903424493,0.7836318311120029 l -26.673483738631276 -13.808425917352881" fill="#afff20" stroke="none" /><path d="M 118.64920377521936 109.65438752849418 l 7.600217037334574 3.934507953449013 a29.558250513413608,29.558250513413608 0 0,0 -0.23779963264292836,0.4498272878290262 l -7.531364896466753 -4.0647502563641735" fill="#ff2303" stroke="none" /><line stroke="#e1ed5e" stroke-width="0.3" x1="174.80103733775053" x2="179.2010983576182" y1="140.37084112569926" y2="142.7455964860345" /><path d="M 175.68104954172406 140.8457921977663 a86.0,86.0 0 0,1 -30.038265399797805,32.042727171017184" fill="none" id="id65" stroke="none" /><text fill="#e1ed5e" style="font-size:6.75px; font-family:Arial;" text-anchor="middle"><textPath startOffset="22.206326154141568" xlink:href="#id65">May</textPath></text><path d="M 118.48025628344425 109.97397251340804 l 20.780254681207538 11.215303826584954 a44.61359829713504,44.61359829713504 0 0,0 -0.3705554286797292,0.6726657381538302 l -20.5841228430763 -11.571340083136588" fill="#fffd17" stroke="none" /><path d="M 118.30583269289576 110.29060199501025 l 22.008682461626947 12.372154572081278 a46.247817974078416,46.247817974078416 0 0,0 -0.3960751307117193,0.6905903756680045 l -21.792455334762845 -12.749164793607598" fill="#ecff1a" stroke="none" /><path d="M 117.94076556474637 110.91462005526583 l 14.165797507911359 8.618043473155979 a37.58132963125557,37.58132963125557 0 0,0 -0.3409796277642068,0.549767730232984 l -14.015353240479188 -8.860607534754235" fill="#ff9c0e" stroke="none" /><path d="M 117.55443506779139 111.5257021239791 l 19.401356664092162 12.738334036262279 a44.20943330688432,44.20943330688432 0 0,0 -0.42314089553502787,0.6325382263142402 l -19.179212663146412 -13.070409176782325" fill="#fff817" stroke="none" /><path d="M 117.35343817320211 111.8261652097733 l 18.463825454752982 12.58288115893489 a43.343718327159934,43.343718327159934 0 0,0 -0.4254683226752686,0.6129188517407029 l -18.244496224915576 -12.898841272862613" fill="#ffec16" stroke="none" /><path d="M 116.93607887273984 112.41649034213515 l 13.76691739033165 10.093056255965102 a38.07037782295085,38.07037782295085 0 0,0 -0.39201382270829294,0.5251665775010984 l -13.591142300928265 -10.328535712975516" fill="#ffa30f" stroke="none" /><path d="M 116.498646956653 112.99209946851258 l 19.0768613780705 15.022351906922529 a45.281632911596716,45.281632911596716 0 0,0 -0.48749362448663947,0.6082232521184994 l -18.815449841529006 -15.348502992619277" fill="#f8ff18" stroke="none" /><path d="M 116.27256486870786 113.27417163493432 l 15.239857183463895 12.431751329761338 a40.66727454675403,40.66727454675403 0 0,0 -0.4471541126796663,0.5386259342401584 l -15.023607070890685 -12.692238521115268" fill="#ffc712" stroke="none" /><path d="M 116.0416608686014 113.55231037782055 l 17.22664330159857 14.55340682636072 a43.55125029114957,43.55125029114957 0 0,0 -0.48872277850796186,0.5684950030929652 l -16.97357801351983 -14.847778928615211" fill="#ffef16" stroke="none" /><path d="M 115.80600337817218 113.82643327865902 l 19.504153656274294 17.061421077361256 a46.913396130700136,46.913396130700136 0 0,0 -0.5369152187121745,0.6032299400222821 l -19.20757958791378 -17.394625187124404" fill="#e3ff1b" stroke="none" /><path d="M 115.32070863581623 114.36230785411682 l 16.442201005189666 15.413644254270611 a43.53722261265282,43.53722261265282 0 0,0 -0.5172500863339277,0.5423346475825297 l -16.174444367476777 -15.69438601843565" fill="#ffef16" stroke="none" /><path d="M 115.07121518719521 114.62390073753431 l 11.709471065871323 11.361933356363966 a37.31579732152045,37.31579732152045 0 0,0 -0.4512712649203644,0.45713540884057086 l -11.512159175895423 -11.561809259185203" fill="#ff980e" stroke="none" /><path d="M 114.81725581225074 114.88116024355365 l 23.76824314755087 23.870751741629256 a54.68593432030044,54.68593432030044 0 0,0 -0.6727673207630385,0.6584444221176644 l -23.35382587441204 -24.276346266669492" fill="#83ff25" stroke="none" /><path d="M 114.55890576462653 115.13401014063108 l 13.135384021819737 13.654256590512576 a39.94668932664051,39.94668932664051 0 0,0 -0.49964589623007905,0.47244638120994725 l -12.89840229119885 -13.878337608468446" fill="#ffbd11" stroke="none" /><path d="M 114.29624159901734 115.38237550388516 l 12.006301727287179 12.918461142596446 a38.63626716341736,38.63626716341736 0 0,0 -0.4910493863254621,0.44856197173973505 l -11.782152791494854 -13.123215880922762" fill="#ffab0f" stroke="none" /><path d="M 114.0293411484842 115.62618273729858 l 19.704863311030323 21.947701724034157 a50.49547845134167,50.49547845134167 0 0,0 -0.6517707418036559,0.5751118995569996 l -19.324150216320078 -22.283636765363443" fill="#b5ff1f" stroke="none" /><path d="M 113.20401910651253 116.32954008644616 l 10.421514213509472 12.888388962345212 a37.57463509544273,37.57463509544273 0 0,0 -0.5064389965545106,0.4023457679332303 l -10.19811772423761 -13.065868644283569" fill="#ff9b0e" stroke="none" /><path d="M 112.92097659922987 116.55440617244103 l 19.220837174940268 24.625812385364128 a52.238937519459895,52.238937519459895 0 0,0 -0.7136119251598284,0.5471671942390104 l -18.794096521286946 -24.953018921430512" fill="#a0ff22" stroke="none" /><path d="M 112.63410532772338 116.77436683061366 l 8.24014214609814 10.940479243254632 a34.696496948489724,34.696496948489724 0 0,0 -0.480158261288454,0.35520960273839297 l -8.050598914391122 -11.080698794732795" fill="#ff710a" stroke="none" /><path d="M 112.34349029814194 116.9893568818739 l 19.48823469870084 26.823253901190814 a54.155365199608276,54.155365199608276 0 0,0 -0.7588782870765833,0.541439508360935 l -19.023629083775372 -27.154737671395967" fill="#89ff24" stroke="none" /><path d="M 112.04921762599082 117.19931262002967 l 12.474913959064983 17.80696072972515 a42.74192559816283,42.74192559816283 0 0,0 -0.6062089655892262,0.4169560542407388 l -12.166548108852872 -18.019057573330986" fill="#ffe415" stroke="none" /><path d="M 111.45004920935366 117.60387380957326 l 16.89918628547246 25.98164753832713 a51.994007580772134,51.994007580772134 0 0,0 -0.7544533473510058,0.48152782200408 l -16.449451136074522 -26.26868978915502" fill="#a3ff21" stroke="none" /><line stroke="#e1ed5e" stroke-width="0.3" x1="143.8653032363475" x2="146.44561519142675" y1="172.8068346515853" y2="177.08958963109032" /><path d="M 144.38136562736335 173.6633856474863 a86.0,86.0 0 0,1 -40.68145358897372,12.25698825130547" fill="none" id="id66" stroke="none" /><text fill="#e1ed5e" style="font-size:6.75px; font-family:Arial;" text-anchor="middle"><textPath startOffset="21.466115282336833" xlink:href="#id66">June</textPath></text><path d="M 110.5260780823613 118.17145234162733 l 15.969734452891352 27.568983076939205 a52.8603397093067,52.8603397093067 0 0,0 -0.7912720461230889,0.44930491872055883 l -15.492813639847064 -27.839791161454393" fill="#99ff23" stroke="none" /><path d="M 110.21172684928248 118.3499491758327 l 7.4156022195790925 13.32545668777163 a36.24988367879257,36.24988367879257 0 0,0 -0.5478517215268452,0.29873244015409406 l -7.185127686183598 -13.451129779685495" fill="#ff880c" stroke="none" /><path d="M 109.89434966115114 118.52300852407294 l 13.526840403504274 25.323319740929094 a49.70968362771009,49.70968362771009 0 0,0 -0.7582125665945361,0.3966609795033181 l -13.088936934383243 -25.55241013937713" fill="#bfff1e" stroke="none" /><path d="M 109.57404056367764 118.69057910512821 l 16.174876034258777 31.576824646106164 a56.47847896196477,56.47847896196477 0 0,0 -0.8690857036466827,0.4357776137317005 l -15.628936422929332 -31.85057010074717" fill="#6eff28" stroke="none" /><path d="M 109.2508944713604 118.85261126421891 l 11.968612897808734 24.39111234409348 a48.16935877196558,48.16935877196558 0 0,0 -0.7475135149683546,0.35885191350630563 l -11.546986714840147 -24.593518534099342" fill="#d3ff1c" stroke="none" /><path d="M 108.2653958097858 119.30500536409082 l 8.760455105875412 20.461286634400683 a43.257803674153536,43.257803674153536 0 0,0 -0.6870339107040854,0.28718023039440765 l -8.406949735673866 -20.609051907815065" fill="#ffeb16" stroke="none" /><path d="M 107.93186726928326 119.44442032107085 l 15.31150158451572 37.53508000682526 a61.53793669997773,61.53793669997773 0 0,0 -0.984252188637727,0.3916542585091241 l -14.663128319836126 -37.793081109740456" fill="#36ff2e" stroke="none" /><path d="M 107.59598834532513 119.57807347666477 l 5.547055540910454 14.297107370619187 a36.33548513549405,36.33548513549405 0 0,0 -0.5850528365444247,0.22121692179987695 l -5.300132483605754 -14.390472542525695" fill="#ff890c" stroke="none" /><path d="M 106.57524785965236 119.94407469862006 l 3.788956487611805 11.492681771352448 a33.10115389384799,33.10115389384799 0 0,0 -0.5426676542148461,0.17374504599989685 l -3.5905674883060184 -11.556199664012052" fill="#ff5908" stroke="none" /><path d="M 105.88484417918355 120.15858648285463 l 13.747955652227894 47.09374531244356 a70.05942449895764,70.05942449895764 0 0,0 -1.160547150653141,0.3279822171667356 l -12.935277333470149 -47.323416322948816" fill="#3aff93" stroke="none" /><path d="M 105.53697534728816 120.25689768951611 l 6.2816471310352595 22.981262381336993 a44.82430505426545,44.82430505426545 0 0,0 -0.7460249052761274,0.19703195799827547 l -5.885131782947635 -23.085985688638853" fill="#feff18" stroke="none" /><path d="M 105.18746579009965 120.34920634021253 l 8.477627569378368 33.2557359730445 a55.31929696706986,55.31929696706986 0 0,0 -0.9247455947907008,0.22727996825101365 l -7.903928689844457 -33.39673719960955" fill="#7cff26" stroke="none" /><path d="M 104.48393922423573 120.51570834832081 l 3.448839985653932 15.779740033778674 a37.15223491595769,37.15223491595769 0 0,0 -0.6259418066784488,0.13117219150765888 l -3.176706717546105 -15.836768206012874" fill="#ff950d" stroke="none" /><path d="M 103.41894727170886 120.7198165907248 l 4.294638386513113 26.02675988260032 a47.37870635299323,47.37870635299323 0 0,0 -0.8058083208529756,0.12585068743211408 l -3.84599420205162 -26.09682887737954" fill="#ddff1b" stroke="none" /><path d="M 103.06178313531738 120.77559828337769 l 4.041471392754118 27.423230979720906 a48.719435210436274,48.719435210436274 0 0,0 -0.8307160382087073,0.1151296733939475 l -3.5688267633585804 -27.488735218607456" fill="#ccff1d" stroke="none" /><path d="M 102.34483914955558 120.86867818915974 l 2.2819815515739252 20.309256028253092 a41.437057523598114,41.437057523598114 0 0,0 -0.7094959608602119,0.07354215729712235 l -1.9320529941081108 -20.345527554005972" fill="#ffd213" stroke="none" /><path d="M 101.98527174616119 120.90594882070398 l 1.9116446687436812 20.130617224268978 a41.22118036044313,41.22118036044313 0 0,0 -0.7069543969625884,0.060999000078897386 l -1.5648459540395512 -20.160540476626537" fill="#ffcf13" stroke="none" /><path d="M 101.62511606390274 120.93702456842531 l 1.3472006687926046 17.35652863671281 a38.40873447321852,38.40873447321852 0 0,0 -0.6596009505903169,0.04548994339920822 l -1.0482369574233574 -17.377146924628303" fill="#ffa70f" stroke="none" /><line stroke="#e1ed5e" stroke-width="0.3" x1="102.19456741930631" x2="102.32365962044197" y1="184.97166512339345" y2="189.96999836594603" /><path d="M 102.22038585953345 185.97133177190398 a86.0,86.0 0 0,1 -42.740103519485714,-10.115201625700543" fill="none" id="id67" stroke="none" /><text fill="#e1ed5e" style="font-size:6.75px; font-family:Arial;" text-anchor="middle"><textPath startOffset="22.20632615414155" xlink:href="#id67">July</textPath></text><path d="M 100.54218724476979 120.99299961872073 l 0.588046344601373 22.768622476997226 a43.776214962179786,43.776214962179786 0 0,0 -0.7534518433931187,0.012971356773074027 l -0.1960348113155864 -22.77537131104946" fill="#fff216" stroke="none" /><path d="M 99.81925306533755 120.99922214144158 l -0.25151138651354005 29.220653099114983 a50.221735498022085,50.221735498022085 0 0,0 -0.8643885548825481,-0.014881232867451251 l 0.7544596312887559 -29.21199438896837" fill="#b9ff1f" stroke="none" /><path d="M 99.45781275523022 120.99299961872073 l -0.25788837369174916 9.985204526311188 a30.988534219070925,30.988534219070925 0 0,0 -0.5331203211802016,-0.018361741798466186 l 0.42972904654659383 -9.979285986086628" fill="#ff3905" stroke="none" /><path d="M 98.73552117531835 120.96189622390904 l -1.1054034654260532 18.32482464357921 a39.358134846419006,39.358134846419006 0 0,0 -0.6759051948525304,-0.04661437954198692 l 1.4206714210575135 -18.303081919520935" fill="#ffb510" stroke="none" /><path d="M 98.01472825383883 120.90594882070398 l -1.32127754197492 13.913742903905039 a34.97633771554248,34.97633771554248 0 0,0 -0.5988738539344506,-0.06207572360775538 l 1.560583992514964 -13.888937811841522" fill="#ff750a" stroke="none" /><path d="M 97.65516085044442 120.86867818915974 l -3.215426780858433 28.616763219455063 a49.79684195430842,49.79684195430842 0 0,0 -0.8509867140973977,-0.10304263991770721 l 3.70754091800722 -28.557175050812006" fill="#beff1f" stroke="none" /><path d="M 97.2962882734958 120.8252237178851 l -2.5669524851910417 19.77184152187818 a40.93777726396537,40.93777726396537 0 0,0 -0.6980308370756094,-0.09674071354720198 l 2.906911913453482 -19.724726242838372" fill="#ffcb12" stroke="none" /><path d="M 96.93821686468263 120.77559828337769 l -3.9804956208348745 27.009482491854424 a48.30121773594131,48.30121773594131 0 0,0 -0.8214982247292596,-0.12830112773841915 l 4.444829709172652 -26.9369630567689" fill="#d1ff1c" stroke="none" /><path d="M 96.58105272829116 120.7198165907248 l -2.5683274666544658 15.564812740561376 a36.775287687541976,36.775287687541976 0 0,0 -0.6236931683013968,-0.10843705185293041 l 2.8358696064279125 -15.51829711018744" fill="#ff900d" stroke="none" /><path d="M 95.51606077576429 120.51570834832081 l -2.392468852057454 10.946444799242085 a32.20484542289269,32.20484542289269 0 0,0 -0.5405504334993888,-0.1230275187833398 l 2.5805394349497055 -10.903640546881059" fill="#ff4c07" stroke="none" /><path d="M 95.16358092515715 120.4354850818985 l -3.4535077426866136 14.592223060857567 a35.995322256844624,35.995322256844624 0 0,0 -0.6017161734702339,-0.14788719575721646 l 3.7041772009000584 -14.530614606786319" fill="#ff840c" stroke="none" /><path d="M 94.81253420990036 120.34920634021253 l -4.602500678505008 18.054526001234144 a39.63193284726195,39.63193284726195 0 0,0 -0.6596066333319675,-0.17420810693437203 l 4.9125977546484645 -17.97262654499619" fill="#ffb911" stroke="none" /><path d="M 94.11515582081647 120.15858648285463 l -1.7804475245959195 6.0989389540184655 a27.353506886175822,27.353506886175822 0 0,0 -0.45084444143459607,-0.13583573187089712 l 1.8851669404707614 -6.067387853041843" fill="#ff0000" stroke="none" /><path d="M 93.76903079525671 120.05430185196036 l -7.472448921332818 24.049989867978777 a46.18411216485127,46.18411216485127 0 0,0 -0.7571525721087683,-0.24241634349906532 l 7.8853228385325265 -23.917800677820004" fill="#ecff1a" stroke="none" /><path d="M 93.08242187328487 119.8279376855182 l -5.703075185140247 16.346793244022688 a38.31307933125093,38.31307933125093 0 0,0 -0.6208186413555337,-0.22260347712081408 l 5.983613387125507 -16.246202225861914" fill="#ffa60f" stroke="none" /><path d="M 92.7421414339146 119.70592522655815 l -4.756277068889466 12.91384220606017 a34.761885484157496,34.761885484157496 0 0,0 -0.5597156507006904,-0.21163656613058865 l 4.977862940350439 -12.830057389822949" fill="#ff720a" stroke="none" /><path d="M 92.06813273071674 119.44442032107085 l -9.909078518466165 24.29141602680409 a47.23476185659786,47.23476185659786 0 0,0 -0.7501971991912393,-0.3135824901047335 l 10.325747177154867 -24.117248493679384" fill="#dfff1b" stroke="none" /><path d="M 91.7346041902142 119.30500536409082 l -11.716670158941644 27.365946589013163 a50.76869819669908,50.76869819669908 0 0,0 -0.8004031594032274,-0.3508732234017647 l 12.185993993002615 -27.16020881231695" fill="#b2ff20" stroke="none" /><path d="M 91.07499286063937 119.00905698771935 l -7.476783942590952 15.924537631211125 a38.59241873342165,38.59241873342165 0 0,0 -0.5988943036405838,-0.2875056604943806 l 7.749790914231778 -15.793477694217183" fill="#ffaa0f" stroke="none" /><line stroke="#e1ed5e" stroke-width="0.3" x1="58.666819895761336" x2="56.23545636021788" y1="174.27360380694188" y2="178.64263932499728" /><path d="M 58.180547188652646 175.14741091055294 a86.0,86.0 0 0,1 -31.652253787137756,-30.449443065178592" fill="none" id="id68" stroke="none" /><text fill="#e1ed5e" style="font-size:6.75px; font-family:Arial;" text-anchor="middle"><textPath startOffset="22.20632615414155" xlink:href="#id68">August</textPath></text><path d="M 89.7882731507175 118.34994917583269 l -5.6843651730333695 10.214512546363766 a32.68966526382246,32.68966526382246 0 0,0 -0.4893350754578843,-0.27785722670597424 l 5.8593490154124614 -10.115152153863159" fill="#ff5307" stroke="none" /><path d="M 89.1626897886671 117.98757091392108 l -9.909040851382994 16.446846267886837 a40.201245864627644,40.201245864627644 0 0,0 -0.5896580911876463,-0.36221616025978665 l 10.19067814250295 -16.273841640798672" fill="#ffc111" stroke="none" /><path d="M 88.8546689885994 117.79835938074946 l -12.367443551625296 19.749992595805164 a44.30270086356938,44.30270086356938 0 0,0 -0.6428494843619557,-0.4102969562904492 l 12.705574838034176 -19.53418121069091" fill="#fff917" stroke="none" /><path d="M 88.54995079064634 117.60387380957326 l -7.538253756363399 11.589685375601421 a34.8255588241762,34.8255588241762 0 0,0 -0.49970580972590833,-0.33117776256136594 l 7.736634264829269 -11.458209591948737" fill="#ff730a" stroke="none" /><path d="M 88.24862548938628 117.40417183066458 l -4.83304673888029 7.157901046650649 a29.63677533422306,29.63677533422306 0 0,0 -0.420338547394118,-0.28911268574917987 l 4.9555421708972975 -7.073647571536368" fill="#ff2403" stroke="none" /><path d="M 87.95078237400918 117.19931262002967 l -9.059235084953267 12.931347176297658 a36.788903702233085,36.788903702233085 0 0,0 -0.5155223332364813,-0.36781149679734676 l 9.280484746038635 -12.773491417656093" fill="#ff900d" stroke="none" /><path d="M 87.65650970185807 116.9893568818739 l -10.879452654108174 14.97428193773662 a39.50923038928973,39.50923038928973 0 0,0 -0.5467607694439617,-0.4044805460307508 l 11.135598393970701 -14.784791442966103" fill="#ffb711" stroke="none" /><path d="M 87.36589467227662 116.77436683061367 l -20.4496816553742 27.15114784612381 a54.99079741883414,54.99079741883414 0 0,0 -0.7512038084141922,-0.575991047318319 l 20.91401419228188 -26.795117456978126" fill="#7fff26" stroke="none" /><path d="M 86.51685102203217 116.09983520530335 l -11.615979205042446 13.870302201288935 a39.091883706431986,39.091883706431986 0 0,0 -0.512167942536871,-0.43648063187614794 l 11.853012624156374 -13.668297179189835" fill="#ffb110" stroke="none" /><path d="M 85.70375840098266 115.38237550388516 l -10.114285332055829 10.88270185233961 a35.8570510999039,35.8570510999039 0 0,0 -0.44849344801724267,-0.424078548649874 l 10.300114614463888 -10.706988666943804" fill="#ff820c" stroke="none" /><path d="M 85.18274418774928 114.88116024355367 l -23.419334002013812 23.52033780729703 a54.19143708348957,54.19143708348957 0 0,0 -0.6553534994793051,-0.6638696349798293 l 23.82072812654865 -23.113727678336534" fill="#89ff24" stroke="none" /><path d="M 84.67929136418377 114.36230785411682 l -13.287530109772012 12.456316649169478 a39.213134845008824,39.213134845008824 0 0,0 -0.4573999159063217,-0.49641727113577544 l 13.499976433674064 -12.225748123232359" fill="#ffb310" stroke="none" /><path d="M 84.43433777217949 114.09645910891817 l -4.741533851086548 4.293992575910569 a27.39691452991008,27.39691452991008 0 0,0 -0.31355266448594016,-0.35227974249893107 l 4.814745365220827 -4.211738663670774" fill="#ff0100" stroke="none" /><path d="M 83.95833913139862 113.55231037782056 l -18.252431149897216 15.420012561004475 a44.894100323370076,44.894100323370076 0 0,0 -0.4936298736117634,-0.5946089822357544 l 18.515157023402516 -15.10354232165496" fill="#fdff18" stroke="none" /><path d="M 83.72743513129214 113.27417163493432 l -26.724911095162852 21.800561845523124 a55.48891662295058,55.48891662295058 0 0,0 -0.5973833394252572,-0.7453275678205235 l 27.09621234664297 -21.337306444124337" fill="#7aff26" stroke="none" /><path d="M 83.50135304334701 112.99209946851258 l -20.755337391558793 16.344092252057873 a47.41805030242044,47.41805030242044 0 0,0 -0.4994547365574338,-0.6456125741765113 l 21.033598945334294 -15.984401683768109" fill="#dcff1b" stroke="none" /><path d="M 83.28015986056508 112.70617746262583 l -9.838648357346141 7.476842540256324 a33.357272185692786,33.357272185692786 0 0,0 -0.34348258494959427,-0.46015105366179027 l 9.96589220899082 -7.306378607085225" fill="#ff5d08" stroke="none" /><path d="M 83.06392112726016 112.41649034213515 l -14.530260540660716 10.652692457769271 a39.016890075129396,39.016890075129396 0 0,0 -0.39243598202509195,-0.5450592556119038 l 14.711476315061416 -10.40099959670623" fill="#ffb010" stroke="none" /><path d="M 82.85270091963577 112.12312394758628 l -13.024880918733388 9.208578274649323 a36.951345924013076,36.951345924013076 0 0,0 -0.3627198537102018,-0.5225250021945714 l 13.181461679605723 -8.983012010267739" fill="#ff920d" stroke="none" /><path d="M 82.44556493220864 111.52570212397912 l -12.141565940181884 7.971778744503545 a35.524698958364105,35.524698958364105 0 0,0 -0.331217299335344,-0.5140566039399941 l 12.276988102894274 -7.761600540642102" fill="#ff7e0b" stroke="none" /><path d="M 82.24976979558568 111.22182372390057 l -33.73243197934703 21.32588710632943 a60.908275183389996,60.908275183389996 0 0,0 -0.5526276266319292,-0.8910116945976877 l 34.09452424564691 -20.74207908036648" fill="#3dff2e" stroke="none" /><line stroke="#e1ed5e" stroke-width="0.3" x1="26.63291911575756" x2="22.317208475507996" y1="142.92168965132927" y2="145.44649492493687" /><path d="M 25.769776987707644 143.4266507060508 a86.0,86.0 0 0,1 -11.730757126820373,-40.83630448921669" fill="none" id="id69" stroke="none" /><text fill="#e1ed5e" style="font-size:6.75px; font-family:Arial;" text-anchor="middle"><textPath startOffset="21.46611528233685" xlink:href="#id69">September</textPath></text><path d="M 81.69416730710424 110.29060199501025 l -18.89219299292739 10.620223737682576 a42.672658081565615,42.672658081565615 0 0,0 -0.3544342019444969,-0.643401028902528 l 19.072203604323406 -10.293452190382224" fill="#ffe315" stroke="none" /><path d="M 81.51974371655577 109.97397251340807 l -13.26104015628198 7.157111242902435 a36.069154832630915,36.069154832630915 0 0,0 -0.29018063044862963,-0.5489123953829776 l 13.382273294955496 -6.927783832433331" fill="#ff860c" stroke="none" /><path d="M 80.58989483394504 108.01547362559985 l -21.642468476530286 8.937336185580431 a44.41521769814862,44.41521769814862 0 0,0 -0.28573237134328006,-0.709164312932793 l 21.793103462130954 -8.563472504804833" fill="#fffa17" stroke="none" /><path d="M 80.45479744820244 107.68017299344265 l -16.86942053331259 6.628740103952451 a39.12505295152254,39.12505295152254 0 0,0 -0.24090919799232027,-0.6289378963256576 l 16.98102401089842 -6.337378640793635" fill="#ffb210" stroke="none" /><path d="M 80.0844068197444 106.66101706037122 l -15.186477422537024 5.079305661794164 a37.013383231258814,37.013383231258814 0 0,0 -0.1968896058588965,-0.6059638985928527 l 15.27165927941217 -4.817142863223508" fill="#ff930d" stroke="none" /><path d="M 79.97269907076064 106.31721596034903 l -32.165327759082764 10.145916447127194 a54.727554468139346,54.727554468139346 0 0,0 -0.2756528604257926,-0.9008494970392587 l 32.33520739201469 -9.590739977535886" fill="#82ff25" stroke="none" /><path d="M 79.76711848015287 105.62410040840567 l -21.457170505016474 5.964413980387166 a43.27070722295964,43.27070722295964 0 0,0 -0.19330039441131902,-0.7193426771162814 l 21.55665897576957 -5.594180370095345" fill="#ffeb16" stroke="none" /><path d="M 79.67330655649465 105.27499134158121 l -13.547432611037198 3.515701652238447 a34.996181209820996,34.996181209820996 0 0,0 -0.1462985120524835,-0.5843898322708726 l 13.60594243738474 -3.2819839805701827" fill="#ff760a" stroke="none" /><path d="M 79.35854240842038 103.8639653848113 l -39.456420698319285 7.3860212201802415 a61.14177928029239,61.14177928029239 0 0,0 -0.18474587700222048,-1.0361529901268842 l 39.5777130176607 -6.705749479320144" fill="#3aff2e" stroke="none" /><path d="M 79.23777060512086 103.15116336523772 l -26.352742619955155 3.9996570473314934 a47.65453620098968,47.65453620098968 0 0,0 -0.11610902705178446,-0.812066264771337 l 26.41768569802354 -3.5454453105797556" fill="#d9ff1c" stroke="none" /><path d="M 79.18660465613746 102.79330883721812 l -17.884097027956077 2.400175725705756 a39.04443875601606,39.04443875601606 0 0,0 -0.08366384839640922,-0.6668831893140752 l 17.922762385599334 -2.091974782104272" fill="#ffb010" stroke="none" /><path d="M 79.0235259727143 100.99374915477108 l -39.665907444800695 1.8791509929278185 a60.710394380737604,60.710394380737604 0 0,0 -0.040467430242512696,-1.0442845615750485 l 39.69237700789441 -1.1960891843387733" fill="#3fff2d" stroke="none" /><path d="M 79.0095281055655 100.63252640178507 l -22.328388000669836 0.6728431352450659 a43.338523420161486,43.338523420161486 0 0,0 -0.016051634213635826,-0.7458563682221133 l 22.33666169756848 -0.2883969512328238" fill="#ffec16" stroke="none" /><line stroke="#e1ed5e" stroke-width="0.3" x1="15.007084014347285" x2="10.007500721073583" y1="101.09737516637583" y2="101.16192664675087" /><path d="M 14.007167355692545 101.11028546245083 a86.0,86.0 0 0,1 10.666146001902534,-42.60595125391555" fill="none" id="id70" stroke="none" /><text fill="#e1ed5e" style="font-size:6.75px; font-family:Arial;" text-anchor="middle"><textPath startOffset="22.20632615414155" xlink:href="#id70">October</textPath></text><path d="M 79.00175016825051 100.2711162175752 l -18.909696158562785 0.24415012389529106 a39.91127224943267,39.91127224943267 0 0,0 -0.002956670210372646,-0.6870260300477422 l 18.91109712606266 0.08138538435612652" fill="#ffbd11" stroke="none" /><path d="M 79.01574976396665 99.18683210126434 l -18.792461438728925 -0.7282331371535649 a39.80656615196305,39.80656615196305 0 0,0 0.03242603407022027,-0.6844623295690628 l 18.777141796425205 1.0516065733456368" fill="#ffbb11" stroke="none" /><path d="M 79.03285615573316 98.82574320788736 l -38.50725705156328 -2.1565840571456625 a59.567599101197686,59.567599101197686 0 0,0 0.06614672411076089,-1.0232605447603575 l 38.4644297364481 2.819103666159032" fill="#4cff2c" stroke="none" /><path d="M 79.08570108090925 98.10471618934814 l -28.315134559276373 -2.56595816738754 a49.43116224192585,49.43116224192585 0 0,0 0.0840868188642705,-0.8467427906733324 l 28.266770614729875 3.0529764887653026" fill="#c3ff1e" stroke="none" /><path d="M 79.12142395522702 97.74499172005258 l -15.24909638193494 -1.6469915634686418 a36.33778085890127,36.33778085890127 0 0,0 0.0725192175442617,-0.621300369179404 l 15.21848681138709 1.9092356709729075" fill="#ff890c" stroke="none" /><path d="M 79.21141760316559 97.0276538004421 l -20.2446034282008 -2.894568225610831 a41.45048882491163,41.45048882491163 0 0,0 0.10706879680054852,-0.7054495951335755 l 20.19177873796095 3.2426169331364987" fill="#ffd213" stroke="none" /><path d="M 79.26566170972629 96.67025291283419 l -39.22898301005177 -6.299819655757754 a60.731610031535375,60.731610031535375 0 0,0 0.1746413750801986,-1.030743281604773 l 39.11472977345135 6.974148725678355" fill="#3fff2d" stroke="none" /><path d="M 79.32604984820605 96.31383870115002 l -25.96826247482095 -4.630136158316948 a47.37780917373063,47.37780917373063 0 0,0 0.1500619371394005,-0.801636868629587 l 25.884714813771687 5.076451104409108" fill="#ddff1b" stroke="none" /><path d="M 79.3925641242962 95.95851677861259 l -25.927751219335047 -5.08489130589959 a47.421665407096185,47.421665407096185 0 0,0 0.1639902252736605,-0.7996745783774577 l 25.836381698146393 5.53044154044045" fill="#dcff1b" stroke="none" /><path d="M 79.46518482838121 95.60439243477599 l -22.785449465119868 -4.877370125265887 a44.3016189709292,44.3016189709292 0 0,0 0.1660374322813878,-0.7443132522487377 l 22.698117645836444 5.268861547064585" fill="#fff917" stroke="none" /><path d="M 79.54389044137918 95.25157060432595 l -29.018137300612928 -6.735913090955599 a50.789676358868526,50.789676358868526 0 0,0 0.20501422098098962,-0.849916302464095 l 28.897890279371126 7.23441462507909" fill="#b2ff20" stroke="none" /><path d="M 79.71946130924805 94.55025226153421 l -24.513270747838078 -6.587159436812617 a46.38289014676626,46.38289014676626 0 0,0 0.2138322564559127,-0.7692683977561711 l 24.396251720815805 7.0081391379877305" fill="#eaff1a" stroke="none" /><path d="M 79.81627453868168 94.20196356495316 l -53.0124754184474 -15.228519857607461 a76.15641727890812,76.15641727890812 0 0,0 0.37278240920818384,-1.256836963787507 l 52.742487112127506 16.138786208141507" fill="#42ffda" stroke="none" /><path d="M 80.02781315780177 93.51064311812611 l -12.721300066491777 -4.133400953292156 a34.37596646311586,34.37596646311586 0 0,0 0.18769720685103133,-0.5611907579331583 l 12.648265565868973 4.351764814147637" fill="#ff6d0a" stroke="none" /><path d="M 80.14247586403 93.16781622104843 l -28.222757048672175 -9.710327510364127 a50.84651530391629,50.84651530391629 0 0,0 0.2918757510211419,-0.8251720525481103 l 28.051428216841224 10.194697189338848" fill="#b1ff20" stroke="none" /><path d="M 80.2630227832202 92.82701384747504 l -27.632199389015188 -10.042337355119711 a50.40045888465559,50.40045888465559 0 0,0 0.3033517495444211,-0.8128318717779435 l 27.455243050969138 10.516492363926996" fill="#b7ff1f" stroke="none" /><path d="M 80.52162464483688 92.15188598940014 l -27.01200674177097 -10.883521068830694 a50.12214859987432,50.12214859987432 0 0,0 0.32932235778332786,-0.7974802109874272 l 26.820662697101444 11.346875850271433" fill="#baff1f" stroke="none" /><path d="M 80.803312248108 91.48605970444005 l -32.89247382669462 -14.588170727845752 a56.982350668411954,56.982350668411954 0 0,0 0.40538243637345506,-0.8932064630706916 l 32.63648907335781 15.152199199758515" fill="#68ff28" stroke="none" /><path d="M 81.10775173730289 90.83032412892265 l -16.310248886907782 -7.916458305539585 a39.12993466221606,39.12993466221606 0 0,0 0.29932534272724726,-0.6034216258581332 l 16.171563531227125 8.196039519896681" fill="#ffb210" stroke="none" /><path d="M 81.26839172434947 90.50648371742162 l -15.790071465425017 -8.002692473285917 a38.70224403021313,38.70224403021313 0 0,0 0.3062832320646054,-0.5916417163540716 l 15.649978800200296 8.273306911900324" fill="#ffac0f" stroke="none" /><path d="M 81.6062741919709 89.86733742301443 l -24.236649774688185 -13.351389312125605 a48.67082920450406,48.67082920450406 0 0,0 0.4105554993113857,-0.7303324222612809 l 24.00323663408437 13.766605244321669" fill="#ccff1d" stroke="none" /><line stroke="#e1ed5e" stroke-width="0.3" x1="26.266209847984243" x2="21.928928074336255" y1="57.711370442889674" y2="55.22380399835377" /><path d="M 25.398753493254645 57.213857153982495 a86.0,86.0 0 0,1 29.58750427330803,-30.492523968695096" fill="none" id="id71" stroke="none" /><text fill="#e1ed5e" style="font-size:6.75px; font-family:Arial;" text-anchor="middle"><textPath startOffset="21.46611528233685" xlink:href="#id71">November</textPath></text><path d="M 81.78341655067845 89.55222093294921 l -25.232504389372682 -14.471628661980159 a50.08792384976895,50.08792384976895 0 0,0 0.435384091649638,-0.7442125444561155 l 24.97966062325272 14.903820618790165" fill="#bbff1f" stroke="none" /><path d="M 81.96595687620814 89.24020034530311 l -29.06641206936924 -17.34213278744327 a54.84680014718804,54.84680014718804 0 0,0 0.4907070124861821,-0.80659330580584 l 28.763589258596838 17.839893866456183" fill="#81ff25" stroke="none" /><path d="M 82.34701348167596 88.62581576622439 l -12.312675587976731 -7.933311476955377 a35.647163927707986,35.647163927707986 0 0,0 0.33678653634309713,-0.5129490004466796 l 12.174292416275714 8.144078541379724" fill="#ff7f0b" stroke="none" /><path d="M 82.54541684631803 88.32363383020206 l -11.095931332622404 -7.422701309673101 a34.34976355112308,34.34976355112308 0 0,0 0.3329891175748718,-0.4886204413421576 l 10.966517749378792 7.612599774285675" fill="#ff6c0a" stroke="none" /><path d="M 82.95767976084542 87.72973835380427 l -15.731435221130655 -11.326440503680368 a40.384692636202445,40.384692636202445 0 0,0 0.4110342237381818,-0.5606502192493334 l 15.534138384878839 11.595553166601203" fill="#ffc312" stroke="none" /><path d="M 83.17141714833178 87.43820079747576 l -44.61388608499409 -33.30230974192995 a76.67263839402864,76.67263839402864 0 0,0 0.7985786068224194,-1.0508358382462075 l 44.03403153794756 34.06533035605719" fill="#43ffdf" stroke="none" /><path d="M 83.6137871275137 86.86637796730984 l -13.335131263551231 -10.688166639520645 a38.089840020617615,38.089840020617615 0 0,0 0.41445647053714746,-0.5080746269938384 l 13.14917630093769 10.916125436122567" fill="#ffa30f" stroke="none" /><path d="M 83.84228863543731 86.58626213691792 l -11.538130854074117 -9.578674802047276 a35.99598194747888,35.99598194747888 0 0,0 0.3998800259740905,-0.4733318221003905 l 11.371540214612903 9.775865573776782" fill="#ff840c" stroke="none" /><path d="M 84.07557802195018 86.31012108654704 l -12.984637463935478 -11.16261016326891 a38.12322036671114,38.12322036671114 0 0,0 0.4320779349472437,-0.4939397718680586 l 12.790567665410391 11.384465491339911" fill="#ffa30f" stroke="none" /><path d="M 85.05521093208273 85.24692304244772 l -9.86250537546927 -9.735988921444756 a34.858516968263785,34.858516968263785 0 0,0 0.4252144812633061,-0.42338847514804434 l 9.693455094038653 9.904313247242909" fill="#ff740a" stroke="none" /><path d="M 85.31137513191541 84.99185889309783 l -19.640011636514156 -20.067233565373385 a49.07888744323143,49.07888744323143 0 0,0 0.6088510744676862,-0.5857142512458338 l 19.291677318434044 20.402330903381532" fill="#c7ff1e" stroke="none" /><path d="M 85.57189188830299 84.74124197986013 l -17.77926223323152 -18.802843594826832 a46.877578959584554,46.877578959584554 0 0,0 0.5910863492991486,-0.5493503427560645 l 17.452968000137517 19.106098523657543" fill="#e3ff1b" stroke="none" /><path d="M 85.83668400450813 84.49514656593479 l -13.686774151039199 -14.9831739448983 a41.2934296787072,41.2934296787072 0 0,0 0.5289275651452693,-0.4748763904154224 l 13.426835598297957 15.216549344083003" fill="#ffd013" stroke="none" /><path d="M 87.22198572758235 83.33499621200491 l -9.144601865467159 -11.926330764606622 a36.02867621531277,36.02867621531277 0 0,0 0.49540089676977034,-0.37312568470931096 l 8.937954814938998 12.081973038821786" fill="#ff850c" stroke="none" /><path d="M 87.51073957382395 83.11751280151077 l -10.415223991714177 -14.078886956427219 a38.51262255430166,38.51262255430166 0 0,0 0.5363427069287858,-0.3896757861692796 l 10.17133596843161 14.256081977413167" fill="#ffa90f" stroke="none" /><path d="M 87.80319425747018 82.90503203632743 l -7.841363957412967 -10.990407527443953 a34.50096464449529,34.50096464449529 0 0,0 0.4864124421695309,-0.3407630003111261 l 7.651020375659776 11.12375537051902" fill="#ff6e0a" stroke="none" /><path d="M 88.39885842347998 82.49532879139004 l -7.81166512476009 -11.786825348071334 a35.14041597009543,35.14041597009543 0 0,0 0.5070811793616835,-0.3298197044374889 l 7.607616919614119 11.919543976668358" fill="#ff780b" stroke="none" /><path d="M 89.00827224532344 82.1063720568725 l -11.115652103941581 -18.095366582250822 a42.23676089807249,42.23676089807249 0 0,0 0.6227668273399216,-0.37521004528671603 l 10.80252321038401 18.284023236996156" fill="#ffdd14" stroke="none" /><line stroke="#e1ed5e" stroke-width="0.3" x1="56.762969772571076" x2="54.21961505331055" y1="26.818313649435495" y2="22.513508569990535" /><path d="M 56.25429882871897 25.957352633546506 a86.0,86.0 0 0,1 42.265352541879196,-11.944610805530505" fill="none" id="id72" stroke="none" /><text fill="#e1ed5e" style="font-size:6.75px; font-family:Arial;" text-anchor="middle"><textPath startOffset="22.20632615414155" xlink:href="#id72">December</textPath></text><path d="M 89.3179101791058 81.91981866633112 l -9.318585643878045 -15.772355507167498 a39.31947697525142,39.31947697525142 0 0,0 0.5856790893149169,-0.33926313150063425 l 9.045709822097807 15.93042279605818" fill="#ffb410" stroke="none" /><path d="M 89.94658935756843 81.56283822128135 l -9.122364454319717 -16.729696540879146 a40.05519035820266,40.05519035820266 0 0,0 0.6081807551411705,-0.324869096763044 l 8.833038652650242 16.88424436414394" fill="#ffbf11" stroke="none" /><path d="M 90.58718382345135 81.22770947309562 l -13.164924955247272 -26.25524512425057 a50.370957519491526,50.370957519491526 0 0,0 0.7784201439653449,-0.3819673840022251 l 12.711033544271503 26.477967668387627" fill="#b7ff1f" stroke="none" /></svg>