<?xml version="1.0" encoding="utf-8" ?>
<svg baseProfile="full" height="200mm" version="1.1" viewBox="0,0,200,200" width="200mm" xmlns="http://www.w3.org/2000/svg" xmlns:ev="http://www.w3.org/2001/xml-events" xmlns:xlink="http://www.w3.org/1999/xlink"><defs /><rect fill="#1a1a1a" height="200" width="200" x="0" y="0" /><rect fill="#1a1a1a" height="200" width="180" x="10" y="0" /><text alignment-baseline="middle" fill="#e1ed5e" style="dominant-baseline: central; font-size:9.0px; font-family:Arial;" text-anchor="middle" x="100.0" y="100.0">2026</text><line stroke="#e1ed5e" stroke-width="0.3" x1="100.0" x2="100.0" y1="15.0" y2="10.0" /><path d="M 100.0 14.0 a86.0,86.0 0 0,1 42.46469731375804,11.215312516191453" fill="none" id="id73" stroke="none" /><text fill="#e1ed5e" style="font-size:6.75px; font-family:Arial;" text-anchor="middle"><textPath startOffset="22.20632615414155" xlink:href="#id73">January</textPath></text><path d="M 101.08401301168833 79.027996857942 l 3.2520390350649873 -62.916009426173986 a84.0,84.0 0 0,0 1.4433518046415523,0.08706692247878367 l -4.334552888546152 62.8507092343149" fill="#4dd2ff" stroke="none" /><path d="M 102.16513564639614 79.11191278185805 l 2.140996582212902 -20.655206253449084 a41.765871321415084,41.765871321415084 0 0,0 0.7144615064562175,0.0802780749218332 l -2.4962247921788445 20.61529222505665" fill="#ffbb11" stroke="none" /><path d="M 102.88285421437855 79.19881850522331 l 2.8945336629455833 -20.88545434082968 a42.08507832920728,42.08507832920728 0 0,0 0.7167109272197277,0.10562456011747126 l -3.2536135705939673 20.832535296551235" fill="#ffbf11" stroke="none" /><path d="M 103.59715602781102 79.31037775812273 l 6.9875667450513745 -40.190115532183874 a61.79303219309439,61.79303219309439 0 0,0 1.0463763680814229,0.19121859299745508 l -7.6783382342356985 40.06388145783568" fill="#3fff2d" stroke="none" /><path d="M 103.95276090670814 79.375362276772 l 4.414985800456135 -23.03642563684343 a44.45568173684249,44.45568173684249 0 0,0 0.750313661789325,0.1505058619704858 l -4.8108658717125845 22.957015818795735" fill="#ffe215" stroke="none" /><path d="M 104.66035177308747 79.52364482259891 l 5.229503886313238 -22.97705928469174 a44.56465497878558,44.56465497878558 0 0,0 0.7465138104868767,0.17667570004836622 l -5.624241383762638 22.883637672502505" fill="#ffe315" stroke="none" /><path d="M 105.71112130821622 79.79150937346287 l 6.955228334884828 -24.610695347818766 a46.57462661884887,46.57462661884887 0 0,0 0.7696119544104486,0.22467083364175355 l -7.377830507018705 24.487326185258308" fill="#ffff18" stroke="none" /><path d="M 106.0581310904928 79.89281104454417 l 10.719316355821146 -35.57785663932729 a58.157605226719056,58.157605226719056 0 0,0 0.9560407624942383,0.2970465186749287 l -11.330142491026102 35.38806998576984" fill="#69ff28" stroke="none" /><path d="M 107.08798089147638 80.2323363322302 l 8.628631649677976 -24.06438321088358 a46.56458142559897,46.56458142559897 0 0,0 0.752168048217389,0.27702983996574504 l -9.041582023667942 23.912290103111513" fill="#ffff18" stroke="none" /><path d="M 108.09893153111575 80.62456947434976 l 6.259574982987089 -14.975056862378022 a37.230668716941175,37.230668716941175 0 0,0 0.5891598058555979,0.2522474818717784 l -6.516418546633002 14.865089852543452" fill="#ff760a" stroke="none" /><path d="M 108.43124777332544 80.76684994638697 l 13.168723795961208 -30.040161028550816 a53.7997951370977,53.7997951370977 0 0,0 0.8449587837637517,0.37910837631743083 l -13.68386469819174 29.809032321716852" fill="#9fff22" stroke="none" /><path d="M 109.08828744355905 81.06846463323043 l 9.253938518733143 -19.27659808707604 a42.3827643657025,42.3827643657025 0 0,0 0.6549726104855643,0.3213922154504497 l -9.58438239622914 19.114450711490758" fill="#ffc412" stroke="none" /><line stroke="#e1ed5e" stroke-width="0.3" x1="143.23703022742887" x2="145.7803849466894" y1="26.81831364943548" y2="22.513508569990506" /><path d="M 143.74570117128098 25.957352633546492 a86.0,86.0 0 0,1 28.547481713284135,27.462654790039103" fill="none" id="id74" stroke="none" /><text fill="#e1ed5e" style="font-size:6.75px; font-family:Arial;" text-anchor="middle"><textPath startOffset="19.985693538727396" xlink:href="#id74">February</textPath></text><path d="M 110.68208982089419 81.91981866633111 l 17.862080214027543 -30.23281536487989 a56.11519663136278,56.11519663136278 0 0,0 0.8273996923202932,0.49849905678463124 l -18.379841972565472 29.920869698636643" fill="#82ff25" stroke="none" /><path d="M 111.2981086023043 82.29822771554956 l 10.65588699713911 -16.695545400733845 a40.806291018859724,40.806291018859724 0 0,0 0.5888405587693942,0.38299827908936385 l -10.941694581692785 16.509648197484953" fill="#ffac0f" stroke="none" /><path d="M 111.60114157652 82.49532879139004 l 11.14894362464374 -16.822361074164096 a41.18144633209017,41.18144633209017 0 0,0 0.58751276184015,0.39669123939492695 l -11.436861080890433 16.627957922470497" fill="#ffb210" stroke="none" /><path d="M 111.90073688211348 82.69761687909136 l 6.925232567253878 -10.068538466732385 a33.22024193568292,33.22024193568292 0 0,0 0.46835615107871675,0.32811341450046544 l -7.097519857916246 9.947840209467984" fill="#ff3605" stroke="none" /><path d="M 112.77801427241765 83.33499621200491 l 15.249029396760847 -19.88768577358825 a46.06098447731575,46.06098447731575 0 0,0 0.6250419549210386,0.48785516006707813 l -15.589103906841315 19.62225222429795" fill="#fff817" stroke="none" /><path d="M 113.06298171725822 83.55741782278167 l 22.400268687197173 -28.195573311903555 a57.01058721606125,57.01058721606125 0 0,0 0.763118205346547,0.6170551840762991 l -22.882290291108212 27.805812030563125" fill="#77ff27" stroke="none" /><path d="M 113.6212207817346 84.01681056812373 l 29.97406200814343 -35.17167211336787 a67.21137211248208,67.21137211248208 0 0,0 0.8740877393037519,0.7580002741206009 l -30.575043546093948 34.6505068458276" fill="#35ff66" stroke="none" /><path d="M 113.89432698308785 84.25364557470407 l 12.934420896383875 -14.658498822456194 a40.549190051067626,40.549190051067626 0 0,0 0.5193945993151994,0.46631759956833213 l -13.184826483295064 14.433682214118564" fill="#ffa80f" stroke="none" /><path d="M 114.16331599549186 84.49514656593476 l 22.3676070201519 -24.486248038849904 a54.16453206104421,54.16453206104421 0 0,0 0.6829686222717031,0.6347449017921943 l -22.785783526218452 24.097598550983072" fill="#9aff23" stroke="none" /><path d="M 114.68862486808459 84.99185889309783 l 23.955493248870358 -24.476588257466442 a55.248635440294805,55.248635440294805 0 0,0 0.6739391661624011,0.671045057205738 l -24.37326821520008 24.060607349610585" fill="#8cff24" stroke="none" /><path d="M 116.38621287248628 86.86637796730983 l 28.331413381001575 -22.707753029545348 a57.308553149582,57.308553149582 0 0,0 0.6103249551889497,0.7750507136203737 l -28.71809241678449 22.216709921971937" fill="#73ff27" stroke="none" /><path d="M 116.60985879189232 87.15038557335679 l 27.73237081110238 -21.454142176892166 a56.062296093535956,56.062296093535956 0 0,0 0.5839130000921908,0.7683610626088051 l -28.097559751418686 20.973596338402327" fill="#82ff25" stroke="none" /><path d="M 117.04232023915458 87.72973835380427 l 32.47833841534332 -23.384005499108145 a61.02067190095496,61.02067190095496 0 0,0 0.6063925788960527,0.8576992989100136 l -32.876043614043255 22.82147969986634" fill="#48ff2c" stroke="none" /><path d="M 117.45458315368197 88.32363383020206 l 37.32407836217954 -24.968204744271326 a65.90543479065727,65.90543479065727 0 0,0 0.6226600005078703,0.9483538990206654 l -37.74833499804534 24.322032781272984" fill="#33ff55" stroke="none" /><path d="M 117.65298651832404 88.62581576622439 l 26.062225150681044 -16.792430566821164 a52.00363372487653,52.00363372487653 0 0,0 0.4783650919323469,0.75665869581166 l -26.347417838859347 16.3413242232953" fill="#b6ff1f" stroke="none" /><line stroke="#e1ed5e" stroke-width="0.3" x1="172.23445277983987" x2="176.4835382374775" y1="55.19839476539836" y2="52.563006222186495" /><path d="M 173.08426987136738 54.67131705675599 a86.0,86.0 0 0,1 12.851231095245387,41.99856678651699" fill="none" id="id75" stroke="none" /><text fill="#e1ed5e" style="font-size:6.75px; font-family:Arial;" text-anchor="middle"><textPath startOffset="22.20632615414155" xlink:href="#id75">March</textPath></text><path d="M 118.21658344932153 89.55222093294921 l 31.49287482553519 -18.062146465545496 a57.30485228891099,57.30485228891099 0 0,0 0.48338650951649587,0.8598906627136536 l -31.79911897634412 17.517372292897047" fill="#73ff27" stroke="none" /><path d="M 118.3937258080291 89.86733742301442 l 49.6234119452948 -27.336347970400965 a77.65473443103649,77.65473443103649 0 0,0 0.6348899504357134,1.1763546550847803 l -50.08660999494897 26.478112331983727" fill="#44ffe7" stroke="none" /><path d="M 118.73160827565052 90.50648371742162 l 33.12749620921959 -16.78961144367398 a58.139225322042016,58.139225322042016 0 0,0 0.4447373525062722,0.8965633644115409 l -33.41159357467928 16.216888490763488" fill="#69ff28" stroke="none" /><path d="M 119.04729006885535 91.15688171328212 l 31.435933857916705 -14.594815354523705 a55.65871568237858,55.65871568237858 0 0,0 0.39596586494015157,0.8724582961312456 l -31.682502039820204 14.051535049550397" fill="#87ff25" stroke="none" /><path d="M 119.196687751892 91.48605970444005 l 24.239030180341036 -10.750274132961275 a47.5160136147442,47.5160136147442 0 0,0 0.325166313699067,0.7505286838973944 l -24.420487203882786 10.331446304477277" fill="#f2ff19" stroke="none" /><path d="M 119.34039704204932 91.81776055985345 l 49.830036590798535 -21.08132991327539 a75.10596101681108,75.10596101681108 0 0,0 0.4934758955186005,1.194991023155213 l -50.18553417320333 20.220464319666874" fill="#40ffc9" stroke="none" /><path d="M 119.47837535516314 92.15188598940014 l 40.74349641961928 -16.416133238077283 a64.92632389565321,64.92632389565321 0 0,0 0.40874660959405895,1.0402155372929112 l -41.020036579095034 15.712368695888589" fill="#32ff47" stroke="none" /><path d="M 119.7369772167798 92.82701384747503 l 18.451057486506617 -6.705645874568608 a40.631790773271064,40.631790773271064 0 0,0 0.23323986661420157,0.6594005113365695 l -18.56375043393063 6.387047736805424" fill="#ffaa0f" stroke="none" /><path d="M 119.97218684219823 93.5106431181261 l 32.189122103152606 -10.458879775760277 a54.84564592285801,54.84564592285801 0 0,0 0.28400777301435476,0.9003822525781354 l -32.36438535993517 9.903247356755722" fill="#91ff23" stroke="none" /><path d="M 120.08093135843002 93.85539295169968 l 25.833107650649236 -7.904727749743694 a48.01544320731385,48.01544320731385 0 0,0 0.23503354329903978,0.7924162665712347 l -25.965347091059975 7.4588820964259295" fill="#ebff1a" stroke="none" /><path d="M 120.37134235888165 94.90015583598534 l 8.654666619756977 -2.1666442139497315 a29.921748788717238,29.921748788717238 0 0,0 0.12078013600565611,0.5007116389967864 l -8.690679556023452 2.017347343293539" fill="#ff0000" stroke="none" /><path d="M 120.45610955862082 95.25157060432595 l 44.11674992612546 -10.240719115748565 a66.28973340672198,66.28973340672198 0 0,0 0.24844638586893147,1.1137364324097407 l -44.286490698996424 9.47980451378886" fill="#34ff5a" stroke="none" /><path d="M 120.6074358757038 95.95851677861258 l 33.89311284067849 -6.647039820596545 a55.538764257100475,55.538764257100475 0 0,0 0.17591050950009618,0.939720975770783 l -34.002509074088444 6.062640767363199" fill="#89ff24" stroke="none" /><path d="M 120.67395015179393 96.31383870115 l 9.095458313944796 -1.6217184517714167 a30.23890321832215,30.23890321832215 0 0,0 0.08695576547736246,0.5132178501310458 l -9.12202594094238 1.464914813324533" fill="#ff0500" stroke="none" /><path d="M 120.73433829027371 96.67025291283417 l 29.785299753332957 -4.783249588463828 a51.16692821653268,51.16692821653268 0 0,0 0.1321668717410139,0.8708145505123522 l -29.863222518513272 4.269835925559394" fill="#c1ff1e" stroke="none" /><path d="M 120.78858239683441 97.02765380044208 l 22.538111529454522 -3.2224934279303046 a43.76732165203419,43.76732165203419 0 0,0 0.10021466359773326,0.7467156459466631 l -22.590242192110093 2.8340594399189776" fill="#ffd814" stroke="none" /><path d="M 120.87857604477298 97.74499172005257 l 28.6020346499259 -3.0891869646959664 a49.76837607892405,49.76837607892405 0 0,0 0.08466044969842765,0.8525191748901452 l -28.650972225306557 2.5963922591013864" fill="#d3ff1c" stroke="none" /><path d="M 120.91429891909075 98.10471618934814 l 43.638407985865385 -3.954575216611055 a64.8172262550321,64.8172262550321 0 0,0 0.09113152678897238,1.1120354545182514 l -43.70001399647385 3.202825844885035" fill="#32ff46" stroke="none" /><line stroke="#e1ed5e" stroke-width="0.3" x1="184.98032266829074" x2="189.97916517819016" y1="98.17113171792111" y2="98.06355123074" /><path d="M 185.9800911702706 98.14961562048488 a86.0,86.0 0 0,1 -9.607161424134198,41.387399972396054" fill="none" id="id76" stroke="none" /><text fill="#e1ed5e" style="font-size:6.75px; font-family:Arial;" text-anchor="middle"><textPath startOffset="21.466115282336823" xlink:href="#id76">April</textPath></text><path d="M 120.99513854157772 99.54816195383933 l 18.41538594215248 -0.39631898531742293 a39.41965005467124,39.41965005467124 0 0,0 0.008760534582252117,0.6785130578432643 l -18.419479483852445 0.07926966941369587" fill="#ff970e" stroke="none" /><path d="M 120.99980553446 99.90962569577887 l 27.218054302793167 -0.11713502374254826 a48.21830635149044,48.21830635149044 0 0,0 -0.003572064280313702,0.8300219391968983 l -27.21603794122335 -0.35139639365803466" fill="#e8ff1a" stroke="none" /><path d="M 120.9764740272857 100.99374915477107 l 32.91067010533853 1.5591252637401147 a53.94758076658218,53.94758076658218 0 0,0 -0.05192749848011263,0.9272003682827921 l -32.87895625597089 -2.12539734835833" fill="#9dff22" stroke="none" /><path d="M 120.95626037817324 101.35467743843564 l 22.036388480350677 1.4245002572131789 a43.08238253087136,43.08238253087136 0 0,0 -0.05420880035262107,0.7396360117191136 l -22.008603121333717 -1.8036094054290628" fill="#ffce13" stroke="none" /><path d="M 120.89721153311464 102.0752229133903 l 33.86582143048443 3.3630864338985194 a55.032399438231366,55.032399438231366 0 0,0 -0.1017252899555689,0.9418498463621758 l -33.80291383902781 -3.9455326021454864" fill="#8fff24" stroke="none" /><path d="M 120.81339534386255 102.79330883721812 l 21.05322132102968 2.825495225375727 a42.2419761618565,42.2419761618565 0 0,0 -0.10292146653597581,0.7198324972388551 l -21.001465803477103 -3.1874731945949915" fill="#ffc212" stroke="none" /><path d="M 120.64145759157962 103.86396538481128 l 24.535012132370134 4.592817012790621 a45.96118563787643,45.96118563787643 0 0,0 -0.1522629888259527,0.7763856996532659 l -24.45231921056852 -5.014466439511832" fill="#fff717" stroke="none" /><path d="M 120.5718875245553 104.21870165774334 l 31.463747606555486 6.4523084733063625 a53.11852577693639,53.11852577693639 0 0,0 -0.19139353878344478,0.8941268950063341 l -31.3480200290476 -6.992949187728866" fill="#a7ff21" stroke="none" /><path d="M 120.32669344350535 105.2749913415812 l 19.328964652779927 5.016070196981346 a40.96922218739279,40.96922218739279 0 0,0 -0.18301912115145041,0.6810822345887771 l -19.2397574552867 -5.3480433647456715" fill="#ffaf10" stroke="none" /><path d="M 120.13307415673323 105.97154293290107 l 31.091983438374108 9.221995236589661 a53.43079755842912,53.43079755842912 0 0,0 -0.2691213288250711,0.8795040738562071 l -30.928635337042905 -9.755826282997925" fill="#a3ff21" stroke="none" /><path d="M 120.02730092923936 106.31721596034902 l 25.66760388333388 8.096337968287155 a47.91424488274684,47.91424488274684 0 0,0 -0.2548758304813313,0.7844271474962695 l -25.5244358018363 -8.536964015761221" fill="#ecff1a" stroke="none" /><line stroke="#e1ed5e" stroke-width="0.3" x1="174.80103733775053" x2="179.2010983576182" y1="140.37084112569926" y2="142.7455964860345" /><path d="M 175.68104954172406 140.8457921977663 a86.0,86.0 0 0,1 -30.038265399797805,32.042727171017184" fill="none" id="id77" stroke="none" /><text fill="#e1ed5e" style="font-size:6.75px; font-family:Arial;" text-anchor="middle"><textPath startOffset="22.206326154141568" xlink:href="#id77">May</textPath></text><line stroke="#e1ed5e" stroke-width="0.3" x1="143.8653032363475" x2="146.44561519142675" y1="172.8068346515853" y2="177.08958963109032" /><path d="M 144.38136562736335 173.6633856474863 a86.0,86.0 0 0,1 -40.68145358897372,12.25698825130547" fill="none" id="id78" stroke="none" /><text fill="#e1ed5e" style="font-size:6.75px; font-family:Arial;" text-anchor="middle"><textPath startOffset="21.466115282336833" xlink:href="#id78">June</textPath></text><line stroke="#e1ed5e" stroke-width="0.3" x1="102.19456741930631" x2="102.32365962044197" y1="184.97166512339345" y2="189.96999836594603" /><path d="M 102.22038585953345 185.97133177190398 a86.0,86.0 0 0,1 -42.740103519485714,-10.115201625700543" fill="none" id="id79" stroke="none" /><text fill="#e1ed5e" style="font-size:6.75px; font-family:Arial;" text-anchor="middle"><textPath startOffset="22.20632615414155" xlink:href="#id79">July</textPath></text><line stroke="#e1ed5e" stroke-width="0.3" x1="58.666819895761336" x2="56.23545636021788" y1="174.27360380694188" y2="178.64263932499728" /><path d="M 58.180547188652646 175.14741091055294 a86.0,86.0 0 0,1 -31.652253787137756,-30.449443065178592" fill="none" id="id80" stroke="none" /><text fill="#e1ed5e" style="font-size:6.75px; font-family:Arial;" text-anchor="middle"><textPath startOffset="22.20632615414155" xlink:href="#id80">August</textPath></text><line stroke="#e1ed5e" stroke-width="0.3" x1="26.63291911575756" x2="22.317208475507996" y1="142.92168965132927" y2="145.44649492493687" /><path d="M 25.769776987707644 143.4266507060508 a86.0,86.0 0 0,1 -11.730757126820373,-40.83630448921669" fill="none" id="id81" stroke="none" /><text fill="#e1ed5e" style="font-size:6.75px; font-family:Arial;" text-anchor="middle"><textPath startOffset="21.46611528233685" xlink:href="#id81">September</textPath></text><line stroke="#e1ed5e" stroke-width="0.3" x1="15.007084014347285" x2="10.007500721073583" y1="101.09737516637583" y2="101.16192664675087" /><path d="M 14.007167355692545 101.11028546245083 a86.0,86.0 0 0,1 10.666146001902534,-42.60595125391555" fill="none" id="id82" stroke="none" /><text fill="#e1ed5e" style="font-size:6.75px; font-family:Arial;" text-anchor="middle"><textPath startOffset="22.20632615414155" xlink:href="#id82">October</textPath></text><line stroke="#e1ed5e" stroke-width="0.3" x1="26.266209847984243" x2="21.928928074336255" y1="57.711370442889674" y2="55.22380399835377" /><path d="M 25.398753493254645 57.213857153982495 a86.0,86.0 0 0,1 29.58750427330803,-30.492523968695096" fill="none" id="id83" stroke="none" /><text fill="#e1ed5e" style="font-size:6.75px; font-family:Arial;" text-anchor="middle"><textPath startOffset="21.46611528233685" xlink:href="#id83">November</textPath></text><line stroke="#e1ed5e" stroke-width="0.3" x1="56.762969772571076" x2="54.21961505331055" y1="26.818313649435495" y2="22.513508569990535" /><path d="M 56.25429882871897 25.957352633546506 a86.0,86.0 0 0,1 42.265352541879196,-11.944610805530505" fill="none" id="id84" stroke="none" /><text fill="#e1ed5e" style="font-size:6.75px; font-family:Arial;" text-anchor="middle"><textPath startOffset="22.20632615414155" xlink:href="#id84">December</textPath></text></svg>