<?xml version="1.0" encoding="utf-8" ?>
<svg baseProfile="full" height="200mm" version="1.1" viewBox="0,0,200,200" width="200mm" xmlns="http://www.w3.org/2000/svg" xmlns:ev="http://www.w3.org/2001/xml-events" xmlns:xlink="http://www.w3.org/1999/xlink"><defs /><rect fill="#1a1a1a" height="200" width="200" x="0" y="0" /><text alignment-baseline="middle" fill="#e1ed5e" style="dominant-baseline: central; font-size:9.0px; font-family:Arial;" text-anchor="middle" x="100.0" y="100.0">2024</text><line stroke="#e1ed5e" stroke-width="0.3" x1="100.0" x2="100.0" y1="15.0" y2="10.0" /><path d="M 100.0 14.0 a86.0,86.0 0 0,1 42.35913384403234,11.155469271406648" fill="none" id="id49" stroke="none" /><text fill="#e1ed5e" style="font-size:6.75px; font-family:Arial;" text-anchor="middle"><textPath startOffset="22.145653131862478" xlink:href="#id49">January</textPath></text><path d="M 100.36049292484886 79.00309439819443 l 0.8973182921044314 -52.26429196076354 a73.27199435909517,73.27199435909517 0 0,0 1.257440534214364,0.032387207712715346 l -1.7943721403895367 52.24118703570078" fill="#3dffae" stroke="none" /><path d="M 100.72087961077811 79.0123766808444 l 0.4413405818787762 -12.849149496586001 a33.85672681108335,33.85672681108335 0 0,0 0.5806819441774866,0.024936981203607968 l -0.661848286657099 12.839679946956561" fill="#ff2203" stroke="none" /><path d="M 101.44090949804482 79.04949213459386 l 2.069132160086307 -30.084727495567332 a51.15579772412676,51.15579772412676 0 0,0 0.8755704666217954,0.06777469161116947 l -2.585271621483336 30.04477503696111" fill="#d1ff1c" stroke="none" /><path d="M 101.80034050326958 79.07731436759882 l 3.616140859461689 -42.02503819004998 a63.180330837851756,63.180330837851756 0 0,0 1.0797832534849678,0.10225659675144226 l -4.33702367633167 41.95676983779336" fill="#38ff2e" stroke="none" /><path d="M 102.87502721639298 79.19773525538626 l 6.496816825322108 -47.007730162349304 a68.45456062253693,68.45456062253693 0 0,0 1.1626677705102806,0.1708721236014273 l -7.30280970144007 46.88927696544899" fill="#36ff6f" stroke="none" /><path d="M 104.29559338865022 79.4440306129975 l 11.197797350712243 -53.58551397143004 a75.74301757384171,75.74301757384171 0 0,0 1.270454165151641,0.2768895721759973 l -12.116013932483018 53.38539294112032" fill="#41ffcd" stroke="none" /><path d="M 104.9986988182912 79.60360301121754 l 9.513454872882495 -38.818142355796276 a60.96691130889697,60.96691130889697 0 0,0 1.0143579095107353,0.25784581398188006 l -10.178418075618625 38.649111309979126" fill="#52ff2b" stroke="none" /><path d="M 105.3480935250658 79.69241777938227 l 7.288048091799017 -27.67390569337578 a49.61748943066515,49.61748943066515 0 0,0 0.8218040791862686,0.22398635618263385 l -7.762033571919979 27.544718843049004" fill="#e7ff1a" stroke="none" /><path d="M 106.38641147887787 79.99465700312896 l 9.37766863410781 -29.37541343159565 a51.83594628494964,51.83594628494964 0 0,0 0.845363475005154,0.2778877652863778 l -9.880554846760706 29.21010474490725" fill="#c8ff1d" stroke="none" /><path d="M 106.72888874123014 80.10723608172694 l 18.613043399188182 -55.026155488629996 a79.08892469687271,79.08892469687271 0 0,0 1.2823486835453026,0.44606743845534863 l -19.554897854778503 54.698529617606056" fill="#46fff5" stroke="none" /><path d="M 108.4095320186766 80.7573450057729 l 7.362848171380817 -16.847637516820253 a39.386256364278594,39.386256364278594 0 0,0 0.6172137657702936,0.2760718667868931 l -7.650975340006743 16.718761899123507" fill="#ff7d0b" stroke="none" /><path d="M 109.06512990194946 81.05736502329252 l 25.009688656650226 -52.260630374656536 a78.93667244379031,78.93667244379031 0 0,0 1.2172777299180435,0.5954315362678498 l -25.90312663583034 51.823605088291465" fill="#46fff3" stroke="none" /><line stroke="#e1ed5e" stroke-width="0.3" x1="143.13028292997686" x2="145.6673583964461" y1="26.7553504044142" y2="22.446841604673864" /><path d="M 143.63769802327073 25.89364864446614 a86.0,86.0 0 0,1 29.32050498858742,28.57503671076993" fill="none" id="id50" stroke="none" /><text fill="#e1ed5e" style="font-size:6.75px; font-family:Arial;" text-anchor="middle"><textPath startOffset="20.669276256404974" xlink:href="#id50">February</textPath></text><path d="M 110.96478420261332 82.08984904055464 l 13.143716153782137 -21.469272548586268 a46.173139218156194,46.173139218156194 0 0,0 0.6724477266332709,0.4196571154379892 l -13.510328009205121 21.240479636306734" fill="#ffe615" stroke="none" /><path d="M 111.8722381534696 82.67804972795209 l 27.092253382308193 -39.528407346589205 a68.9216566980846,68.9216566980846 0 0,0 0.9701704783043171,0.677254341092813 l -27.76681895178627 39.05750818969126" fill="#37ff75" stroke="none" /><path d="M 112.45986205192187 83.09580414077388 l 22.479890596889287 -30.49828898267603 a58.88787552923665,58.88787552923665 0 0,0 0.8085782332500101,0.6067721804462781 l -23.000121819050065 30.107897774965735" fill="#6cff28" stroke="none" /><path d="M 113.59037401385872 83.9905735841838 l 24.503563829577214 -28.86513657790711 a58.86318462585253,58.86318462585253 0 0,0 0.7647183167828522,0.6605454685187921 l -24.99546162612293 28.440246976923596" fill="#6cff28" stroke="none" /><path d="M 114.39649973595853 84.71141617570332 l 32.13365452326794 -34.12482754630235 a67.87297310909149,67.87297310909149 0 0,0 0.8413905888771575,0.806033151119189 l -32.71471759801041 33.568182264877585" fill="#35ff67" stroke="none" /><path d="M 114.91283532996326 85.21462403516908 l 34.82974816052565 -34.532059794092746 a70.04665646655678,70.04665646655678 0 0,0 0.8392696810590727,0.861164628390063 l -35.417404642735534 33.92907247363494" fill="#38ff84" stroke="none" /><path d="M 115.41159269507618 85.73525988315684 l 46.09022182747427 -42.66042123645173 a83.80302610684686,83.80302610684686 0 0,0 0.9681336576156766,1.0641484817740718 l -46.815753185931825 41.86293517911999" fill="#4dd4ff" stroke="none" /><path d="M 115.6541949942343 86.00192230759917 l 15.421770148528243 -13.790241962167748 a41.68820359260729,41.68820359260729 0 0,0 0.47244434373725175,0.5375549377609999 l -15.656225556224085 13.52347474659545" fill="#ffa20e" stroke="none" /><path d="M 116.7966241395341 87.39550010848427 l 11.590038837209477 -8.697381214980384 a35.49046031866199,35.49046031866199 0 0,0 0.3614922755334367,0.4904336983628124 l -11.73763313232674 8.497141207348696" fill="#ff3d05" stroke="none" /><path d="M 117.21940702142032 87.97951657250589 l 29.638995040306224 -20.690320418489897 a57.146360619280564,57.146360619280564 0 0,0 0.554619752279139,0.8092067935873762 l -29.989804529400686 20.178478889832473" fill="#81ff25" stroke="none" /><path d="M 117.42321728460499 88.27688183743584 l 22.769759852423395 -15.320510610805977 a48.44412522039737,48.44412522039737 0 0,0 0.4583173218646255,0.6939508401218005 l -23.029401613208744 14.927379892345119" fill="#f7ff18" stroke="none" /><line stroke="#e1ed5e" stroke-width="0.3" x1="172.87174338648825" x2="177.1583165268699" y1="56.24261187166439" y2="53.66864786411523" /><path d="M 173.72905801456457 55.72781907015455 a86.0,86.0 0 0,1 12.242430191666344,42.057860355516425" fill="none" id="id51" stroke="none" /><text fill="#e1ed5e" style="font-size:6.75px; font-family:Arial;" text-anchor="middle"><textPath startOffset="22.145653131862474" xlink:href="#id51">March</textPath></text><path d="M 118.00360718960297 89.18935116829356 l 22.34632342947446 -13.418325157376966 a47.06548715914926,47.06548715914926 0 0,0 0.40997690223610633,0.6962304095087779 l -22.573374041840335 13.032743579574632" fill="#fff316" stroke="none" /><path d="M 118.18653347947321 89.5 l 49.924741252264745 -28.824062801217472 a78.64812560243493,78.64812560243493 0 0,0 0.6650134766952637,1.1750150929599135 l -50.412188093981385 27.96279093815844" fill="#45fff0" stroke="none" /><path d="M 118.70294669586156 90.45014215332178 l 29.30038665586108 -14.960986200003237 a53.898993392802296,53.898993392802296 0 0,0 0.41368783013580424,0.8276527787628207 l -29.55289439920862 14.455801565076666" fill="#acff21" stroke="none" /><path d="M 118.8641267826498 90.77261029715802 l 21.980898094696887 -10.751958734966376 a45.46966484625135,45.46966484625135 0 0,0 0.3369534754137019,0.7041031687281332 l -22.162230828070502 10.373043064173139" fill="#ffdb14" stroke="none" /><path d="M 119.16976305983485 91.42560881287824 l 43.9517972281476 -19.65907985585911 a69.14810380859508,69.14810380859508 0 0,0 0.4753639672730677,1.0877257852883813 l -44.28279507743763 18.90169200079488" fill="#37ff78" stroke="none" /><path d="M 119.31412917781788 91.75594674310238 l 51.75206712811497 -22.08988008885849 a77.26934560107364,77.26934560107364 0 0,0 0.5102505354498806,1.224415534894472 l -52.12364350810134 21.19823204452274" fill="#43ffe0" stroke="none" /><path d="M 119.58574465831526 92.42381321644754 l 18.25513933693424 -7.061480060584347 a40.57331379345138,40.57331379345138 0 0,0 0.24569907478549222,0.6517459866746218 l -18.373669095534172 6.747065793715568" fill="#ff900d" stroke="none" /><path d="M 119.71291397450082 92.76114493625339 l 25.41600818351875 -9.333110253383976 a48.07545787214896,48.07545787214896 0 0,0 0.27782997106778895,0.777139876360783 l -25.57247832463048 8.895435420642277" fill="#fdff18" stroke="none" /><path d="M 119.83427380445688 93.10060997987247 l 37.01706313995165 -12.87645610422218 a60.192678975940495,60.192678975940495 0 0,0 0.3311015207778922,0.9788428132951436 l -37.23265008230191 12.239111616452876" fill="#5cff2a" stroke="none" /><path d="M 120.05942366710727 93.78553927170692 l 27.442274287889667 -8.501686722773641 a49.729028790127174,49.729028790127174 0 0,0 0.24562275565512162,0.8175982691040578 l -27.584173363548416 8.02935085007886" fill="#e5ff1a" stroke="none" /><path d="M 120.16314734710363 94.1308016681162 l 55.97957452640563 -16.294838289575882 a79.30295463388481,79.30295463388481 0 0,0 0.3692553565258223,1.3103569937636597 l -56.251048375006036 15.33147337190921" fill="#46fff8" stroke="none" /><path d="M 120.43855184770803 95.1765574152323 l 40.04206768308328 -9.449818944310055 a62.14202550211722,62.14202550211722 0 0,0 0.23610755599406932,1.040333456477612 l -40.19838610063502 8.761051153893417" fill="#44ff2d" stroke="none" /><path d="M 120.65975698304385 96.23510406497455 l 29.219707984552844 -5.324804154471029 a50.70092379011153,50.70092379011153 0 0,0 0.14868693547268275,0.8575867317909375 l -29.30680973751776 4.822424389759499" fill="#d7ff1c" stroke="none" /><path d="M 120.7213421655516 96.59031103205396 l 62.16402649665483 -10.229066903838131 a84.0,84.0 0 0,0 0.22191403144693922,1.424847272274235 l -62.330462020240034 9.160431449632455" fill="#4dd2ff" stroke="none" /><path d="M 120.86939407059847 97.66154086499901 l 10.822389968493399 -1.2126713693149718 a31.890119213309962,31.890119213309962 0 0,0 0.05629002012913589,0.5445548825595787 l -10.8416123811042 1.0267119644724616" fill="#ff0000" stroke="none" /><path d="M 120.9064616781168 98.02013634271609 l 36.248911622343925 -3.4328096184872887 a57.411094129142555,57.411094129142555 0 0,0 0.08449375888051419,0.9819455551582239 l -36.30249900392218 2.810043015953403" fill="#7eff26" stroke="none" /><path d="M 120.96210409425399 98.7389718711861 l 41.160871517213614 -2.4761358190149236 a62.23528334631369,62.23528334631369 0 0,0 0.05499942564892454,1.0669741643744923 l -41.19731253231911 1.7691898612637003" fill="#43ff2d" stroke="none" /><line stroke="#e1ed5e" stroke-width="0.3" x1="184.99686870605535" x2="189.99668451229388" y1="99.2704041080226" y2="99.22748670261217" /><path d="M 185.99683186730306 99.26182062694052 a86.0,86.0 0 0,1 -10.086455211305974,41.156179273409016" fill="none" id="id52" stroke="none" /><text fill="#e1ed5e" style="font-size:6.75px; font-family:Arial;" text-anchor="middle"><textPath startOffset="21.40746469413373" xlink:href="#id52">April</textPath></text><line stroke="#e1ed5e" stroke-width="0.3" x1="174.33088141563837" x2="178.70328620479359" y1="141.23008692659167" y2="143.65538615756765" /><path d="M 175.20536237346943 141.71514677278685 a86.0,86.0 0 0,1 -30.301960400862466,31.631185727798858" fill="none" id="id53" stroke="none" /><text fill="#e1ed5e" style="font-size:6.75px; font-family:Arial;" text-anchor="middle"><textPath startOffset="22.145653131862474" xlink:href="#id53">May</textPath></text><line stroke="#e1ed5e" stroke-width="0.3" x1="143.1302829299769" x2="145.66735839644613" y1="173.24464959558577" y2="177.55315839532614" /><path d="M 143.63769802327073 174.10635135553383 a86.0,86.0 0 0,1 -40.68552437913181,11.842963189579606" fill="none" id="id54" stroke="none" /><text fill="#e1ed5e" style="font-size:6.75px; font-family:Arial;" text-anchor="middle"><textPath startOffset="21.407464694133747" xlink:href="#id54">June</textPath></text><line stroke="#e1ed5e" stroke-width="0.3" x1="101.45913802915013" x2="101.54496967792366" y1="184.9874750549273" y2="189.98673829345242" /><path d="M 101.47630435890484 185.9873277026323 a86.0,86.0 0 0,1 -42.54439059252881,-10.42667462771756" fill="none" id="id55" stroke="none" /><text fill="#e1ed5e" style="font-size:6.75px; font-family:Arial;" text-anchor="middle"><textPath startOffset="22.145653131862474" xlink:href="#id55">July</textPath></text><line stroke="#e1ed5e" stroke-width="0.3" x1="58.13341422392154" x2="55.67067388415222" y1="173.97424548756322" y2="178.32567169271397" /><path d="M 57.64086615596768 174.84453072859336 a86.0,86.0 0 0,1 -31.369924170532247,-30.572349798747897" fill="none" id="id56" stroke="none" /><text fill="#e1ed5e" style="font-size:6.75px; font-family:Arial;" text-anchor="middle"><textPath startOffset="22.145653131862474" xlink:href="#id56">August</textPath></text><line stroke="#e1ed5e" stroke-width="0.3" x1="26.387840678322732" x2="22.057713659400548" y1="142.50000000000003" y2="145.00000000000006" /><path d="M 25.521815274538298 143.00000000000003 a86.0,86.0 0 0,1 -11.493303480769221,-40.785679425670985" fill="none" id="id57" stroke="none" /><text fill="#e1ed5e" style="font-size:6.75px; font-family:Arial;" text-anchor="middle"><textPath startOffset="21.40746469413373" xlink:href="#id57">September</textPath></text><line stroke="#e1ed5e" stroke-width="0.3" x1="15.003131293944662" x2="10.003315487706104" y1="100.72959589197737" y2="100.7725132973878" /><path d="M 14.003168132696942 100.73817937305945 a86.0,86.0 0 0,1 10.791469493833604,-42.45332614584628" fill="none" id="id58" stroke="none" /><text fill="#e1ed5e" style="font-size:6.75px; font-family:Arial;" text-anchor="middle"><textPath startOffset="22.145653131862435" xlink:href="#id58">October</textPath></text><line stroke="#e1ed5e" stroke-width="0.3" x1="26.387840678322718" x2="22.05771365940052" y1="57.49999999999999" y2="54.99999999999999" /><path d="M 25.521815274538284 56.99999999999999 a86.0,86.0 0 0,1 29.574782752854787,-30.34633250058573" fill="none" id="id59" stroke="none" /><text fill="#e1ed5e" style="font-size:6.75px; font-family:Arial;" text-anchor="middle"><textPath startOffset="21.40746469413373" xlink:href="#id59">November</textPath></text><line stroke="#e1ed5e" stroke-width="0.3" x1="56.869717070023135" x2="54.33264160355391" y1="26.7553504044142" y2="22.446841604673864" /><path d="M 56.362301976729285 25.89364864446614 a86.0,86.0 0 0,1 42.16139366436587,-11.88097634709845" fill="none" id="id60" stroke="none" /><text fill="#e1ed5e" style="font-size:6.75px; font-family:Arial;" text-anchor="middle"><textPath startOffset="22.145653131862474" xlink:href="#id60">December</textPath></text></svg>