<?xml version="1.0" encoding="utf-8" ?>
<svg baseProfile="full" height="200mm" version="1.1" viewBox="0,0,200,200" width="200mm" xmlns="http://www.w3.org/2000/svg" xmlns:ev="http://www.w3.org/2001/xml-events" xmlns:xlink="http://www.w3.org/1999/xlink"><defs /><rect fill="#1a1a1a" height="200" width="200" x="0" y="0" /><text alignment-baseline="middle" fill="#e1ed5e" style="dominant-baseline: central; font-size:9.0px; font-family:Arial;" text-anchor="middle" x="100.0" y="100.0">2025</text><line stroke="#e1ed5e" stroke-width="0.3" x1="100.0" x2="100.0" y1="15.0" y2="10.0" /><path d="M 100.0 14.0 a86.0,86.0 0 0,1 42.46469731375804,11.215312516191453" fill="none" id="id61" stroke="none" /><text fill="#e1ed5e" style="font-size:6.75px; font-family:Arial;" text-anchor="middle"><textPath startOffset="22.20632615414155" xlink:href="#id61">January</textPath></text><path d="M 100.36148047927253 79.00311137660856 l 0.38139293898689774 -22.15352009539181 a43.15680286482772,43.15680286482772 0 0,0 0.7426532888330744,0.01918054340993552 l -0.7626728630148399 22.143672759839514" fill="#ffbe11" stroke="none" /><path d="M 101.08401301168833 79.027996857942 l 3.2520390350649873 -62.916009426173986 a84.0,84.0 0 0,0 1.4433518046415523,0.08706692247878367 l -4.334552888546152 62.8507092343149" fill="#4dd2ff" stroke="none" /><path d="M 102.16513564639614 79.11191278185805 l 1.6752786876584251 -16.162205541601985 a37.24879831403887,37.24879831403887 0 0,0 0.6371908861263605,0.07159582039581289 l -1.953236277294511 16.130973767735572" fill="#ff6109" stroke="none" /><path d="M 102.88285421437855 79.19881850522331 l 5.614915847495985 -40.51432189637762 a61.90155936755669,61.90155936755669 0 0,0 1.054186561413114,0.15535969608130856 l -6.311471389337755 40.41166771613534" fill="#45ff2d" stroke="none" /><path d="M 103.95276090670814 79.375362276772 l 1.9637360348094326 -10.246343064479067 a31.432823462965686,31.432823462965686 0 0,0 0.530516594312615,0.10641663797811263 l -2.139819038589173 10.211022470423746" fill="#ff0000" stroke="none" /><path d="M 104.307194497241 79.44645832069477 l 3.9459795047054174 -18.829856480267722 a40.23887339006719,40.23887339006719 0 0,0 0.6766976623603439,0.14789989893059263 l -4.269519891219289 18.759143083241256" fill="#ff910d" stroke="none" /><path d="M 104.66035177308747 79.52364482259891 l 4.990778835629104 -21.92816444465417 a43.488936597757544,43.488936597757544 0 0,0 0.728494179727606,0.17241103563856663 l -5.367496702319233 21.839007496874736" fill="#ffc312" stroke="none" /><path d="M 105.36241919743992 79.69619591428918 l 4.604135146458083 -17.432702397166086 a39.03045127873983,39.03045127873983 0 0,0 0.6480952735927473,0.1771489202136907 l -4.903528309274542 17.350866936126103" fill="#ff7e0b" stroke="none" /><path d="M 105.71112130821622 79.79150937346287 l 5.509515012540127 -19.49511776741751 a41.258686345340436,41.258686345340436 0 0,0 0.6817698936054283,0.19902732730485984 l -5.844275123868982 19.39739211119395" fill="#ffa10e" stroke="none" /><path d="M 106.40334571778207 80.00007090966166 l 10.16800661297188 -31.75830576893584 a54.346339286264445,54.346339286264445 0 0,0 0.8884777059626829,0.29291713066458247 l -10.71316714117698 31.578574914012023" fill="#a2ff22" stroke="none" /><path d="M 107.08798089147638 80.2323363322302 l 5.65619412759347 -15.774554822564292 a37.75795667314811,37.75795667314811 0 0,0 0.6099126783926252,0.22463598671683332 l -5.926889131758672 15.674855568041135" fill="#ff6909" stroke="none" /><path d="M 107.4271985657038 80.35727306442388 l 7.8353641868998825 -20.722203372178512 a43.15406609494699,43.15406609494699 0 0,0 0.6925546082244863,0.26870042850970943 l -8.190901960124036 20.584260239778256" fill="#ffbe11" stroke="none" /><path d="M 108.09893153111575 80.62456947434976 l 6.599582927605476 -15.788472840005767 a38.1122870896307,38.1122870896307 0 0,0 0.6031110489353694,0.25822067607287086 l -6.870377734331161 15.672532635970105" fill="#ff6f0a" stroke="none" /><path d="M 108.43124777332544 80.76684994638697 l 9.013562611763618 -20.561511995668692 a43.45039167819151,43.45039167819151 0 0,0 0.6824150540518936,0.30617974283171623 l -9.366159784282292 20.403311922320444" fill="#ffc212" stroke="none" /><path d="M 109.41281617654863 81.2277094730956 l 6.464779562942603 -12.892923634300793 a35.422928088198745,35.422928088198745 0 0,0 0.5427121719655066,0.2779982535358537 l -6.685752222496864 12.779732855452439" fill="#ff4306" stroke="none" /><path d="M 110.05341064243156 81.56283822128135 l 10.952376024203497 -20.08579334930653 a43.87779786270073,43.87779786270073 0 0,0 0.6599971128282717,0.3672876787252207 l -11.296497226103805 19.89429027302113" fill="#ffc912" stroke="none" /><line stroke="#e1ed5e" stroke-width="0.3" x1="143.23703022742887" x2="145.7803849466894" y1="26.81831364943548" y2="22.513508569990506" /><path d="M 143.74570117128098 25.957352633546492 a86.0,86.0 0 0,1 28.547481713284135,27.462654790039103" fill="none" id="id62" stroke="none" /><text fill="#e1ed5e" style="font-size:6.75px; font-family:Arial;" text-anchor="middle"><textPath startOffset="19.985693538727396" xlink:href="#id62">February</textPath></text><path d="M 110.99172775467656 82.1063720568725 l 10.919401188045454 -17.775886246591195 a41.861818093283205,41.861818093283205 0 0,0 0.6107456814599159,0.3824488897002829 l -11.223766021877633 17.58529301556797" fill="#ffaa0f" stroke="none" /><path d="M 111.2981086023043 82.29822771554956 l 23.05539752222557 -36.12298405263002 a63.853486809994905,63.853486809994905 0 0,0 0.9214148581941425,0.5993138545912088 l -23.67377940620399 35.72077127387928" fill="#2fff31" stroke="none" /><path d="M 111.90073688211348 82.69761687909136 l 30.064464855164445 -43.71047729245883 a74.05165286927428,74.05165286927428 0 0,0 1.0440184989025285,0.7314016773081421 l -30.81241449365062 43.18649077238676" fill="#3effb9" stroke="none" /><path d="M 112.48926042617603 83.11751280151076 l 6.215823439980454 -8.402303745192185 a31.451563005765266,31.451563005765266 0 0,0 0.4324647518202512,0.3257234851364549 l -6.359534345559088 8.294063670549884" fill="#ff0000" stroke="none" /><path d="M 113.06298171725822 83.55741782278167 l 18.314895693071676 -23.05324955807409 a50.44295704298294,50.44295704298294 0 0,0 0.6752068471971366,0.5459703129446405 l -18.709005938833304 22.73457314786532" fill="#d7ff1c" stroke="none" /><path d="M 113.89432698308785 84.25364557470407 l 12.477354634482268 -14.140508468226862 a39.85837634619247,39.85837634619247 0 0,0 0.5105459661614126,0.458373209354851 l -12.71891158823967 13.923636250102714" fill="#ff8b0c" stroke="none" /><path d="M 114.68862486808459 84.99185889309783 l 27.819067992183776 -28.42420591708147 a60.772302246291865,60.772302246291865 0 0,0 0.7413184846148088,0.7381350274516341 l -28.304222276965906 27.941135038979716" fill="#52ff2b" stroke="none" /><path d="M 115.4437574822437 85.77008943001954 l 31.584104780463694 -29.10166045896725 a63.947203823442656,63.947203823442656 0 0,0 0.7389140796467105,0.8159273822094046 l -32.08036250072644 28.553680289488295" fill="#30ff32" stroke="none" /><path d="M 115.68641384162765 86.03803664274999 l 17.826310414686947 -15.866615232624646 a44.864761091218426,44.864761091218426 0 0,0 0.5084846751593316,0.5812858841710379 l -18.09678695342413 15.557413792250662" fill="#ffd714" stroke="none" /><path d="M 116.38621287248628 86.86637796730983 l 23.32005039128961 -18.69112344663534 a50.88616479158288,50.88616479158288 0 0,0 0.5419277671362195,0.6881932306366019 l -23.638332239019793 18.2869378220457" fill="#d1ff1c" stroke="none" /><path d="M 116.82858285166822 87.43820079747576 l 32.026269102687316 -23.906205603883265 a60.96484178641126,60.96484178641126 0 0,0 0.6204983815213164,0.846359095064969 l -32.433030096722256 23.351384065146803" fill="#50ff2b" stroke="none" /><path d="M 117.2510076193507 88.02491185347247 l 22.496993607900407 -15.616680916903665 a48.386044698975695,48.386044698975695 0 0,0 0.46905785256050136,0.6882845199335472 l -22.76247592612964 15.22711837369971" fill="#f4ff19" stroke="none" /><path d="M 117.65298651832404 88.62581576622439 l 17.417331828377634 -11.222347044288075 a41.7196650842203,41.7196650842203 0 0,0 0.3837660946729767,0.6070258001456673 l -17.60792551929657 10.920873596428201" fill="#ffa80f" stroke="none" /><line stroke="#e1ed5e" stroke-width="0.3" x1="172.23445277983987" x2="176.4835382374775" y1="55.19839476539836" y2="52.563006222186495" /><path d="M 173.08426987136738 54.67131705675599 a86.0,86.0 0 0,1 12.851231095245387,41.99856678651699" fill="none" id="id63" stroke="none" /><text fill="#e1ed5e" style="font-size:6.75px; font-family:Arial;" text-anchor="middle"><textPath startOffset="22.20632615414155" xlink:href="#id63">March</textPath></text><path d="M 117.84615892207809 88.93136811851018 l 24.13023005761174 -14.966169184616014 a49.39461608643123,49.39461608643123 0 0,0 0.44192704820750345,0.7264118703597082 l -24.38427290410547 14.548589541049225" fill="#e6ff1a" stroke="none" /><path d="M 118.21658344932153 89.55222093294921 l 28.4541290383071 -16.31933093077666 a53.80179905671083,53.80179905671083 0 0,0 0.45383702798172904,0.8073254322830586 l -28.730823707581262 15.827121988558808" fill="#aaff21" stroke="none" /><path d="M 118.3937258080291 89.86733742301442 l 20.270827946497487 -11.166713143474718 a44.14307559649656,44.14307559649656 0 0,0 0.36090516930978545,0.668702466735163 l -20.460041215025736 10.816129693407097" fill="#ffcd13" stroke="none" /><path d="M 118.73160827565052 90.50648371742162 l 12.678738619075387 -6.425812976198785 a35.214129779058524,35.214129779058524 0 0,0 0.2693713024554746,0.543036108490557 l -12.78746993448427 6.206617279209278" fill="#ff4006" stroke="none" /><path d="M 119.04729006885535 91.15688171328212 l 26.89692606453503 -12.487482359850588 a50.654373158248404,50.654373158248404 0 0,0 0.36036409454839713,0.7940145142665117 l -27.107892476046775 12.022645836742015" fill="#d4ff1c" stroke="none" /><path d="M 119.196687751892 91.48605970444005 l 31.729348527227128 -14.072311977424318 a55.70996286878179,55.70996286878179 0 0,0 0.3812399627887259,0.8799543970773103 l -31.966879199858536 13.524058435760406" fill="#91ff24" stroke="none" /><line stroke="#e1ed5e" stroke-width="0.3" x1="184.98032266829074" x2="189.97916517819016" y1="98.17113171792111" y2="98.06355123074" /><path d="M 185.9800911702706 98.14961562048488 a86.0,86.0 0 0,1 -9.607161424134198,41.387399972396054" fill="none" id="id64" stroke="none" /><text fill="#e1ed5e" style="font-size:6.75px; font-family:Arial;" text-anchor="middle"><textPath startOffset="21.466115282336823" xlink:href="#id64">April</textPath></text><line stroke="#e1ed5e" stroke-width="0.3" x1="174.80103733775053" x2="179.2010983576182" y1="140.37084112569926" y2="142.7455964860345" /><path d="M 175.68104954172406 140.8457921977663 a86.0,86.0 0 0,1 -30.038265399797805,32.042727171017184" fill="none" id="id65" stroke="none" /><text fill="#e1ed5e" style="font-size:6.75px; font-family:Arial;" text-anchor="middle"><textPath startOffset="22.206326154141568" xlink:href="#id65">May</textPath></text><line stroke="#e1ed5e" stroke-width="0.3" x1="143.8653032363475" x2="146.44561519142675" y1="172.8068346515853" y2="177.08958963109032" /><path d="M 144.38136562736335 173.6633856474863 a86.0,86.0 0 0,1 -40.68145358897372,12.25698825130547" fill="none" id="id66" stroke="none" /><text fill="#e1ed5e" style="font-size:6.75px; font-family:Arial;" text-anchor="middle"><textPath startOffset="21.466115282336833" xlink:href="#id66">June</textPath></text><line stroke="#e1ed5e" stroke-width="0.3" x1="102.19456741930631" x2="102.32365962044197" y1="184.97166512339345" y2="189.96999836594603" /><path d="M 102.22038585953345 185.97133177190398 a86.0,86.0 0 0,1 -42.740103519485714,-10.115201625700543" fill="none" id="id67" stroke="none" /><text fill="#e1ed5e" style="font-size:6.75px; font-family:Arial;" text-anchor="middle"><textPath startOffset="22.20632615414155" xlink:href="#id67">July</textPath></text><line stroke="#e1ed5e" stroke-width="0.3" x1="58.666819895761336" x2="56.23545636021788" y1="174.27360380694188" y2="178.64263932499728" /><path d="M 58.180547188652646 175.14741091055294 a86.0,86.0 0 0,1 -31.652253787137756,-30.449443065178592" fill="none" id="id68" stroke="none" /><text fill="#e1ed5e" style="font-size:6.75px; font-family:Arial;" text-anchor="middle"><textPath startOffset="22.20632615414155" xlink:href="#id68">August</textPath></text><line stroke="#e1ed5e" stroke-width="0.3" x1="26.63291911575756" x2="22.317208475507996" y1="142.92168965132927" y2="145.44649492493687" /><path d="M 25.769776987707644 143.4266507060508 a86.0,86.0 0 0,1 -11.730757126820373,-40.83630448921669" fill="none" id="id69" stroke="none" /><text fill="#e1ed5e" style="font-size:6.75px; font-family:Arial;" text-anchor="middle"><textPath startOffset="21.46611528233685" xlink:href="#id69">September</textPath></text><line stroke="#e1ed5e" stroke-width="0.3" x1="15.007084014347285" x2="10.007500721073583" y1="101.09737516637583" y2="101.16192664675087" /><path d="M 14.007167355692545 101.11028546245083 a86.0,86.0 0 0,1 10.666146001902534,-42.60595125391555" fill="none" id="id70" stroke="none" /><text fill="#e1ed5e" style="font-size:6.75px; font-family:Arial;" text-anchor="middle"><textPath startOffset="22.20632615414155" xlink:href="#id70">October</textPath></text><line stroke="#e1ed5e" stroke-width="0.3" x1="26.266209847984243" x2="21.928928074336255" y1="57.711370442889674" y2="55.22380399835377" /><path d="M 25.398753493254645 57.213857153982495 a86.0,86.0 0 0,1 29.58750427330803,-30.492523968695096" fill="none" id="id71" stroke="none" /><text fill="#e1ed5e" style="font-size:6.75px; font-family:Arial;" text-anchor="middle"><textPath startOffset="21.46611528233685" xlink:href="#id71">November</textPath></text><line stroke="#e1ed5e" stroke-width="0.3" x1="56.762969772571076" x2="54.21961505331055" y1="26.818313649435495" y2="22.513508569990535" /><path d="M 56.25429882871897 25.957352633546506 a86.0,86.0 0 0,1 42.265352541879196,-11.944610805530505" fill="none" id="id72" stroke="none" /><text fill="#e1ed5e" style="font-size:6.75px; font-family:Arial;" text-anchor="middle"><textPath startOffset="22.20632615414155" xlink:href="#id72">December</textPath></text></svg>