<?xml version="1.0" encoding="utf-8" ?>
<svg baseProfile="full" height="300mm" version="1.1" viewBox="0,0,200,300" width="200mm" xmlns="http://www.w3.org/2000/svg" xmlns:ev="http://www.w3.org/2001/xml-events" xmlns:xlink="http://www.w3.org/1999/xlink"><defs /><rect fill="#222222" height="300" width="200" x="0" y="0" /><text fill="#555555" style="font-size:6px; font-family:Arial;" x="11" y="19">Running for 2162 Days</text><text fill="#555555" style="font-size:6px; font-family:Arial;" x="11" y="39">Races</text><text fill="#555555" style="font-size:8px; font-family:Arial;" x="11" y="59">1</text><text fill="#FFFFFF" style="font-size:10px; font-family:Arial; font-weight:bold;" x="23" y="59">Half</text><text fill="#555555" style="font-size:6px; font-family:Arial;" x="49" y="59">1x</text><text fill="#555555" style="font-size:8px; font-family:Arial;" x="11" y="77">2</text><text fill="#FFFFFF" style="font-size:10px; font-family:Arial; font-weight:bold;" x="23" y="77">10K</text><text fill="#555555" style="font-size:6px; font-family:Arial;" x="49" y="77">22x</text><text fill="#555555" style="font-size:6px; font-family:Arial;" x="11" y="115">Stats</text><text fill="#555555" style="font-size:5px; font-family:Arial;" x="11" y="121">Distance</text><text fill="#FFFFFF" style="font-size:10px; font-family:Arial; font-weight:bold;" x="11" y="132">1317</text><text fill="#555555" style="font-size:6px; font-family:Arial;" x="35" y="132">km</text><text fill="#555555" style="font-size:5px; font-family:Arial;" x="53" y="121">Runs</text><text fill="#FFFFFF" style="font-size:10px; font-family:Arial; font-weight:bold;" x="53" y="132">185</text><text fill="#555555" style="font-size:5px; font-family:Arial;" x="11" y="149">Avg Pace</text><text fill="#FFFFFF" style="font-size:10px; font-family:Arial; font-weight:bold;" x="11" y="160">7'34"</text><text fill="#555555" style="font-size:5px; font-family:Arial;" x="53" y="149">Streak</text><text fill="#FFFFFF" style="font-size:10px; font-family:Arial; font-weight:bold;" x="53" y="160">7</text><text fill="#555555" style="font-size:6px; font-family:Arial;" x="59" y="160">d</text><text fill="#555555" style="font-size:5px; font-family:Arial;" x="11" y="177">Time</text><text fill="#FFFFFF" style="font-size:10px; font-family:Arial; font-weight:bold;" x="11" y="188">166</text><text fill="#555555" style="font-size:6px; font-family:Arial;" x="29" y="188">h</text><text fill="#555555" style="font-size:5px; font-family:Arial;" x="53" y="177">Longest</text><text fill="#FFFFFF" style="font-size:10px; font-family:Arial; font-weight:bold;" x="53" y="188">31.5</text><text fill="#555555" style="font-size:5px; font-family:Arial;" x="11" y="252.0645161290322">Runner</text><text fill="#FFFFFF" style="font-size:8px; font-family:Arial; font-weight:bold;" x="11" y="262.0645161290322">Liang</text><text fill="#555555" style="font-size:7px; font-family:Arial;" x="11" y="285.5806451612903">running_page/2021</text><circle cx="85.41666666666667" cy="17.419354838709676" fill="#555555" r="3.3125"><title>2021-01-01</title></circle><circle cx="85.41666666666667" cy="26.25806451612903" fill="#555555" r="3.3125"><title>2021-01-02</title></circle><circle cx="85.41666666666667" cy="35.096774193548384" fill="#555555" r="3.3125"><title>2021-01-03</title></circle><circle cx="85.41666666666667" cy="43.935483870967744" fill="#4fa3c0" r="3.3125"><title>2021-01-04: 6 km</title></circle><circle cx="85.41666666666667" cy="52.774193548387096" fill="#555555" r="3.3125"><title>2021-01-05</title></circle><circle cx="85.41666666666667" cy="61.61290322580645" fill="#555555" r="3.3125"><title>2021-01-06</title></circle><circle cx="85.41666666666667" cy="70.45161290322581" fill="#555555" r="3.3125"><title>2021-01-07</title></circle><circle cx="85.41666666666667" cy="79.29032258064517" fill="#555555" r="3.3125"><title>2021-01-08</title></circle><circle cx="85.41666666666667" cy="88.12903225806451" fill="#555555" r="3.3125"><title>2021-01-09</title></circle><circle cx="85.41666666666667" cy="96.96774193548387" fill="#555555" r="3.3125"><title>2021-01-10</title></circle><circle cx="85.41666666666667" cy="105.80645161290322" fill="#555555" r="3.3125"><title>2021-01-11</title></circle><circle cx="85.41666666666667" cy="114.64516129032258" fill="#555555" r="3.3125"><title>2021-01-12</title></circle><circle cx="85.41666666666667" cy="123.48387096774194" fill="#FFFF00" r="3.3125"><title>2021-01-13: 10 km</title></circle><circle cx="85.41666666666667" cy="132.32258064516128" fill="#555555" r="3.3125"><title>2021-01-14</title></circle><circle cx="85.41666666666667" cy="141.16129032258064" fill="#555555" r="3.3125"><title>2021-01-15</title></circle><circle cx="85.41666666666667" cy="149.99999999999997" fill="#555555" r="3.3125"><title>2021-01-16</title></circle><circle cx="85.41666666666667" cy="158.83870967741933" fill="#555555" r="3.3125"><title>2021-01-17</title></circle><circle cx="85.41666666666667" cy="167.6774193548387" fill="#555555" r="3.3125"><title>2021-01-18</title></circle><circle cx="85.41666666666667" cy="176.51612903225805" fill="#555555" r="3.3125"><title>2021-01-19</title></circle><circle cx="85.41666666666667" cy="185.35483870967738" fill="#4ec1e9" r="3.3125"><title>2021-01-20: 8 km</title></circle><circle cx="85.41666666666667" cy="194.19354838709674" fill="#555555" r="3.3125"><title>2021-01-21</title></circle><circle cx="85.41666666666667" cy="203.0322580645161" fill="#555555" r="3.3125"><title>2021-01-22</title></circle><circle cx="85.41666666666667" cy="211.87096774193546" fill="#555555" r="3.3125"><title>2021-01-23</title></circle><circle cx="85.41666666666667" cy="220.70967741935482" fill="#555555" r="3.3125"><title>2021-01-24</title></circle><circle cx="85.41666666666667" cy="229.54838709677418" fill="#4fa3c0" r="3.3125"><title>2021-01-25: 6 km</title></circle><circle cx="85.41666666666667" cy="238.3870967741935" fill="#555555" r="3.3125"><title>2021-01-26</title></circle><circle cx="85.41666666666667" cy="247.22580645161287" fill="#4ebbdf" r="3.3125"><title>2021-01-27: 8 km</title></circle><circle cx="85.41666666666667" cy="256.06451612903226" fill="#555555" r="3.3125"><title>2021-01-28</title></circle><circle cx="85.41666666666667" cy="264.90322580645164" fill="#555555" r="3.3125"><title>2021-01-29</title></circle><circle cx="85.41666666666667" cy="273.741935483871" fill="#51899c" r="3.3125"><title>2021-01-30: 4 km</title></circle><circle cx="85.41666666666667" cy="282.5806451612903" fill="#555555" r="3.3125"><title>2021-01-31</title></circle><circle cx="94.25" cy="17.419354838709676" fill="#555555" r="3.3125"><title>2021-02-01</title></circle><circle cx="94.25" cy="26.25806451612903" fill="#4eb5d7" r="3.3125"><title>2021-02-02: 7 km</title></circle><circle cx="94.25" cy="35.096774193548384" fill="#555555" r="3.3125"><title>2021-02-03</title></circle><circle cx="94.25" cy="43.935483870967744" fill="#555555" r="3.3125"><title>2021-02-04</title></circle><circle cx="94.25" cy="52.774193548387096" fill="#53717b" r="3.3125"><title>2021-02-05: 2 km</title></circle><circle cx="94.25" cy="61.61290322580645" fill="#4ebade" r="3.3125"><title>2021-02-06: 8 km</title></circle><circle cx="94.25" cy="70.45161290322581" fill="#518ca0" r="3.3125"><title>2021-02-07: 4 km</title></circle><circle cx="94.25" cy="79.29032258064517" fill="#555555" r="3.3125"><title>2021-02-08</title></circle><circle cx="94.25" cy="88.12903225806451" fill="#555555" r="3.3125"><title>2021-02-09</title></circle><circle cx="94.25" cy="96.96774193548387" fill="#555555" r="3.3125"><title>2021-02-10</title></circle><circle cx="94.25" cy="105.80645161290322" fill="#555555" r="3.3125"><title>2021-02-11</title></circle><circle cx="94.25" cy="114.64516129032258" fill="#555555" r="3.3125"><title>2021-02-12</title></circle><circle cx="94.25" cy="123.48387096774194" fill="#555555" r="3.3125"><title>2021-02-13</title></circle><circle cx="94.25" cy="132.32258064516128" fill="#4dcffb" r="3.3125"><title>2021-02-14: 9 km</title></circle><circle cx="94.25" cy="141.16129032258064" fill="#555555" r="3.3125"><title>2021-02-15</title></circle><circle cx="94.25" cy="149.99999999999997" fill="#51899b" r="3.3125"><title>2021-02-16: 4 km</title></circle><circle cx="94.25" cy="158.83870967741933" fill="#555555" r="3.3125"><title>2021-02-17</title></circle><circle cx="94.25" cy="167.6774193548387" fill="#555555" r="3.3125"><title>2021-02-18</title></circle><circle cx="94.25" cy="176.51612903225805" fill="#528090" r="3.3125"><title>2021-02-19: 3 km</title></circle><circle cx="94.25" cy="185.35483870967738" fill="#5192a9" r="3.3125"><title>2021-02-20: 4 km</title></circle><circle cx="94.25" cy="194.19354838709674" fill="#4fb0d1" r="3.3125"><title>2021-02-21: 7 km</title></circle><circle cx="94.25" cy="203.0322580645161" fill="#555555" r="3.3125"><title>2021-02-22</title></circle><circle cx="94.25" cy="211.87096774193546" fill="#555555" r="3.3125"><title>2021-02-23</title></circle><circle cx="94.25" cy="220.70967741935482" fill="#4eb4d6" r="3.3125"><title>2021-02-24: 7 km</title></circle><circle cx="94.25" cy="229.54838709677418" fill="#555555" r="3.3125"><title>2021-02-25</title></circle><circle cx="94.25" cy="238.3870967741935" fill="#555555" r="3.3125"><title>2021-02-26</title></circle><circle cx="94.25" cy="247.22580645161287" fill="#527d8c" r="3.3125"><title>2021-02-27: 3 km</title></circle><circle cx="94.25" cy="256.06451612903226" fill="#4fa7c5" r="3.3125"><title>2021-02-28: 6 km</title></circle><circle cx="103.08333333333334" cy="17.419354838709676" fill="#555555" r="3.3125"><title>2021-03-01</title></circle><circle cx="103.08333333333334" cy="26.25806451612903" fill="#555555" r="3.3125"><title>2021-03-02</title></circle><circle cx="103.08333333333334" cy="35.096774193548384" fill="#4ec1e8" r="3.3125"><title>2021-03-03: 8 km</title></circle><circle cx="103.08333333333334" cy="43.935483870967744" fill="#555555" r="3.3125"><title>2021-03-04</title></circle><circle cx="103.08333333333334" cy="52.774193548387096" fill="#555555" r="3.3125"><title>2021-03-05</title></circle><circle cx="103.08333333333334" cy="61.61290322580645" fill="#527b89" r="3.3125"><title>2021-03-06: 3 km</title></circle><circle cx="103.08333333333334" cy="70.45161290322581" fill="#555555" r="3.3125"><title>2021-03-07</title></circle><circle cx="103.08333333333334" cy="79.29032258064517" fill="#5193a9" r="3.3125"><title>2021-03-08: 4 km</title></circle><circle cx="103.08333333333334" cy="88.12903225806451" fill="#555555" r="3.3125"><title>2021-03-09</title></circle><circle cx="103.08333333333334" cy="96.96774193548387" fill="#509bb5" r="3.3125"><title>2021-03-10: 5 km</title></circle><circle cx="103.08333333333334" cy="105.80645161290322" fill="#555555" r="3.3125"><title>2021-03-11</title></circle><circle cx="103.08333333333334" cy="114.64516129032258" fill="#555555" r="3.3125"><title>2021-03-12</title></circle><circle cx="103.08333333333334" cy="123.48387096774194" fill="#527b89" r="3.3125"><title>2021-03-13: 3 km</title></circle><circle cx="103.08333333333334" cy="132.32258064516128" fill="#4dd0fd" r="3.3125"><title>2021-03-14: 9 km</title></circle><circle cx="103.08333333333334" cy="141.16129032258064" fill="#555555" r="3.3125"><title>2021-03-15</title></circle><circle cx="103.08333333333334" cy="149.99999999999997" fill="#555555" r="3.3125"><title>2021-03-16</title></circle><circle cx="103.08333333333334" cy="158.83870967741933" fill="#5097af" r="3.3125"><title>2021-03-17: 5 km</title></circle><circle cx="103.08333333333334" cy="167.6774193548387" fill="#555555" r="3.3125"><title>2021-03-18</title></circle><circle cx="103.08333333333334" cy="176.51612903225805" fill="#555555" r="3.3125"><title>2021-03-19</title></circle><circle cx="103.08333333333334" cy="185.35483870967738" fill="#527c8a" r="3.3125"><title>2021-03-20: 3 km</title></circle><circle cx="103.08333333333334" cy="194.19354838709674" fill="#4fa3bf" r="3.3125"><title>2021-03-21: 6 km</title></circle><circle cx="103.08333333333334" cy="203.0322580645161" fill="#555555" r="3.3125"><title>2021-03-22</title></circle><circle cx="103.08333333333334" cy="211.87096774193546" fill="#555555" r="3.3125"><title>2021-03-23</title></circle><circle cx="103.08333333333334" cy="220.70967741935482" fill="#4faecf" r="3.3125"><title>2021-03-24: 7 km</title></circle><circle cx="103.08333333333334" cy="229.54838709677418" fill="#555555" r="3.3125"><title>2021-03-25</title></circle><circle cx="103.08333333333334" cy="238.3870967741935" fill="#555555" r="3.3125"><title>2021-03-26</title></circle><circle cx="103.08333333333334" cy="247.22580645161287" fill="#527a88" r="3.3125"><title>2021-03-27: 3 km</title></circle><circle cx="103.08333333333334" cy="256.06451612903226" fill="#FFFF00" r="3.3125"><title>2021-03-28: 11 km</title></circle><circle cx="103.08333333333334" cy="264.90322580645164" fill="#555555" r="3.3125"><title>2021-03-29</title></circle><circle cx="103.08333333333334" cy="273.741935483871" fill="#555555" r="3.3125"><title>2021-03-30</title></circle><circle cx="103.08333333333334" cy="282.5806451612903" fill="#4fa9c7" r="3.3125"><title>2021-03-31: 6 km</title></circle><circle cx="111.91666666666667" cy="17.419354838709676" fill="#555555" r="3.3125"><title>2021-04-01</title></circle><circle cx="111.91666666666667" cy="26.25806451612903" fill="#555555" r="3.3125"><title>2021-04-02</title></circle><circle cx="111.91666666666667" cy="35.096774193548384" fill="#527b88" r="3.3125"><title>2021-04-03: 3 km</title></circle><circle cx="111.91666666666667" cy="43.935483870967744" fill="#555555" r="3.3125"><title>2021-04-04</title></circle><circle cx="111.91666666666667" cy="52.774193548387096" fill="#555555" r="3.3125"><title>2021-04-05</title></circle><circle cx="111.91666666666667" cy="61.61290322580645" fill="#4fa9c7" r="3.3125"><title>2021-04-06: 6 km</title></circle><circle cx="111.91666666666667" cy="70.45161290322581" fill="#555555" r="3.3125"><title>2021-04-07</title></circle><circle cx="111.91666666666667" cy="79.29032258064517" fill="#4fa4c1" r="3.3125"><title>2021-04-08: 6 km</title></circle><circle cx="111.91666666666667" cy="88.12903225806451" fill="#555555" r="3.3125"><title>2021-04-09</title></circle><circle cx="111.91666666666667" cy="96.96774193548387" fill="#555555" r="3.3125"><title>2021-04-10</title></circle><circle cx="111.91666666666667" cy="105.80645161290322" fill="#555555" r="3.3125"><title>2021-04-11</title></circle><circle cx="111.91666666666667" cy="114.64516129032258" fill="#FFFF00" r="3.3125"><title>2021-04-12: 13 km</title></circle><circle cx="111.91666666666667" cy="123.48387096774194" fill="#555555" r="3.3125"><title>2021-04-13</title></circle><circle cx="111.91666666666667" cy="132.32258064516128" fill="#50a2be" r="3.3125"><title>2021-04-14: 6 km</title></circle><circle cx="111.91666666666667" cy="141.16129032258064" fill="#555555" r="3.3125"><title>2021-04-15</title></circle><circle cx="111.91666666666667" cy="149.99999999999997" fill="#555555" r="3.3125"><title>2021-04-16</title></circle><circle cx="111.91666666666667" cy="158.83870967741933" fill="#527d8c" r="3.3125"><title>2021-04-17: 3 km</title></circle><circle cx="111.91666666666667" cy="167.6774193548387" fill="#4eb5d8" r="3.3125"><title>2021-04-18: 7 km</title></circle><circle cx="111.91666666666667" cy="176.51612903225805" fill="#555555" r="3.3125"><title>2021-04-19</title></circle><circle cx="111.91666666666667" cy="185.35483870967738" fill="#555555" r="3.3125"><title>2021-04-20</title></circle><circle cx="111.91666666666667" cy="194.19354838709674" fill="#4fa5c1" r="3.3125"><title>2021-04-21: 6 km</title></circle><circle cx="111.91666666666667" cy="203.0322580645161" fill="#528293" r="3.3125"><title>2021-04-22: 3 km</title></circle><circle cx="111.91666666666667" cy="211.87096774193546" fill="#555555" r="3.3125"><title>2021-04-23</title></circle><circle cx="111.91666666666667" cy="220.70967741935482" fill="#FFFF00" r="3.3125"><title>2021-04-24: 13 km</title></circle><circle cx="111.91666666666667" cy="229.54838709677418" fill="#5099b1" r="3.3125"><title>2021-04-25: 5 km</title></circle><circle cx="111.91666666666667" cy="238.3870967741935" fill="#555555" r="3.3125"><title>2021-04-26</title></circle><circle cx="111.91666666666667" cy="247.22580645161287" fill="#555555" r="3.3125"><title>2021-04-27</title></circle><circle cx="111.91666666666667" cy="256.06451612903226" fill="#4fabca" r="3.3125"><title>2021-04-28: 6 km</title></circle><circle cx="111.91666666666667" cy="264.90322580645164" fill="#4dc9f3" r="3.3125"><title>2021-04-29: 9 km</title></circle><circle cx="111.91666666666667" cy="273.741935483871" fill="#555555" r="3.3125"><title>2021-04-30</title></circle><circle cx="120.75000000000001" cy="17.419354838709676" fill="#528191" r="3.3125"><title>2021-05-01: 3 km</title></circle><circle cx="120.75000000000001" cy="26.25806451612903" fill="#5095ad" r="3.3125"><title>2021-05-02: 5 km</title></circle><circle cx="120.75000000000001" cy="35.096774193548384" fill="#555555" r="3.3125"><title>2021-05-03</title></circle><circle cx="120.75000000000001" cy="43.935483870967744" fill="#555555" r="3.3125"><title>2021-05-04</title></circle><circle cx="120.75000000000001" cy="52.774193548387096" fill="#4eb7db" r="3.3125"><title>2021-05-05: 7 km</title></circle><circle cx="120.75000000000001" cy="61.61290322580645" fill="#555555" r="3.3125"><title>2021-05-06</title></circle><circle cx="120.75000000000001" cy="70.45161290322581" fill="#4eb3d5" r="3.3125"><title>2021-05-07: 7 km</title></circle><circle cx="120.75000000000001" cy="79.29032258064517" fill="#FFFF00" r="3.3125"><title>2021-05-08: 18 km</title></circle><circle cx="120.75000000000001" cy="88.12903225806451" fill="#555555" r="3.3125"><title>2021-05-09</title></circle><circle cx="120.75000000000001" cy="96.96774193548387" fill="#555555" r="3.3125"><title>2021-05-10</title></circle><circle cx="120.75000000000001" cy="105.80645161290322" fill="#555555" r="3.3125"><title>2021-05-11</title></circle><circle cx="120.75000000000001" cy="114.64516129032258" fill="#555555" r="3.3125"><title>2021-05-12</title></circle><circle cx="120.75000000000001" cy="123.48387096774194" fill="#4fabcb" r="3.3125"><title>2021-05-13: 6 km</title></circle><circle cx="120.75000000000001" cy="132.32258064516128" fill="#555555" r="3.3125"><title>2021-05-14</title></circle><circle cx="120.75000000000001" cy="141.16129032258064" fill="#528292" r="3.3125"><title>2021-05-15: 3 km</title></circle><circle cx="120.75000000000001" cy="149.99999999999997" fill="#4fb0d1" r="3.3125"><title>2021-05-16: 7 km</title></circle><circle cx="120.75000000000001" cy="158.83870967741933" fill="#555555" r="3.3125"><title>2021-05-17</title></circle><circle cx="120.75000000000001" cy="167.6774193548387" fill="#518596" r="3.3125"><title>2021-05-18: 3 km</title></circle><circle cx="120.75000000000001" cy="176.51612903225805" fill="#555555" r="3.3125"><title>2021-05-19</title></circle><circle cx="120.75000000000001" cy="185.35483870967738" fill="#4fb1d3" r="3.3125"><title>2021-05-20: 7 km</title></circle><circle cx="120.75000000000001" cy="194.19354838709674" fill="#555555" r="3.3125"><title>2021-05-21</title></circle><circle cx="120.75000000000001" cy="203.0322580645161" fill="#FFFF00" r="3.3125"><title>2021-05-22: 31 km</title></circle><circle cx="120.75000000000001" cy="211.87096774193546" fill="#555555" r="3.3125"><title>2021-05-23</title></circle><circle cx="120.75000000000001" cy="220.70967741935482" fill="#555555" r="3.3125"><title>2021-05-24</title></circle><circle cx="120.75000000000001" cy="229.54838709677418" fill="#555555" r="3.3125"><title>2021-05-25</title></circle><circle cx="120.75000000000001" cy="238.3870967741935" fill="#555555" r="3.3125"><title>2021-05-26</title></circle><circle cx="120.75000000000001" cy="247.22580645161287" fill="#4fa7c5" r="3.3125"><title>2021-05-27: 6 km</title></circle><circle cx="120.75000000000001" cy="256.06451612903226" fill="#555555" r="3.3125"><title>2021-05-28</title></circle><circle cx="120.75000000000001" cy="264.90322580645164" fill="#509ab3" r="3.3125"><title>2021-05-29: 5 km</title></circle><circle cx="120.75000000000001" cy="273.741935483871" fill="#518b9f" r="3.3125"><title>2021-05-30: 4 km</title></circle><circle cx="120.75000000000001" cy="282.5806451612903" fill="#555555" r="3.3125"><title>2021-05-31</title></circle><circle cx="129.58333333333334" cy="17.419354838709676" fill="#4fa8c5" r="3.3125"><title>2021-06-01: 6 km</title></circle><circle cx="129.58333333333334" cy="26.25806451612903" fill="#555555" r="3.3125"><title>2021-06-02</title></circle><circle cx="129.58333333333334" cy="35.096774193548384" fill="#4fabca" r="3.3125"><title>2021-06-03: 6 km</title></circle><circle cx="129.58333333333334" cy="43.935483870967744" fill="#555555" r="3.3125"><title>2021-06-04</title></circle><circle cx="129.58333333333334" cy="52.774193548387096" fill="#4dc7f1" r="3.3125"><title>2021-06-05: 9 km</title></circle><circle cx="129.58333333333334" cy="61.61290322580645" fill="#FFFF00" r="3.3125"><title>2021-06-06: 11 km</title></circle><circle cx="129.58333333333334" cy="70.45161290322581" fill="#555555" r="3.3125"><title>2021-06-07</title></circle><circle cx="129.58333333333334" cy="79.29032258064517" fill="#4fa3bf" r="3.3125"><title>2021-06-08: 6 km</title></circle><circle cx="129.58333333333334" cy="88.12903225806451" fill="#555555" r="3.3125"><title>2021-06-09</title></circle><circle cx="129.58333333333334" cy="96.96774193548387" fill="#555555" r="3.3125"><title>2021-06-10</title></circle><circle cx="129.58333333333334" cy="105.80645161290322" fill="#51879a" r="3.3125"><title>2021-06-11: 4 km</title></circle><circle cx="129.58333333333334" cy="114.64516129032258" fill="#FFFF00" r="3.3125"><title>2021-06-12: 11 km</title></circle><circle cx="129.58333333333334" cy="123.48387096774194" fill="#555555" r="3.3125"><title>2021-06-13</title></circle><circle cx="129.58333333333334" cy="132.32258064516128" fill="#FFFF00" r="3.3125"><title>2021-06-14: 15 km</title></circle><circle cx="129.58333333333334" cy="141.16129032258064" fill="#5096ae" r="3.3125"><title>2021-06-15: 5 km</title></circle><circle cx="129.58333333333334" cy="149.99999999999997" fill="#5191a7" r="3.3125"><title>2021-06-16: 4 km</title></circle><circle cx="129.58333333333334" cy="158.83870967741933" fill="#555555" r="3.3125"><title>2021-06-17</title></circle><circle cx="129.58333333333334" cy="167.6774193548387" fill="#555555" r="3.3125"><title>2021-06-18</title></circle><circle cx="129.58333333333334" cy="176.51612903225805" fill="#4faac8" r="3.3125"><title>2021-06-19: 6 km</title></circle><circle cx="129.58333333333334" cy="185.35483870967738" fill="#FFFF00" r="3.3125"><title>2021-06-20: 10 km</title></circle><circle cx="129.58333333333334" cy="194.19354838709674" fill="#555555" r="3.3125"><title>2021-06-21</title></circle><circle cx="129.58333333333334" cy="203.0322580645161" fill="#4fabca" r="3.3125"><title>2021-06-22: 6 km</title></circle><circle cx="129.58333333333334" cy="211.87096774193546" fill="#527e8d" r="3.3125"><title>2021-06-23: 3 km</title></circle><circle cx="129.58333333333334" cy="220.70967741935482" fill="#5193a9" r="3.3125"><title>2021-06-24: 4 km</title></circle><circle cx="129.58333333333334" cy="229.54838709677418" fill="#555555" r="3.3125"><title>2021-06-25</title></circle><circle cx="129.58333333333334" cy="238.3870967741935" fill="#4eb2d4" r="3.3125"><title>2021-06-26: 7 km</title></circle><circle cx="129.58333333333334" cy="247.22580645161287" fill="#555555" r="3.3125"><title>2021-06-27</title></circle><circle cx="129.58333333333334" cy="256.06451612903226" fill="#5096ad" r="3.3125"><title>2021-06-28: 5 km</title></circle><circle cx="129.58333333333334" cy="264.90322580645164" fill="#527e8d" r="3.3125"><title>2021-06-29: 3 km</title></circle><circle cx="129.58333333333334" cy="273.741935483871" fill="#4faac9" r="3.3125"><title>2021-06-30: 6 km</title></circle><circle cx="138.41666666666666" cy="17.419354838709676" fill="#555555" r="3.3125"><title>2021-07-01</title></circle><circle cx="138.41666666666666" cy="26.25806451612903" fill="#518a9d" r="3.3125"><title>2021-07-02: 4 km</title></circle><circle cx="138.41666666666666" cy="35.096774193548384" fill="#50a3bf" r="3.3125"><title>2021-07-03: 6 km</title></circle><circle cx="138.41666666666666" cy="43.935483870967744" fill="#FFFF00" r="3.3125"><title>2021-07-04: 10 km</title></circle><circle cx="138.41666666666666" cy="52.774193548387096" fill="#518da1" r="3.3125"><title>2021-07-05: 4 km</title></circle><circle cx="138.41666666666666" cy="61.61290322580645" fill="#5096ae" r="3.3125"><title>2021-07-06: 5 km</title></circle><circle cx="138.41666666666666" cy="70.45161290322581" fill="#555555" r="3.3125"><title>2021-07-07</title></circle><circle cx="138.41666666666666" cy="79.29032258064517" fill="#527e8d" r="3.3125"><title>2021-07-08: 3 km</title></circle><circle cx="138.41666666666666" cy="88.12903225806451" fill="#527a88" r="3.3125"><title>2021-07-09: 3 km</title></circle><circle cx="138.41666666666666" cy="96.96774193548387" fill="#4dcdf8" r="3.3125"><title>2021-07-10: 9 km</title></circle><circle cx="138.41666666666666" cy="105.80645161290322" fill="#555555" r="3.3125"><title>2021-07-11</title></circle><circle cx="138.41666666666666" cy="114.64516129032258" fill="#555555" r="3.3125"><title>2021-07-12</title></circle><circle cx="138.41666666666666" cy="123.48387096774194" fill="#4faccc" r="3.3125"><title>2021-07-13: 7 km</title></circle><circle cx="138.41666666666666" cy="132.32258064516128" fill="#5097af" r="3.3125"><title>2021-07-14: 5 km</title></circle><circle cx="138.41666666666666" cy="141.16129032258064" fill="#4fa3bf" r="3.3125"><title>2021-07-15: 6 km</title></circle><circle cx="138.41666666666666" cy="149.99999999999997" fill="#FFFF00" r="3.3125"><title>2021-07-16: 12 km</title></circle><circle cx="138.41666666666666" cy="158.83870967741933" fill="#555555" r="3.3125"><title>2021-07-17</title></circle><circle cx="138.41666666666666" cy="167.6774193548387" fill="#555555" r="3.3125"><title>2021-07-18</title></circle><circle cx="138.41666666666666" cy="176.51612903225805" fill="#4faece" r="3.3125"><title>2021-07-19: 7 km</title></circle><circle cx="138.41666666666666" cy="185.35483870967738" fill="#555555" r="3.3125"><title>2021-07-20</title></circle><circle cx="138.41666666666666" cy="194.19354838709674" fill="#4fa3c0" r="3.3125"><title>2021-07-21: 6 km</title></circle><circle cx="138.41666666666666" cy="203.0322580645161" fill="#555555" r="3.3125"><title>2021-07-22</title></circle><circle cx="138.41666666666666" cy="211.87096774193546" fill="#509ab4" r="3.3125"><title>2021-07-23: 5 km</title></circle><circle cx="138.41666666666666" cy="220.70967741935482" fill="#518c9f" r="3.3125"><title>2021-07-24: 4 km</title></circle><circle cx="138.41666666666666" cy="229.54838709677418" fill="#555555" r="3.3125"><title>2021-07-25</title></circle><circle cx="138.41666666666666" cy="238.3870967741935" fill="#555555" r="3.3125"><title>2021-07-26</title></circle><circle cx="138.41666666666666" cy="247.22580645161287" fill="#52808f" r="3.3125"><title>2021-07-27: 3 km</title></circle><circle cx="138.41666666666666" cy="256.06451612903226" fill="#4eb5d8" r="3.3125"><title>2021-07-28: 7 km</title></circle><circle cx="138.41666666666666" cy="264.90322580645164" fill="#555555" r="3.3125"><title>2021-07-29</title></circle><circle cx="138.41666666666666" cy="273.741935483871" fill="#4eb4d6" r="3.3125"><title>2021-07-30: 7 km</title></circle><circle cx="138.41666666666666" cy="282.5806451612903" fill="#4fa9c7" r="3.3125"><title>2021-07-31: 6 km</title></circle><circle cx="147.25" cy="17.419354838709676" fill="#555555" r="3.3125"><title>2021-08-01</title></circle><circle cx="147.25" cy="26.25806451612903" fill="#509bb5" r="3.3125"><title>2021-08-02: 5 km</title></circle><circle cx="147.25" cy="35.096774193548384" fill="#53707a" r="3.3125"><title>2021-08-03: 2 km</title></circle><circle cx="147.25" cy="43.935483870967744" fill="#FFFF00" r="3.3125"><title>2021-08-04: 12 km</title></circle><circle cx="147.25" cy="52.774193548387096" fill="#555555" r="3.3125"><title>2021-08-05</title></circle><circle cx="147.25" cy="61.61290322580645" fill="#4faece" r="3.3125"><title>2021-08-06: 7 km</title></circle><circle cx="147.25" cy="70.45161290322581" fill="#555555" r="3.3125"><title>2021-08-07</title></circle><circle cx="147.25" cy="79.29032258064517" fill="#509ab3" r="3.3125"><title>2021-08-08: 5 km</title></circle><circle cx="147.25" cy="88.12903225806451" fill="#555555" r="3.3125"><title>2021-08-09</title></circle><circle cx="147.25" cy="96.96774193548387" fill="#4fa4c1" r="3.3125"><title>2021-08-10: 6 km</title></circle><circle cx="147.25" cy="105.80645161290322" fill="#527480" r="3.3125"><title>2021-08-11: 2 km</title></circle><circle cx="147.25" cy="114.64516129032258" fill="#4dc4ed" r="3.3125"><title>2021-08-12: 8 km</title></circle><circle cx="147.25" cy="123.48387096774194" fill="#555555" r="3.3125"><title>2021-08-13</title></circle><circle cx="147.25" cy="132.32258064516128" fill="#527b88" r="3.3125"><title>2021-08-14: 3 km</title></circle><circle cx="147.25" cy="141.16129032258064" fill="#4fa5c2" r="3.3125"><title>2021-08-15: 6 km</title></circle><circle cx="147.25" cy="149.99999999999997" fill="#555555" r="3.3125"><title>2021-08-16</title></circle><circle cx="147.25" cy="158.83870967741933" fill="#4eb8dc" r="3.3125"><title>2021-08-17: 7 km</title></circle><circle cx="147.25" cy="167.6774193548387" fill="#FFFF00" r="3.3125"><title>2021-08-18: 10 km</title></circle><circle cx="147.25" cy="176.51612903225805" fill="#555555" r="3.3125"><title>2021-08-19</title></circle><circle cx="147.25" cy="185.35483870967738" fill="#4ebde3" r="3.3125"><title>2021-08-20: 8 km</title></circle><circle cx="147.25" cy="194.19354838709674" fill="#527885" r="3.3125"><title>2021-08-21: 2 km</title></circle><circle cx="147.25" cy="203.0322580645161" fill="#518a9e" r="3.3125"><title>2021-08-22: 4 km</title></circle><circle cx="147.25" cy="211.87096774193546" fill="#555555" r="3.3125"><title>2021-08-23</title></circle><circle cx="147.25" cy="220.70967741935482" fill="#4eb9de" r="3.3125"><title>2021-08-24: 8 km</title></circle><circle cx="147.25" cy="229.54838709677418" fill="#518ea3" r="3.3125"><title>2021-08-25: 4 km</title></circle><circle cx="147.25" cy="238.3870967741935" fill="#555555" r="3.3125"><title>2021-08-26</title></circle><circle cx="147.25" cy="247.22580645161287" fill="#4eb2d4" r="3.3125"><title>2021-08-27: 7 km</title></circle><circle cx="147.25" cy="256.06451612903226" fill="#4fa4c0" r="3.3125"><title>2021-08-28: 6 km</title></circle><circle cx="147.25" cy="264.90322580645164" fill="#4dc7f0" r="3.3125"><title>2021-08-29: 9 km</title></circle><circle cx="147.25" cy="273.741935483871" fill="#555555" r="3.3125"><title>2021-08-30</title></circle><circle cx="147.25" cy="282.5806451612903" fill="#4fa4c1" r="3.3125"><title>2021-08-31: 6 km</title></circle><circle cx="156.08333333333334" cy="17.419354838709676" fill="#4eb4d7" r="3.3125"><title>2021-09-01: 7 km</title></circle><circle cx="156.08333333333334" cy="26.25806451612903" fill="#555555" r="3.3125"><title>2021-09-02</title></circle><circle cx="156.08333333333334" cy="35.096774193548384" fill="#509db7" r="3.3125"><title>2021-09-03: 5 km</title></circle><circle cx="156.08333333333334" cy="43.935483870967744" fill="#555555" r="3.3125"><title>2021-09-04</title></circle><circle cx="156.08333333333334" cy="52.774193548387096" fill="#FFFF00" r="3.3125"><title>2021-09-05: 11 km</title></circle><circle cx="156.08333333333334" cy="61.61290322580645" fill="#555555" r="3.3125"><title>2021-09-06</title></circle><circle cx="156.08333333333334" cy="70.45161290322581" fill="#4eb5d7" r="3.3125"><title>2021-09-07: 7 km</title></circle><circle cx="156.08333333333334" cy="79.29032258064517" fill="#555555" r="3.3125"><title>2021-09-08</title></circle><circle cx="156.08333333333334" cy="88.12903225806451" fill="#4fabca" r="3.3125"><title>2021-09-09: 6 km</title></circle><circle cx="156.08333333333334" cy="96.96774193548387" fill="#5190a6" r="3.3125"><title>2021-09-10: 4 km</title></circle><circle cx="156.08333333333334" cy="105.80645161290322" fill="#555555" r="3.3125"><title>2021-09-11</title></circle><circle cx="156.08333333333334" cy="114.64516129032258" fill="#4ebbe1" r="3.3125"><title>2021-09-12: 8 km</title></circle><circle cx="156.08333333333334" cy="123.48387096774194" fill="#555555" r="3.3125"><title>2021-09-13</title></circle><circle cx="156.08333333333334" cy="132.32258064516128" fill="#509bb4" r="3.3125"><title>2021-09-14: 5 km</title></circle><circle cx="156.08333333333334" cy="141.16129032258064" fill="#4ec2e9" r="3.3125"><title>2021-09-15: 8 km</title></circle><circle cx="156.08333333333334" cy="149.99999999999997" fill="#4dd1fe" r="3.3125"><title>2021-09-16: 9 km</title></circle><circle cx="156.08333333333334" cy="158.83870967741933" fill="#555555" r="3.3125"><title>2021-09-17</title></circle><circle cx="156.08333333333334" cy="167.6774193548387" fill="#FFFF00" r="3.3125"><title>2021-09-18: 13 km</title></circle><circle cx="156.08333333333334" cy="176.51612903225805" fill="#555555" r="3.3125"><title>2021-09-19</title></circle><circle cx="156.08333333333334" cy="185.35483870967738" fill="#555555" r="3.3125"><title>2021-09-20</title></circle><circle cx="156.08333333333334" cy="194.19354838709674" fill="#4eb9dd" r="3.3125"><title>2021-09-21: 8 km</title></circle><circle cx="156.08333333333334" cy="203.0322580645161" fill="#4dc9f2" r="3.3125"><title>2021-09-22: 9 km</title></circle><circle cx="156.08333333333334" cy="211.87096774193546" fill="#4fa8c6" r="3.3125"><title>2021-09-23: 6 km</title></circle><circle cx="156.08333333333334" cy="220.70967741935482" fill="#555555" r="3.3125"><title>2021-09-24</title></circle><circle cx="156.08333333333334" cy="229.54838709677418" fill="#FFFF00" r="3.3125"><title>2021-09-25: 18 km</title></circle><circle cx="156.08333333333334" cy="238.3870967741935" fill="#555555" r="3.3125"><title>2021-09-26</title></circle><circle cx="156.08333333333334" cy="247.22580645161287" fill="#555555" r="3.3125"><title>2021-09-27</title></circle><circle cx="156.08333333333334" cy="256.06451612903226" fill="#4dc3ea" r="3.3125"><title>2021-09-28: 8 km</title></circle><circle cx="156.08333333333334" cy="264.90322580645164" fill="#555555" r="3.3125"><title>2021-09-29</title></circle><circle cx="156.08333333333334" cy="273.741935483871" fill="#4dcbf5" r="3.3125"><title>2021-09-30: 9 km</title></circle><circle cx="164.91666666666666" cy="17.419354838709676" fill="#555555" r="3.3125"><title>2021-10-01</title></circle><circle cx="164.91666666666666" cy="26.25806451612903" fill="#5098b1" r="3.3125"><title>2021-10-02: 5 km</title></circle><circle cx="164.91666666666666" cy="35.096774193548384" fill="#555555" r="3.3125"><title>2021-10-03</title></circle><circle cx="164.91666666666666" cy="43.935483870967744" fill="#4dccf7" r="3.3125"><title>2021-10-04: 9 km</title></circle><circle cx="164.91666666666666" cy="52.774193548387096" fill="#555555" r="3.3125"><title>2021-10-05</title></circle><circle cx="164.91666666666666" cy="61.61290322580645" fill="#4fa8c6" r="3.3125"><title>2021-10-06: 6 km</title></circle><circle cx="164.91666666666666" cy="70.45161290322581" fill="#555555" r="3.3125"><title>2021-10-07</title></circle><circle cx="164.91666666666666" cy="79.29032258064517" fill="#FFFF00" r="3.3125"><title>2021-10-08: 20 km</title></circle><circle cx="164.91666666666666" cy="88.12903225806451" fill="#555555" r="3.3125"><title>2021-10-09</title></circle><circle cx="164.91666666666666" cy="96.96774193548387" fill="#5094ab" r="3.3125"><title>2021-10-10: 5 km</title></circle><circle cx="164.91666666666666" cy="105.80645161290322" fill="#528191" r="3.3125"><title>2021-10-11: 3 km</title></circle><circle cx="164.91666666666666" cy="114.64516129032258" fill="#51889a" r="3.3125"><title>2021-10-12: 4 km</title></circle><circle cx="164.91666666666666" cy="123.48387096774194" fill="#5191a7" r="3.3125"><title>2021-10-13: 4 km</title></circle><circle cx="164.91666666666666" cy="132.32258064516128" fill="#528191" r="3.3125"><title>2021-10-14: 3 km</title></circle><circle cx="164.91666666666666" cy="141.16129032258064" fill="#555555" r="3.3125"><title>2021-10-15</title></circle><circle cx="164.91666666666666" cy="149.99999999999997" fill="#53727d" r="3.3125"><title>2021-10-16: 2 km</title></circle><circle cx="164.91666666666666" cy="158.83870967741933" fill="#4fadcd" r="3.3125"><title>2021-10-17: 7 km</title></circle><circle cx="164.91666666666666" cy="167.6774193548387" fill="#518da1" r="3.3125"><title>2021-10-18: 4 km</title></circle><circle cx="164.91666666666666" cy="176.51612903225805" fill="#4ec0e6" r="3.3125"><title>2021-10-19: 8 km</title></circle><circle cx="164.91666666666666" cy="185.35483870967738" fill="#555555" r="3.3125"><title>2021-10-20</title></circle><circle cx="164.91666666666666" cy="194.19354838709674" fill="#518ea3" r="3.3125"><title>2021-10-21: 4 km</title></circle><circle cx="164.91666666666666" cy="203.0322580645161" fill="#555555" r="3.3125"><title>2021-10-22</title></circle><circle cx="164.91666666666666" cy="211.87096774193546" fill="#536b73" r="3.3125"><title>2021-10-23: 1 km</title></circle><circle cx="164.91666666666666" cy="220.70967741935482" fill="#50a1bc" r="3.3125"><title>2021-10-24: 6 km</title></circle><circle cx="164.91666666666666" cy="229.54838709677418" fill="#4ebbe0" r="3.3125"><title>2021-10-25: 8 km</title></circle><circle cx="164.91666666666666" cy="238.3870967741935" fill="#4faece" r="3.3125"><title>2021-10-26: 7 km</title></circle><circle cx="164.91666666666666" cy="247.22580645161287" fill="#4dcaf5" r="3.3125"><title>2021-10-27: 9 km</title></circle><circle cx="164.91666666666666" cy="256.06451612903226" fill="#555555" r="3.3125"><title>2021-10-28</title></circle><circle cx="164.91666666666666" cy="264.90322580645164" fill="#555555" r="3.3125"><title>2021-10-29</title></circle><circle cx="164.91666666666666" cy="273.741935483871" fill="#5095ac" r="3.3125"><title>2021-10-30: 5 km</title></circle><circle cx="164.91666666666666" cy="282.5806451612903" fill="#FFFF00" r="3.3125"><title>2021-10-31: 10 km</title></circle><circle cx="173.75" cy="17.419354838709676" fill="#51899c" r="3.3125"><title>2021-11-01: 4 km</title></circle><circle cx="173.75" cy="26.25806451612903" fill="#5095ac" r="3.3125"><title>2021-11-02: 5 km</title></circle><circle cx="173.75" cy="35.096774193548384" fill="#50a2be" r="3.3125"><title>2021-11-03: 6 km</title></circle><circle cx="173.75" cy="43.935483870967744" fill="#50a1bd" r="3.3125"><title>2021-11-04: 6 km</title></circle><circle cx="173.75" cy="52.774193548387096" fill="#527d8c" r="3.3125"><title>2021-11-05: 3 km</title></circle><circle cx="173.75" cy="61.61290322580645" fill="#555555" r="3.3125"><title>2021-11-06</title></circle><circle cx="173.75" cy="70.45161290322581" fill="#555555" r="3.3125"><title>2021-11-07</title></circle><circle cx="173.75" cy="79.29032258064517" fill="#4ebbe0" r="3.3125"><title>2021-11-08: 8 km</title></circle><circle cx="173.75" cy="88.12903225806451" fill="#4eb9dd" r="3.3125"><title>2021-11-09: 8 km</title></circle><circle cx="173.75" cy="96.96774193548387" fill="#555555" r="3.3125"><title>2021-11-10</title></circle><circle cx="173.75" cy="105.80645161290322" fill="#4faecf" r="3.3125"><title>2021-11-11: 7 km</title></circle><circle cx="173.75" cy="114.64516129032258" fill="#555555" r="3.3125"><title>2021-11-12</title></circle><circle cx="173.75" cy="123.48387096774194" fill="#555555" r="3.3125"><title>2021-11-13</title></circle><circle cx="173.75" cy="132.32258064516128" fill="#4fabca" r="3.3125"><title>2021-11-14: 6 km</title></circle><circle cx="173.75" cy="141.16129032258064" fill="#4fb1d2" r="3.3125"><title>2021-11-15: 7 km</title></circle><circle cx="173.75" cy="149.99999999999997" fill="#FFFF00" r="3.3125"><title>2021-11-16: 10 km</title></circle><circle cx="173.75" cy="158.83870967741933" fill="#555555" r="3.3125"><title>2021-11-17</title></circle><circle cx="173.75" cy="167.6774193548387" fill="#4dcbf6" r="3.3125"><title>2021-11-18: 9 km</title></circle><circle cx="173.75" cy="176.51612903225805" fill="#555555" r="3.3125"><title>2021-11-19</title></circle><circle cx="173.75" cy="185.35483870967738" fill="#555555" r="3.3125"><title>2021-11-20</title></circle><circle cx="173.75" cy="194.19354838709674" fill="#528090" r="3.3125"><title>2021-11-21: 3 km</title></circle><circle cx="173.75" cy="203.0322580645161" fill="#4fb1d3" r="3.3125"><title>2021-11-22: 7 km</title></circle><circle cx="173.75" cy="211.87096774193546" fill="#555555" r="3.3125"><title>2021-11-23</title></circle><circle cx="173.75" cy="220.70967741935482" fill="#4ec0e6" r="3.3125"><title>2021-11-24: 8 km</title></circle><circle cx="173.75" cy="229.54838709677418" fill="#4ec1e8" r="3.3125"><title>2021-11-25: 8 km</title></circle><circle cx="173.75" cy="238.3870967741935" fill="#555555" r="3.3125"><title>2021-11-26</title></circle><circle cx="173.75" cy="247.22580645161287" fill="#555555" r="3.3125"><title>2021-11-27</title></circle><circle cx="173.75" cy="256.06451612903226" fill="#4faac9" r="3.3125"><title>2021-11-28: 6 km</title></circle><circle cx="173.75" cy="264.90322580645164" fill="#4dc4ec" r="3.3125"><title>2021-11-29: 8 km</title></circle><circle cx="173.75" cy="273.741935483871" fill="#4dc3eb" r="3.3125"><title>2021-11-30: 8 km</title></circle><circle cx="182.58333333333334" cy="17.419354838709676" fill="#4ebde2" r="3.3125"><title>2021-12-01: 8 km</title></circle><circle cx="182.58333333333334" cy="26.25806451612903" fill="#555555" r="3.3125"><title>2021-12-02</title></circle><circle cx="182.58333333333334" cy="35.096774193548384" fill="#555555" r="3.3125"><title>2021-12-03</title></circle><circle cx="182.58333333333334" cy="43.935483870967744" fill="#555555" r="3.3125"><title>2021-12-04</title></circle><circle cx="182.58333333333334" cy="52.774193548387096" fill="#4fadcc" r="3.3125"><title>2021-12-05: 7 km</title></circle><circle cx="182.58333333333334" cy="61.61290322580645" fill="#555555" r="3.3125"><title>2021-12-06</title></circle><circle cx="182.58333333333334" cy="70.45161290322581" fill="#4ebade" r="3.3125"><title>2021-12-07: 8 km</title></circle><circle cx="182.58333333333334" cy="79.29032258064517" fill="#555555" r="3.3125"><title>2021-12-08</title></circle><circle cx="182.58333333333334" cy="88.12903225806451" fill="#5096ae" r="3.3125"><title>2021-12-09: 5 km</title></circle><circle cx="182.58333333333334" cy="96.96774193548387" fill="#555555" r="3.3125"><title>2021-12-10</title></circle><circle cx="182.58333333333334" cy="105.80645161290322" fill="#555555" r="3.3125"><title>2021-12-11</title></circle><circle cx="182.58333333333334" cy="114.64516129032258" fill="#555555" r="3.3125"><title>2021-12-12</title></circle><circle cx="182.58333333333334" cy="123.48387096774194" fill="#FFFF00" r="3.3125"><title>2021-12-13: 11 km</title></circle><circle cx="182.58333333333334" cy="132.32258064516128" fill="#555555" r="3.3125"><title>2021-12-14</title></circle><circle cx="182.58333333333334" cy="141.16129032258064" fill="#4dc8f2" r="3.3125"><title>2021-12-15: 9 km</title></circle><circle cx="182.58333333333334" cy="149.99999999999997" fill="#555555" r="3.3125"><title>2021-12-16</title></circle><circle cx="182.58333333333334" cy="158.83870967741933" fill="#555555" r="3.3125"><title>2021-12-17</title></circle><circle cx="182.58333333333334" cy="167.6774193548387" fill="#555555" r="3.3125"><title>2021-12-18</title></circle><circle cx="182.58333333333334" cy="176.51612903225805" fill="#555555" r="3.3125"><title>2021-12-19</title></circle><circle cx="182.58333333333334" cy="185.35483870967738" fill="#FFFF00" r="3.3125"><title>2021-12-20: 11 km</title></circle><circle cx="182.58333333333334" cy="194.19354838709674" fill="#555555" r="3.3125"><title>2021-12-21</title></circle><circle cx="182.58333333333334" cy="203.0322580645161" fill="#4dc8f1" r="3.3125"><title>2021-12-22: 9 km</title></circle><circle cx="182.58333333333334" cy="211.87096774193546" fill="#555555" r="3.3125"><title>2021-12-23</title></circle><circle cx="182.58333333333334" cy="220.70967741935482" fill="#555555" r="3.3125"><title>2021-12-24</title></circle><circle cx="182.58333333333334" cy="229.54838709677418" fill="#555555" r="3.3125"><title>2021-12-25</title></circle><circle cx="182.58333333333334" cy="238.3870967741935" fill="#555555" r="3.3125"><title>2021-12-26</title></circle><circle cx="182.58333333333334" cy="247.22580645161287" fill="#FFFF00" r="3.3125"><title>2021-12-27: 10 km</title></circle><circle cx="182.58333333333334" cy="256.06451612903226" fill="#555555" r="3.3125"><title>2021-12-28</title></circle><circle cx="182.58333333333334" cy="264.90322580645164" fill="#555555" r="3.3125"><title>2021-12-29</title></circle><circle cx="182.58333333333334" cy="273.741935483871" fill="#555555" r="3.3125"><title>2021-12-30</title></circle><circle cx="182.58333333333334" cy="282.5806451612903" fill="#4fafcf" r="3.3125"><title>2021-12-31: 7 km</title></circle></svg>