<?xml version="1.0" encoding="utf-8" ?>
<svg baseProfile="full" height="200mm" version="1.1" viewBox="0,0,200,200" width="200mm" xmlns="http://www.w3.org/2000/svg" xmlns:ev="http://www.w3.org/2001/xml-events" xmlns:xlink="http://www.w3.org/1999/xlink"><defs /><rect fill="#1a1a1a" height="200" width="200" x="0" y="0" /><text alignment-baseline="middle" fill="#e1ed5e" style="dominant-baseline: central; font-size:9.0px; font-family:Arial;" text-anchor="middle" x="100.0" y="100.0">2022</text><line stroke="#e1ed5e" stroke-width="0.3" x1="100.0" x2="100.0" y1="15.0" y2="10.0" /><path d="M 100.0 14.0 a86.0,86.0 0 0,1 42.46469731375804,11.215312516191453" fill="none" id="id25" stroke="none" /><text fill="#e1ed5e" style="font-size:6.75px; font-family:Arial;" text-anchor="middle"><textPath startOffset="22.20632615414155" xlink:href="#id25">January</textPath></text><path d="M 101.08401301168833 79.027996857942 l 2.1543912876184 -41.6802200397812 a62.73586161066696,62.73586161066696 0 0,0 1.077975227041653,0.06502640951780525 l -2.8715285634996652 41.63696036088309" fill="red" stroke="none" /><path d="M 101.80526077348638 79.07773832637324 l 4.044599811898994 -46.87531955077458 a68.04948852671666,68.04948852671666 0 0,0 1.1661571921488592,0.11074067697243663 l -4.850882131138098 46.79875332928696" fill="red" stroke="none" /><path d="M 103.2404852339499 79.25152402106235 l 4.672673399760059 -29.918621685606883 a51.28131107246335,51.28131107246335 0 0,0 0.8709783776407045,0.14371889514143202 l -5.186980983539639 29.833756527525825" fill="red" stroke="none" /><path d="M 103.59715602781102 79.31037775812273 l 7.632026952247028 -43.8968322088341 a65.55535560816858,65.55535560816858 0 0,0 1.1100859186713836,0.20286110614657138 l -8.386507992021311 43.75895562133679" fill="red" stroke="none" /><path d="M 105.71112130821622 79.79150937346287 l 15.14224494069568 -53.58000617296518 a76.67858334529544,76.67858334529544 0 0,0 1.267058024377477,0.369888982334519 l -16.062293182796584 53.31141886171195" fill="red" stroke="none" /><path d="M 108.09893153111575 80.62456947434976 l 9.480576785781942 -22.68080130697245 a45.582515821564535,45.582515821564535 0 0,0 0.721324303251706,0.3088334222731313 l -9.869584846823962 22.514248356736527" fill="red" stroke="none" /><path d="M 110.05341064243156 81.56283822128135 l 12.170777465634702 -22.32024544581991 a46.422847615474666,46.422847615474666 0 0,0 0.6982790132575316,0.3885915148671697 l -12.553180567964267 22.10743853339256" fill="red" stroke="none" /><line stroke="#e1ed5e" stroke-width="0.3" x1="143.23703022742887" x2="145.7803849466894" y1="26.81831364943548" y2="22.513508569990506" /><path d="M 143.74570117128098 25.957352633546492 a86.0,86.0 0 0,1 28.547481713284135,27.462654790039103" fill="none" id="id26" stroke="none" /><text fill="#e1ed5e" style="font-size:6.75px; font-family:Arial;" text-anchor="middle"><textPath startOffset="19.985693538727396" xlink:href="#id26">February</textPath></text><path d="M 111.2981086023043 82.29822771554956 l 4.967049741814265 -7.782327693079682 a30.23234571818734,30.23234571818734 0 0,0 0.43625703050000914,0.283753707915991 l -5.100273798098555 7.695675061004163" fill="red" stroke="none" /><path d="M 111.60114157652 82.49532879139004 l 12.84850964995478 -19.38679357196299 a44.25794413156259,44.25794413156259 0 0,0 0.6314034427158901,0.4263264230460044 l -13.180317787077211 19.162755236618317" fill="red" stroke="none" /><path d="M 112.19680574252982 82.90503203632743 l 21.86520734134818 -30.646140219814335 a58.646689130024015,58.646689130024015 0 0,0 0.8167380436389939,0.5933949229436238 l -22.389490701340964 30.265226062054037" fill="red" stroke="none" /><path d="M 112.77801427241765 83.33499621200491 l 11.741736810903365 -15.31349740731847 a40.2969320406243,40.2969320406243 0 0,0 0.5468244646919423,0.4268051682779966 l -12.003593830754738 15.109113849817248" fill="red" stroke="none" /><path d="M 113.34407831869373 83.78471172551755 l 22.675762199246755 -27.55484583669563 a56.68556739636979,56.68556739636979 0 0,0 0.7480941793857084,0.6265073611986703 l -23.14671391559158 27.160437318103142" fill="red" stroke="none" /><path d="M 113.89432698308785 84.25364557470407 l 16.252281492085178 -18.418609617115614 a45.56383182497548,45.56383182497548 0 0,0 0.5836271487591692,0.5239862166666958 l -16.56691962844034 18.136124391679623" fill="red" stroke="none" /><path d="M 114.16331599549186 84.49514656593476 l 28.500496198784777 -31.200039348196828 a63.257789091550634,63.257789091550634 0 0,0 0.7976268495243308,0.7413072281184878 l -29.033330932103954 30.704827534003698" fill="red" stroke="none" /><path d="M 114.68862486808459 84.99185889309783 l 18.956847865848268 -19.36920918519095 a48.10218340777365,48.10218340777365 0 0,0 0.5867646344217634,0.5842448806083695 l -19.287448300437354 19.04002845393246" fill="red" stroke="none" /><path d="M 114.94478906791727 85.2469230424477 l 33.96870521775269 -33.53295385759191 a68.73187539355611,68.73187539355611 0 0,0 0.8239175837744289,0.8491194944798348 l -34.54088706523023 32.94327016756196" fill="red" stroke="none" /><path d="M 115.68641384162765 86.03803664274999 l 11.13681784204919 -9.912516920497414 a35.90928245577676,35.90928245577676 0 0,0 0.4069857808360046,0.4652551021014888 l -11.305795486463044 9.719346262192976" fill="red" stroke="none" /><path d="M 116.15771136456269 86.58626213691792 l 34.1771836810035 -28.373064257160348 a65.41971026139187,65.41971026139187 0 0,0 0.7118334496501176,0.8726236411365347 l -34.66051562273003 27.780556446415712" fill="red" stroke="none" /><path d="M 116.38621287248628 86.86637796730983 l 20.395046022194855 -16.346719518369458 a47.137581013928724,47.137581013928724 0 0,0 0.5020060783065045,0.6374967399338384 l -20.673406181095324 15.993230384482581" fill="red" stroke="none" /><path d="M 116.60985879189232 87.15038557335679 l 32.48099507202113 -25.127742992787958 a62.06602621121583,62.06602621121583 0 0,0 0.6464444393844623,0.8506451068645109 l -32.9087154516297 24.56491311004241" fill="red" stroke="none" /><path d="M 117.2510076193507 88.02491185347247 l 21.811952910852245 -15.141147956040065 a47.55213082243932,47.55213082243932 0 0,0 0.46097383051277985,0.6764222150944431 l -22.06935120703376 14.763447717675215" fill="red" stroke="none" /><path d="M 117.45458315368197 88.32363383020206 l 29.253154824190407 -19.569103675614585 a56.195125881789465,56.195125881789465 0 0,0 0.530919145306285,0.8086262825703553 l -29.585670604854617 19.062659329066555" fill="red" stroke="none" /><path d="M 117.65298651832404 88.62581576622439 l 31.48865170808781 -20.288789402813585 a58.458912982426256,58.458912982426256 0 0,0 0.5377451781744661,0.8505837320881368 l -31.833224482508232 19.743758023011242" fill="red" stroke="none" /><line stroke="#e1ed5e" stroke-width="0.3" x1="172.23445277983987" x2="176.4835382374775" y1="55.19839476539836" y2="52.563006222186495" /><path d="M 173.08426987136738 54.67131705675599 a86.0,86.0 0 0,1 12.851231095245387,41.99856678651699" fill="none" id="id27" stroke="none" /><text fill="#e1ed5e" style="font-size:6.75px; font-family:Arial;" text-anchor="middle"><textPath startOffset="22.20632615414155" xlink:href="#id27">March</textPath></text><path d="M 118.03404312379186 89.2402003453031 l 30.65900265058064 -18.292333220488988 a56.701315076306585,56.701315076306585 0 0,0 0.49287031009474014,0.8424751262102912 l -30.969332635145708 17.761878681924802" fill="red" stroke="none" /><path d="M 118.21658344932153 89.55222093294921 l 33.5754800275367 -19.25658553777519 a59.70567071700436,59.70567071700436 0 0,0 0.5036382542394031,0.8959162568253034 l -33.90197592306854 18.675785771015097" fill="red" stroke="none" /><path d="M 118.56541770881063 90.18545643968196 l 29.80517276423334 -15.756401014265855 a54.71368411236237,54.71368411236237 0 0,0 0.4329951512634209,0.8364088126523388 l -30.071977348656876 15.241019479353172" fill="red" stroke="none" /><path d="M 118.73160827565052 90.50648371742162 l 31.6466047576584 -16.039068996851476 a56.47899839303823,56.47899839303823 0 0,0 0.4320374081077212,0.8709610514651739 l -31.91800217871953 15.491948356887354" fill="red" stroke="none" /><path d="M 119.04729006885535 91.15688171328212 l 24.4978910536382 -11.373678228205257 a48.009391376235726,48.009391376235726 0 0,0 0.3415472302671185,0.7525540480925939 l -24.690040600868667 10.9503021712706" fill="red" stroke="none" /><path d="M 119.196687751892 91.48605970444005 l 29.804622723853594 -13.21867510073809 a53.60443078985007,53.60443078985007 0 0,0 0.36683117609983346,0.8466969308067389 l -30.02774460979611 12.703679025344746" fill="red" stroke="none" /><path d="M 119.47837535516314 92.15188598940014 l 18.81840736207609 -7.582203535077521 a41.28847618951166,41.28847618951166 0 0,0 0.25993346989567967,0.6615023285856149 l -18.946134381853472 7.257152201596122" fill="red" stroke="none" /><path d="M 119.7369772167798 92.82701384747503 l 49.270945095519885 -17.90648096768916 a73.42392670577004,73.42392670577004 0 0,0 0.4214775313917585,1.1915737380192721 l -49.57187570772145 17.055709603243272" fill="red" stroke="none" /><path d="M 119.97218684219823 93.5106431181261 l 23.22230324626475 -7.5453837166047775 a45.41737462325307,45.41737462325307 0 0,0 0.23518525866303827,0.7456015401293081 l -23.348743988695993 7.14453201004905" fill="red" stroke="none" /><path d="M 120.28053869075195 94.5502522615342 l 26.934629851763457 -7.237822444430285 a48.89014806322487,48.89014806322487 0 0,0 0.2114002275973731,0.8146113125127776 l -27.055226411231136 6.7731147063686565" fill="red" stroke="none" /><path d="M 120.37134235888165 94.90015583598534 l 50.21406304790472 -12.570791451780353 a72.76366414294012,72.76366414294012 0 0,0 0.2937129548647265,1.2176298180192417 l -50.42300880303027 11.704576402101706" fill="red" stroke="none" /><path d="M 120.6074358757038 95.95851677861258 l 20.42231822618838 -4.00517837108913 a41.81135592689593,41.81135592689593 0 0,0 0.13243105103927127,0.7074519700877014 l -20.48823500113751 3.6530483235388655" fill="red" stroke="none" /><path d="M 120.67395015179393 96.31383870115 l 33.420218322886946 -5.958818439457906 a54.947290170849456,54.947290170849456 0 0,0 0.15800783656789263,0.9325711957344867 l -33.51783802097506 5.382661455407581" fill="red" stroke="none" /><path d="M 120.73433829027371 96.67025291283417 l 15.184983955236921 -2.4385710016763955 a36.37954375952095,36.37954375952095 0 0,0 0.09397027849148129,0.6191467252582799 l -15.224710127167704 2.1768251640260337" fill="red" stroke="none" /><path d="M 120.83666639777658 97.38593545837742 l 25.45352522344429 -3.1932726893876646 a46.65304926844573,46.65304926844573 0 0,0 0.09310537267365404,0.7976699745749803 l -25.504720949121534 2.7546589764878315" fill="red" stroke="none" /><path d="M 120.91429891909075 98.10471618934814 l 24.322852967451176 -2.2041718747739885 a45.4225213712629,45.4225213712629 0 0,0 0.06386301855745564,0.779290585495177 l -24.357190469828126 1.7851673720710424" fill="red" stroke="none" /><path d="M 120.96714384426684 98.82574320788733 l 26.276664658645654 -1.4716144544369385 a47.31784099589906,47.31784099589906 0 0,0 0.038544644077189084,0.8136165162951451 l -26.29810291095634 1.0190868315187938" fill="red" stroke="none" /><line stroke="#e1ed5e" stroke-width="0.3" x1="184.98032266829074" x2="189.97916517819016" y1="98.17113171792111" y2="98.06355123074" /><path d="M 185.9800911702706 98.14961562048488 a86.0,86.0 0 0,1 -9.607161424134198,41.387399972396054" fill="none" id="id28" stroke="none" /><text fill="#e1ed5e" style="font-size:6.75px; font-family:Arial;" text-anchor="middle"><textPath startOffset="21.466115282336823" xlink:href="#id28">April</textPath></text><line stroke="#e1ed5e" stroke-width="0.3" x1="174.80103733775053" x2="179.2010983576182" y1="140.37084112569926" y2="142.7455964860345" /><path d="M 175.68104954172406 140.8457921977663 a86.0,86.0 0 0,1 -30.038265399797805,32.042727171017184" fill="none" id="id29" stroke="none" /><text fill="#e1ed5e" style="font-size:6.75px; font-family:Arial;" text-anchor="middle"><textPath startOffset="22.206326154141568" xlink:href="#id29">May</textPath></text><path d="M 111.1453310114006 117.79835938074945 l 9.784246230961523 15.624796653438507 a39.435448049054514,39.435448049054514 0 0,0 -0.5784256313856022,0.35531626603197375 l -9.513841399643612 -15.790901386298858" fill="red" stroke="none" /><line stroke="#e1ed5e" stroke-width="0.3" x1="143.8653032363475" x2="146.44561519142675" y1="172.8068346515853" y2="177.08958963109032" /><path d="M 144.38136562736335 173.6633856474863 a86.0,86.0 0 0,1 -40.68145358897372,12.25698825130547" fill="none" id="id30" stroke="none" /><text fill="#e1ed5e" style="font-size:6.75px; font-family:Arial;" text-anchor="middle"><textPath startOffset="21.466115282336833" xlink:href="#id30">June</textPath></text><path d="M 110.8373102113329 117.98757091392108 l 19.847456640356597 32.942448524363016 a59.459413020366576,59.459413020366576 0 0,0 -0.8812228429395917,0.5206419884171727 l -19.277465926388622 -33.27920908507394" fill="red" stroke="none" /><path d="M 110.5260780823613 118.17145234162733 l 10.93650500206742 18.879983396860368 a42.81882019555523,42.81882019555523 0 0,0 -0.6409594727358214,0.363953516634078 l -10.6098967624104 -19.065440079289075" fill="red" stroke="none" /><path d="M 110.21172684928248 118.3499491758327 l 12.749089607910113 22.90945985886071 a47.21798308137512,47.21798308137512 0 0,0 -0.713614795219074,0.38911968463242674 l -12.35285200082239 -23.125520195252907" fill="red" stroke="none" /><path d="M 109.89434966115114 118.52300852407294 l 12.285241926088606 22.99894876473997 a47.07448587154998,47.07448587154998 0 0,0 -0.7180183849307338,0.3756332833511596 l -11.887532638631377 -23.207011467035848" fill="red" stroke="none" /><path d="M 109.2508944713604 118.85261126421891 l 14.400782701703609 29.347687298370165 a53.69050767707047,53.69050767707047 0 0,0 -0.8331931571711199,0.399983348506915 l -13.893476876532256 -29.59122492337664" fill="red" stroke="none" /><path d="M 108.92500713936063 119.00905698771935 l 16.659142558779468 35.48171842572505 a60.197951135692975,60.197951135692975 0 0,0 -0.9417596922525792,0.4323156843171473 l -16.04591487075947 -35.76322118037628" fill="red" stroke="none" /><path d="M 108.59647513512805 119.15986991738527 l 14.794188280581837 32.973366238327586 a57.14015616967069,57.14015616967069 0 0,0 -0.9008535406954837,0.39490771859570406 l -14.224414065228599 -33.223138510217744" fill="red" stroke="none" /><path d="M 108.2653958097858 119.30500536409082 l 17.621373703569418 41.15722001689261 a65.7708562652062,65.7708562652062 0 0,0 -1.0445932237017377,0.4366400522263453 l -16.910309020370217 -41.45444511213893" fill="red" stroke="none" /><path d="M 107.93186726928326 119.44442032107085 l 7.619807523319051 18.679427582310225 a41.17380681713795,41.17380681713795 0 0,0 -0.6585435204285889,0.26204805756787614 l -7.297142926848595 -18.80782248428417" fill="red" stroke="none" /><path d="M 107.59598834532513 119.57807347666477 l 11.485327975597984 29.602546079239175 a52.75253522288468,52.75253522288468 0 0,0 -0.8493906232976107,0.321166854264638 l -10.9740671315401 -29.795861183610445" fill="red" stroke="none" /><path d="M 107.2578585660854 119.70592522655815 l 16.813388320577875 45.650293407287506 a69.64811728104164,69.64811728104164 0 0,0 -1.1285662833192671,0.40466371673319695 l -16.025102476628874 -45.93294466506067" fill="red" stroke="none" /><path d="M 106.57524785965236 119.94407469862006 l 10.537440252640423 31.962216484720873 a54.65443402724416,54.65443402724416 0 0,0 -0.8960169062721693,0.2868763181070473 l -9.985702001277312 -32.13886564948763" fill="red" stroke="none" /><path d="M 106.2309692047433 120.05430185196036 l 10.92179397764617 35.15166677856535 a57.80930943391146,57.80930943391146 0 0,0 -0.9528213669240162,0.2870772617413501 l -10.315097636281907 -35.334459409412425" fill="red" stroke="none" /><path d="M 105.88484417918355 120.15858648285463 l 9.473699911146685 32.45224396034191 a54.8067911530806,54.8067911530806 0 0,0 -0.907884496112237,0.25657722721443493 l -8.913684246929842 -32.61050998089487" fill="red" stroke="none" /><path d="M 105.53697534728816 120.25689768951611 l 11.600995905278214 42.44197823001183 a64.99891614654933,64.99891614654933 0 0,0 -1.0817972571482413,0.28571248791511705 l -10.868708205318477 -42.63538206723053" fill="red" stroke="none" /><path d="M 105.18746579009965 120.34920634021253 l 5.696472340265 22.345919135427966 a44.06057022561433,44.06057022561433 0 0,0 -0.7365389738115706,0.18102335985868198 l -5.310980081710218 -22.440663753600678" fill="red" stroke="none" /><path d="M 104.83641907484287 120.43548508189849 l 4.697968151022597 19.850483711148566 a41.398838406012175,41.398838406012175 0 0,0 -0.6948693512695341,0.1581500020485669 l -4.3555786503602 -19.92841044677482" fill="red" stroke="none" /><path d="M 104.48393922423573 120.51570834832081 l 9.49080964338714 43.42402358639217 a65.44908651613162,65.44908651613162 0 0,0 -1.1026878881454631,0.23107896819439697 l -8.741930293812299 -43.5809585353131" fill="red" stroke="none" /><path d="M 104.13013068566511 120.58985236759428 l 4.105739962131157 20.468257814074242 a41.87598329612409,41.87598329612409 0 0,0 -0.7079681067513522,0.13568377263719206 l -3.7528042408081 -20.535898785059903" fill="red" stroke="none" /><path d="M 103.7750983002368 120.6578951692458 l 3.7968021575796134 20.7766618804935 a42.120733545976876,42.120733545976876 0 0,0 -0.714349646416733,0.12419884261451562 l -3.4386035396908303 -20.838939301629022" fill="red" stroke="none" /><path d="M 103.41894727170886 120.7198165907248 l 1.9195557435510855 11.633067076279177 a32.79037505144813,32.79037505144813 0 0,0 -0.5576926660572998,0.08710012490919097 l -1.7190272138852687 -11.664385508535473" fill="red" stroke="none" /><path d="M 103.06178313531738 120.77559828337769 l 5.908153170798855 40.089520207138264 a61.52253575886099,61.52253575886099 0 0,0 -1.0490219549016169,0.14538488423954155 l -5.217202624710407 -40.18527965687041" fill="red" stroke="none" /><path d="M 102.70371172650421 120.8252237178851 l 2.976723384986982 22.928084318651052 a44.12050891814236,44.12050891814236 0 0,0 -0.7539828919875384,0.09129682797172932 l -2.5816130699480633 -22.97592667534813" fill="red" stroke="none" /><path d="M 102.34483914955558 120.86867818915974 l 3.4330481825537897 30.55355747671354 a51.745824014109196,51.745824014109196 0 0,0 -0.8860053132026997,0.0918380733706206 l -2.9066102727454877 -30.608124918539918" fill="red" stroke="none" /><path d="M 101.98527174616119 120.90594882070398 l 2.5955739703454124 27.332750133233816 a48.45571405156544,48.45571405156544 0 0,0 -0.8310286073124912,0.07170464502493676 l -2.1247010452913795 -27.373379030537418" fill="red" stroke="none" /><path d="M 101.62511606390274 120.93702456842531 l 3.153727048498489 40.630735344495605 a61.75294650612241,61.75294650612241 0 0,0 -1.060495816273066,0.0731380005049785 l -2.4538684714464924 -40.679001689516866" fill="red" stroke="none" /><path d="M 101.26447882468166 120.96189622390904 l 1.9012618843604077 31.518166644245706 a52.57545922654751,52.57545922654751 0 0,0 -0.9038270518773458,0.04671753470158818 l -1.358446764069582 -31.546223985709496" fill="red" stroke="none" /><path d="M 100.90346689309514 120.98055641714683 l 1.0389459326567851 24.126687896437886 a45.14904713447523,45.14904713447523 0 0,0 -0.7767348509984647,0.02675231877924134 l -0.6234907299836682 -24.140997013643222" fill="red" stroke="none" /><line stroke="#e1ed5e" stroke-width="0.3" x1="102.19456741930631" x2="102.32365962044197" y1="184.97166512339345" y2="189.96999836594603" /><path d="M 102.22038585953345 185.97133177190398 a86.0,86.0 0 0,1 -42.740103519485714,-10.115201625700543" fill="none" id="id31" stroke="none" /><text fill="#e1ed5e" style="font-size:6.75px; font-family:Arial;" text-anchor="middle"><textPath startOffset="22.20632615414155" xlink:href="#id31">July</textPath></text><path d="M 100.54218724476979 120.99299961872073 l 1.2576148948813972 48.693711007444 a69.70994854134318,69.70994854134318 0 0,0 -1.1998088294452018,0.020655797079386612 l -0.41924637554352734 -48.70814428180255" fill="red" stroke="none" /><path d="M 100.18074693466247 120.99922214144158 l 0.1544775221898898 17.947235511256824 a38.947900317345756,38.947900317345756 0 0,0 -0.6704489137046782,0.0 l 0.15447752218987745 -17.947235511256824" fill="red" stroke="none" /><path d="M 99.81925306533755 120.99922214144158 l -0.5295776721759468 61.526460738814734 a82.52873981771265,82.52873981771265 0 0,0 -1.42043872916578,-0.02445414088752561 l 1.5885760912343947 -61.508229120648046" fill="red" stroke="none" /><path d="M 99.45781275523022 120.99299961872073 l -0.6039287816597617 23.383576071586152 a44.39137362082384,44.39137362082384 0 0,0 -0.7636999928767031,-0.02630337190983305 l 1.006349126211108 -23.369715901250224" fill="red" stroke="none" /><path d="M 99.09653310690486 120.98055641714683 l -1.8544831903212724 43.06531816112578 a64.10522864133972,64.10522864133972 0 0,0 -1.1020358293621422,-0.05696266447622043 l 2.5955070880969036 -43.02701568988736" fill="red" stroke="none" /><path d="M 98.73552117531835 120.96189622390904 l -1.1892485062634077 19.7147657091123 a40.750602496502225,40.750602496502225 0 0,0 -0.6998183229016096,-0.04826356885937205 l 1.5284295899439473 -19.69137379573664" fill="red" stroke="none" /><path d="M 98.37488393609728 120.93702456842531 l -2.1064046184527974 27.13765879692318 a48.219284806821456,48.219284806821456 0 0,0 -0.8269737817912236,-0.0713547776171458 l 2.5732227179855625 -27.09737976702737" fill="red" stroke="none" /><path d="M 98.01472825383883 120.90594882070398 l -3.5579705810267868 37.46728931006383 a58.635846249280426,58.635846249280426 0 0,0 -1.00397804674702,-0.10406642956388545 l 4.2023812243794 -37.400493512044186" fill="red" stroke="none" /><path d="M 97.65516085044442 120.86867818915974 l -2.125304938264319 18.91486024483861 a40.03388712697401,40.03388712697401 0 0,0 -0.684145916120332,-0.08284054277008232 l 2.45057827743604 -18.875474173343182" fill="red" stroke="none" /><path d="M 97.2962882734958 120.8252237178851 l -5.186192002531387 39.94642166835868 a61.28167314788993,61.28167314788993 0 0,0 -1.0449150018330045,-0.14481569796686689 l 5.873035595551222 -39.85123140489921" fill="red" stroke="none" /><path d="M 96.93821686468263 120.77559828337769 l -4.851357891746035 32.91868111925 a54.274242891832614,54.274242891832614 0 0,0 -0.9230863376553797,-0.144167101712416 l 5.417280093009932 -32.830295710190484" fill="red" stroke="none" /><path d="M 96.58105272829116 120.7198165907248 l -3.7017314319517127 22.433570992109818 a43.73692861958999,43.73692861958999 0 0,0 -0.7417596244057385,-0.12896441863096664 l 4.087340027829501 -22.366527994957845" fill="red" stroke="none" /><path d="M 96.22490169976321 120.6578951692458 l -5.152293897877031 28.194112777622852 a49.66102105172489,49.66102105172489 0 0,0 -0.8395843222285313,-0.16090833358262216 l 5.636845834677257 -28.101247245691763" fill="red" stroke="none" /><path d="M 95.86986931433489 120.58985236759428 l -6.116731963909425 30.49361332467346 a52.10104280426967,52.10104280426967 0 0,0 -0.8777997053611245,-0.1839514629450987 l 6.640723130699937 -30.38380588100182" fill="red" stroke="none" /><path d="M 95.51606077576429 120.51570834832081 l -10.594159344713805 48.472263436807104 a70.61649458505119,70.61649458505119 0 0,0 -1.1852805457970745,-0.2697659932812573 l 11.426960039903742 -48.28272070994816" fill="red" stroke="none" /><path d="M 95.16358092515715 120.4354850818985 l -4.871643512246125 20.58432008852916 a42.152946461839186,42.152946461839186 0 0,0 -0.7046501616106643,-0.17318586567064514 l 5.2252469586000005 -20.497412964544488" fill="red" stroke="none" /><path d="M 94.46302465271185 120.25689768951611 l -8.9128956039699 32.6076247486605 a54.80380007923255,54.80380007923255 0 0,0 -0.9078349484281378,-0.25656322454399 l 9.472861720502651 -32.44937273077799" fill="red" stroke="none" /><path d="M 94.11515582081647 120.15858648285463 l -6.805872812405665 23.31357832132496 a45.28668027712301,45.28668027712301 0 0,0 -0.7464215889731246,-0.2248907017679424 l 7.206169375819036 -23.192972250451295" fill="red" stroke="none" /><path d="M 93.76903079525671 120.05430185196036 l -10.6008233222822 34.11862646063375 a56.72755416580457,56.72755416580457 0 0,0 -0.9300040973563819,-0.29775794341209244 l 11.18654876472952 -33.931095670561945" fill="red" stroke="none" /><path d="M 93.42475214034765 119.94407469862007 l -9.312937467151695 28.248048510565408 a50.743621987282154,50.743621987282154 0 0,0 -0.8271941746018457,-0.2806291757892228 l 9.797801374690767 -28.083556347878062" fill="red" stroke="none" /><path d="M 93.08242187328487 119.8279376855182 l -12.738752091590241 36.51323888744531 a59.6715970565303,59.6715970565303 0 0,0 -0.9669084411581924,-0.34669896604476563 l 13.36538009337816 -36.288552380360585" fill="red" stroke="none" /><path d="M 92.7421414339146 119.70592522655815 l -6.821776656114757 18.521912417230137 a40.738233870776185,40.738233870776185 0 0,0 -0.6559433345400721,-0.2480216422830457 l 7.139590211415112 -18.401742524840458" fill="red" stroke="none" /><path d="M 92.40401165467489 119.57807347666478 l -18.09566029402079 46.64016724869539 a71.02757362158272,71.02757362158272 0 0,0 -1.1360316666369004,-0.4520504451764265 l 18.895813036699547 -46.3217699591129" fill="red" stroke="none" /><path d="M 92.06813273071674 119.44442032107085 l -14.267944387075778 34.976872199354695 a58.77506884021098,58.77506884021098 0 0,0 -0.9334839489624642,-0.3901963663741013 l 14.867899795535704 -34.726090789960615" fill="red" stroke="none" /><path d="M 91.7346041902142 119.30500536409082 l -13.82836930633722 32.29811974877308 a56.13392003432773,56.13392003432773 0 0,0 -0.8849895416086386,-0.3879534075959835 l 14.382279522603602 -32.05530178788265" fill="red" stroke="none" /><path d="M 91.40352486487194 119.15986991738527 l -10.459156610225566 23.311424385862203 a46.55027326458557,46.55027326458557 0 0,0 -0.728250217770886,-0.33430395656102674 l 10.858874823763871 -23.127933358967102" fill="red" stroke="none" /><path d="M 91.07499286063937 119.00905698771935 l -11.174121616022761 23.799366350075527 a47.292029829489664,47.292029829489664 0 0,0 -0.7338987345707312,-0.3523159915466089 l 11.582133018593733 -23.603496082029356" fill="red" stroke="none" /><path d="M 90.7491055286396 118.85261126421891 l -13.493779556503348 27.499284663919866 a51.63156450047575,51.63156450047575 0 0,0 -0.7945018242168687,-0.3983797082496532 l 13.965135288402976 -27.26293711476091" fill="red" stroke="none" /><path d="M 90.42595943632237 118.69057910512821 l -28.473226563955283 55.585840683697704 a83.45406564408559,83.45406564408559 0 0,0 -1.272909354616745,-0.6659260129240557 l 29.42582682109852 -55.08748525182894" fill="red" stroke="none" /><path d="M 90.10565033884886 118.52300852407294 l -12.711623168354238 23.797168319886804 a47.97944742983563,47.97944742983563 0 0,0 -0.7251229577798863,-0.39539485243494915 l 13.119368938002767 -23.574832815692087" fill="red" stroke="none" /><line stroke="#e1ed5e" stroke-width="0.3" x1="58.666819895761336" x2="56.23545636021788" y1="174.27360380694188" y2="178.64263932499728" /><path d="M 58.180547188652646 175.14741091055294 a86.0,86.0 0 0,1 -31.652253787137756,-30.449443065178592" fill="none" id="id32" stroke="none" /><text fill="#e1ed5e" style="font-size:6.75px; font-family:Arial;" text-anchor="middle"><textPath startOffset="22.20632615414155" xlink:href="#id32">August</textPath></text><path d="M 89.7882731507175 118.34994917583269 l -19.87059084067533 35.70643216389778 a61.86306006936539,61.86306006936539 0 0,0 -0.9260347245158304,-0.5258266846018175 l 20.482274332112368 -35.359102313501324" fill="red" stroke="none" /><path d="M 89.4739219176387 118.17145234162733 l -14.453272869121525 24.951074566118024 a49.834930529364314,49.834930529364314 0 0,0 -0.7385824536098444,-0.4363675321610152 l 14.880623193759753 -24.69858846166326" fill="red" stroke="none" /><path d="M 89.1626897886671 117.98757091392108 l -20.11508852282314 33.38665906838335 a59.97801675341468,59.97801675341468 0 0,0 -0.879736986040961,-0.5404063098336578 l 20.68680470879641 -33.03546429172131" fill="red" stroke="none" /><path d="M 88.8546689885994 117.79835938074946 l -19.961353114696088 31.87696588804649 a58.61112298771823,58.61112298771823 0 0,0 -0.8504702750868399,-0.5428103681687924 l 20.50710519182985 -31.528641091053895" fill="red" stroke="none" /><path d="M 88.54995079064634 117.60387380957326 l -21.062085649986898 32.381895585732806 a59.62898670238045,59.62898670238045 0 0,0 -0.8556058277107429,-0.5670488878468969 l 21.6163661764376 -32.01454867679459" fill="red" stroke="none" /><path d="M 88.24862548938628 117.40417183066458 l -19.68065951469386 29.147703498443555 a56.16983051091501,56.16983051091501 0 0,0 -0.7966570147416742,-0.5479479590458146 l 20.179473414058425 -28.80461475003264" fill="red" stroke="none" /><path d="M 87.95078237400918 117.19931262002967 l -23.25813270891969 33.19915930109637 a61.53547724407958,61.53547724407958 0 0,0 -0.8622956819385386,-0.6152250736928083 l 23.826155718707113 -32.793889965559345" fill="red" stroke="none" /><path d="M 87.65650970185807 116.9893568818739 l -18.82565595243454 25.91129249394144 a53.02811890739167,53.02811890739167 0 0,0 -0.7338461116628343,-0.542881809625423 l 19.268887034515938 -25.58340073557625" fill="red" stroke="none" /><path d="M 87.36589467227662 116.77436683061367 l -17.700588293729144 23.50116240563131 a50.42134361921562,50.42134361921562 0 0,0 -0.6887826169100574,-0.5281291394491032 l 18.102499639132688 -23.19299392435484" fill="red" stroke="none" /><path d="M 87.07902340077011 116.55440617244103 l -24.74730328639872 31.706342560828322 a61.220904745338515,61.220904745338515 0 0,0 -0.825148494153924,-0.6555478681499521 l 25.28940927327 -31.275660778673238" fill="red" stroke="none" /><path d="M 86.79598089348748 116.32954008644616 l -20.05769608726595 24.805549708513894 a52.90025812859008,52.90025812859008 0 0,0 -0.7031448691136253,-0.5786403574215354 l 20.48171108492426 -24.45661423223518" fill="red" stroke="none" /><path d="M 86.51685102203217 116.09983520530335 l -21.872325390880366 26.117106243160432 a55.06613944257669,55.06613944257669 0 0,0 -0.7214569539178421,-0.6148412678031501 l 22.318647821375265 -25.736740585134328" fill="red" stroke="none" /><path d="M 86.24171649860922 115.8653595955263 l -21.3250237870474 24.590943392790123 a53.54951822171176,53.54951822171176 0 0,0 -0.6911907815315712,-0.6098955013274566 l 21.74515692148556 -24.22022474969038" fill="red" stroke="none" /><path d="M 85.97065885151581 115.62618273729859 l -25.1285790406826 27.988753275187342 a58.61403720026797,58.61403720026797 0 0,0 -0.7449577588722888,-0.6805012499518501 l 25.60663634902174 -27.552059258648914" fill="red" stroke="none" /><path d="M 85.70375840098266 115.38237550388516 l -24.093822260221604 25.92431155864564 a56.3918380547956,56.3918380547956 0 0,0 -0.7053388138014791,-0.6669418734782835 l 24.5364969084139 -25.505735048421425" fill="red" stroke="none" /><path d="M 85.44109423537348 115.13401014063109 l -16.400295358225957 17.04813811377148 a44.656049986911924,44.656049986911924 0 0,0 -0.54937584003941,-0.5376798877654888 l 16.691321150641162 -16.76330812308342" fill="red" stroke="none" /><path d="M 85.18274418774928 114.88116024355367 l -23.18111392280225 23.28109032335683 a53.85381575017178,53.85381575017178 0 0,0 -0.6512705422041954,-0.6597336208164521 l 23.57842509006198 -22.878616208559713" fill="red" stroke="none" /><path d="M 84.9287848128048 114.62390073753433 l -24.179986777390692 23.462323513759163 a54.69202257536767,54.69202257536767 0 0,0 -0.6497762535423044,-0.6812878040678775 l 24.580269582311956 -23.042628593108788" fill="red" stroke="none" /><path d="M 84.67929136418377 114.36230785411682 l -16.24501353941711 15.22879202871638 a43.266938980240205,43.266938980240205 0 0,0 -0.5046853389637833,-0.5477362588801747 l 16.504745286376618 -14.946904515034861" fill="red" stroke="none" /><path d="M 84.43433777217949 114.09645910891817 l -38.53215235306146 34.895200864164565 a72.98463050085026,72.98463050085026 0 0,0 -0.8352957167888251,-0.9384635927213496 l 39.12710691949862 -34.22676310170235" fill="red" stroke="none" /><path d="M 84.19399662182784 113.82643327865904 l -25.695416968865697 22.477280295787804 a55.1391649385172,55.1391649385172 0 0,0 -0.6187598682749461,-0.7197575163217702 l 26.07851934671142 -22.031645680304504" fill="red" stroke="none" /><path d="M 83.95833913139862 113.55231037782056 l -22.455792142927884 18.97109453899808 a50.39668397581578,50.39668397581578 0 0,0 -0.5541331391484372,-0.6674890631746886 l 22.779021281969857 -18.58174421870963" fill="red" stroke="none" /><path d="M 83.72743513129214 113.27417163493432 l -27.939856222493862 22.79164040488606 a57.056822351383985,57.056822351383985 0 0,0 -0.6142631204150367,-0.7663876899902504 l 28.32803725496376 -22.30732488131755" fill="red" stroke="none" /><path d="M 83.50135304334701 112.99209946851258 l -27.206840754691044 21.42442239279455 a55.629727961911485,55.629727961911485 0 0,0 -0.5859484088184865,-0.7574173050382765 l 27.571595980727597 -20.952927093643023" fill="red" stroke="none" /><path d="M 83.28015986056508 112.70617746262583 l -22.880134044397945 17.387668848047532 a49.737285220754245,49.737285220754245 0 0,0 -0.5121489311505316,-0.6861071874583119 l 23.17604424224356 -16.99124878107991" fill="red" stroke="none" /><path d="M 83.06392112726016 112.41649034213515 l -23.387288058099973 17.146119741420012 a49.999218349804856,49.999218349804856 0 0,0 -0.5028973943287199,-0.698480496073502 l 23.678965244804303 -16.741005639895373" fill="red" stroke="none" /><path d="M 82.85270091963577 112.12312394758628 l -38.139563040412476 26.964634364788825 a67.70886185019228,67.70886185019228 0 0,0 -0.6646401599468114,-0.9574637216089065 l 38.59806410752142 -26.304129380992908" fill="red" stroke="none" /><path d="M 82.6465618267979 111.8261652097733 l -28.340851800033217 19.31395912600578 a55.29625195079585,55.29625195079585 0 0,0 -0.5292559487874194,-0.7911658330470723 l 28.669110854231366 -18.823256378752887" fill="red" stroke="none" /><path d="M 82.44556493220864 111.52570212397912 l -19.76174464454083 12.97495369936585 a44.64055783810369,44.64055783810369 0 0,0 -0.41620972003982887,-0.6459667283074763 l 19.982159227957705 -12.632865371136925" fill="red" stroke="none" /><path d="M 82.24976979558568 111.22182372390057 l -18.71677546860271 11.832880620120175 a43.14350351033241,43.14350351033241 0 0,0 -0.3914458565394283,-0.6311353598157009 l 18.91768596481009 -11.50894892893921" fill="red" stroke="none" /><path d="M 82.05923443525364 110.91462005526583 l -35.60070314198707 21.65839284242331 a62.6712856139647,62.6712856139647 0 0,0 -0.5527581257278352,-0.9264544133078423 l 35.968242143413136 -21.042376335229356" fill="red" stroke="none" /><line stroke="#e1ed5e" stroke-width="0.3" x1="26.63291911575756" x2="22.317208475507996" y1="142.92168965132927" y2="145.44649492493687" /><path d="M 25.769776987707644 143.4266507060508 a86.0,86.0 0 0,1 -11.730757126820373,-40.83630448921669" fill="none" id="id33" stroke="none" /><text fill="#e1ed5e" style="font-size:6.75px; font-family:Arial;" text-anchor="middle"><textPath startOffset="21.46611528233685" xlink:href="#id33">September</textPath></text><path d="M 81.87401531095188 110.60418214915194 l -26.19856441064091 15.326855551443964 a51.3525497820748,51.3525497820748 0 0,0 -0.43979302718056335,-0.7668162131539039 l 26.458509433973852 -14.873619492431754" fill="red" stroke="none" /><path d="M 81.51974371655577 109.97397251340807 l -42.38817458810807 22.877306556299413 a69.16771221661696,69.16771221661696 0 0,0 -0.5564624519438258,-1.0526172507273666 l 42.77568954827678 -22.14427429048592" fill="red" stroke="none" /><path d="M 80.32549172779594 107.34259656027581 l -35.855920047506835 13.38155706683156 a59.2715700224863,59.2715700224863 0 0,0 -0.34850480523367067,-0.9589355471450433 l 36.08094911374573 -12.7623737226804" fill="red" stroke="none" /><path d="M 80.0844068197444 106.66101706037122 l -30.310447032730952 10.137704810754123 a52.96085509109504,52.96085509109504 0 0,0 -0.28172085268956376,-0.8670476304016489 l 30.480460136436765 -9.614458280374672" fill="red" stroke="none" /><path d="M 79.97269907076064 106.31721596034903 l -14.652314090747094 4.62178267341939 a36.36395727975789,36.36395727975789 0 0,0 -0.18315872028234229,-0.5985732953753291 l 14.729699583535567 -4.3688824054920135" fill="red" stroke="none" /><path d="M 79.86692584326677 105.97154293290107 l -36.47992982093893 10.82007970661058 a59.0507477534678,59.0507477534678 0 0,0 -0.2806523534846398,-0.9769876606098172 l 36.66077481130967 -10.190534570496165" fill="red" stroke="none" /><path d="M 79.76711848015287 105.62410040840567 l -28.478977419222865 7.916253963989873 a50.558742051497916,50.558742051497916 0 0,0 -0.22585775474242942,-0.8405007265436703 l 28.611023250307067 -7.424862304270664" fill="red" stroke="none" /><path d="M 79.67330655649465 105.27499134158121 l -43.56578437273804 11.30578054881889 a66.00886847977804,66.00886847977804 0 0,0 -0.2759443718433358,-1.1022605966065318 l 43.75394005887643 -10.554192112814965" fill="red" stroke="none" /><path d="M 79.58551787078972 104.9243191809786 l -33.190643810214695 8.006145975645747 a55.142601100676146,55.142601100676146 0 0,0 -0.2146345241469721,-0.9246399125177657 l 33.32353890029223 -7.4336374057794075" fill="red" stroke="none" /><path d="M 79.50377843672027 104.57218783832718 l -39.86926444395295 8.893822963949384 a61.84921460953594,61.84921460953594 0 0,0 -0.2228514417889952,-1.0410877449730886 l 40.01644992446639 -8.206221399560132" fill="red" stroke="none" /><path d="M 79.4281124754447 104.21870165774334 l -42.382937161504145 8.69151977667808 a64.26494976842565,64.26494976842565 0 0,0 -0.2129008029859429,-1.0855766076674482 l 42.52626789746575 -7.960679441942676" fill="red" stroke="none" /><path d="M 79.35854240842038 103.8639653848113 l -25.82609835474256 4.834501130780876 a47.274698046073865,47.274698046073865 0 0,0 -0.14284513230304718,-0.8011513618736604 l 25.905489929384796 -4.389231018174002" fill="red" stroke="none" /><path d="M 79.23777060512086 103.15116336523772 l -33.18696141844272 5.03691270510419 a54.567020984711256,54.567020984711256 0 0,0 -0.13295111485142416,-0.9298597876152106 l 33.26874658431075 -4.464907445508579" fill="red" stroke="none" /><path d="M 79.18660465613746 102.79330883721812 l -34.164200362748716 4.585083846874477 a55.47050304693723,55.47050304693723 0 0,0 -0.11886137706810895,-0.9474421239848853 l 34.23806324906368 -3.9963239686021836" fill="red" stroke="none" /><path d="M 79.1416061653843 102.43462659150553 l -27.93683623278788 3.2608342192678594 a49.126497444636755,49.126497444636755 0 0,0 -0.09080845552929784,-0.8407735178343002 l 27.98882698981823 -2.7794643795487772" fill="red" stroke="none" /><path d="M 79.10278846688536 102.07522291339032 l -23.677281893327617 2.351301169247991 a44.79374487222654,44.79374487222654 0 0,0 -0.06959114336752749,-0.7679324681242278 l 23.714247632972217 -1.9433873125751973" fill="red" stroke="none" /><path d="M 79.07016306316243 101.71520430193888 l -40.61083669916259 3.3280661489121863 a61.746976350369685,61.746976350369685 0 0,0 -0.07769369558326981,-1.060068748305118 l 40.662106953410195 -2.6285242641103075" fill="red" stroke="none" /><path d="M 79.04373962182676 101.35467743843564 l -47.43777863277627 3.066524622411099 a68.53679011957095,68.53679011957095 0 0,0 -0.06597041079866173,-1.17794600122548 l 47.483535394462464 -2.2495069048501812" fill="red" stroke="none" /><path d="M 79.0235259727143 100.99374915477108 l -25.21943732803335 1.194757255005562 a46.247721957455695,46.247721957455695 0 0,0 -0.030827117518812647,-0.7955109259430179 l 25.236266578403363 -0.7604690820485475" fill="red" stroke="none" /><path d="M 79.0095281055655 100.63252640178507 l -22.59907951337139 0.681000147120929 a43.6093378065803,43.6093378065803 0 0,0 -0.01615193789561505,-0.7505170861879374 l 22.607453513952013 -0.29189324514286275" fill="red" stroke="none" /><line stroke="#e1ed5e" stroke-width="0.3" x1="15.007084014347285" x2="10.007500721073583" y1="101.09737516637583" y2="101.16192664675087" /><path d="M 14.007167355692545 101.11028546245083 a86.0,86.0 0 0,1 10.666146001902534,-42.60595125391555" fill="none" id="id34" stroke="none" /><text fill="#e1ed5e" style="font-size:6.75px; font-family:Arial;" text-anchor="middle"><textPath startOffset="22.20632615414155" xlink:href="#id34">October</textPath></text><path d="M 79.00175016825051 100.2711162175752 l -40.40155422227112 0.5216395010378381 a61.404921622794376,61.404921622794376 0 0,0 -0.004548943000306487,-1.0570141503945882 l 40.404547462560934 0.17388412756042565" fill="red" stroke="none" /><path d="M 79.00019446554 99.90962569577889 l -16.982253679604675 -0.07308445584804782 a37.98241094121012,37.98241094121012 0 0,0 0.00844112578641098,-0.6537744946045085 l 16.978479546700548 0.36539520851302837" fill="red" stroke="none" /><path d="M 79.00486145842228 99.54816195383935 l -26.027060525048082 -0.560130439323071 a47.03308713317674,47.03308713317674 0 0,0 0.024386220161918912,-0.809259925713245 l 26.01356261043052 1.0080605124613105" fill="red" stroke="none" /><path d="M 79.03285615573316 98.82574320788736 l -38.38004091716953 -2.149459366678152 a59.44018361523014,59.44018361523014 0 0,0 0.06600523583315858,-1.0210717837300436 l 38.33735509033196 2.8097902146612075" fill="red" stroke="none" /><path d="M 79.05617556472873 98.46500227214037 l -13.201105828648942 -0.9675246999342136 a34.23651385917651,34.23651385917651 0 0,0 0.04813574971014898,-0.587378069846872 l 13.182495595119295 1.194616686988864" fill="red" stroke="none" /><path d="M 79.08570108090925 98.10471618934814 l -24.013733242457715 -2.1761590012562095 a45.112134958121544,45.112134958121544 0 0,0 0.07673976796739591,-0.7727589907904947 l 23.97271634880809 2.5891935227511342" fill="red" stroke="none" /><path d="M 79.12142395522702 97.74499172005258 l -53.39876839892144 -5.767379184305477 a74.70932069182416,74.70932069182416 0 0,0 0.14909720273981053,-1.2773737809474017 l 53.29158084317804 6.68569670357774" fill="red" stroke="none" /><path d="M 79.16333360222342 97.38593545837743 l -50.347196401724226 -6.316308874527942 a71.74185593090021,71.74185593090021 0 0,0 0.16426835562734063,-1.2239900517276798 l 50.23101204703905 7.182017268320281" fill="red" stroke="none" /><path d="M 79.21141760316559 97.0276538004421 l -28.23918422170135 -4.037631344827581 a49.526373628344714,49.526373628344714 0 0,0 0.12792923279337443,-0.8428938045129184 l 28.165499095468675 4.523124261732591" fill="red" stroke="none" /><path d="M 79.26566170972629 96.67025291283419 l -31.54446219969022 -5.065755157226383 a52.94863018629517,52.94863018629517 0 0,0 0.15226043866688058,-0.8986497279811975 l 31.452589899503117 5.607990673523409" fill="red" stroke="none" /><path d="M 79.32604984820605 96.31383870115002 l -40.74248447877282 -7.264377073658402 a62.38503613350287,62.38503613350287 0 0,0 0.19759502463224138,-1.0555605226915767 l 40.61140373023073 7.964615673812551" fill="red" stroke="none" /><path d="M 79.3925641242962 95.95851677861259 l -49.65570492486167 -9.738363351483136 a71.60162796146426,71.60162796146426 0 0,0 0.2476076493425784,-1.207422834261224 l 49.4807179796041 10.591661841907761" fill="red" stroke="none" /><path d="M 79.62865764111835 94.90015583598534 l -26.414948868765798 -6.612825039111274 a48.2301116181592,48.2301116181592 0 0,0 0.2085462404396839,-0.8036137357795797 l 26.29720629645581 7.066535200439718" fill="red" stroke="none" /><path d="M 79.71946130924805 94.55025226153421 l -41.80274640654867 -11.233154412936386 a64.2857177969257,64.2857177969257 0 0,0 0.29636704506571204,-1.0661899457270922 l 41.60319259091659 11.951055662082421" fill="red" stroke="none" /><path d="M 79.81627453868168 94.20196356495316 l -31.505534705605058 -9.05037271136167 a53.77968827339035,53.77968827339035 0 0,0 0.2632492766512007,-0.887545692642326 l 31.34507953184215 9.591347790750534" fill="red" stroke="none" /><path d="M 79.91906864156998 93.8553929516997 l -33.6794838830561 -10.30565716086999 a56.22093417481181,56.22093417481181 0 0,0 0.2911294423304555,-0.9229598904818037 l 33.497098956957444 10.883867217778208" fill="red" stroke="none" /><path d="M 80.02781315780177 93.51064311812611 l -41.67049536893357 -13.539564697148617 a64.8149517457293,64.8149517457293 0 0,0 0.35389798910558606,-1.0581099424394187 l 41.43126008605621 14.254847742510357" fill="red" stroke="none" /><path d="M 80.2630227832202 92.82701384747504 l -43.177110065058336 -15.691805751257794 a66.94013061915877,66.94013061915877 0 0,0 0.40290120739825575,-1.079574925949658 l 42.90060426915845 16.432703814236792" fill="red" stroke="none" /><path d="M 80.38941819471856 92.48833698450439 l -23.484980263000782 -8.995717690217493 a46.14890126259253,46.14890126259253 0 0,0 0.29053249584703345,-0.739373512036496 l 23.326654217272058 9.398640207149752" fill="red" stroke="none" /><path d="M 80.52162464483688 92.15188598940014 l -39.36610535812063 -15.86116282136042 a63.441332885671244,63.441332885671244 0 0,0 0.41683467110742767,-1.0093982191161606 l 39.087249000126995 16.536435610929892" fill="red" stroke="none" /><path d="M 80.65960295795068 91.81776055985345 l -37.14910710912392 -15.71647617645257 a61.33687868948417,61.33687868948417 0 0,0 0.41974663318720823,-0.9688331014138043 l 36.87306976609403 16.353608422452975" fill="red" stroke="none" /><path d="M 80.803312248108 91.48605970444005 l -28.608616973298854 -12.688233511804818 a52.29607379169167,52.29607379169167 0 0,0 0.3720434407805869,-0.8197484055331374 l 28.385971215554914 13.178803926180025" fill="red" stroke="none" /><path d="M 80.95270993114464 91.15688171328213 l -18.142052209490313 -8.422841940894289 a41.001958022482704,41.001958022482704 0 0,0 0.30271512513478116,-0.6375952555157264 l 17.99437889051378 8.733879612050547" fill="red" stroke="none" /><path d="M 81.10775173730289 90.83032412892265 l -21.677919614946227 -10.521749114467134 a45.0964603886102,45.0964603886102 0 0,0 0.34496641965110836,-0.6954312518803718 l 21.493593182341705 10.893339954846468" fill="red" stroke="none" /><path d="M 81.26839172434947 90.50648371742162 l -45.141304105803485 -22.87842555955781 a71.607901482445,71.607901482445 0 0,0 0.5666932255991546,-1.0946709370266383 l 44.74080144704422 23.652069218844787" fill="red" stroke="none" /><path d="M 81.43458229118936 90.18545643968196 l -22.348070015864643 -11.814229558414416 a46.27869168871089,46.27869168871089 0 0,0 0.3783655496055754,-0.7010538996510656 l 22.141396367040596 12.197164441397954" fill="red" stroke="none" /><path d="M 81.6062741919709 89.86733742301443 l -41.21616669518619 -22.704998117173805 a68.05623589436624,68.05623589436624 0 0,0 0.574078197670799,-1.0212210562896673 l 40.819230856222966 23.41110268339826" fill="red" stroke="none" /><line stroke="#e1ed5e" stroke-width="0.3" x1="26.266209847984243" x2="21.928928074336255" y1="57.711370442889674" y2="55.22380399835377" /><path d="M 25.398753493254645 57.213857153982495 a86.0,86.0 0 0,1 29.58750427330803,-30.492523968695096" fill="none" id="id35" stroke="none" /><text fill="#e1ed5e" style="font-size:6.75px; font-family:Arial;" text-anchor="middle"><textPath startOffset="21.46611528233685" xlink:href="#id35">November</textPath></text><path d="M 81.78341655067845 89.55222093294921 l -37.628734351175524 -21.581253376492423 a64.37824507943702,64.37824507943702 0 0,0 0.5596012292299826,-0.956539898157672 l 37.25167344747521 22.225772687003985" fill="red" stroke="none" /><path d="M 81.96595687620814 89.24020034530311 l -35.21115013669669 -21.008318460904775 a62.002128463090635,62.002128463090635 0 0,0 0.5547247814687243,-0.9118216856741577 l 34.844309556941745 21.611307919786007" fill="red" stroke="none" /><path d="M 82.15384107792192 88.93136811851018 l -37.22363411868995 -23.08702422465411 a64.80193631053157,64.80193631053157 0 0,0 0.5960926573819723,-0.9428754320169768 l 36.82071386506202 23.724347304385304" fill="red" stroke="none" /><path d="M 82.54541684631803 88.32363383020206 l -48.94070205189098 -32.73922686857839 a79.881654980853,79.881654980853 0 0,0 0.7743785998091656,-1.1363050419195737 l 48.36989898641307 33.57680993376838" fill="red" stroke="none" /><path d="M 82.95767976084542 87.72973835380427 l -37.35488019904361 -26.89505580064718 a67.02967631001576,67.02967631001576 0 0,0 0.6822260904075984,-0.9305556206148712 l 36.88639149612238 27.534073864933553" fill="red" stroke="none" /><path d="M 83.17141714833178 87.43820079747576 l -38.19733546304438 -28.512636054238893 a68.66557301908612,68.66557301908612 0 0,0 0.7151815665510672,-0.941095108940286 l 37.7008779562692 29.165915939060206" fill="red" stroke="none" /><path d="M 83.39014120810768 87.1503855733568 l -29.93659176204696 -23.159357716990066 a58.84911328143587,58.84911328143587 0 0,0 0.626731621240775,-0.7958855133831669 l 29.533506060212215 23.671235624326282" fill="red" stroke="none" /><path d="M 83.6137871275137 86.86637796730984 l -14.968601933521713 -11.997400600279168 a40.18323916881111,40.18323916881111 0 0,0 0.4372347973013479,-0.5359981622670743 l 14.759868644143973 12.253282932154324" fill="red" stroke="none" /><path d="M 83.84228863543731 86.58626213691792 l -20.59905058382933 -17.10082935172749 a47.77235980394825,47.77235980394825 0 0,0 0.5307040243302596,-0.6281861721408606 l 20.301635946011945 17.452874473497467" fill="red" stroke="none" /><path d="M 84.07557802195018 86.31012108654704 l -47.77326593414944 -41.06963674035889 a84.0,84.0 0 0,0 0.9520325456886258,-1.0883377751882275 l 47.05924152488297 41.885890071750055" fill="red" stroke="none" /><path d="M 84.31358615837235 86.03803664274999 l -18.78203747558766 -16.717276597200982 a46.14422932924577,46.14422932924577 0 0,0 0.533199556933957,-0.5887722682078956 l 18.49149427803766 17.038101652678435" fill="red" stroke="none" /><path d="M 84.5562425177563 85.77008943001954 l -36.27496753174141 -33.423831246968795 a70.3257109898554,70.3257109898554 0 0,0 0.8279435172549375,-0.8831924175152515 l 35.69425669251602 34.0432930813621" fill="red" stroke="none" /><path d="M 84.80347519578584 85.50635884689758 l -37.20829063123467 -35.48729852893134 a72.417946755777,72.417946755777 0 0,0 0.8681040546511377,-0.8946575368187294 l 36.59192231288041 36.122520261300195" fill="red" stroke="none" /><path d="M 85.05521093208273 85.24692304244772 l -32.45394616126631 -32.03762616638564 a66.60337829388794,66.60337829388794 0 0,0 0.8124476717527402,-0.8089587632552142 l 31.89766268934626 32.59152078029096" fill="red" stroke="none" /><path d="M 85.83668400450813 84.49514656593479 l -42.07149132331971 -46.05646777408956 a83.37955278770373,83.37955278770373 0 0,0 1.068008740907333,-0.9588687926954617 l 41.27247159481641 46.7738355755543" fill="red" stroke="none" /><path d="M 86.10567301691215 84.25364557470407 l -23.048652024586072 -26.120894106364975 a55.8359221073074,55.8359221073074 0 0,0 0.726149361227684,-0.6297095704620167 l 22.595608864711615 26.513768670246673" fill="red" stroke="none" /><path d="M 86.37877921826538 84.01681056812374 l -28.52975311167932 -33.4769148621466 a64.98466370566891,64.98466370566891 0 0,0 0.8576195123463327,-0.7182316777732419 l 27.949276062373876 33.96304769731365" fill="red" stroke="none" /><path d="M 86.65592168130627 83.78471172551755 l -23.89252275967127 -29.033413541193006 a58.600422147568224,58.600422147568224 0 0,0 0.7843990242079526,-0.6342627929471448 l 23.389220336898816 29.440382431404284" fill="red" stroke="none" /><path d="M 86.93701828274178 83.55741782278169 l -27.319050155650746 -34.38692152453822 a64.91800170023348,64.91800170023348 0 0,0 0.8809293842224569,-0.687579357455979 l 26.723088216268867 34.85207927121741" fill="red" stroke="none" /><path d="M 87.22198572758235 83.33499621200491 l -22.655535958780842 -29.547203855228346 a58.23319171441031,58.23319171441031 0 0,0 0.8007170517362397,-0.6030834827623514 l 22.143572753286215 29.93280392749655" fill="red" stroke="none" /><path d="M 88.09926311788651 82.69761687909137 l -13.32397305743714 -19.371614448423973 a44.511437735147105,44.511437735147105 0 0,0 0.6350198947936041,-0.42876826763237763 l 12.988548468236996 19.598094628355014" fill="red" stroke="none" /><path d="M 88.39885842347998 82.49532879139004 l -26.643456457827522 -40.201642405530166 a69.22909727666766,69.22909727666766 0 0,0 0.9989856785722623,-0.6497680739378762 l 25.947503753470972 40.65430940362757" fill="red" stroke="none" /><path d="M 88.70189139769569 82.29822771554957 l -25.371022733179935 -39.75108426155217 a68.15758151661888,68.15758151661888 0 0,0 0.9943894093961755,-0.6226865569384281 l 24.683014171411514 40.181915159813535" fill="red" stroke="none" /><path d="M 89.00827224532344 82.1063720568725 l -12.468742525152074 -20.29808640127555 a44.821877585786204,44.821877585786204 0 0,0 0.6608835030432525,-0.3981749159075778 l 12.117496955891173 20.50970792664175" fill="red" stroke="none" /><line stroke="#e1ed5e" stroke-width="0.3" x1="56.762969772571076" x2="54.21961505331055" y1="26.818313649435495" y2="22.513508569990535" /><path d="M 56.25429882871897 25.957352633546506 a86.0,86.0 0 0,1 42.265352541879196,-11.944610805530505" fill="none" id="id36" stroke="none" /><text fill="#e1ed5e" style="font-size:6.75px; font-family:Arial;" text-anchor="middle"><textPath startOffset="22.20632615414155" xlink:href="#id36">December</textPath></text><path d="M 89.3179101791058 81.91981866633112 l -24.75234504806001 -41.895068699675384 a69.66081962656138,69.66081962656138 0 0,0 1.0376253332539216,-0.6010595671016536 l 24.02752298234077 42.31493242416709" fill="red" stroke="none" /><path d="M 90.26544431104013 81.39251694778311 l -15.855700218165705 -30.307975270525585 a55.20492061688099,55.20492061688099 0 0,0 0.8457906781893474,-0.43324683605675113 l 15.331649052387593 30.576414631894842" fill="red" stroke="none" /><path d="M 90.58718382345135 81.22770947309562 l -20.001647082800933 -39.889946113090176 a65.62368975029023,65.62368975029023 0 0,0 1.0141320423220277,-0.4976301888403137 l 19.312043773468478 40.22833146206532" fill="red" stroke="none" /><path d="M 90.91171255644093 81.06846463323043 l -22.786504249902787 -47.46587448637577 a73.65200866716498,73.65200866716498 0 0,0 1.1476448579736411,-0.5388346490561049 l 21.966081180629537 47.851074118071885" fill="red" stroke="none" /><path d="M 91.23893434514133 80.91482961587045 l -14.066353715061306 -30.64224923214655 a54.7166093319332,54.7166093319332 0 0,0 0.8593579130733014,-0.3855688459140802 l 13.53681368352123 30.87983840857716" fill="red" stroke="none" /><path d="M 91.56875222667455 80.76684994638697 l -11.636820535080016 -26.545621895522025 a49.984230781334844,49.984230781334844 0 0,0 0.7909796068092952,-0.33865618809454073 l 11.178157170480413 26.74199761157935" fill="red" stroke="none" /><path d="M 92.23578459929587 80.48803036053334 l -9.962086492240026 -25.03536019424448 a47.944617780447956,47.944617780447956 0 0,0 0.769435397126991,-0.2985289801891602 l 9.529667930113359 25.203131878324193" fill="red" stroke="none" /><path d="M 92.57280143429618 80.3572730644239 l -11.406386933157833 -30.16649438782187 a53.250938692066036,53.250938692066036 0 0,0 0.8601742654071491,-0.31680944125869526 l 10.885430341978115 30.358367096886887" fill="red" stroke="none" /><path d="M 92.91201910852362 80.23233633223022 l -14.000883313972318 -39.04705114754428 a62.481284176004095,62.481284176004095 0 0,0 1.0155231761193373,-0.35429609582777505 l 13.326678133789695 39.282268096544264" fill="red" stroke="none" /><path d="M 93.94186890950719 79.89281104454417 l -7.036477087250668 -23.35435999331856 a45.39135380615275,45.39135380615275 0 0,0 0.7500592286434389,-0.21896285681932637 l 6.6334276408838075 23.472021179056586" fill="red" stroke="none" /><path d="M 94.28887869178378 79.79150937346287 l -2.0905827967554416 -7.397412972379569 a28.687148698576042,28.687148698576042 0 0,0 0.4763461573022099,-0.13020339887103355 l 1.9629387502295093 7.432302912076898" fill="red" stroke="none" /><path d="M 94.63758080256005 79.69619591428918 l -6.597314279249059 -24.979504899893723 a46.83602563752788,46.83602563752788 0 0,0 0.7812496890546429,-0.19915794098997855 l 6.166355701509417 25.089365837052565" fill="red" stroke="none" /><path d="M 94.98787191387505 79.60689891045804 l -6.428706738538796 -26.156806877495466 a47.935233734956306,47.935233734956306 0 0,0 0.802975227993909,-0.19003829337704464 l 5.9775078235823536 26.26359108301338" fill="red" stroke="none" /><path d="M 99.63851952072746 79.00311137660856 l -0.3096919576927891 -17.98871008559466 a38.99137570204776,38.99137570204776 0 0,0 0.6711724369653205,-0.005776993061661051 l 4.406616133154051e-15 17.991375702047762" fill="red" stroke="none" /></svg>