<?xml version="1.0" encoding="utf-8" ?>
<svg baseProfile="full" height="200mm" version="1.1" viewBox="0,0,200,200" width="200mm" xmlns="http://www.w3.org/2000/svg" xmlns:ev="http://www.w3.org/2001/xml-events" xmlns:xlink="http://www.w3.org/1999/xlink"><defs /><rect fill="#1a1a1a" height="200" width="200" x="0" y="0" /><text alignment-baseline="middle" fill="#e1ed5e" style="dominant-baseline: central; font-size:9.0px; font-family:Arial;" text-anchor="middle" x="100.0" y="100.0">2021</text><line stroke="#e1ed5e" stroke-width="0.3" x1="100.0" x2="100.0" y1="15.0" y2="10.0" /><path d="M 100.0 14.0 a86.0,86.0 0 0,1 42.46469731375804,11.215312516191453" fill="none" id="id13" stroke="none" /><text fill="#e1ed5e" style="font-size:6.75px; font-family:Arial;" text-anchor="middle"><textPath startOffset="22.20632615414155" xlink:href="#id13">January</textPath></text><path d="M 101.08401301168833 79.027996857942 l 0.6500844811018142 -12.576946617122578 a33.5937363813334,33.5937363813334 0 0,0 0.5772330956029778,0.034820276681979165 l -0.8664796255444039 12.563893071060296" fill="#ff840c" stroke="none" /><path d="M 104.307194497241 79.44645832069477 l 4.105965584022402 -19.593295547497352 a41.01889566856164,41.01889566856164 0 0,0 0.6898153072638038,0.15076690802984383 l -4.442623615439734 19.519715141371638" fill="#ffe815" stroke="none" /><path d="M 106.74666289553966 80.11325718540242 l 5.600641898169214 -16.508683885656307 a38.43283778700578,38.43283778700578 0 0,0 0.6246580557915287,0.21793093018321877 l -5.883981958024016 16.40983210230088" fill="#ffc612" stroke="none" /><path d="M 108.43124777332544 80.76684994638697 l 5.062843166017144 -11.54923030704752 a33.610198317588484,33.610198317588484 0 0,0 0.5278687812865915,0.2368393351576467 l -5.260894065770516 11.460370641373341" fill="#ff840c" stroke="none" /><path d="M 109.08828744355905 81.06846463323043 l 7.0709935313719186 -14.729371726929408 a37.338706833491166,37.338706833491166 0 0,0 0.5770230104829438,0.2831426852605598 l -7.323487808865294 14.605473881534017" fill="#ffb711" stroke="none" /><path d="M 110.05341064243156 81.56283822128135 l 4.004045623802164 -7.343103704909021 a29.363824088210958,29.363824088210958 0 0,0 0.44168212772343596,0.24579562587899884 l -4.129851840597635 7.2730926814698424" fill="#ff4806" stroke="none" /><line stroke="#e1ed5e" stroke-width="0.3" x1="143.23703022742887" x2="145.7803849466894" y1="26.81831364943548" y2="22.513508569990506" /><path d="M 143.74570117128098 25.957352633546492 a86.0,86.0 0 0,1 28.547481713284135,27.462654790039103" fill="none" id="id14" stroke="none" /><text fill="#e1ed5e" style="font-size:6.75px; font-family:Arial;" text-anchor="middle"><textPath startOffset="19.985693538727396" xlink:href="#id14">February</textPath></text><path d="M 110.99172775467656 82.1063720568725 l 8.040376899954603 -13.089071707502285 a36.361362532583506,36.361362532583506 0 0,0 0.5304964320777316,0.3321968170992393 l -8.264492484404599 12.9487305490801" fill="#ffaa0f" stroke="none" /><path d="M 111.90073688211348 82.69761687909136 l 2.5783229843369018 -3.748602504731542 a25.549700006598187,25.549700006598187 0 0,0 0.36021288404443386,0.25235214496203995 l -2.642467007964987 3.7036655170055663" fill="#ff0f01" stroke="none" /><path d="M 112.19680574252982 82.90503203632743 l 9.42228145078133 -13.206211769377893 a37.222928744076796,37.222928744076796 0 0,0 0.5183818976302117,0.3766264943764679 l -9.648208664765331 13.04206604018475" fill="#ffb610" stroke="none" /><path d="M 112.48926042617603 83.11751280151076 l 5.25883083636171 -7.1086790766105 a29.8424329219796,29.8424329219796 0 0,0 0.4103389184490032,0.30905876615786215 l -5.380415908569097 7.01710372094679" fill="#ff4f07" stroke="none" /><path d="M 114.42810811169701 84.74124197986012 l 13.476077643285544 -14.251917592217527 a40.61432700102708,40.61432700102708 0 0,0 0.5038434634843884,0.4846970126773287 l -13.719404350382352 14.017837492777897" fill="#ffe315" stroke="none" /><path d="M 114.94478906791727 85.2469230424477 l 5.923287080644459 -5.847303012795306 a29.323237492897498,29.323237492897498 0 0,0 0.35150984670872143,0.36226179562118627 l -6.02306119105629 5.7444770216240055" fill="#ff4706" stroke="none" /><path d="M 115.68641384162765 86.03803664274999 l 5.209024669482252 -4.636382304878431 a27.973519834650542,27.973519834650542 0 0,0 0.31704406309587024,0.3624361707265096 l -5.288060596155971 4.546030577948974" fill="#ff3304" stroke="none" /><path d="M 115.9244219780498 86.31012108654704 l 7.514103189816698 -6.459710936671557 a30.909067167628223,30.909067167628223 0 0,0 0.3433693960581655,0.40644106065015967 l -7.624183199361981 6.329410926392291" fill="#ff5e08" stroke="none" /><path d="M 116.15771136456269 86.58626213691792 l 11.27759299178521 -9.362382623699784 a35.657363749355426,35.657363749355426 0 0,0 0.38798863739560524,0.4756281931541284 l -11.437080121257225 9.166870260937554" fill="#ffa00e" stroke="none" /><path d="M 116.82858285166822 87.43820079747576 l 12.220104150508453 -9.121771923736482 a36.24918583000224,36.24918583000224 0 0,0 0.36894315608632156,0.5032380502750843 l -12.375309919108402 8.910071429789905" fill="#ffa90f" stroke="none" /><path d="M 117.45458315368197 88.32363383020206 l 5.41701201527194 -3.6237482888938377 a27.51732850444579,27.51732850444579 0 0,0 0.25997764577349164,0.3959637905540841 l -5.478586296403357 3.52996643436208" fill="#ff2c04" stroke="none" /><path d="M 117.65298651832404 88.62581576622439 l 11.082241288697936 -7.140517215597602 a34.18343878080249,34.18343878080249 0 0,0 0.3144427160888969,0.4973728632710299 l -11.203511601032789 6.948696704612366" fill="#ff8c0c" stroke="none" /><line stroke="#e1ed5e" stroke-width="0.3" x1="172.23445277983987" x2="176.4835382374775" y1="55.19839476539836" y2="52.563006222186495" /><path d="M 173.08426987136738 54.67131705675599 a86.0,86.0 0 0,1 12.851231095245387,41.99856678651699" fill="none" id="id15" stroke="none" /><text fill="#e1ed5e" style="font-size:6.75px; font-family:Arial;" text-anchor="middle"><textPath startOffset="22.20632615414155" xlink:href="#id15">March</textPath></text><path d="M 118.21658344932153 89.55222093294921 l 15.032139544669073 -8.621401115346321 a38.32898659708924,38.32898659708924 0 0,0 0.3233184329847195,0.5751474154395757 l -15.178315618946225 8.361370189971952" fill="#ffc412" stroke="none" /><path d="M 118.73160827565052 90.50648371742162 l 5.5199094188996485 -2.7975894635166747 a27.188368670274627,27.188368670274627 0 0,0 0.20797805671480385,0.41927107134399977 l -5.56724748856786 2.7021588036737247" fill="#ff2803" stroke="none" /><path d="M 119.04729006885535 91.15688171328212 l 9.014057102858471 -4.184971873460699 a30.938169601855787,30.938169601855787 0 0,0 0.2200995645672507,0.48496021522106886 l -9.084758984389069 4.029189649397567" fill="#ff5e08" stroke="none" /><path d="M 119.34039704204932 91.81776055985345 l 10.423105713042892 -4.409648181919617 a32.317514293941684,32.317514293941684 0 0,0 0.21233886220520365,0.5141953973973705 l -10.497466262134292 4.229578214068943" fill="#ff720a" stroke="none" /><path d="M 119.7369772167798 92.82701384747503 l 5.762981189415992 -2.0944333985347363 a27.131770009586166,27.131770009586166 0 0,0 0.1557452993729722,0.44031293421496 l -5.798179569598774 1.9949228378931616" fill="#ff2703" stroke="none" /><path d="M 119.85752413597 93.16781622104841 l 18.723184815552887 -6.441902762460594 a40.800397996968336,40.800397996968336 0 0,0 0.22277543092958293,0.6660701830873947 l -18.83129754025424 6.118659476450885" fill="#ffe515" stroke="none" /><path d="M 120.18372546131832 94.20196356495316 l 10.239184424628343 -2.941338281326469 a31.653279709401616,31.653279709401616 0 0,0 0.145926487182542,0.524975215833468 l -10.288297682377248 2.764651762074049" fill="#ff6909" stroke="none" /><path d="M 120.45610955862082 95.25157060432595 l 6.154861812512699 -1.428713835985997 a27.31850830151112,27.31850830151112 0 0,0 0.10238666390763608,0.4589793382906505 l -6.178542863422373 1.3225563281453827" fill="#ff2904" stroke="none" /><path d="M 120.53481517161879 95.60439243477599 l 12.271305474590712 -2.626750848667788 a33.54929313035985,33.54929313035985 0 0,0 0.11601777565147095,0.5657438769509542 l -12.314702546157179 2.415131315553422" fill="#ff830c" stroke="none" /><path d="M 120.73433829027371 96.67025291283417 l 14.203050730870174 -2.2808814121725787 a35.38502937362542,35.38502937362542 0 0,0 0.09140139542840195,0.6022209955317129 l -14.240208019737876 2.0360613042487836" fill="#ff9d0e" stroke="none" /><path d="M 120.87857604477298 97.74499172005257 l 5.9890729780808005 -0.6468548968962246 a27.023903750427646,27.023903750427646 0 0,0 0.04597007225009885,0.4629123540436674 l -5.9993201760131285 0.5436670121481222" fill="#ff2503" stroke="none" /><path d="M 120.91429891909075 98.10471618934814 l 23.552002369097906 -2.1343162862533203 a44.648512037837804,44.648512037837804 0 0,0 0.06277477926707922,0.7660113097435411 l -23.58525163218448 1.7285910593020102" fill="#e8ff1a" stroke="none" /><path d="M 120.98425023603335 99.18683210126433 l 13.457523835682142 -0.5214971350682583 a34.467624402612266,34.467624402612266 0 0,0 0.01787114408970032,0.5930562687622093 l -13.464506674227488 0.28977071888105005" fill="#ff900d" stroke="none" /><line stroke="#e1ed5e" stroke-width="0.3" x1="184.98032266829074" x2="189.97916517819016" y1="98.17113171792111" y2="98.06355123074" /><path d="M 185.9800911702706 98.14961562048488 a86.0,86.0 0 0,1 -9.607161424134198,41.387399972396054" fill="none" id="id16" stroke="none" /><text fill="#e1ed5e" style="font-size:6.75px; font-family:Arial;" text-anchor="middle"><textPath startOffset="21.466115282336823" xlink:href="#id16">April</textPath></text><path d="M 120.99824983174949 100.27111621757518 l 6.080622956694341 0.07850918575257552 a27.081129766229772,27.081129766229772 0 0,0 -0.010030253797186375,0.46606648082975743 l -6.078370640212147 -0.1831654823724478" fill="#ff2603" stroke="none" /><path d="M 120.95626037817324 101.35467743843564 l 13.42274739879131 0.8676878763112761 a34.45076317472196,34.45076317472196 0 0,0 -0.04334798665314579,0.5914488377464323 l -13.405822853473827 -1.0986098505544788" fill="#ff900d" stroke="none" /><path d="M 120.89721153311464 102.0752229133903 l 12.734557525735097 1.2646206661312152 a33.797195818047896,33.797195818047896 0 0,0 -0.06247282654166159,0.5784207850945886 l -12.710902397692385 -1.4836377731105952" fill="#ff870c" stroke="none" /><path d="M 120.70491114924044 103.5080841355445 l 27.335985172925145 4.631603353590646 a48.72558087758263,48.72558087758263 0 0,0 -0.14722911694153396,0.825739075903034 l -27.252209613644425 -5.101461180226898" fill="#b7ff1f" stroke="none" /><path d="M 120.5718875245553 104.21870165774334 l 12.20457717382329 2.5028072846406353 a33.45856124501777,33.45856124501777 0 0,0 -0.12055591426196971,0.5631970963015009 l -12.159687220836878 -2.7125182003583053" fill="#ff820c" stroke="none" /><path d="M 120.32669344350535 105.2749913415812 l 6.284175729031471 1.6308098831591973 a27.49233436202711,27.49233436202711 0 0,0 -0.12281470344556294,0.45703919971205204 l -6.255172949244131 -1.7387400160467974" fill="#ff2c04" stroke="none" /><path d="M 120.23288151984713 105.62410040840565 l 14.850014944586711 4.1278339436107805 a36.413045024279725,36.413045024279725 0 0,0 -0.17306142889624276,0.6024495375143365 l -14.77676087880437 -4.3828409566297" fill="#ffab0f" stroke="none" /><path d="M 119.9155931802556 106.66101706037122 l 12.148502459310244 4.063217269353196 a33.80999010857686,33.80999010857686 0 0,0 -0.18935070678511004,0.550341787018682 l -12.076760921581903 -4.2717317594611774" fill="#ff870c" stroke="none" /><path d="M 119.79798401119884 107.00284435728193 l 6.916088244396215 2.4463243080375197 a28.335992040915173,28.335992040915173 0 0,0 -0.1666098836858102,0.45843884380560307 l -6.8729540997051775 -2.5650109488492543" fill="#ff3805" stroke="none" /><path d="M 119.54520255179757 107.68017299344265 l 24.713785057045133 9.711137250066926 a47.553292800243526,47.553292800243526 0 0,0 -0.30592026384598386,0.7592690065274971 l -24.542962178941757 -10.135105624437236" fill="#c5ff1e" stroke="none" /><path d="M 119.41010516605496 108.01547362559984 l 10.109002597586574 4.174549442616141 a31.93703783329192,31.93703783329192 0 0,0 -0.2142047829734893,0.5063168318793522 l -10.035646833420776 -4.347940800161656" fill="#ff6d0a" stroke="none" /><path d="M 118.97047184881838 109.00673069616215 l 12.45005238966617 5.9109899806639685 a34.78200301323948,34.78200301323948 0 0,0 -0.2614393287646213,0.538642453026407 l -12.346459804286836 -6.124421389655651" fill="#ff940d" stroke="none" /><path d="M 118.81262510543309 109.33194174019688 l 16.671214177135543 8.269701786298983 a39.60960369739887,39.60960369739887 0 0,0 -0.30824067264131616,0.6081880899215072 l -16.526394834707958 -8.555444087923185" fill="#ffd513" stroke="none" /><line stroke="#e1ed5e" stroke-width="0.3" x1="174.80103733775053" x2="179.2010983576182" y1="140.37084112569926" y2="142.7455964860345" /><path d="M 175.68104954172406 140.8457921977663 a86.0,86.0 0 0,1 -30.038265399797805,32.042727171017184" fill="none" id="id17" stroke="none" /><text fill="#e1ed5e" style="font-size:6.75px; font-family:Arial;" text-anchor="middle"><textPath startOffset="22.206326154141568" xlink:href="#id17">May</textPath></text><path d="M 118.48025628344425 109.97397251340804 l 6.246700839316358 3.371404677252256 a28.09842523900295,28.09842523900295 0 0,0 -0.23338229614024858,0.42365665796493024 l -6.1877421337245995 -3.4784318536149916" fill="#ff3505" stroke="none" /><path d="M 118.30583269289576 110.29060199501025 l 9.044098962852749 5.084129435222111 a31.37516738004578,31.37516738004578 0 0,0 -0.268702915413629,0.4685061820598057 l -8.955244051286739 -5.2390554631402315" fill="#ff6509" stroke="none" /><path d="M 117.75023020441432 111.22182372390056 l 13.335719444131627 8.430938140521762 a36.777266272136465,36.777266272136465 0 0,0 -0.34289570830340754,0.5321817540018828 l -13.188618872451169 -8.659241494445098" fill="#ffb010" stroke="none" /><path d="M 117.35343817320211 111.8261652097733 l 12.472069870988717 8.499569787266655 a36.092886186393926,36.092886186393926 0 0,0 -0.35429308649350044,0.5103856155209094 l -12.32391587733308 -8.712996664974582" fill="#ffa60f" stroke="none" /><path d="M 117.14729908036423 112.12312394758627 l 30.135310463939323 21.305635496361194 a57.906192443298956,57.906192443298956 0 0,0 -0.5824265709815193,0.8089395666258842 l -29.7641041005822 -21.82120866843821" fill="#50ff2b" stroke="none" /><path d="M 116.0416608686014 113.55231037782055 l 10.628807704017216 8.97942564245034 a34.91408056887951,34.91408056887951 0 0,0 -0.39179831464313253,0.45574995455473244 l -10.472666879803306 -9.1610526961666" fill="#ff960d" stroke="none" /><path d="M 115.56566222782051 114.09645910891815 l 5.3564900506710025 4.850904629785431 a28.226566362402767,28.226566362402767 0 0,0 -0.32924756287703266,0.3573332023196013 l -5.272196079798248 -4.942389086906367" fill="#ff3705" stroke="none" /><path d="M 115.32070863581623 114.36230785411682 l 10.70622426257111 10.036486723257172 a35.674954981415915,35.674954981415915 0 0,0 -0.4238413117958879,0.4443959209227543 l -10.531876399396259 -10.219289760762432" fill="#ffa10e" stroke="none" /><path d="M 114.81725581225074 114.88116024355365 l 5.454862327625221 5.478388267873507 a28.730993534269636,28.730993534269636 0 0,0 -0.35345969275568134,0.3459347027653489 l -5.359752682493745 -5.571473073561427" fill="#ff3e05" stroke="none" /><path d="M 114.29624159901734 115.38237550388516 l 10.125633419933054 10.894912092896158 a35.87372050519977,35.87372050519977 0 0,0 -0.45593867453036285,0.41648916898185356 l -9.936595195935828 -11.067594028464594" fill="#ffa30f" stroke="none" /><path d="M 113.75828350139079 115.86535959552629 l 41.27485050417237 47.59607878657886 a84.0,84.0 0 0,0 -1.100538093691811,0.9379024391082127 l -40.449446933903516 -48.299505615910014" fill="#4dd2ff" stroke="none" /><path d="M 112.34349029814194 116.9893568818739 l 7.764655480045366 10.68713142142186 a34.21002092135137,34.21002092135137 0 0,0 -0.4793844890891253,0.34202810451747756 l -7.579543663107357 -10.819203787783557" fill="#ff8d0c" stroke="none" /><path d="M 111.7513745106137 117.40417183066458 l 6.239198424561973 9.24045790291279 a32.14960354616073,32.14960354616073 0 0,0 -0.4613089987589334,0.305730449966565 l -6.079214727063075 -9.346486373970672" fill="#ff700a" stroke="none" /><path d="M 111.45004920935366 117.60387380957326 l 4.790079353429755 7.364505683236238 a29.785260620526454,29.785260620526454 0 0,0 -0.4321957591356832,0.2758477821149905 l -4.662601792247142 -7.445867894175037" fill="#ff4e07" stroke="none" /><line stroke="#e1ed5e" stroke-width="0.3" x1="143.8653032363475" x2="146.44561519142675" y1="172.8068346515853" y2="177.08958963109032" /><path d="M 144.38136562736335 173.6633856474863 a86.0,86.0 0 0,1 -40.68145358897372,12.25698825130547" fill="none" id="id18" stroke="none" /><text fill="#e1ed5e" style="font-size:6.75px; font-family:Arial;" text-anchor="middle"><textPath startOffset="21.466115282336833" xlink:href="#id18">June</textPath></text><path d="M 110.8373102113329 117.98757091392108 l 6.85330012176489 11.374983232067883 a34.279983662972185,34.279983662972185 0 0,0 -0.508049156978053,0.30016439703306036 l -6.656483093758454 -11.491266201394692" fill="#ff8d0d" stroke="none" /><path d="M 110.21172684928248 118.3499491758327 l 6.712870248993992 12.06268339440104 a34.80474402708675,34.80474402708675 0 0,0 -0.5260110377594398,0.28682315795217395 l -6.504236399365904 -12.176447204112984" fill="#ff950d" stroke="none" /><path d="M 109.57404056367764 118.69057910512821 l 8.371181890953618 16.34234117723272 a39.36161216790361,39.36161216790361 0 0,0 -0.6056929123507028,0.30370700023124325 l -8.088635070920155 -16.484016018373264" fill="#ffd213" stroke="none" /><path d="M 109.2508944713604 118.85261126421891 l 9.729575672915189 19.8281267281927 a43.08663062407331,43.08663062407331 0 0,0 -0.6686374809018437,0.3209866238656839 l -9.386825524013112 -19.992667628557946" fill="#fcff18" stroke="none" /><path d="M 108.59647513512805 119.15986991738527 l 5.148096646670698 11.47410543529347 a33.57608820832986,33.57608820832986 0 0,0 -0.5293499348402665,0.2320514552733691 l -4.949826037172677 -11.561021443861295" fill="#ff840c" stroke="none" /><path d="M 107.59598834532513 119.57807347666477 l 2.942476692266267 7.584006486794673 a29.13482166222923,29.13482166222923 0 0,0 -0.46911194365896824,0.17737799677844018 l -2.811494527847024 -7.633532733679744" fill="#ff4406" stroke="none" /><path d="M 107.2578585660854 119.70592522655815 l 7.808403045142192 21.200717146158613 a43.59295389334493,43.59295389334493 0 0,0 -0.7063728335369107,0.253280166564698 l -7.442310650975547 -21.33198485376327" fill="#f5ff19" stroke="none" /><path d="M 106.57524785965236 119.94407469862006 l 9.461584906544072 28.69892666729492 a51.21837157754392,51.21837157754392 0 0,0 -0.8396853368261539,0.26884072846276474 l -8.966178224626978 -28.857540242417393" fill="#9aff23" stroke="none" /><path d="M 106.2309692047433 120.05430185196036 l 3.1247221139459738 10.056881749450048 a31.531132836110483,31.531132836110483 0 0,0 -0.519700674229845,0.15658154997581514 l -2.951146465275883 -10.109178668531587" fill="#ff6709" stroke="none" /><path d="M 105.88484417918355 120.15858648285463 l 2.721751213718949 9.323383178206777 a30.712538471329196,30.712538471329196 0 0,0 -0.5087588039316021,0.14378031984540615 l -2.5608612416827414 -9.368852291390702" fill="#ff5b08" stroke="none" /><path d="M 104.83641907484287 120.43548508189849 l 3.1405439085203986 13.269846388094678 a34.63641592226396,34.63641592226396 0 0,0 -0.5813637480879187,0.13231649630694833 l -2.911660011039618 -13.32193961797931" fill="#ff920d" stroke="none" /><path d="M 104.48393922423573 120.51570834832081 l 4.330405882686026 19.81323556725548 a41.280944720410815,41.280944720410815 0 0,0 -0.6955024153496754,0.14574929337984416 l -3.9887120059069727 -19.884840841361864" fill="#ffeb16" stroke="none" /><path d="M 103.7750983002368 120.6578951692458 l 2.4917283949094204 13.63510559951326 a34.86090960593408,34.86090960593408 0 0,0 -0.5912261338844437,0.10279224175476899 l -2.256653289552927 -13.675976419789034" fill="#ff960d" stroke="none" /><path d="M 103.41894727170886 120.7198165907248 l 1.0911066036377093 6.612423916383562 a27.701840319678105,27.701840319678105 0 0,0 -0.4711478035348852,0.07358359726818273 l -0.9771229364943068 -6.63022582099885" fill="#ff2f04" stroke="none" /><path d="M 103.06178313531738 120.77559828337769 l 1.4531556073713914 9.860325113736804 a30.9668286113399,30.9668286113399 0 0,0 -0.5280159974923069,0.07317820595970709 l -1.283211018692254 -9.883877885189113" fill="#ff5f08" stroke="none" /><path d="M 102.34483914955558 120.86867818915974 l 1.6765112818606562 14.920671393718683 a36.014563760480726,36.014563760480726 0 0,0 -0.616650627416096,0.06391835886397491 l -1.4194280578389575 -14.947319121038417" fill="#ffa50f" stroke="none" /><path d="M 101.62511606390274 120.93702456842531 l 0.8091030095370993 10.423999839361029 a31.45535366838639,31.45535366838639 0 0,0 -0.540189138366153,0.03725460569326248 l -0.629551110392016 -10.436382789570578" fill="#ff6609" stroke="none" /><path d="M 101.26447882468166 120.96189622390904 l 0.39733510365841623 6.586822211989742 a27.59879549894984,27.59879549894984 0 0,0 -0.4744521177398689,0.024523755101946505 l -0.28389491750506773 -6.59268577385389" fill="#ff2e04" stroke="none" /><path d="M 100.90346689309514 120.98055641714683 l 0.5899161913463417 13.699195873718564 a34.71189150698474,34.71189150698474 0 0,0 -0.5971761883976701,0.020567955382522585 l -0.3540196512740193 -13.70732062752718" fill="#ff930d" stroke="none" /><line stroke="#e1ed5e" stroke-width="0.3" x1="102.19456741930631" x2="102.32365962044197" y1="184.97166512339345" y2="189.96999836594603" /><path d="M 102.22038585953345 185.97133177190398 a86.0,86.0 0 0,1 -42.740103519485714,-10.115201625700543" fill="none" id="id19" stroke="none" /><text fill="#e1ed5e" style="font-size:6.75px; font-family:Arial;" text-anchor="middle"><textPath startOffset="22.20632615414155" xlink:href="#id19">July</textPath></text><path d="M 100.18074693466247 120.99922214144158 l 0.07381908681448705 8.576319179025651 a29.576636865234608,29.576636865234608 0 0,0 -0.5091320429538791,0.0 l 0.07381908681448116 -8.576319179025651" fill="#ff4b06" stroke="none" /><path d="M 99.81925306533755 120.99922214144158 l -0.10741703642820544 12.479737008783943 a33.480199286394694,33.480199286394694 0 0,0 -0.5762425529776084,-0.009920538131326357 l 0.3222192792984817 -12.476038993373457" fill="#ff820c" stroke="none" /><path d="M 99.45781275523022 120.99299961872073 l -0.5329258201926698 20.634405637597766 a41.6412864411779,41.6412864411779 0 0,0 -0.7163880629182955,-0.024673853380206872 l 0.8880342347856084 -20.622174985791464" fill="#fff016" stroke="none" /><path d="M 99.09653310690486 120.98055641714683 l -0.38737864708246517 8.995813374044506 a30.00415018071408,30.00415018071408 0 0,0 -0.515802676778636,-0.026661106681335225 l 0.54216939227459 -8.987812460600967" fill="#ff5107" stroke="none" /><path d="M 98.73552117531835 120.96189622390904 l -0.6346142504319924 10.520316987608236 a31.539440438970647,31.539440438970647 0 0,0 -0.5416331774517974,-0.03735419508320104 l 0.8156101886627197 -10.507834448008749" fill="#ff6709" stroke="none" /><path d="M 98.01472825383883 120.90594882070398 l -0.6292112537625912 6.625923274235614 a27.655731818359172,27.655731818359172 0 0,0 -0.4735285561380705,-0.04908317098515994 l 0.743172406506255 -6.614110734794693" fill="#ff2e04" stroke="none" /><path d="M 97.65516085044442 120.86867818915974 l -0.6756368433974073 6.013055462790491 a27.05089424322972,27.05089424322972 0 0,0 -0.46227733932534226,-0.05597534794505043 l 0.7790416057741388 -6.000534586120091" fill="#ff2503" stroke="none" /><path d="M 97.2962882734958 120.8252237178851 l -2.480708747196252 19.107552825564245 a40.26791350588185,40.26791350588185 0 0,0 -0.6866089770960927,-0.0951577478302662 l 2.8092463154791756 -19.062020512241375" fill="#ffde14" stroke="none" /><path d="M 96.22490169976321 120.6578951692458 l -2.516854237146224 13.772597917245632 a35.00067886358228,35.00067886358228 0 0,0 -0.591732119454651,-0.1134068690277949 l 2.7535539711725696 -13.727233849869368" fill="#ff970e" stroke="none" /><path d="M 95.86986931433489 120.58985236759428 l -2.0927784646775764 10.433083818715255 a31.64090972006418,31.64090972006418 0 0,0 -0.5330868584333628,-0.11171353429115281 l 2.272056784540326 -10.395514303697562" fill="#ff6809" stroke="none" /><path d="M 95.51606077576429 120.51570834832081 l -2.6871677555589897 12.29480311822398 a33.585032946417186,33.585032946417186 0 0,0 -0.5637165426470913,-0.12830004980298068 l 2.8984044475989434 -12.246726334843313" fill="#ff840c" stroke="none" /><path d="M 95.16358092515715 120.4354850818985 l -5.941613586385889 25.10530082857627 a46.798815897308884,46.798815897308884 0 0,0 -0.7823128856503573,-0.19227347371491343 l 6.372879756779457 -24.999306096547325" fill="#ceff1d" stroke="none" /><path d="M 94.11515582081647 120.15858648285463 l -4.010046375495546 13.736449802125437 a35.30980520831562,35.30980520831562 0 0,0 -0.5819812966780088,-0.17534619062371062 l 4.245902646613801 -13.665388242396" fill="#ff9c0e" stroke="none" /><path d="M 93.42475214034765 119.94407469862007 l -3.9434355469905267 11.961248426995581 a33.59452848841801,33.59452848841801 0 0,0 -0.5476392337756244,-0.18578896167670386 l 4.148744513703377 -11.891596478420755" fill="#ff840c" stroke="none" /><path d="M 92.7421414339146 119.70592522655815 l -3.8644000252789112 10.492292905719818 a32.18131468007202,32.18131468007202 0 0,0 -0.5181648013531722,-0.1959255902722048 l 4.0444350473923665 -10.42421906534098" fill="#ff700a" stroke="none" /><path d="M 92.40401165467489 119.57807347666478 l -3.1857922980097646 8.211133674291906 a29.807496169919624,29.807496169919624 0 0,0 -0.4767480828304304,-0.18970790111732583 l 3.326661456882053 -8.155078928768514" fill="#ff4e07" stroke="none" /><path d="M 91.40352486487194 119.15986991738527 l -2.8293499914093148 6.306070445622257 a27.911710775129293,27.911710775129293 0 0,0 -0.43666144202444485,-0.20044985114215394 l 2.9374794292011788 -6.256433524146029" fill="#ff3204" stroke="none" /><path d="M 91.07499286063937 119.00905698771935 l -6.553257664245993 13.957551680321082 a36.419417463796506,36.419417463796506 0 0,0 -0.5651727042981921,-0.2713172435518151 l 6.792543036544426 -13.842680160269705" fill="#ffab0f" stroke="none" /><path d="M 90.42595943632237 118.69057910512821 l -6.941239523828328 13.550787208898253 a36.22513185847653,36.22513185847653 0 0,0 -0.5525352043546338,-0.28906030449186493 l 7.173465630709457 -13.429297485461671" fill="#ffa80f" stroke="none" /><path d="M 90.10565033884886 118.52300852407294 l -6.351591079359847 11.890683039669355 a34.48076601641331,34.48076601641331 0 0,0 -0.5211146934716473,-0.28415328064878587 l 6.555328584700135 -11.779589107260803" fill="#ff900d" stroke="none" /><line stroke="#e1ed5e" stroke-width="0.3" x1="58.666819895761336" x2="56.23545636021788" y1="174.27360380694188" y2="178.64263932499728" /><path d="M 58.180547188652646 175.14741091055294 a86.0,86.0 0 0,1 -31.652253787137756,-30.449443065178592" fill="none" id="id20" stroke="none" /><text fill="#e1ed5e" style="font-size:6.75px; font-family:Arial;" text-anchor="middle"><textPath startOffset="22.20632615414155" xlink:href="#id20">August</textPath></text><path d="M 89.4739219176387 118.17145234162733 l -5.688396475875169 9.820032176548187 a32.34860724561348,32.34860724561348 0 0,0 -0.4794250429675708,-0.28325276593486504 l 5.856589389871122 -9.720660838319573" fill="#ff720a" stroke="none" /><path d="M 89.1626897886671 117.98757091392108 l -2.273115095685734 3.772875204439013 a25.404729225106248,25.404729225106248 0 0,0 -0.37262785816287075,-0.22889846507106013 l 2.3377221537809136 -3.7331882725395746" fill="#ff0d01" stroke="none" /><path d="M 88.8546689885994 117.79835938074946 l -13.503327317591703 21.56392413904505 a46.44292972360903,46.44292972360903 0 0,0 -0.6739050406209295,-0.4301180816377154 l 13.872514160259556 -21.32829162858353" fill="#d2ff1c" stroke="none" /><path d="M 88.24862548938628 117.40417183066458 l -7.983220343298341 11.823411677615338 a35.266214310321544,35.266214310321544 0 0,0 -0.5001809113210942,-0.3440289916996974 l 8.185558139242325 -11.68424189655054" fill="#ff9b0e" stroke="none" /><path d="M 87.65650970185807 116.9893568818739 l -6.537738592314098 8.998425199227789 a32.12266523669263,32.12266523669263 0 0,0 -0.4445394908569517,-0.32885968789770775 l 6.691663053589615 -8.884555562590315" fill="#ff6f0a" stroke="none" /><path d="M 87.07902340077011 116.55440617244103 l -7.823929186179685 10.024048926778043 a33.715951588331656,33.715951588331656 0 0,0 -0.4544308320467412,-0.361027336631459 l 7.995317510943784 -9.887887676141453" fill="#ff860c" stroke="none" /><path d="M 86.79598089348748 116.32954008644616 l -3.193596779233223 3.949552496535901 a26.079175652723755,26.079175652723755 0 0,0 -0.34664175940977443,-0.2852625687434103 l 3.2611086671876865 -3.8939948089353096" fill="#ff1702" stroke="none" /><path d="M 86.51685102203217 116.09983520530335 l -11.492431048006019 13.722776947992712 a38.899457493386016,38.899457493386016 0 0,0 -0.5096468428025622,-0.43433209598847927 l 11.726943367385637 -13.52292046178128" fill="#ffcc13" stroke="none" /><path d="M 85.97065885151581 115.62618273729859 l -4.079134017792707 4.543427442339071 a27.105904294935634,27.105904294935634 0 0,0 -0.34450371754412573,-0.3146959778722526 l 4.156737284803687 -4.472538697880242" fill="#ff2603" stroke="none" /><path d="M 85.70375840098266 115.38237550388516 l -8.780766992982068 9.447871607559767 a33.89822262553943,33.89822262553943 0 0,0 -0.4239927791224593,-0.4009116369552099 l 8.942095606495345 -9.295325333858626" fill="#ff880c" stroke="none" /><path d="M 85.18274418774928 114.88116024355367 l -11.236189413645063 11.28464928391992 a36.924674627771324,36.924674627771324 0 0,0 -0.4465412994522198,-0.4523439787935779 l 11.428771338152815 -11.089564811145678" fill="#ffb210" stroke="none" /><path d="M 84.9287848128048 114.62390073753433 l -15.407625351322835 14.95032623051515 a42.46874876106094,42.46874876106094 0 0,0 -0.5045559327151294,-0.5290248782637764 l 15.662687835416923 -14.682894235668874" fill="#fffa17" stroke="none" /><path d="M 84.43433777217949 114.09645910891817 l -12.384831740162918 11.215859090402692 a37.70866698357219,37.70866698357219 0 0,0 -0.43156878100283175,-0.4848721004859212 l 12.576059370814088 -11.001012820175905" fill="#ffbc11" stroke="none" /><path d="M 84.19399662182784 113.82643327865904 l -4.255892523698114 3.7228774796618187 a26.654417556375073,26.654417556375073 0 0,0 -0.2991101500089488,-0.34793267908158904 l 4.319345183277842 -3.6490677014186996" fill="#ff2003" stroke="none" /><path d="M 83.95833913139862 113.55231037782056 l -6.564265582829667 5.545620575677275 a29.59322350525676,29.59322350525676 0 0,0 -0.3253901754004004,-0.39195342779541 l 6.658751758123604 -5.431805890768104" fill="#ff4b07" stroke="none" /><path d="M 83.50135304334701 112.99209946851258 l -12.674810948902556 9.98096419817815 a37.13290051155508,37.13290051155508 0 0,0 -0.3911211642893182,-0.5055768285074692 l 12.844738930409942 -9.761309375557428" fill="#ffb410" stroke="none" /><path d="M 83.28015986056508 112.70617746262583 l -7.373153442597109 5.603199272213599 a30.26062815214047,30.26062815214047 0 0,0 -0.31159618574428116,-0.41743401112538775 l 7.468510895036475 -5.475452381578903" fill="#ff5507" stroke="none" /><path d="M 82.85270091963577 112.12312394758628 l -12.246247637643686 8.658085294260616 a35.99776723933218,35.99776723933218 0 0,0 -0.3533593849002187,-0.5090405487370377 l 12.39346792970604 -8.446003483336566" fill="#ffa50f" stroke="none" /><path d="M 82.6465618267979 111.8261652097733 l -10.46106959034261 7.129096609648918 a33.65930469827228,33.65930469827228 0 0,0 -0.32216265325651144,-0.48158945501568573 l 10.582235349009853 -6.947970240427411" fill="#ff850c" stroke="none" /><path d="M 82.44556493220864 111.52570212397912 l -15.32818584873485 10.064015362001486 a39.3367850677254,39.3367850677254 0 0,0 -0.3667595812687183,-0.5692190147911551 l 15.499150293380614 -9.798674747288883" fill="#ffd213" stroke="none" /><path d="M 82.05923443525364 110.91462005526583 l -10.91891431653249 6.642737777875842 a33.780792426035134,33.780792426035134 0 0,0 -0.29794518054142993,-0.49937326036220303 l 11.031640372772152 -6.453802423627528" fill="#ff870c" stroke="none" /><line stroke="#e1ed5e" stroke-width="0.3" x1="26.63291911575756" x2="22.317208475507996" y1="142.92168965132927" y2="145.44649492493687" /><path d="M 25.769776987707644 143.4266507060508 a86.0,86.0 0 0,1 -11.730757126820373,-40.83630448921669" fill="none" id="id21" stroke="none" /><text fill="#e1ed5e" style="font-size:6.75px; font-family:Arial;" text-anchor="middle"><textPath startOffset="21.46611528233685" xlink:href="#id21">September</textPath></text><path d="M 81.87401531095188 110.60418214915194 l -13.238017316395698 7.744591498055566 a36.33700752888082,36.33700752888082 0 0,0 -0.3111970604697741,-0.542598305807348 l 13.369366373017849 -7.515573346389911" fill="#ffaa0f" stroke="none" /><path d="M 81.51974371655577 109.97397251340807 l -10.150379121411161 5.478257487604369 a32.53436176859704,32.53436176859704 0 0,0 -0.2617428008242204,-0.49511873880950463 l 10.243174430460268 -5.302723733708738" fill="#ff750a" stroke="none" /><path d="M 81.18737489456691 109.33194174019688 l -21.022999248841757 10.428390673544849 a44.46737798427592,44.46737798427592 0 0,0 -0.3342395619857284,-0.6886324961786991 l 21.199392067442204 -10.064969221400863" fill="#ebff1a" stroke="none" /><path d="M 80.87730276802145 108.67885076344099 l -14.002687919874605 6.355130621448207 a36.37735198911278,36.37735198911278 0 0,0 -0.25387739275584703,-0.5724264989901456 l 14.110006397361731 -6.113155785965366" fill="#ffaa0f" stroke="none" /><path d="M 80.58989483394504 108.01547362559985 l -12.770845274739893 5.273767071355817 a34.81691384333937,34.81691384333937 0 0,0 -0.22398447808861496,-0.5559111057825844 l 12.859732367085895 -5.053156597730427" fill="#ff950d" stroke="none" /><path d="M 80.45479744820244 107.68017299344265 l -8.87979383353121 3.4892630356165237 a30.540738706082394,30.540738706082394 0 0,0 -0.188052010482685,-0.490944458984753 l 8.938540123607405 -3.335895009798613" fill="#ff5908" stroke="none" /><path d="M 80.20201598880116 107.00284435728193 l -15.530951508442495 5.4935308601418535 a37.47389862992131,37.47389862992131 0 0,0 -0.2098701942467969,-0.6099810225415097 l 15.623212533632522 -5.225377134511047" fill="#ffb911" stroke="none" /><path d="M 79.97269907076064 106.31721596034903 l -10.726046849183067 3.383319329275399 a32.24699651883642,32.24699651883642 0 0,0 -0.1624223285133765,-0.5308055672747505 l 10.782695950202573 -3.198186789448601" fill="#ff710a" stroke="none" /><path d="M 79.86692584326677 105.97154293290107 l -16.725187740513157 4.960751441920419 a38.44537072761502,38.44537072761502 0 0,0 -0.18272052744092465,-0.6360741267030605 l 16.808100904840185 -4.672119839712762" fill="#ffc612" stroke="none" /><path d="M 79.76711848015287 105.62410040840567 l -19.201929581360545 5.337528413576298 a40.9299600906089,40.9299600906089 0 0,0 -0.18284372815973346,-0.6804295320188052 l 19.290961385862055 -5.006207948381954" fill="#ffe715" stroke="none" /><path d="M 79.58551787078972 104.9243191809786 l -27.022963178682605 6.518396845211225 a48.79802216683942,48.79802216683942 0 0,0 -0.18993917693455611,-0.8182530030639619 l 27.131162921547716 -6.052275184798689" fill="#b6ff1f" stroke="none" /><path d="M 79.35854240842038 103.8639653848113 l -15.802231246116794 2.9580892854527376 a37.076716224915465,37.076716224915465 0 0,0 -0.1120309309929148,-0.6283289566110972 l 15.850808619448896 -2.6856415781084264" fill="#ffb410" stroke="none" /><path d="M 79.29508885075956 103.50808413554451 l -18.323727964763442 3.104634398760899 a39.58487991020182,39.58487991020182 0 0,0 -0.10804456525103594,-0.6727936109548031 l 18.37445428437577 -2.7887615581128817" fill="#ffd513" stroke="none" /><path d="M 79.23777060512086 103.15116336523772 l -13.177267462413742 1.9999645361657916 a34.32817451573578,34.32817451573578 0 0,0 -0.08363969647454395,-0.5849758423382414 l 13.209741209904884 -1.7728432218471497" fill="#ff8e0d" stroke="none" /><path d="M 79.1416061653843 102.43462659150553 l -36.23535914246393 4.229451683599451 a57.48135844136353,57.48135844136353 0 0,0 -0.10625209720413409,-0.9837624593754897 l 36.302793541169116 -3.6050929023391793" fill="#55ff2b" stroke="none" /><path d="M 79.04373962182676 101.35467743843564 l -17.569074459425096 1.1357192721831284 a38.60574439284041,38.60574439284041 0 0,0 -0.03716014147059615,-0.6635192887286043 l 17.586020951783226 -0.8331282671190864" fill="#ffc812" stroke="none" /><path d="M 79.0095281055655 100.63252640178507 l -18.893264322297775 0.5693291965925719 a39.9018404523555,39.9018404523555 0 0,0 -0.014778762561488325,-0.6867110241999377 l 18.90026514754427 -0.24402835660250538" fill="#ffd914" stroke="none" /><line stroke="#e1ed5e" stroke-width="0.3" x1="15.007084014347285" x2="10.007500721073583" y1="101.09737516637583" y2="101.16192664675087" /><path d="M 14.007167355692545 101.11028546245083 a86.0,86.0 0 0,1 10.666146001902534,-42.60595125391555" fill="none" id="id22" stroke="none" /><text fill="#e1ed5e" style="font-size:6.75px; font-family:Arial;" text-anchor="middle"><textPath startOffset="22.20632615414155" xlink:href="#id22">October</textPath></text><path d="M 79.00019446554 99.90962569577889 l -10.869896242389485 -0.04677944794534881 a31.869996901428404,31.869996901428404 0 0,0 0.0070827166046378,-0.5485642064567369 l 10.867480518667131 0.23387991246255765" fill="#ff6c09" stroke="none" /><path d="M 79.01574976396665 99.18683210126434 l -19.11687402855284 -0.7408045610082763 a40.131222230196606,40.131222230196606 0 0,0 0.03269049569229833,-0.6900446964270376 l 19.101289924627043 1.069760364058323" fill="#ffdc14" stroke="none" /><path d="M 79.05617556472873 98.46500227214037 l -13.358615429931787 -0.9790687653857015 a34.39444593300393,34.39444593300393 0 0,0 0.04835779856734954,-0.5900876283338498 l 13.33978314754494 1.2088703109273295" fill="#ff8f0d" stroke="none" /><path d="M 79.12142395522702 97.74499172005258 l -41.47791623785873 -4.479857455353303 a62.71914019074589,62.71914019074589 0 0,0 0.1251684297767895,-1.0723666672556256 l 41.394657455078345 5.19316786093379" fill="#31ff44" stroke="none" /><path d="M 79.21141760316559 97.0276538004421 l -10.104969306255192 -1.444805929560187 a31.207735735923606,31.207735735923606 0 0,0 0.08061122584654934,-0.5311272596310536 l 10.078602186969341 1.6185323015833326" fill="#ff6209" stroke="none" /><path d="M 79.26566170972629 96.67025291283419 l -6.982733142583792 -1.1213637501458755 a28.07220042141619,28.07220042141619 0 0,0 0.08072513935621593,-0.4764443420685302 l 6.962396141707353 1.2413938805302336" fill="#ff3505" stroke="none" /><path d="M 79.32604984820605 96.31383870115002 l -8.081212983555147 -1.440878706247637 a29.208662176731245,29.208662176731245 0 0,0 0.09251395334508021,-0.49421323806582773 l 8.055213306300205 1.5797700217760373" fill="#ff4506" stroke="none" /><path d="M 79.3925641242962 95.95851677861259 l -9.49845990517552 -1.8628162459089477 a30.679402096010335,30.679402096010335 0 0,0 0.10609332291044105,-0.5173487207880378 l 9.464987286350086 2.026040622860388" fill="#ff5b08" stroke="none" /><path d="M 79.46518482838121 95.60439243477599 l -6.995169096921776 -1.4973603582732726 a28.153633953247656,28.153633953247656 0 0,0 0.1055166199243145,-0.47301031739072646 l 6.968358089995425 1.6175488452139584" fill="#ff3605" stroke="none" /><path d="M 79.62865764111835 94.90015583598534 l -4.617489573017892 -1.155960998372155 a25.759984851518595,25.759984851518595 0 0,0 0.11138576740396212,-0.42921479892159414 l 4.596907473743623 1.2352722228426132" fill="#ff1202" stroke="none" /><path d="M 79.71946130924805 94.55025226153421 l -13.642289337613407 -3.6659300129467116 a35.12625573996818,35.12625573996818 0 0,0 0.1619374407665822,-0.582575134640305 l 13.577165126280464 3.900216451005959" fill="#ff990e" stroke="none" /><path d="M 79.81627453868168 94.20196356495316 l -8.68509968182232 -2.494907319945805 a30.03634433929503,30.03634433929503 0 0,0 0.14702662240008058,-0.49570067988388544 l 8.640867162310533 2.6440373865762297" fill="#ff5107" stroke="none" /><path d="M 79.91906864156998 93.8553929516997 l -16.403957633632277 -5.019482009898019 a38.15473770401904,38.15473770401904 0 0,0 0.19757707112260112,-0.626373308262113 l 16.31512507874147 5.3011054845865475" fill="#ffc212" stroke="none" /><path d="M 80.14247586403 93.16781622104843 l -8.72987527536302 -3.003602656615484 a30.232136873022526,30.232136873022526 0 0,0 0.17354242669423922,-0.4906278097391262 l 8.67687976785897 3.1534280927812213" fill="#ff5407" stroke="none" /><path d="M 80.38941819471856 92.48833698450439 l -3.329441650108256 -1.275313703269803 a24.56533402968408,24.56533402968408 0 0,0 0.15465217181119165,-0.39357290854072263 l 3.3069959284153736 1.3324356167062892" fill="#ff0000" stroke="none" /><path d="M 80.52162464483688 92.15188598940014 l -11.295391225580044 -4.551073511846234 a33.17777208889783,33.17777208889783 0 0,0 0.21799109646191658,-0.5278827309811965 l 11.215378442231929 4.744830813280743" fill="#ff7e0b" stroke="none" /><path d="M 80.65960295795068 91.81776055985345 l -15.098002839130972 -6.387432172627826 a37.393565185472255,37.393565185472255 0 0,0 0.25589536710741256,-0.5906417885227575 l 14.98581676218088 6.646373105737183" fill="#ffb811" stroke="none" /><path d="M 80.803312248108 91.48605970444005 l -13.060236289175045 -5.792357173751627 a35.28709815033818,35.28709815033818 0 0,0 0.2510386049879678,-0.5531302896629046 l 12.958595367223724 6.016309472256602" fill="#ff9b0e" stroke="none" /><path d="M 80.95270993114464 91.15688171328213 l -17.083297986618998 -7.931292287606745 a39.8346613309364,39.8346613309364 0 0,0 0.2940970400214532,-0.6194433703813378 l 16.94424275275579 8.224178073628615" fill="#ffd814" stroke="none" /><path d="M 81.43458229118936 90.18545643968196 l -9.071188031575874 -4.795452032166565 a31.26074132297544,31.26074132297544 0 0,0 0.2555817189324437,-0.4735541090458516 l 8.987298213424959 4.950887124544889" fill="#ff6309" stroke="none" /><path d="M 81.6062741919709 89.86733742301443 l -17.84825155145021 -9.832173886220518 a41.37723550368699,41.37723550368699 0 0,0 0.3490314806629378,-0.6208880581201742 l 17.67636242949484 10.137945454275476" fill="#ffec16" stroke="none" /><line stroke="#e1ed5e" stroke-width="0.3" x1="26.266209847984243" x2="21.928928074336255" y1="57.711370442889674" y2="55.22380399835377" /><path d="M 25.398753493254645 57.213857153982495 a86.0,86.0 0 0,1 29.58750427330803,-30.492523968695096" fill="none" id="id23" stroke="none" /><text fill="#e1ed5e" style="font-size:6.75px; font-family:Arial;" text-anchor="middle"><textPath startOffset="21.46611528233685" xlink:href="#id23">November</textPath></text><path d="M 81.78341655067845 89.55222093294921 l -7.268949895493526 -4.16896959678829 a29.379614554509082,29.379614554509082 0 0,0 0.25537925736745076,-0.43652593324352745 l 7.19611096365575 4.293474942385709" fill="#ff4806" stroke="none" /><path d="M 81.96595687620814 89.24020034530311 l -8.8515475956229 -5.281171732215029 a31.307311468211516,31.307311468211516 0 0,0 0.2801023439528422,-0.46041460550606944 l 8.759329453383842 5.4327541109281725" fill="#ff6409" stroke="none" /><path d="M 82.15384107792192 88.93136811851018 l -10.502849456445416 -6.514128605919804 a33.35895295723786,33.35895295723786 0 0,0 0.30685852997464236,-0.4853765021845169 l 10.389163330224811 6.693952755818536" fill="#ff810b" stroke="none" /><path d="M 82.34701348167596 88.62581576622439 l -10.342262353548234 -6.663733486749834 a33.3031595361538,33.3031595361538 0 0,0 0.31464090024689895,-0.47921967734740845 l 10.226024817943415 6.840771228074909" fill="#ff800b" stroke="none" /><path d="M 82.54541684631803 88.32363383020206 l -5.409053065020212 -3.618424093142605 a27.507752913105985,27.507752913105985 0 0,0 0.26666216654941977,-0.39129382502819043 l 5.345966432802053 3.7109959414412113" fill="#ff2c04" stroke="none" /><path d="M 83.17141714833178 87.43820079747576 l -13.121561463474652 -9.794670280950543 a37.374093597884396,37.374093597884396 0 0,0 0.38926730867492465,-0.5122301488151708 l 12.951018214575619 10.01908520564674" fill="#ffb811" stroke="none" /><path d="M 83.39014120810768 87.1503855733568 l -12.718642361580068 -9.839316060678893 a37.08029863104888,37.08029863104888 0 0,0 0.39489797519957354,-0.5014803259862036 l 12.547390305786523 10.056788780618145" fill="#ffb410" stroke="none" /><path d="M 83.84228863543731 86.58626213691792 l -11.067211042568454 -9.187728661003868 a35.383932640588284,35.383932640588284 0 0,0 0.3930807589588458,-0.4652836345535552 l 10.907419670122485 9.376871245186539" fill="#ff9d0e" stroke="none" /><path d="M 84.5562425177563 85.77008943001954 l -10.144628891852639 -9.347282360699861 a34.794389543726176,34.794389543726176 0 0,0 0.40963381463326615,-0.43696879255900856 l 9.982227755248918 9.52052057013692" fill="#ff950d" stroke="none" /><path d="M 84.80347519578584 85.50635884689758 l -10.701524360968737 -10.206547607256395 a35.788381848856844,35.788381848856844 0 0,0 0.4290102216950443,-0.4421327445198823 l 10.524249875570574 10.3892445473264" fill="#ffa20f" stroke="none" /><path d="M 85.05521093208273 85.24692304244772 l -14.605670615747645 -14.418308724969812 a41.523480226907296,41.523480226907296 0 0,0 0.5065156707901952,-0.5043405315296721 l 14.355319144790137 14.667585107149593" fill="#ffee16" stroke="none" /><path d="M 85.57189188830299 84.74124197986013 l -13.02224426114002 -13.77195627601375 a39.95377601601403,39.95377601601403 0 0,0 0.503783090555556,-0.4682114784067521 l 12.78325328678961 13.99407234049515" fill="#ffda14" stroke="none" /><path d="M 86.37877921826538 84.01681056812374 l -4.525248680784065 -5.3099430697363035 a27.976630349013664,27.976630349013664 0 0,0 0.36921486869095954,-0.3092068344774864 l 4.433176275133995 5.387051061607602" fill="#ff3304" stroke="none" /><path d="M 86.65592168130627 83.78471172551755 l -9.424261920997047 -11.452055374188955 a35.83126039987988,35.83126039987988 0 0,0 0.47962121540745867,-0.3878203341063702 l 9.225737307025089 11.61258180555946" fill="#ffa30f" stroke="none" /><path d="M 87.22198572758235 83.33499621200491 l -10.44490372052195 -13.622176056218208 a38.16565449487953,38.16565449487953 0 0,0 0.5247847395107075,-0.3952569858708391 l 10.208872827252852 13.799949631594902" fill="#ffc212" stroke="none" /><path d="M 87.51073957382395 83.11751280151077 l -10.304698041454385 -13.929482357860998 a38.32677928766667,38.32677928766667 0 0,0 0.5337545767501423,-0.3877953995264809 l 10.06339814835046 14.104796992204147" fill="#ffc412" stroke="none" /><path d="M 88.39885842347998 82.49532879139004 l -7.554539346674813 -11.398854718202433 a34.67497545252436,34.67497545252436 0 0,0 0.500364806773109,-0.32545118887782215 l 7.357207514117417 11.52720483123979" fill="#ff930d" stroke="none" /><path d="M 88.70189139769569 82.29822771554957 l -9.562169414309402 -14.981918786204506 a38.77337825019154,38.77337825019154 0 0,0 0.5656866901754929,-0.35423295349169853 l 9.302863571761666 15.144296081019135" fill="#ffca12" stroke="none" /><path d="M 89.00827224532344 82.1063720568725 l -9.270089015131466 -15.090941800833999 a38.71076155292651,38.71076155292651 0 0,0 0.5707771534471158,-0.34388684848273177 l 9.008949795466702 15.24827525877535" fill="#ffca12" stroke="none" /><line stroke="#e1ed5e" stroke-width="0.3" x1="56.762969772571076" x2="54.21961505331055" y1="26.818313649435495" y2="22.513508569990535" /><path d="M 56.25429882871897 25.957352633546506 a86.0,86.0 0 0,1 42.265352541879196,-11.944610805530505" fill="none" id="id24" stroke="none" /><text fill="#e1ed5e" style="font-size:6.75px; font-family:Arial;" text-anchor="middle"><textPath startOffset="22.20632615414155" xlink:href="#id24">December</textPath></text><path d="M 89.3179101791058 81.91981866633112 l -8.496124168675673 -14.380282152520225 a37.70259383076912,37.70259383076912 0 0,0 0.5615949783236878,-0.32531205989271517 l 8.247332457886666 14.524398369802988" fill="#ffbc11" stroke="none" /><path d="M 90.58718382345135 81.22770947309562 l -6.311918362187397 -12.58806748742121 a35.081894633847725,35.081894633847725 0 0,0 0.542146800780778,-0.2660290806254219 l 6.094300294396193 12.694851728181462" fill="#ff990e" stroke="none" /><path d="M 91.23893434514133 80.91482961587045 l -6.745702307961096 -14.694887925723489 a37.16923717363332,37.16923717363332 0 0,0 0.5837656696577981,-0.2619186396146193 l 6.491754519836523 14.808826895854637" fill="#ffb510" stroke="none" /><path d="M 91.90106846888425 80.62456947434976 l -4.043021461907107 -9.672298271436564 a31.48329034192396,31.48329034192396 0 0,0 0.501807862660681,-0.20470002682435465 l 3.8759297296580457 9.740459184444495" fill="#ff6609" stroke="none" /><path d="M 93.25333710446033 80.11325718540243 l -7.266721891432259 -21.419690237622266 a43.61876161338439,43.61876161338439 0 0,0 0.7130985778280126,-0.23509738949729858 l 6.896940491361837 21.541601351378798" fill="#f5ff19" stroke="none" /><path d="M 93.94186890950719 79.89281104454417 l -5.33540584731612 -17.708433826132715 a39.49473395672661,39.49473395672661 0 0,0 0.6526218586378619,-0.19051821660608645 l 5.029793770954837 17.7976503716575" fill="#ffd413" stroke="none" /><path d="M 95.692805502759 79.44645832069477 l -4.64490107783511 -22.165046867673826 a43.646509856246084,43.646509856246084 0 0,0 0.736656628694158,-0.14776638961029187 l 4.2626780396738155 22.24171721336133" fill="#f5ff19" stroke="none" /><path d="M 96.40284397218896 79.31037775812273 l -3.1526242010667223 -18.132825845300562 a39.40484752691941,39.40484752691941 0 0,0 0.6692646785429769,-0.1104344064406383 l 2.8400303163848597 18.184406514680827" fill="#ffd313" stroke="none" /><path d="M 98.19473922651362 79.07773832637324 l -1.772428665443849 -20.541750466685713 a41.618074973422466,41.618074973422466 0 0,0 0.7142648819178747,-0.05544070169535318 l 1.41857359416364 20.56921643056953" fill="#ffef16" stroke="none" /><path d="M 99.63851952072746 79.00311137660856 l -0.24786193766234207 -14.397262915960521 a35.39939634191079,35.39939634191079 0 0,0 0.6093424169348742,-0.0052448025588250295 l 3.5268349279550304e-15 14.399396341910787" fill="#ff9d0e" stroke="none" /></svg>