<?xml version="1.0" encoding="utf-8" ?>
<svg baseProfile="full" height="200mm" version="1.1" viewBox="0,0,200,200" width="200mm" xmlns="http://www.w3.org/2000/svg" xmlns:ev="http://www.w3.org/2001/xml-events" xmlns:xlink="http://www.w3.org/1999/xlink"><defs /><rect fill="#1a1a1a" height="200" width="200" x="0" y="0" /><text alignment-baseline="middle" fill="#e1ed5e" style="dominant-baseline: central; font-size:9.0px; font-family:Arial;" text-anchor="middle" x="100.0" y="100.0">2025</text><line stroke="#e1ed5e" stroke-width="0.3" x1="100.0" x2="100.0" y1="15.0" y2="10.0" /><path d="M 100.0 14.0 a86.0,86.0 0 0,1 42.46469731375804,11.215312516191453" fill="none" id="id61" stroke="none" /><text fill="#e1ed5e" style="font-size:6.75px; font-family:Arial;" text-anchor="middle"><textPath startOffset="22.20632615414155" xlink:href="#id61">January</textPath></text><path d="M 100.36148047927253 79.00311137660856 l 0.3703755836853433 -21.5135680220278 a42.516755961608325,42.516755961608325 0 0,0 0.7316391982116698,0.01889608194391716 l -0.7406414170918808 21.504005147941523" fill="#ffcf13" stroke="none" /><path d="M 101.08401301168833 79.027996857942 l 3.158096893401305 -61.098545180911906 a82.18010950637506,82.18010950637506 0 0,0 1.412081063829367,0.0851805859963037 l -4.209340006070284 61.035131325535296" fill="#4ae5ff" stroke="none" /><path d="M 102.16513564639614 79.11191278185805 l 1.6268846597561706 -15.695325474599226 a36.77941682856985,36.77941682856985 0 0,0 0.6291614833484301,0.07069362343774098 l -1.896812846614326 15.664995897690885" fill="#ff7b0b" stroke="none" /><path d="M 102.88285421437855 79.19881850522331 l 5.452716927283892 -39.343978574554164 a60.720029858549516,60.720029858549516 0 0,0 1.0340650565102631,0.15239430930743902 l -6.129150964222811 39.244289781085754" fill="#47ff2c" stroke="none" /><path d="M 103.95276090670814 79.375362276772 l 1.9070092960516802 -9.950355408328827 a31.131448919443173,31.131448919443173 0 0,0 0.5254300580480488,0.1053963266550894 l -2.0780057635668543 9.916055125596529" fill="#ff2203" stroke="none" /><path d="M 104.307194497241 79.44645832069477 l 3.8319914001236373 -18.28591557860485 a39.68311715529518,39.68311715529518 0 0,0 0.6673515024600213,0.1458571903747135 l -4.146185626737187 18.217244890134264" fill="#ffa60f" stroke="none" /><path d="M 104.66035177308747 79.52364482259891 l 4.84660945533155 -21.29472225393242 a42.83929529734496,42.83929529734496 0 0,0 0.7176118739439864,0.16983554545278237 l -5.21244501623806 21.208140796338768" fill="#ffd413" stroke="none" /><path d="M 105.36241919743992 79.69619591428918 l 4.471134800673899 -16.92912129604235 a38.509602915597824,38.509602915597824 0 0,0 0.6394466581821762,0.17478492691864175 l -4.761879348079787 16.849649828297412" fill="#ff950d" stroke="none" /><path d="M 105.71112130821622 79.79150937346287 l 5.350360822130515 -18.931959362702887 a40.673470620051326,40.673470620051326 0 0,0 0.6720996278236473,0.19620431154701032 l -5.675450667677589 18.837056722237175" fill="#ffb510" stroke="none" /><path d="M 106.40334571778207 80.00007090966166 l 9.874281873701038 -30.840898804451395 a53.38305855826025,53.38305855826025 0 0,0 0.8727295716328415,0.2877252183743136 l -10.403694267576299 30.666359861817845" fill="#9eff22" stroke="none" /><path d="M 107.08798089147638 80.2323363322302 l 5.492802795483875 -15.318872880298422 a37.27386705343318,37.27386705343318 0 0,0 0.6020930710156092,0.22175595932749703 l -5.755678192272061 15.222053653164599" fill="#ff820c" stroke="none" /><path d="M 107.4271985657038 80.35727306442388 l 7.609022840902608 -20.123597960686606 a42.51409824921156,42.51409824921156 0 0,0 0.6822841349924988,0.2647156444570734 l -7.954290140894774 19.989639612338987" fill="#ffcf13" stroke="none" /><path d="M 108.09893153111575 80.62456947434976 l 6.408939781068353 -15.332388845872716 a37.617961873779905,37.617961873779905 0 0,0 0.595288558546749,0.2548714939275782 l -6.671912097405417 15.219797823982345" fill="#ff870c" stroke="none" /><path d="M 108.43124777332544 80.76684994638697 l 8.753186470321689 -19.967548500185007 a42.80186383067886,42.80186383067886 0 0,0 0.6722295263956117,0.3016097934733473 l -9.09559811518408 19.81391837619513" fill="#ffd313" stroke="none" /><path d="M 109.41281617654863 81.2277094730956 l 6.278030501514349 -12.520483806410377 a35.006290791088446,35.006290791088446 0 0,0 0.5363289014500492,0.2747284944502645 l -6.492619890553154 12.410562786647612" fill="#ff6008" stroke="none" /><path d="M 110.05341064243156 81.56283822128135 l 10.635993087551855 -19.505572010047523 a43.21692346832928,43.21692346832928 0 0,0 0.6500564318125074,0.3617557005024949 l -10.970173608436397 19.319600911984846" fill="#ffd914" stroke="none" /><line stroke="#e1ed5e" stroke-width="0.3" x1="143.23703022742887" x2="145.7803849466894" y1="26.81831364943548" y2="22.513508569990506" /><path d="M 143.74570117128098 25.957352633546492 a86.0,86.0 0 0,1 28.547481713284135,27.462654790039103" fill="none" id="id62" stroke="none" /><text fill="#e1ed5e" style="font-size:6.75px; font-family:Arial;" text-anchor="middle"><textPath startOffset="19.985693538727396" xlink:href="#id62">February</textPath></text><path d="M 110.99172775467656 82.1063720568725 l 10.603970800454967 -17.2623915418939 a41.25917961030386,41.25917961030386 0 0,0 0.6019534486395205,0.37694319431475226 l -10.899543401466751 17.077304006256206" fill="#ffbd11" stroke="none" /><path d="M 111.2981086023043 82.29822771554956 l 22.38939277972649 -35.07949396884039 a62.61557167881727,62.61557167881727 0 0,0 0.9035515675261709,0.5876950734410035 l -22.98991137303694 34.688899971239856" fill="#32ff2f" stroke="none" /><path d="M 111.90073688211348 82.69761687909136 l 29.19598812840516 -42.44780614807225 a72.5191417783555,72.5191417783555 0 0,0 1.0224123649852077,0.7162651997420025 l -29.922331632974014 41.93895610556631" fill="#3dffac" stroke="none" /><path d="M 112.48926042617603 83.11751280151076 l 6.036266011592018 -8.159585130741004 a31.14964713024599,31.14964713024599 0 0,0 0.42831335323465136,0.32259673778929965 l -6.175825518585053 8.054471803445857" fill="#ff2203" stroke="none" /><path d="M 113.06298171725822 83.55741782278167 l 17.78583054126924 -22.387306864139134 a49.59243390605069,49.59243390605069 0 0,0 0.6638221251383783,0.5367646594608078 l -18.168556064972112 22.077836107414196" fill="#ceff1d" stroke="none" /><path d="M 113.89432698308785 84.25364557470407 l 12.116919410912724 -13.732029469237197 a39.3136115868649,39.3136115868649 0 0,0 0.5035680740374111,0.4521083889088908 l -12.351498472546124 13.521422071559009" fill="#ffa10e" stroke="none" /><path d="M 114.68862486808459 84.99185889309783 l 27.015454382969793 -27.603111597441245 a59.6233937579172,59.6233937579172 0 0,0 0.7273037596812151,0.7241804862007701 l -27.48659394281833 27.133995260590357" fill="#53ff2b" stroke="none" /><path d="M 115.4437574822437 85.77008943001954 l 30.671729986184022 -28.260996407888282 a62.70658147477511,62.70658147477511 0 0,0 0.7245786080991843,0.8000977964771868 l -31.15365223489924 27.728845824141548" fill="#31ff2f" stroke="none" /><path d="M 115.68641384162765 86.03803664274999 l 17.311359099447337 -15.408273927420554 a44.17537614133687,44.17537614133687 0 0,0 0.5006713786260559,0.5723539355686291 l -17.57402234165124 15.108004435648978" fill="#ffe715" stroke="none" /><path d="M 116.38621287248628 86.86637796730983 l 22.64640058148068 -18.151190147021026 a50.02283864562875,50.02283864562875 0 0,0 0.5327335114381633,0.6765174595913551 l -22.95548817351281 17.758680293476633" fill="#c8ff1d" stroke="none" /><path d="M 116.82858285166822 87.43820079747576 l 31.101121441000736 -23.215623440118975 a59.81037137932691,59.81037137932691 0 0,0 0.6087482153908146,0.8303318816680667 l -31.496132268905175 22.676829114779416" fill="#51ff2b" stroke="none" /><path d="M 117.2510076193507 88.02491185347247 l 21.8471195634217 -15.16555950194102 a47.59493989888597,47.59493989888597 0 0,0 0.4613888248276301,0.6770311680438771 l -22.104932853918065 14.787250310626737" fill="#e8ff1a" stroke="none" /><path d="M 117.65298651832404 88.62581576622439 l 16.914194739190727 -10.898165414096653 a41.12113299663515,41.12113299663515 0 0,0 0.3782603860023695,0.5983170912275639 l -17.09928272143905 10.605400675154883" fill="#ffbb11" stroke="none" /><line stroke="#e1ed5e" stroke-width="0.3" x1="172.23445277983987" x2="176.4835382374775" y1="55.19839476539836" y2="52.563006222186495" /><path d="M 173.08426987136738 54.67131705675599 a86.0,86.0 0 0,1 12.851231095245387,41.99856678651699" fill="none" id="id63" stroke="none" /><text fill="#e1ed5e" style="font-size:6.75px; font-family:Arial;" text-anchor="middle"><textPath startOffset="22.20632615414155" xlink:href="#id63">March</textPath></text><path d="M 117.84615892207809 88.93136811851018 l 23.4331764656938 -14.533839200091172 a48.574376532687964,48.574376532687964 0 0,0 0.4345884742184979,0.7143491842698909 l -23.679880738198523 14.128322242614201" fill="#dbff1b" stroke="none" /><path d="M 118.21658344932153 89.55222093294921 l 27.632170324954846 -15.847911958979205 a52.85424854437586,52.85424854437586 0 0,0 0.44584410737460617,0.7931069183970356 l -27.900872073621883 15.369921530647375" fill="#a4ff21" stroke="none" /><path d="M 118.3937258080291 89.86733742301442 l 19.685261484946093 -10.844138618159697 a43.47453808425358,43.47453808425358 0 0,0 0.35543933710879705,0.6585751097827773 l -19.869008921273355 10.50368252504446" fill="#ffdd14" stroke="none" /><path d="M 118.73160827565052 90.50648371742162 l 12.31248598599585 -6.2401895484337695 a34.803524070168685,34.803524070168685 0 0,0 0.2662303645622689,0.5367041693604824 l -12.418076363511528 6.027325790574337" fill="#ff5c08" stroke="none" /><path d="M 119.04729006885535 91.15688171328212 l 26.119950508144875 -12.126754575152159 a49.79774281213567,49.79774281213567 0 0,0 0.35426987602801,0.7805867115761156 l -26.32482270113623 11.675345854733981" fill="#cbff1d" stroke="none" /><path d="M 119.196687751892 91.48605970444005 l 30.81277805494756 -13.665802980741164 a54.707290940861625,54.707290940861625 0 0,0 0.37437837845434124,0.8641169144015903 l -31.043447143244585 13.133386921752972" fill="#8dff24" stroke="none" /><path d="M 119.47837535516314 92.15188598940014 l 17.11670009409354 -6.896561513693362 a39.453833824528125,39.453833824528125 0 0,0 0.24838339588086467,0.6321086500447071 l -17.232877039856106 6.60090385875287" fill="#ffa30f" stroke="none" /><path d="M 119.7369772167798 92.82701384747503 l 40.04548011358126 -14.553681203103608 a63.60809916070892,63.60809916070892 0 0,0 0.3651314471127428,1.032275770117184 l -40.29006464150382 13.862207806559809" fill="#30ff3a" stroke="none" /><path d="M 119.85752413597 93.16781622104841 l 19.28053886012905 -6.633666108002174 a41.3898186546473,41.3898186546473 0 0,0 0.22599374367797784,0.675692528570517 l -19.391869897578797 6.300800476509344" fill="#ffbf11" stroke="none" /><path d="M 120.08093135843002 93.85539295169968 l 28.10817178901322 -8.600879481473909 a50.3946329995038,50.3946329995038 0 0,0 0.24667957569376175,0.8316808982534092 l -28.252057261818685 8.11576919647397" fill="#c4ff1e" stroke="none" /><path d="M 120.18372546131832 94.20196356495316 l 22.069447108083008 -6.33973439042441 a43.9619844046111,43.9619844046111 0 0,0 0.2026715086915039,0.7291172498761126 l -22.175305387340874 5.958905837129346" fill="#ffe415" stroke="none" /><path d="M 120.45610955862082 95.25157060432595 l 12.815826628314452 -2.9749081914798636 a34.15657595709263,34.15657595709263 0 0,0 0.12801496421973524,0.5738659833851008 l -12.865135979536225 2.753864038544799" fill="#ff5207" stroke="none" /><path d="M 120.53481517161879 95.60439243477599 l 38.05395577038305 -8.145690841287943 a59.91600993236732,59.91600993236732 0 0,0 0.2071972774882168,1.0103675096479083 l -38.188532343786264 7.489447675476622" fill="#50ff2b" stroke="none" /><path d="M 120.6074358757038 95.95851677861258 l 17.496635014283758 -3.4314000668243065 a38.829939518732594,38.829939518732594 0 0,0 0.12298787227202121,0.6570061315146893 l -17.55310861046564 3.1297158578470547" fill="#ff9a0e" stroke="none" /><path d="M 120.73433829027371 96.67025291283417 l 15.850070520477754 -2.545377885133227 a37.05315184262091,37.05315184262091 0 0,0 0.09571024366480621,0.6306109217725557 l -15.89153665758186 2.272167850968589" fill="#ff7f0b" stroke="none" /><path d="M 120.78858239683441 97.02765380044208 l 19.86126035731162 -2.8397579312803423 a41.06324719703139,41.06324719703139 0 0,0 0.09402310556716012,0.7005813469505204 l -19.90719946193662 2.4974582422651572" fill="#ffba11" stroke="none" /><path d="M 120.83666639777658 97.38593545837742 l 32.172365325113844 -4.0361849544935815 a53.424556737131624,53.424556737131624 0 0,0 0.1066192530377582,0.913448648746966 l -32.237074931155185 3.481792567421763" fill="#9dff22" stroke="none" /><path d="M 120.96714384426684 98.82574320788733 l 31.95320606217656 -1.7895269630892596 a53.00327771343961,53.00327771343961 0 0,0 0.04317594445118491,0.9113759473761774 l -31.97927561486124 1.2392399090900823" fill="#a2ff22" stroke="none" /><path d="M 120.98425023603335 99.18683210126433 l 8.030311269871 -0.31118535416153703 a29.036338433370126,29.036338433370126 0 0,0 0.015055072607230014,0.49960456597368863 l -8.034478036933875 0.17291064076284934" fill="#ff0000" stroke="none" /><line stroke="#e1ed5e" stroke-width="0.3" x1="184.98032266829074" x2="189.97916517819016" y1="98.17113171792111" y2="98.06355123074" /><path d="M 185.9800911702706 98.14961562048488 a86.0,86.0 0 0,1 -9.607161424134198,41.387399972396054" fill="none" id="id64" stroke="none" /><text fill="#e1ed5e" style="font-size:6.75px; font-family:Arial;" text-anchor="middle"><textPath startOffset="21.466115282336823" xlink:href="#id64">April</textPath></text><path d="M 120.99513854157772 99.54816195383933 l 17.534777415186248 -0.3773673391794906 a38.53883762137061,38.53883762137061 0 0,0 0.008564784803354894,0.6633520217438494 l -17.538675207107318 0.07547905937517851" fill="#ff950d" stroke="none" /><path d="M 120.99980553446 99.90962569577887 l 42.61771029077669 -0.1834086467470557 a63.61810494567157,63.61810494567157 0 0,0 -0.004712898014317286,1.0951115215477887 l -42.61455309547287 -0.5502123530044176" fill="#30ff3a" stroke="none" /><path d="M 120.9764740272857 100.99374915477107 l 39.12423462335643 1.8534895348689913 a60.16811405109149,60.16811405109149 0 0,0 -0.05791510215180388,1.034113054085474 l -39.0865331703171 -2.5266743052898883" fill="#4dff2c" stroke="none" /><path d="M 120.95626037817324 101.35467743843564 l 16.303575976533004 1.0539135390889733 a37.3376045787153,37.3376045787153 0 0,0 -0.046980381152373366,0.6410099747375265 l -16.283019036716293 -1.3343966503232703" fill="#ff830c" stroke="none" /><path d="M 120.92983693683757 101.71520430193887 l 23.8899848725451 1.957789014329285 a44.97007123550245,44.97007123550245 0 0,0 -0.06986508235747375,0.7709553620513077 l -23.85274519391055 -2.368725764929163" fill="#fff216" stroke="none" /><path d="M 120.89721153311464 102.0752229133903 l 62.69163459934395 6.2256687401709 a84.0,84.0 0 0,0 -0.15527079399579247,1.4376147124608343 l -62.575181503847105 -7.303879774516526" fill="#4dd2ff" stroke="none" /><path d="M 120.8583938346157 102.4346265915055 l 17.98926903807788 2.0997375497420725 a39.11139691747007,39.11139691747007 0 0,0 -0.08380732535874427,0.6680268418721536 l -17.950460203472286 -2.409082145901621" fill="#ff9e0e" stroke="none" /><line stroke="#e1ed5e" stroke-width="0.3" x1="174.80103733775053" x2="179.2010983576182" y1="140.37084112569926" y2="142.7455964860345" /><path d="M 175.68104954172406 140.8457921977663 a86.0,86.0 0 0,1 -30.038265399797805,32.042727171017184" fill="none" id="id65" stroke="none" /><text fill="#e1ed5e" style="font-size:6.75px; font-family:Arial;" text-anchor="middle"><textPath startOffset="22.206326154141568" xlink:href="#id65">May</textPath></text><line stroke="#e1ed5e" stroke-width="0.3" x1="143.8653032363475" x2="146.44561519142675" y1="172.8068346515853" y2="177.08958963109032" /><path d="M 144.38136562736335 173.6633856474863 a86.0,86.0 0 0,1 -40.68145358897372,12.25698825130547" fill="none" id="id66" stroke="none" /><text fill="#e1ed5e" style="font-size:6.75px; font-family:Arial;" text-anchor="middle"><textPath startOffset="21.466115282336833" xlink:href="#id66">June</textPath></text><line stroke="#e1ed5e" stroke-width="0.3" x1="102.19456741930631" x2="102.32365962044197" y1="184.97166512339345" y2="189.96999836594603" /><path d="M 102.22038585953345 185.97133177190398 a86.0,86.0 0 0,1 -42.740103519485714,-10.115201625700543" fill="none" id="id67" stroke="none" /><text fill="#e1ed5e" style="font-size:6.75px; font-family:Arial;" text-anchor="middle"><textPath startOffset="22.20632615414155" xlink:href="#id67">July</textPath></text><line stroke="#e1ed5e" stroke-width="0.3" x1="58.666819895761336" x2="56.23545636021788" y1="174.27360380694188" y2="178.64263932499728" /><path d="M 58.180547188652646 175.14741091055294 a86.0,86.0 0 0,1 -31.652253787137756,-30.449443065178592" fill="none" id="id68" stroke="none" /><text fill="#e1ed5e" style="font-size:6.75px; font-family:Arial;" text-anchor="middle"><textPath startOffset="22.20632615414155" xlink:href="#id68">August</textPath></text><line stroke="#e1ed5e" stroke-width="0.3" x1="26.63291911575756" x2="22.317208475507996" y1="142.92168965132927" y2="145.44649492493687" /><path d="M 25.769776987707644 143.4266507060508 a86.0,86.0 0 0,1 -11.730757126820373,-40.83630448921669" fill="none" id="id69" stroke="none" /><text fill="#e1ed5e" style="font-size:6.75px; font-family:Arial;" text-anchor="middle"><textPath startOffset="21.46611528233685" xlink:href="#id69">September</textPath></text><line stroke="#e1ed5e" stroke-width="0.3" x1="15.007084014347285" x2="10.007500721073583" y1="101.09737516637583" y2="101.16192664675087" /><path d="M 14.007167355692545 101.11028546245083 a86.0,86.0 0 0,1 10.666146001902534,-42.60595125391555" fill="none" id="id70" stroke="none" /><text fill="#e1ed5e" style="font-size:6.75px; font-family:Arial;" text-anchor="middle"><textPath startOffset="22.20632615414155" xlink:href="#id70">October</textPath></text><line stroke="#e1ed5e" stroke-width="0.3" x1="26.266209847984243" x2="21.928928074336255" y1="57.711370442889674" y2="55.22380399835377" /><path d="M 25.398753493254645 57.213857153982495 a86.0,86.0 0 0,1 29.58750427330803,-30.492523968695096" fill="none" id="id71" stroke="none" /><text fill="#e1ed5e" style="font-size:6.75px; font-family:Arial;" text-anchor="middle"><textPath startOffset="21.46611528233685" xlink:href="#id71">November</textPath></text><line stroke="#e1ed5e" stroke-width="0.3" x1="56.762969772571076" x2="54.21961505331055" y1="26.818313649435495" y2="22.513508569990535" /><path d="M 56.25429882871897 25.957352633546506 a86.0,86.0 0 0,1 42.265352541879196,-11.944610805530505" fill="none" id="id72" stroke="none" /><text fill="#e1ed5e" style="font-size:6.75px; font-family:Arial;" text-anchor="middle"><textPath startOffset="22.20632615414155" xlink:href="#id72">December</textPath></text></svg>