<?xml version="1.0" encoding="utf-8" ?>
<svg baseProfile="full" height="200mm" version="1.1" viewBox="0,0,200,200" width="200mm" xmlns="http://www.w3.org/2000/svg" xmlns:ev="http://www.w3.org/2001/xml-events" xmlns:xlink="http://www.w3.org/1999/xlink"><defs /><rect fill="#1a1a1a" height="200" width="200" x="0" y="0" /><text alignment-baseline="middle" fill="#e1ed5e" style="dominant-baseline: central; font-size:9.0px; font-family:Arial;" text-anchor="middle" x="100.0" y="100.0">2023</text><line stroke="#e1ed5e" stroke-width="0.3" x1="100.0" x2="100.0" y1="15.0" y2="10.0" /><path d="M 100.0 14.0 a86.0,86.0 0 0,1 42.46469731375804,11.215312516191453" fill="none" id="id37" stroke="none" /><text fill="#e1ed5e" style="font-size:6.75px; font-family:Arial;" text-anchor="middle"><textPath startOffset="22.20632615414155" xlink:href="#id37">January</textPath></text><path d="M 101.44485096284872 79.0497635885617 l 1.8244651292752418 -26.454614881094685 a47.51745314910498,47.51745314910498 0 0,0 0.8155122043548929,0.0632994425389587 l -2.2795675229924757 26.419290176367262" fill="#d2ff1c" stroke="none" /><path d="M 101.80526077348638 79.07773832637324 l 1.470631386305523 -17.044038812359897 a38.10736729340951,38.10736729340951 0 0,0 0.6530420934114824,0.062014215581541764 l -1.7637986068072495 17.016199052263175" fill="#ffb010" stroke="none" /><path d="M 102.52436894288641 79.15227682838746 l 3.2864456173356116 -27.141400484206166 a48.33964785873752,48.33964785873752 0 0,0 0.8251929422130779,0.10713372709527585 l -3.7531532880565357 27.080808433946753" fill="#c8ff1d" stroke="none" /><path d="M 102.88285421437855 79.19881850522331 l 1.73862103246959 -12.544988042287082 a33.66489352800376,33.66489352800376 0 0,0 0.5733147712467015,0.08449169424092838 l -1.9543047841449472 12.513201863885186" fill="#ff710a" stroke="none" /><path d="M 103.2404852339499 79.25152402106235 l 4.183049685958117 -26.78361407683748 a48.10829924012499,48.10829924012499 0 0,0 0.8170869181563776,0.1348263425666748 l -4.64346581025337 26.707641471331183" fill="#caff1d" stroke="none" /><path d="M 103.59715602781102 79.31037775812273 l 2.0567021532474654 -11.829453681118183 a33.006914597051704,33.006914597051704 0 0,0 0.5589247556214983,0.10213992653269939 l -2.2600220299718647 11.792298273234746" fill="#ff6709" stroke="none" /><path d="M 103.95276090670814 79.375362276772 l 3.796617615029009 -19.80991634245112 a41.170450932234026,41.170450932234026 0 0,0 0.6948662260842496,0.13938362799044046 l -4.1370502505803834 19.74162875838347" fill="#ffda14" stroke="none" /><path d="M 106.74666289553966 80.11325718540242 l 5.148941158442226 -15.177232088049397 a37.02685149702263,37.02685149702263 0 0,0 0.6018062261338353,0.20995837552308702 l -5.409429388639335 15.086352859354102" fill="#ffa10e" stroke="none" /><path d="M 107.76421540070413 80.48803036053334 l 9.902198383532273 -24.884857548637203 a47.78263743627194,47.78263743627194 0 0,0 0.7616009287395237,0.3106761414933285 l -10.329083181860184 24.710720520960297" fill="#cfff1d" stroke="none" /><path d="M 108.76106565485865 80.91482961587045 l 9.958442523347506 -21.693545032760582 a44.87007485491462,44.87007485491462 0 0,0 0.6991650549117188,0.3282673680609131 l -10.330385789558822 21.518912682059668" fill="#f3ff19" stroke="none" /><path d="M 109.41281617654863 81.2277094730956 l 7.403521098552728 -14.765086917383963 a37.517261163238246,37.517261163238246 0 0,0 0.5747993006507424,0.2944345271192711 l -7.656580886792226 14.63545986495219" fill="#ffa80f" stroke="none" /><path d="M 109.73455568895987 81.39251694778311 l 10.253251745824064 -19.598964162987915 a43.118963981735874,43.118963981735874 0 0,0 0.6546997740068485,0.34971794558544045 l -10.589096566359224 19.41956749090072" fill="#fff417" stroke="none" /><path d="M 110.05341064243156 81.56283822128135 l 11.032416389211441 -20.23258106254792 a44.04498964715571,44.04498964715571 0 0,0 0.6625119631718139,0.36868719021863133 l -11.37905244145529 20.039678474769108" fill="#feff18" stroke="none" /><path d="M 110.36928655335952 81.73862282372117 l 5.087229686422283 -8.95913326418987 a31.30271686148511,31.30271686148511 0 0,0 0.4662662912850098,0.2700915313189285 l -5.240692710172621 8.87023757548089" fill="#ff4e07" stroke="none" /><line stroke="#e1ed5e" stroke-width="0.3" x1="143.23703022742887" x2="145.7803849466894" y1="26.81831364943548" y2="22.513508569990506" /><path d="M 143.74570117128098 25.957352633546492 a86.0,86.0 0 0,1 28.547481713284135,27.462654790039103" fill="none" id="id38" stroke="none" /><text fill="#e1ed5e" style="font-size:6.75px; font-family:Arial;" text-anchor="middle"><textPath startOffset="19.985693538727396" xlink:href="#id38">February</textPath></text><path d="M 110.68208982089419 81.91981866633111 l 8.035877101295155 -13.601281921661624 a36.797790690461724,36.797790690461724 0 0,0 0.5425710417690677,0.32689298179704107 l -8.26881020928186 13.460942330405967" fill="#ff9e0e" stroke="none" /><path d="M 110.99172775467656 82.1063720568725 l 10.52410322165429 -17.13237369832334 a41.10659039118855,41.10659039118855 0 0,0 0.599727238435168,0.3755491416890196 l -10.817449612461722 16.948680215311377" fill="#ffd914" stroke="none" /><path d="M 111.2981086023043 82.29822771554956 l 9.259382501103063 -14.50751504510428 a38.210582706162526,38.210582706162526 0 0,0 0.5513841201887705,0.3586355695179032 l -9.507733647076114 14.345980551426848" fill="#ffb110" stroke="none" /><path d="M 111.60114157652 82.49532879139004 l 12.668222210448189 -19.11476238168838 a43.93159381468506,43.93159381468506 0 0,0 0.6267475844818212,0.4231827667830578 l -12.995374489336552 18.893867702606652" fill="#fffe18" stroke="none" /><path d="M 112.48926042617603 83.11751280151076 l 14.294217216898915 -19.322356243844347 a45.03493492102527,45.03493492102527 0 0,0 0.6192386035089029,0.4663976780003233 l -14.6247019741662 19.073441976338177" fill="#f1ff19" stroke="none" /><path d="M 112.77801427241765 83.33499621200491 l 8.795082888643103 -11.470490369646186 a35.45426000659489,35.45426000659489 0 0,0 0.4811099944186927,0.3755139818840696 l -8.991225438221225 11.317397998538892" fill="#ff8b0c" stroke="none" /><path d="M 113.34407831869373 83.78471172551755 l 16.43451417304048 -19.97068501865673 a46.863517089101954,46.863517089101954 0 0,0 0.6184700263253433,0.517950860801692 l -16.77584173632494 19.68483300046122" fill="#daff1c" stroke="none" /><path d="M 114.42810811169701 84.74124197986012 l 16.796818992727474 -17.763839481514168 a45.447640405557586,45.447640405557586 0 0,0 0.5638034220916697,0.5423784453513203 l -17.10010565843156 17.472077949400546" fill="#ecff1a" stroke="none" /><path d="M 114.68862486808459 84.99185889309783 l 10.107834498489332 -10.327706494033674 a35.450945978577195,35.450945978577195 0 0,0 0.4324411052339858,0.4305840656987804 l -10.284111403890641 10.152186577684775" fill="#ff8b0c" stroke="none" /><path d="M 114.94478906791727 85.2469230424477 l 8.637775433216802 -8.526969844082352 a33.137560675711306,33.137560675711306 0 0,0 0.39723372551348024,0.40938427197190763 l -8.78327342243339 8.377021376560329" fill="#ff6909" stroke="none" /><path d="M 115.19652480421416 85.50635884689758 l 11.35360583871063 -10.828468412357498 a36.68948991198338,36.68948991198338 0 0,0 0.43194480221320647,0.46076859852067154 l -11.538317962894299 10.631430396958772" fill="#ff9c0e" stroke="none" /><path d="M 115.4437574822437 85.77008943001954 l 16.942406316948844 -15.610768752853298 a44.037821790778075,44.037821790778075 0 0,0 0.5088598814738106,0.5618957906456811 l -17.20860983903869 15.31682017493807" fill="#feff18" stroke="none" /><path d="M 115.9244219780498 86.31012108654704 l 20.304510181263947 -17.455345390973967 a47.776150141856604,47.776150141856604 0 0,0 0.5307461312638622,0.6282360134690377 l -20.601966926014924 17.103250427875825" fill="#cfff1d" stroke="none" /><path d="M 116.38621287248628 86.86637796730983 l 20.37252889042313 -16.32867193774473 a47.108723841689724,47.108723841689724 0 0,0 0.5016987550295117,0.6371064705812249 l -20.650581726046607 15.975573073210468" fill="#d7ff1c" stroke="none" /><path d="M 116.82858285166822 87.43820079747576 l 9.599436322457056 -7.165558300601031 a32.97891495371013,32.97891495371013 0 0,0 0.33565843449244304,0.4578377274271565 l -9.721357369463124 6.9992581295023815" fill="#ff6709" stroke="none" /><path d="M 117.04232023915458 87.72973835380427 l 16.48737032294157 -11.870704509789888 a41.31617596213816,41.31617596213816 0 0,0 0.41057926291716196,0.5807352500786553 l -16.689262205662615 11.58514275937944" fill="#ffdc14" stroke="none" /><path d="M 117.45458315368197 88.32363383020206 l 19.799335956210182 -13.244905049181263 a44.82102462256199,44.82102462256199 0 0,0 0.42345914722959965,0.6449573330928632 l -20.024391738797707 12.902129652110725" fill="#f4ff19" stroke="none" /><path d="M 117.65298651832404 88.62581576622439 l 18.145987147462392 -11.69183473316087 a42.5864737505554,42.5864737505554 0 0,0 0.39173959532396657,0.6196379633352102 l -18.344554339032314 11.377749122111455" fill="#ffed16" stroke="none" /><line stroke="#e1ed5e" stroke-width="0.3" x1="172.23445277983987" x2="176.4835382374775" y1="55.19839476539836" y2="52.563006222186495" /><path d="M 173.08426987136738 54.67131705675599 a86.0,86.0 0 0,1 12.851231095245387,41.99856678651699" fill="none" id="id39" stroke="none" /><text fill="#e1ed5e" style="font-size:6.75px; font-family:Arial;" text-anchor="middle"><textPath startOffset="22.20632615414155" xlink:href="#id39">March</textPath></text><path d="M 117.84615892207809 88.93136811851018 l 11.532421899976105 -7.152695057251177 a34.57047535869963,34.57047535869963 0 0,0 0.30929743645881175,0.508403661253187 l -11.653835134721142 6.953123622790908" fill="#ff7e0b" stroke="none" /><path d="M 118.03404312379186 89.2402003453031 l 22.835640708787494 -13.62461636176522 a47.591289129828084,47.591289129828084 0 0,0 0.4136823528635996,0.707117238148792 l -23.06678273612142 13.229519711262531" fill="#d1ff1c" stroke="none" /><path d="M 118.21658344932153 89.55222093294921 l 9.396027393190785 -5.388914918382828 a31.831700456122327,31.831700456122327 0 0,0 0.26851154764144025,0.47765208193048986 l -9.487396582124658 5.226379326517544" fill="#ff5607" stroke="none" /><path d="M 118.3937258080291 89.86733742301442 l 24.787498957572634 -13.654838920934084 a49.299730220062536,49.299730220062536 0 0,0 0.4030649709285442,0.746818176170541 l -25.01887202771964 13.226139761431085" fill="#bcff1f" stroke="none" /><path d="M 118.73160827565052 90.50648371742162 l 23.903891769030473 -12.114922669041421 a47.79864535722611,47.79864535722611 0 0,0 0.3656368462394972,0.7371015705560411 l -24.108888628223376 11.701661509986431" fill="#ceff1d" stroke="none" /><path d="M 118.89224826269711 90.83032412892265 l 22.54584537310578 -10.943011728202555 a46.06121803248146,46.06121803248146 0 0,0 0.3400673541716474,0.7162685758734061 l -22.730870921119187 10.553300736688607" fill="#e4ff1a" stroke="none" /><path d="M 119.04729006885535 91.15688171328212 l 11.7252768402819 -5.443714547754438 a33.927340989495264,33.927340989495264 0 0,0 0.24136505406785996,0.5318159024882092 l -11.817244211313106 5.241076636424166" fill="#ff750a" stroke="none" /><path d="M 119.34039704204932 91.81776055985345 l 25.544520100457543 -10.806984954401582 a48.73649997687779,48.73649997687779 0 0,0 0.3202180978038322,0.7754335233036607 l -25.726759885147573 10.36567686064462" fill="#c3ff1e" stroke="none" /><path d="M 119.47837535516314 92.15188598940014 l 15.98787925565181 -6.4417435693783425 a38.236831011149604,38.236831011149604 0 0,0 0.24072169960749526,0.6126104687301436 l -16.096394505141006 6.165584095752415" fill="#ffb210" stroke="none" /><path d="M 119.7369772167798 92.82701384747503 l 31.29680101660307 -11.374159165546738 a54.29956832446988,54.29956832446988 0 0,0 0.3116974130891474,0.8812105604280739 l -31.487951510502025 10.83375097869205" fill="#81ff25" stroke="none" /><path d="M 119.85752413597 93.16781622104841 l 23.56547767902889 -8.107943026505712 a45.92128564825401,45.92128564825401 0 0,0 0.25073613742420864,0.7496691366004284 l -23.70155111022487 7.701100786982969" fill="#e6ff1a" stroke="none" /><path d="M 120.45610955862082 95.25157060432595 l 32.03593145635763 -7.436426667995602 a53.887708127276376,53.887708127276376 0 0,0 0.2019650048196461,0.9053695152487113 l -32.159190848179314 6.883878983196927" fill="#85ff25" stroke="none" /><path d="M 120.78858239683441 97.02765380044208 l 34.03592266479773 -4.866447526338482 a55.382064265699604,55.382064265699604 0 0,0 0.1268091062062322,0.9448751335712458 l -34.1146477700618 4.279854050702572" fill="#74ff27" stroke="none" /><path d="M 120.87857604477298 97.74499172005257 l 19.543344011709284 -2.1107954139093983 a40.657002631108185,40.657002631108185 0 0,0 0.06916119024420837,0.6964437473630373 l -19.57678232763572 1.774076135841926" fill="#ffd313" stroke="none" /><path d="M 120.91429891909075 98.10471618934814 l 27.027448373276524 -2.4492661954994683 a48.138199469871694,48.138199469871694 0 0,0 0.06768119939752791,0.8258820628414826 l -27.065604056493548 1.9836702154502168" fill="#caff1d" stroke="none" /><path d="M 120.94382443527127 98.46500227214037 l 14.955790839409794 -1.096127645062577 a35.995905289326295,35.995905289326295 0 0,0 0.03997158274324395,0.6183426931966993 l -14.972443013157454 0.8385258876128425" fill="#ff920d" stroke="none" /><path d="M 120.96714384426684 98.82574320788733 l 18.440643677856 -1.032761126192823 a39.46954073054946,39.46954073054946 0 0,0 0.032151496503845085,0.6786672754520258 l -18.45568878259334 0.7151827441177974" fill="#ffc312" stroke="none" /><line stroke="#e1ed5e" stroke-width="0.3" x1="184.98032266829074" x2="189.97916517819016" y1="98.17113171792111" y2="98.06355123074" /><path d="M 185.9800911702706 98.14961562048488 a86.0,86.0 0 0,1 -9.607161424134198,41.387399972396054" fill="none" id="id40" stroke="none" /><text fill="#e1ed5e" style="font-size:6.75px; font-family:Arial;" text-anchor="middle"><textPath startOffset="21.466115282336823" xlink:href="#id40">April</textPath></text><path d="M 120.99513854157772 99.54816195383933 l 17.16717665033177 -0.3694561738861496 a38.1711517379621,38.1711517379621 0 0,0 0.008483071117603274,0.6570232067307453 l -17.170992728567086 0.07389670909494156" fill="#ffb110" stroke="none" /><path d="M 120.99980553446 99.90962569577887 l 14.7795848344384 -0.06360509833758722 a35.779721698560365,35.779721698560365 0 0,0 -0.0026506004774894385,0.615906203168549 l -14.778489936671408 -0.19081058303464657" fill="#ff8f0d" stroke="none" /><path d="M 120.99824983174949 100.27111621757518 l 24.28571899679368 0.3135619553182518 a45.287743169982846,45.287743169982846 0 0,0 -0.016773582262552777,0.7794024572149271 l -24.27672335184612 -0.7315542283232938" fill="#eeff19" stroke="none" /><path d="M 120.95626037817324 101.35467743843564 l 30.497886324499465 1.971477629033722 a51.56154109831296,51.56154109831296 0 0,0 -0.06487777887560069,0.8852057471222688 l -30.459431986959526 -2.496156512652761" fill="#a1ff22" stroke="none" /><path d="M 120.89721153311464 102.0752229133903 l 17.63694460551892 1.7514581555328275 a38.72369658645525,38.72369658645525 0 0,0 -0.07157927518370315,0.6627351896852077 l -17.604183028834164 -2.0547896671028267" fill="#ffb911" stroke="none" /><path d="M 120.8583938346157 102.4346265915055 l 13.440054691507171 1.5687456475641233 a34.53129827538567,34.53129827538567 0 0,0 -0.0739931574352034,0.589798267275578 l -13.411060024825119 -1.7998616691270963" fill="#ff7d0b" stroke="none" /><path d="M 120.81339534386255 102.79330883721812 l 25.754106525069616 3.4563881655352815 a46.98500764008904,46.98500764008904 0 0,0 -0.11447773828082818,0.8006570349067107 l -25.690794735772187 -3.8991906724224012" fill="#d8ff1c" stroke="none" /><path d="M 120.76222939487914 103.15116336523771 l 18.722377963736317 2.8415672723474876 a39.936788037581124,39.936788037581124 0 0,0 -0.10900507746472538,0.6787747214263168 l -18.670691131910303 -3.1634212234670094" fill="#ffc912" stroke="none" /><path d="M 120.70491114924044 103.5080841355445 l 13.157706369802739 2.2293426252037367 a34.34523156241576,34.34523156241576 0 0,0 -0.10377748244379353,0.5820392340375915 l -13.117382445019755 -2.4555006099745462" fill="#ff7b0b" stroke="none" /><path d="M 120.64145759157962 103.86396538481128 l 13.55672849958288 2.5377437335162596 a34.79220906412036,34.79220906412036 0 0,0 -0.11526172935788379,0.5877170747847105 l -13.511036837249332 -2.770724535368915" fill="#ff810b" stroke="none" /><path d="M 120.5718875245553 104.21870165774334 l 17.191322144905897 3.5254450591831157 a38.54908316565998,38.54908316565998 0 0,0 -0.138897782572431,0.6488841987256001 l -17.128090323609023 -3.8208430773248847" fill="#ffb610" stroke="none" /><path d="M 120.49622156327973 104.57218783832717 l 38.91078063784772 8.680009506284604 a60.867172145461936,60.867172145461936 0 0,0 -0.23691658117036557,1.0206304309989307 l -38.7556034907468 -9.348508594632099" fill="#38ff2e" stroke="none" /><path d="M 120.41448212921028 104.9243191809786 l 13.411035891341923 3.2349692173691302 a34.795684452617316,34.795684452617316 0 0,0 -0.14546035268090757,0.5810418022212263 l -13.353364224365954 -3.4653388589877525" fill="#ff810b" stroke="none" /><path d="M 120.32669344350535 105.2749913415812 l 22.75307438272953 5.904662787227706 a44.50675299774289,44.50675299774289 0 0,0 -0.19882210069045875,0.7398910003061139 l -22.648064205697295 -6.2954447207093684" fill="#f8ff18" stroke="none" /><path d="M 120.23288151984713 105.62410040840565 l 27.081821203931764 7.527888775703781 a49.10861343327157,49.10861343327157 0 0,0 -0.2334000577597482,0.8124962202726416 l -26.948228509285915 -7.992942471481005" fill="#beff1f" stroke="none" /><path d="M 120.13307415673323 105.97154293290107 l 13.82884065939703 4.101684376015664 a35.42430756408929,35.42430756408929 0 0,0 -0.17842587346614958,0.5831060781393241 l -13.75618801342475 -4.339117426707045" fill="#ff8a0c" stroke="none" /><path d="M 120.02730092923936 106.31721596034902 l 17.790612048919396 5.611696692275131 a39.65467814895898,39.65467814895898 0 0,0 -0.2109397539378774,0.6492058080304087 l -17.69138004396527 -5.917101400283335" fill="#ffc512" stroke="none" /><path d="M 119.67450827220406 107.3425965602758 l 56.14880672399365 20.954934650013495 a80.93160921179016,80.93160921179016 0 0,0 -0.49832952537082437,1.3009811413414285 l -55.77978291902932 -21.918339358188067" fill="#49f0ff" stroke="none" /><path d="M 119.41010516605496 108.01547362559984 l 12.466207341495432 5.147965727242094 a34.48732281107017,34.48732281107017 0 0,0 -0.23130978948777792,0.5467480145418894 l -12.375746570815345 -5.361788267450147" fill="#ff7d0b" stroke="none" /><path d="M 119.26925614724726 108.34839909993367 l 25.651451519002954 11.11348321579237 a48.95543729258152,48.95543729258152 0 0,0 -0.34165979933842566,0.7703526519553084 l -25.45635063493326 -11.553384204240366" fill="#c0ff1e" stroke="none" /><path d="M 119.12269723197855 108.67885076344098 l 14.927467063432124 6.774842343006846 a37.392918035006744,37.392918035006744 0 0,0 -0.27105482263598485,0.5838279737888673 l -14.808637623956308 -7.030790384074543" fill="#ffa60f" stroke="none" /><path d="M 118.97047184881838 109.00673069616215 l 9.874968797864096 4.688401285121748 a31.93142787421299,31.93142787421299 0 0,0 -0.2400129476946027,0.49449776173772914 l -9.792802593554779 -4.857688002824753" fill="#ff5708" stroke="none" /><path d="M 118.64920377521936 109.65438752849418 l 24.56247764802001 12.715592618976157 a48.658662365726286,48.658662365726286 0 0,0 -0.39146471237244035,0.740503708479977 l -24.339960427422678 -13.136511342542267" fill="#c4ff1e" stroke="none" /><line stroke="#e1ed5e" stroke-width="0.3" x1="174.80103733775053" x2="179.2010983576182" y1="140.37084112569926" y2="142.7455964860345" /><path d="M 175.68104954172406 140.8457921977663 a86.0,86.0 0 0,1 -30.038265399797805,32.042727171017184" fill="none" id="id41" stroke="none" /><text fill="#e1ed5e" style="font-size:6.75px; font-family:Arial;" text-anchor="middle"><textPath startOffset="22.206326154141568" xlink:href="#id41">May</textPath></text><path d="M 118.30583269289576 110.29060199501025 l 10.107609655336459 5.681980701394497 a32.59520062938414,32.59520062938414 0 0,0 -0.2791515127717828,0.48672419226863917 l -10.008306146412297 -5.855124739521452" fill="#ff6109" stroke="none" /><path d="M 117.94076556474637 110.91462005526583 l 16.868928363185272 10.262546665536755 a40.74539460696079,40.74539460696079 0 0,0 -0.36968754491944356,0.5960540334870453 l -16.689776178597864 -10.551397030389074" fill="#ffd413" stroke="none" /><path d="M 117.55443506779139 111.5257021239791 l 39.737615026641585 26.090495771906983 a68.53726977466698,68.53726977466698 0 0,0 -0.6559894470636054,0.9806152175431202 l -39.28262247416726 -26.77064790365591" fill="#38ff84" stroke="none" /><path d="M 117.14729908036423 112.12312394758627 l 14.004238082206125 9.900982846710015 a38.15074766865743,38.15074766865743 0 0,0 -0.38372423064760997,0.5329593948998902 l -13.831734059182914 -10.140575847061037" fill="#ffb110" stroke="none" /><path d="M 116.93607887273984 112.41649034213515 l 7.963102867814356 5.83805676594905 a30.873900652013706,30.873900652013706 0 0,0 -0.3179111032939531,0.42589387515225396 l -7.86143049782531 -5.974263520610619" fill="#ff4806" stroke="none" /><path d="M 116.71984013943494 112.70617746262583 l 10.54432502075225 8.013118775058564 a34.24359704334355,34.24359704334355 0 0,0 -0.36068810571043336,0.46623799787667985 l -10.404830097823748 -8.193434767048496" fill="#ff790b" stroke="none" /><path d="M 116.498646956653 112.99209946851258 l 12.377610155965977 9.746929111901208 a36.75461393641556,36.75461393641556 0 0,0 -0.39569332668393303,0.4936882656685605 l -12.20799891722719 -9.958545211148019" fill="#ff9d0e" stroke="none" /><path d="M 116.0416608686014 113.55231037782055 l 7.446997958417596 6.291370235423159 a30.748800850968507,30.748800850968507 0 0,0 -0.3450564401070067,0.401378594598665 l -7.337599008739811 -6.418625929183351" fill="#ff4606" stroke="none" /><path d="M 115.80600337817218 113.82643327865902 l 10.826404670991055 9.47048777921561 a35.38405981899162,35.38405981899162 0 0,0 -0.4049640781432598,0.45498143478866937 l -10.661781743199457 -9.655443383745144" fill="#ff8a0c" stroke="none" /><path d="M 115.56566222782051 114.09645910891815 l 16.93305160983264 15.334784098076147 a43.84477708702505,43.84477708702505 0 0,0 -0.5114255065758881,0.5550513796238474 l -16.666579695261028 -15.62398673250133" fill="#fffd17" stroke="none" /><path d="M 115.32070863581623 114.36230785411682 l 13.844246849340905 12.978207469711316 a39.97622301598388,39.97622301598388 0 0,0 -0.47494313062387766,0.4979759736615222 l -13.618797167338064 -13.214590559955345" fill="#ffca12" stroke="none" /><path d="M 115.07121518719521 114.62390073753431 l 12.850872005057388 12.469457456382596 a38.906207877350894,38.906207877350894 0 0,0 -0.4705045825710205,0.47661865807680304 l -12.634326797430832 -12.688816608440064" fill="#ffbb11" stroke="none" /><path d="M 114.55890576462653 115.13401014063108 l 10.242826590715328 10.647437657660252 a35.774417932400134,35.774417932400134 0 0,0 -0.44745988744611476,0.42310125261827525 l -10.058030868878406 -10.822173547024448" fill="#ff8f0d" stroke="none" /><path d="M 114.29624159901734 115.38237550388516 l 10.064529111143429 10.829165482768081 a35.783963314423815,35.783963314423815 0 0,0 -0.4547979014514728,0.41544709982175615 l -9.876631660225092 -11.00080534917642" fill="#ff8f0d" stroke="none" /><path d="M 114.0293411484842 115.62618273729858 l 9.775050911140953 10.887662520088405 a35.631910861768375,35.631910861768375 0 0,0 -0.45991913903014936,0.4058251663127436 l -9.586189419204217 -11.054310828173437" fill="#ff8d0d" stroke="none" /><path d="M 113.75828350139079 115.86535959552629 l 11.361585317290192 13.101607959731234 a38.34179206577443,38.34179206577443 0 0,0 -0.5023405089142284,0.4281054797413066 l -11.134379331798916 -13.295237829695488" fill="#ffb310" stroke="none" /><path d="M 113.48314897796784 116.09983520530334 l 15.099577055401351 18.029964859023682 a44.51758618714157,44.51758618714157 0 0,0 -0.5917232433294028,0.4869479449467939 l -14.786983683527257 -18.287207922827655" fill="#f8ff18" stroke="none" /><path d="M 113.20401910651253 116.32954008644616 l 10.80474055101615 13.362328737046893 a38.18412778268603,38.18412778268603 0 0,0 -0.5146538698101194,0.40887216007717786 l -10.57312918848868 -13.546334811129197" fill="#ffb110" stroke="none" /><path d="M 112.92097659922987 116.55440617244103 l 8.59283802155894 11.009177958836307 a34.96563155013321,34.96563155013321 0 0,0 -0.4776492943721298,0.36624111091375844 l -8.402059998693316 -11.155458411577438" fill="#ff840c" stroke="none" /><path d="M 112.63410532772338 116.77436683061366 l 8.925267678897178 11.850123948129164 a35.8352903822605,35.8352903822605 0 0,0 -0.4959178083095226,0.3668681388670213 l -8.719964900169092 -12.002002035735956" fill="#ff900d" stroke="none" /><path d="M 112.34349029814194 116.9893568818739 l 10.95365127385002 15.076407576473201 a39.63546462101374,39.63546462101374 0 0,0 -0.5554111469512719,0.3962711062691558 l -10.692512799049863 -15.262722944586578" fill="#ffc512" stroke="none" /><path d="M 112.04921762599082 117.19931262002967 l 11.452886024344602 16.34809605474891 a40.960682425757014,40.960682425757014 0 0,0 -0.5809455838885802,0.3995796699432211 l -11.16978355583314 -16.54281651405723" fill="#ffd714" stroke="none" /><path d="M 111.7513745106137 117.40417183066458 l 8.091443232761218 11.983693333392868 a35.45961131904319,35.45961131904319 0 0,0 -0.5088037172987842,0.3372073596069338 l -7.88396481672247 -12.12119871409112" fill="#ff8b0c" stroke="none" /><path d="M 111.45004920935366 117.60387380957326 l 13.534789603933204 20.809057137686636 a45.82352490244376,45.82352490244376 0 0,0 -0.6649172348633461,0.4243816387599139 l -13.174590567022928 -21.038953205270357" fill="#e7ff1a" stroke="none" /><path d="M 111.1453310114006 117.79835938074945 l 8.292771842248854 13.243010311665625 a36.62521638066102,36.62521638066102 0 0,0 -0.5372061167725486,0.3299958735298701 l -8.063586525543997 -13.383794652023873" fill="#ff9b0e" stroke="none" /><line stroke="#e1ed5e" stroke-width="0.3" x1="143.8653032363475" x2="146.44561519142675" y1="172.8068346515853" y2="177.08958963109032" /><path d="M 144.38136562736335 173.6633856474863 a86.0,86.0 0 0,1 -40.68145358897372,12.25698825130547" fill="none" id="id42" stroke="none" /><text fill="#e1ed5e" style="font-size:6.75px; font-family:Arial;" text-anchor="middle"><textPath startOffset="21.466115282336833" xlink:href="#id42">June</textPath></text><path d="M 110.8373102113329 117.98757091392108 l 7.948918494615049 13.1934707342184 a36.40301838110669,36.40301838110669 0 0,0 -0.5395137577021321,0.31875423774927514 l -7.7206368658845355 -13.328343544261424" fill="#ff980e" stroke="none" /><path d="M 110.5260780823613 118.17145234162733 l 5.175436985333792 8.934496380345248 a31.325229951897597,31.325229951897597 0 0,0 -0.4689106981836189,0.2662597322461431 l -5.020877520228974 -9.022259278386018" fill="#ff4e07" stroke="none" /><path d="M 110.21172684928248 118.3499491758327 l 7.250317545907149 13.02844861007933 a35.909982484965134,35.909982484965134 0 0,0 -0.5427147269963957,0.29593134115076775 l -7.024980007042105 -13.151320602989868" fill="#ff910d" stroke="none" /><path d="M 109.57404056367764 118.69057910512821 l 11.752624682039741 22.94364222206384 a46.77857454032244,46.77857454032244 0 0,0 -0.7198244555655192,0.3609349253311236 l -11.355946318791462 -23.142544988304266" fill="#dbff1b" stroke="none" /><path d="M 109.2508944713604 118.85261126421891 l 9.916652231301764 20.209374362443516 a43.51130390710346,43.51130390710346 0 0,0 -0.6752277496246188,0.3241503533425867 l -9.567311813676914 -20.37707899228566" fill="#fff917" stroke="none" /><path d="M 108.92500713936063 119.00905698771935 l 12.88754940012057 27.448735575632288 a51.32362139061774,51.32362139061774 0 0,0 -0.8029262952349423,0.36858408109446805 l -12.413155109118208 -27.666506727060828" fill="#a3ff21" stroke="none" /><path d="M 108.59647513512805 119.15986991738527 l 6.272255219289845 13.979636095166141 a36.32225214807473,36.32225214807473 0 0,0 -0.5726450826712159,0.2510307757553469 l -6.0306894619608755 -14.085531424215942" fill="#ff970d" stroke="none" /><path d="M 107.59598834532513 119.57807347666477 l 6.519046956309436 16.802340196717495 a39.022669316857474,39.022669316857474 0 0,0 -0.6283203124501817,0.237576978936691 l -6.22885642309898 -16.91206542576082" fill="#ffbd11" stroke="none" /><path d="M 107.2578585660854 119.70592522655815 l 10.487437950430065 28.47460668840364 a51.34451483915012,51.34451483915012 0 0,0 -0.8319778127961478,0.29831764331595056 l -9.995740577004181 -28.650911872759547" fill="#a3ff21" stroke="none" /><path d="M 106.91757812671514 119.82793768551818 l 6.332847017981896 18.15191585036586 a40.22490573167852,40.22490573167852 0 0,0 -0.6557239391285894,0.22245716209436733 l -6.019453345916079 -18.25823599935835" fill="#ffcd13" stroke="none" /><path d="M 106.57524785965236 119.94407469862006 l 6.234100987889999 18.909306300704657 a40.910446501801005,40.910446501801005 0 0,0 -0.6706949282556711,0.21473533617970905 l -5.907684714543388 -19.01381448354407" fill="#ffd614" stroke="none" /><path d="M 106.2309692047433 120.05430185196036 l 5.539014985858526 17.82725525338477 a39.66793284975335,39.66793284975335 0 0,0 -0.6538125843582614,0.1969883683607329 l -5.23132742706002 -17.919958990851228" fill="#ffc612" stroke="none" /><path d="M 104.83641907484287 120.43548508189849 l 5.866624766862108 24.788448033362776 a46.473210281742794,46.473210281742794 0 0,0 -0.780041438921086,0.17753489190154992 l -5.439063178548159 -24.885759658842012" fill="#dfff1b" stroke="none" /><path d="M 104.48393922423573 120.51570834832081 l 4.595229791402508 21.024904549190826 a42.52121623278708,42.52121623278708 0 0,0 -0.7163985415984669,0.15012827980450835 l -4.232639788374663 -21.100888809721877" fill="#ffec16" stroke="none" /><path d="M 104.13013068566511 120.58985236759428 l 3.1573218416203552 15.740129197745985 a37.053670869097466,37.053670869097466 0 0,0 -0.6264406265490772,0.12005883701938778 l -2.8859136004995736 -15.79214523311384" fill="#ffa10e" stroke="none" /><path d="M 102.70371172650421 120.8252237178851 l 5.309638802067684 40.89726535202451 a62.240496814203475,62.240496814203475 0 0,0 -1.0636384515369313,0.12879180385393774 l -4.604872927479372 -40.9826026846038" fill="#30ff36" stroke="none" /><path d="M 101.98527174616119 120.90594882070398 l 1.2160267581634465 12.80539715529074 a33.86300576775497,33.86300576775497 0 0,0 -0.5807597116956142,0.05011039163451996 l -0.9954227287262906 -12.824431799203921" fill="#ff740a" stroke="none" /><path d="M 101.62511606390274 120.93702456842531 l 1.328392279172395 17.114212580452094 a38.165689566582216,38.165689566582216 0 0,0 -0.6554270913457425,0.045202089628497276 l -1.033602427047722 -17.134543014596876" fill="#ffb110" stroke="none" /><path d="M 101.26447882468166 120.96189622390904 l 1.2405762551036745 20.565651404938105 a41.603034901542046,41.603034901542046 0 0,0 -0.715199618555577,0.03696765097817302 l -0.8863885681346179 -20.58395886267848" fill="#ffe015" stroke="none" /><line stroke="#e1ed5e" stroke-width="0.3" x1="102.19456741930631" x2="102.32365962044197" y1="184.97166512339345" y2="189.96999836594603" /><path d="M 102.22038585953345 185.97133177190398 a86.0,86.0 0 0,1 -42.740103519485714,-10.115201625700543" fill="none" id="id43" stroke="none" /><text fill="#e1ed5e" style="font-size:6.75px; font-family:Arial;" text-anchor="middle"><textPath startOffset="22.20632615414155" xlink:href="#id43">July</textPath></text><path d="M 100.54218724476979 120.99299961872073 l 0.2621343737333745 10.14960580670765 a31.152990321153972,31.152990321153972 0 0,0 -0.5361879277356478,0.009230961433119038 l -0.0873867561050587 -10.15261424541993" fill="#ff4c07" stroke="none" /><path d="M 100.18074693466247 120.99922214144158 l 0.12808709790888217 14.881189700196858 a35.881740933032525,35.881740933032525 0 0,0 -0.617668065142665,0.0 l 0.12808709790887193 -14.881189700196858" fill="#ff910d" stroke="none" /><path d="M 99.81925306533755 120.99922214144158 l -0.2130043657685069 24.746898210047714 a45.74781489098177,45.74781489098177 0 0,0 -0.787385923853775,-0.013555562742282482 l 0.6389499795149498 -24.73956517002627" fill="#e8ff1a" stroke="none" /><path d="M 99.45781275523022 120.99299961872073 l -0.467995232209438 18.120352011430143 a39.126394472026455,39.126394472026455 0 0,0 -0.6731223826234718,-0.02318369587026643 l 0.7798379665075529 -18.109611517133782" fill="#ffbe11" stroke="none" /><path d="M 98.73552117531835 120.96189622390904 l -0.8738293358623161 14.485904784024228 a35.51223673732032,35.51223673732032 0 0,0 -0.6098588102624884,-0.04205943417079774 l 1.1230509069037347 -14.468717005337144" fill="#ff8b0c" stroke="none" /><path d="M 98.37488393609728 120.93702456842531 l -0.8596043631406421 11.074629111092575 a32.107939935442104,32.107939935442104 0 0,0 -0.5506598577791786,-0.04751324958502986 l 1.0501085386613624 -11.058191609228881" fill="#ff5a08" stroke="none" /><path d="M 98.01472825383883 120.90594882070398 l -1.4361764345040735 15.123688278594834 a36.19172636335751,36.19172636335751 0 0,0 -0.6196840510873025,-0.06423278563041086 l 1.6962930821969693 -15.096726124508661" fill="#ff950d" stroke="none" /><path d="M 95.51606077576429 120.51570834832081 l -3.7750190187081287 17.27213178505582 a38.679855909818485,38.679855909818485 0 0,0 -0.6492318967904008,-0.14776306599190744 l 4.071771064891392 -17.204591985486225" fill="#ffb811" stroke="none" /><path d="M 95.16358092515715 120.4354850818985 l -4.710899548343965 19.905123181583175 a41.45498725075592,41.45498725075592 0 0,0 -0.6929827193042833,-0.1703182922191977 l 5.052835552391459 -19.821083631049948" fill="#ffde14" stroke="none" /><path d="M 94.81253420990036 120.34920634021253 l -3.6871329108989195 14.463753872048072 a35.92632323024728,35.92632323024728 0 0,0 -0.5979330154102397,-0.15791954389845317 l 3.9355563691206488 -14.398142978846037" fill="#ff910d" stroke="none" /><path d="M 94.46302465271185 120.25689768951611 l -4.7659438508567105 17.436096591628655 a39.075720874756925,39.075720874756925 0 0,0 -0.6472964464843736,-0.18293244144592774 l 5.065371465445698 -17.351475356844205" fill="#ffbd11" stroke="none" /><path d="M 94.11515582081647 120.15858648285463 l -4.096741729602549 14.033425514687156 a35.619176600456655,35.619176600456655 0 0,0 -0.5870804005357361,-0.17688250878745707 l 4.33769710457853 -13.960827636793974" fill="#ff8d0d" stroke="none" /><path d="M 93.76903079525671 120.05430185196036 l -18.692907614229874 60.16290555588108 a84.0,84.0 0 0,0 -1.3771146196362385,-0.4409086133611737 l 19.725743578957054 -59.832224095860205" fill="#4dd2ff" stroke="none" /><path d="M 93.08242187328487 119.8279376855182 l -4.510511552173823 12.92853370761728 a34.692760798731925,34.692760798731925 0 0,0 -0.5621556136933474,-0.20156900253170668 l 4.732386726496897 -12.848977164045616" fill="#ff800b" stroke="none" /><path d="M 92.7421414339146 119.70592522655815 l -5.725222945723976 15.544642300003199 a37.56544843984892,37.56544843984892 0 0,0 -0.6048569899050995,-0.22870515802684427 l 5.9919501563893585 -15.443788891869723" fill="#ffa80f" stroke="none" /><path d="M 92.40401165467489 119.57807347666478 l -1.8836789268306229 4.855036995762603 a26.20765115283362,26.20765115283362 0 0,0 -0.4191713175563863,-0.16679691796577145 l 1.9669713204288672 -4.821893233390765" fill="#ff0000" stroke="none" /><path d="M 92.06813273071674 119.44442032107085 l -5.175240712638254 12.686742259159054 a34.70169863863896,34.70169863863896 0 0,0 -0.5511431857097215,-0.23037789632570027 l 5.392855357845438 -12.595779319813381" fill="#ff800b" stroke="none" /><path d="M 91.7346041902142 119.30500536409082 l -6.125101587818575 14.306044347984253 a36.56212627977263,36.56212627977263 0 0,0 -0.5764268619897864,-0.25268859667235466 l 6.370449124466106 -14.198491198017447" fill="#ff9a0e" stroke="none" /><path d="M 91.40352486487194 119.15986991738527 l -8.708084637187746 19.40862577457022 a42.272646579721496,42.272646579721496 0 0,0 -0.6613293954786402,-0.3035838893057176 l 9.040882028433805 -19.255854814930426" fill="#ffe915" stroke="none" /><path d="M 91.07499286063937 119.00905698771935 l -4.385321224166408 9.34014054644288 a31.318394626415035,31.318394626415035 0 0,0 -0.48601276511037866,-0.2333156622000818 l 4.545446657277029 -9.263270607743236" fill="#ff4e07" stroke="none" /><path d="M 90.7491055286396 118.85261126421891 l -12.73838002585861 25.959838533115132 a49.916769223905405,49.916769223905405 0 0,0 -0.7681147102764988,-0.3851486615324521 l 13.183348643817869 -25.736722030673377" fill="#b4ff20" stroke="none" /><path d="M 90.42595943632237 118.69057910512821 l -8.910421892739013 17.395053231561846 a40.544398052523206,40.544398052523206 0 0,0 -0.6184161689433437,-0.3235261114380003 l 9.20852896420885 -17.23909770117913" fill="#ffd113" stroke="none" /><path d="M 90.10565033884886 118.52300852407294 l -5.207817612758619 9.749448254461841 a32.05319435973999,32.05319435973999 0 0,0 -0.4844263188820109,-0.2641478535673406 l 5.374866743509271 -9.658359749134734" fill="#ff5908" stroke="none" /><line stroke="#e1ed5e" stroke-width="0.3" x1="58.666819895761336" x2="56.23545636021788" y1="174.27360380694188" y2="178.64263932499728" /><path d="M 58.180547188652646 175.14741091055294 a86.0,86.0 0 0,1 -31.652253787137756,-30.449443065178592" fill="none" id="id44" stroke="none" /><text fill="#e1ed5e" style="font-size:6.75px; font-family:Arial;" text-anchor="middle"><textPath startOffset="22.20632615414155" xlink:href="#id44">August</textPath></text><path d="M 89.7882731507175 118.34994917583269 l -8.297254610898431 14.909740796643765 a38.0629658823189,38.0629658823189 0 0,0 -0.569768583797284,-0.3235294719267054 l 8.552671961616923 -14.764708158922428" fill="#ffaf10" stroke="none" /><path d="M 89.4739219176387 118.17145234162733 l -5.507698739382853 9.50808880303167 a31.98810712043415,31.98810712043415 0 0,0 -0.47408222289832813,-0.2800961336631385 l 5.670548833309563 -9.411874097074781" fill="#ff5808" stroke="none" /><path d="M 89.1626897886671 117.98757091392108 l -8.079411587226184 13.410060802357737 a36.65588139705766,36.65588139705766 0 0,0 -0.5376559007194335,-0.3302721675664006 l 8.309046687877926 -13.26900016796296" fill="#ff9c0e" stroke="none" /><path d="M 88.8546689885994 117.79835938074946 l -10.086558876311333 16.10757003197497 a40.005064648673866,40.005064648673866 0 0,0 -0.580489105178106,-0.3704956118160941 l 10.362329783536364 -15.931559991335071" fill="#ffca12" stroke="none" /><path d="M 88.54995079064634 117.60387380957326 l -13.144212448832342 20.208564438870898 a45.10718560056392,45.10718560056392 0 0,0 -0.6472350614324943,-0.4289521060682763 l 13.490122209004799 -19.979314311711303" fill="#f0ff19" stroke="none" /><path d="M 88.24862548938628 117.40417183066458 l -6.56376713746118 9.721154832880716 a32.72961594936746,32.72961594936746 0 0,0 -0.4642043228312353,-0.31928396608432447 l 6.730128344915305 -9.60673007743129" fill="#ff6309" stroke="none" /><path d="M 87.95078237400918 117.19931262002967 l -6.42332806648829 9.168796755586715 a32.194908547862,32.194908547862 0 0,0 -0.4511467508590506,-0.3218812280487724 l 6.580202145196228 -9.056871265693724" fill="#ff5b08" stroke="none" /><path d="M 87.65650970185807 116.9893568818739 l -8.31764481185184 11.448255939933732 a35.15082256557384,35.15082256557384 0 0,0 -0.48644558760504947,-0.35986081643867074 l 8.513475369875454 -11.303385174755295" fill="#ff860c" stroke="none" /><path d="M 87.36589467227662 116.77436683061367 l -5.624043965798225 7.4670721912367055 a30.348103424672406,30.348103424672406 0 0,0 -0.4145713817736639,-0.3178756573134327 l 5.751744076065375 -7.369157192095906" fill="#ff4006" stroke="none" /><path d="M 87.07902340077011 116.55440617244103 l -7.805983034908629 10.001056246999424 a33.686784352109385,33.686784352109385 0 0,0 -0.4540377097767004,-0.36071501652438326 l 7.976978237402688 -9.86520731646991" fill="#ff710a" stroke="none" /><path d="M 86.79598089348748 116.32954008644616 l -10.074632251306317 12.459396633466527 a37.02294540554571,37.02294540554571 0 0,0 -0.4921052377117609,-0.4049691082827602 l 10.287607617562767 -12.284132406326586" fill="#ffa10e" stroke="none" /><path d="M 86.51685102203217 116.09983520530335 l -11.43743508659633 13.657107873424149 a38.81380130198068,38.81380130198068 0 0,0 -0.5085246058787274,-0.4333757013355771 l 11.670825169052113 -13.458207781865621" fill="#ffba11" stroke="none" /><path d="M 86.24171649860922 115.8653595955263 l -10.04324878661784 11.581368670802432 a36.32954488818715,36.32954488818715 0 0,0 -0.4689238551126911,-0.41377078129520034 l 10.241114994637119 -11.406774747734943" fill="#ff970d" stroke="none" /><path d="M 85.97065885151581 115.62618273729859 l -9.633879064794609 10.73042227302178 a35.420595965231456,35.420595965231456 0 0,0 -0.4501796676796565,-0.4112284527684653 l 9.817158281941119 -10.563001053666738" fill="#ff8a0c" stroke="none" /><path d="M 85.70375840098266 115.38237550388516 l -12.928110961634184 13.910303347239182 a39.99032891364811,39.99032891364811 0 0,0 -0.5001917322161985,-0.4729625032041867 l 13.1656385282412 -13.685706207289064" fill="#ffca12" stroke="none" /><path d="M 85.44109423537348 115.13401014063109 l -13.974841883948264 14.526874629496897 a41.157536858021004,41.157536858021004 0 0,0 -0.506335790826892,-0.49555614088148364 l 14.22282762715095 -14.284168385692844" fill="#ffda14" stroke="none" /><path d="M 85.18274418774928 114.88116024355367 l -7.299753212259909 7.331235868940207 a31.345695545778174,31.345695545778174 0 0,0 -0.37907301180978004,-0.3839989596161606 l 7.424866849125222 -7.204496415343382" fill="#ff4f07" stroke="none" /><path d="M 84.9287848128048 114.62390073753433 l -22.80971039099783 22.132717001696232 a52.782700483098786,52.782700483098786 0 0,0 -0.6270922843361849,-0.657503753044575 l 23.18730922671297 -21.73680613206916" fill="#92ff23" stroke="none" /><path d="M 84.67929136418377 114.36230785411682 l -20.09071954612974 18.83392641889144 a48.53822427524071,48.53822427524071 0 0,0 -0.5661720183680532,-0.614467905606842 l 20.411937972493526 -18.485307258483253" fill="#c5ff1e" stroke="none" /><path d="M 84.19399662182784 113.82643327865904 l -5.67643497196878 4.965508833748536 a28.541763187015682,28.541763187015682 0 0,0 -0.32028953738463084,-0.3725690914223516 l 5.761067018924189 -4.867062643164654" fill="#ff2403" stroke="none" /><path d="M 83.72743513129214 113.27417163493432 l -15.749757601873744 12.847697170217815 a41.325309028287926,41.325309028287926 0 0,0 -0.4449005785758781,-0.555081878364623 l 15.968576092504483 -12.574687458274934" fill="#ffdc14" stroke="none" /><path d="M 83.50135304334701 112.99209946851258 l -8.792749088140456 6.923978133172245 a32.19168931464961,32.19168931464961 0 0,0 -0.3390753437444973,-0.43830058960607554 l 8.910631249103021 -6.771599549452917" fill="#ff5b08" stroke="none" /><path d="M 83.28015986056508 112.70617746262583 l -10.56449742376506 8.028448714244046 a34.26893343769519,34.26893343769519 0 0,0 -0.35287003610845963,-0.47272707856443386 l 10.701128726568603 -7.845408756170305" fill="#ff7a0b" stroke="none" /><path d="M 83.06392112726016 112.41649034213515 l -21.345468150668403 15.649183092063112 a47.4674506142944,47.4674506142944 0 0,0 -0.4774326082929458,-0.6631121354829383 l 21.611680551336956 -15.279437351129035" fill="#d2ff1c" stroke="none" /><path d="M 82.44556493220864 111.52570212397912 l -10.724796787041608 7.041571695716331 a33.82984793632611,33.82984793632611 0 0,0 -0.3154152237441305,-0.48953143170435587 l 10.844416874162784 -6.8559186640905265" fill="#ff730a" stroke="none" /><path d="M 82.05923443525364 110.91462005526583 l -13.375401747097088 8.137190557964207 a36.656156682687794,36.656156682687794 0 0,0 -0.323305773382659,-0.5418790727026778 l 13.513488396177978 -7.9057493913754175" fill="#ff9c0e" stroke="none" /><line stroke="#e1ed5e" stroke-width="0.3" x1="26.63291911575756" x2="22.317208475507996" y1="142.92168965132927" y2="145.44649492493687" /><path d="M 25.769776987707644 143.4266507060508 a86.0,86.0 0 0,1 -11.730757126820373,-40.83630448921669" fill="none" id="id45" stroke="none" /><text fill="#e1ed5e" style="font-size:6.75px; font-family:Arial;" text-anchor="middle"><textPath startOffset="21.46611528233685" xlink:href="#id45">September</textPath></text><path d="M 81.69416730710424 110.29060199501025 l -17.155133920261203 9.643738053665233 a40.67994673442506,40.67994673442506 0 0,0 -0.3378829701304511,-0.6133557355297714 l 17.318593299843172 -9.34701179973764" fill="#ffd313" stroke="none" /><path d="M 81.35079622478065 109.6543875284942 l -27.79888186161414 14.391026104153038 a52.30302645250765,52.30302645250765 0 0,0 -0.40702048367013716,-0.8030900283244833 l 28.042481015070546 -13.910381864125869" fill="#98ff23" stroke="none" /><path d="M 81.18737489456691 109.33194174019688 l -17.65542994519898 8.757918829687503 a40.70825585325154,40.70825585325154 0 0,0 -0.30598407692050295,-0.6304178279461068 l 17.8035672787342 -8.452712045776112" fill="#ffd413" stroke="none" /><path d="M 81.02952815118164 109.00673069616217 l -17.629035686329246 8.369848579685694 a40.515052254009895,40.515052254009895 0 0,0 -0.2936866358629095,-0.632574886059027 l 17.77049693903198 -8.06515362634784" fill="#ffd113" stroke="none" /><path d="M 80.87730276802145 108.67885076344099 l -14.623031858274398 6.636674192319249 a37.058595986670326,37.058595986670326 0 0,0 -0.25863179186610225,-0.5831464138590626 l 14.73510473487178 -6.38397944196749" fill="#ffa10e" stroke="none" /><path d="M 80.58989483394504 108.01547362559985 l -14.308178992015245 5.908614629323504 a36.48017160452048,36.48017160452048 0 0,0 -0.23468456262917103,-0.5824678381046979 l 14.407766168901803 -5.661447423376" fill="#ff990e" stroke="none" /><path d="M 80.45479744820244 107.68017299344265 l -14.71118256719517 5.780673121946519 a36.8061720308284,36.8061720308284 0 0,0 -0.22663088523102393,-0.5916617272710589 l 14.808507732019702 -5.5265878278423015" fill="#ff9e0e" stroke="none" /><path d="M 80.32549172779594 107.34259656027581 l -41.839631037873296 15.614699320131056 a65.65840973706376,65.65840973706376 0 0,0 -0.38605812683360563,-1.0622661596782106 l 42.10221342571213 -14.892185363446728" fill="#35ff61" stroke="none" /><path d="M 80.20201598880116 107.00284435728193 l -22.1794464288784 7.845203389610315 a44.526050669754156,44.526050669754156 0 0,0 -0.24936532479283297,-0.7247723591690983 l 22.31120258461446 -7.46225832735192" fill="#f8ff18" stroke="none" /><path d="M 80.0844068197444 106.66101706037122 l -14.987403595661284 5.0127229522011945 a36.80346980681032,36.80346980681032 0 0,0 -0.19577298890048642,-0.6025273049626232 l 15.071468835578019 -4.753996747260768" fill="#ff9e0e" stroke="none" /><path d="M 79.86692584326677 105.97154293290107 l -12.421118637117878 3.6841489103342377 a33.95596933428271,33.95596933428271 0 0,0 -0.16138360767767,-0.5617975098662719 l 12.482694881681653 -3.46979392496337" fill="#ff750a" stroke="none" /><path d="M 79.76711848015287 105.62410040840567 l -40.587319434673596 11.281989645653006 a63.126165138270714,63.126165138270714 0 0,0 -0.28199938022799825,-1.0494246001727865 l 40.775506891243374 -10.581674112304679" fill="#31ff41" stroke="none" /><path d="M 79.67330655649465 105.27499134158121 l -15.615444238075314 4.052372481521841 a37.13269417925707,37.13269417925707 0 0,0 -0.1552300199371671,-0.6200667665159985 l 15.682885572307539 -3.7829778756084504" fill="#ffa20f" stroke="none" /><path d="M 79.58551787078972 104.9243191809786 l -11.99284776243961 2.8928781978082063 a33.33682056773166,33.33682056773166 0 0,0 -0.129758706994334,-0.5589971136307149 l 12.0408670353645 -2.6860124268289174" fill="#ff6c09" stroke="none" /><path d="M 79.50377843672027 104.57218783832718 l -22.09480077332534 4.928790366271533 a43.63787082937768,43.63787082937768 0 0,0 -0.15723340211064515,-0.7345421089660723 l 22.176368214160423 -4.547734437889297" fill="#fffb17" stroke="none" /><path d="M 79.4281124754447 104.21870165774334 l -11.922618412937952 2.4449856632389846 a33.17073476475316,33.17073476475316 0 0,0 -0.10989001146810802,-0.560326800993617 l 11.962938357381725 -2.239395135177413" fill="#ff6a09" stroke="none" /><path d="M 79.29508885075956 103.50808413554451 l -6.452150713428595 1.0932038005268814 a27.54410753107584,27.54410753107584 0 0,0 -0.07517999625548696,-0.46814590844783543 l 6.4700124640453724 -0.9819786623858322" fill="#ff1502" stroke="none" /><path d="M 79.23777060512086 103.15116336523772 l -40.69186182875877 6.175960289203148 a62.15786807628171,62.15786807628171 0 0,0 -0.1514460146146666,-1.0592130734829674 l 40.79214189439003 -5.474601743739781" fill="#30ff35" stroke="none" /><path d="M 79.1416061653843 102.43462659150553 l -17.342898318941906 2.0242920790478256 a38.46063803308613,38.46063803308613 0 0,0 -0.07109302148788163,-0.6582330843690093 l 17.37517364193084 -1.7254626727940343" fill="#ffb510" stroke="none" /><path d="M 79.10278846688536 102.07522291339032 l -24.398745735551504 2.4229470103303337 a45.51875742534604,45.51875742534604 0 0,0 -0.07071751609370425,-0.7803618972984631 l 24.436837847922284 -2.0026037244833046" fill="#ebff1a" stroke="none" /><path d="M 79.07016306316243 101.71520430193888 l -22.305854844175155 1.827969243267992 a43.380630730248555,43.380630730248555 0 0,0 -0.054584073866897814,-0.7447563206651786 l 22.334015476706387 -1.4437397861060526" fill="#fff717" stroke="none" /><path d="M 79.04373962182676 101.35467743843564 l -14.131255283381583 0.9134880156914814 a35.16074984733901,35.16074984733901 0 0,0 -0.03384414571168507,-0.6043099568932901 l 14.1448857799808 -0.6701063424627537" fill="#ff860c" stroke="none" /><line stroke="#e1ed5e" stroke-width="0.3" x1="15.007084014347285" x2="10.007500721073583" y1="101.09737516637583" y2="101.16192664675087" /><path d="M 14.007167355692545 101.11028546245083 a86.0,86.0 0 0,1 10.666146001902534,-42.60595125391555" fill="none" id="id46" stroke="none" /><text fill="#e1ed5e" style="font-size:6.75px; font-family:Arial;" text-anchor="middle"><textPath startOffset="22.20632615414155" xlink:href="#id46">October</textPath></text><path d="M 79.00175016825051 100.2711162175752 l -42.32518217341722 0.546476177347314 a63.328709905043915,63.328709905043915 0 0,0 -0.004691459316740676,-1.0901299232505903 l 42.328317930023466 0.18216322410695165" fill="#31ff44" stroke="none" /><path d="M 79.00019446554 99.90962569577889 l -23.670533308898317 -0.10186798991181925 a44.6707525063111,44.6707525063111 0 0,0 0.009927527809202101,-0.7688979693421791 l 23.6652727739714 0.5093022173144703" fill="#f6ff19" stroke="none" /><path d="M 79.01574976396665 99.18683210126434 l -20.020567179691394 -0.7758238851464947 a41.03559364973496,41.03559364973496 0 0,0 0.033427187683014996,-0.705595100002413 l 20.00424638377488 1.1203300917719168" fill="#ffd814" stroke="none" /><path d="M 79.05617556472873 98.46500227214037 l -20.03156931331034 -1.4681374682271997 a41.08529802565969,41.08529802565969 0 0,0 0.0577649824589238,-0.7048790993340918 l 20.003329847031917 1.81273048476907" fill="#ffd914" stroke="none" /><path d="M 79.08570108090925 98.10471618934814 l -43.97695416062225 -3.985254757276349 a65.15715969948548,65.15715969948548 0 0,0 0.11083814413560354,-1.1161249854144808 l 43.90183889080442 4.74165527339526" fill="#34ff5b" stroke="none" /><path d="M 79.12142395522702 97.74499172005258 l -14.07460128521367 -1.5201392263080733 a35.15645522739004,35.15645522739004 0 0,0 0.07016164896309751,-0.6011021613188591 l 14.046349283246984 1.762185125951794" fill="#ff860c" stroke="none" /><path d="M 79.16333360222342 97.38593545837743 l -15.459519626928623 -1.939474449309437 a36.58070307254828,36.58070307254828 0 0,0 0.0837593600478815,-0.6241045212034765 l 15.423844267822908 2.205297312577573" fill="#ff9b0e" stroke="none" /><path d="M 79.21141760316559 97.0276538004421 l -28.053210487757703 -4.011040867865132 a49.33850856192194,49.33850856192194 0 0,0 0.1274439674275616,-0.8396965120610127 l 27.98001062689084 4.493336492318237" fill="#bbff1f" stroke="none" /><path d="M 79.26566170972629 96.67025291283419 l -15.46042724606124 -2.4828047014676047 a36.658516207367235,36.658516207367235 0 0,0 0.10541616919969721,-0.6221721978838208 l 15.415399215341319 2.748562687667253" fill="#ff9c0e" stroke="none" /><path d="M 79.46518482838121 95.60439243477599 l -44.18460903606219 -9.457996096980184 a66.18554377054858,66.18554377054858 0 0,0 0.2480558949554523,-1.1119859382122022 l 44.01525875410471 10.217160204742346" fill="#35ff68" stroke="none" /><path d="M 79.62865764111835 94.90015583598534 l -21.12083788667301 -5.287475903053949 a42.77262488678152,42.77262488678152 0 0,0 0.18494815405976867,-0.712680682692499 l 21.026693400742932 5.650253011295311" fill="#ffef16" stroke="none" /><path d="M 79.71946130924805 94.55025226153421 l -17.460384219638954 -4.691921199169736 a39.079799269810366,39.079799269810366 0 0,0 0.18016388442517706,-0.6481453500157911 l 17.377033564647416 4.99177785260447" fill="#ffbd11" stroke="none" /><path d="M 79.81627453868168 94.20196356495316 l -24.711149531353684 -7.098597610697052 a46.710523121856454,46.710523121856454 0 0,0 0.2286460152263859,-0.7708806973205595 l 24.58529761901559 7.52290769476415" fill="#dcff1b" stroke="none" /><path d="M 80.02781315780177 93.51064311812611 l -14.00720052795884 -4.551215340617788 a35.72804222247903,35.72804222247903 0 0,0 0.19507971473646787,-0.5832635168472736 l 13.9267835194506 4.791651960387385" fill="#ff8f0d" stroke="none" /><path d="M 80.14247586403 93.16781622104843 l -46.26833699959256 -15.919093405762064 a69.93032335443169,69.93032335443169 0 0,0 0.4014230970643126,-1.1348771516164244 l 45.98746082171844 16.713168183805102" fill="#3aff95" stroke="none" /><path d="M 80.38941819471856 92.48833698450439 l -17.192918745777284 -6.585598181298991 a39.41104446804766,39.41104446804766 0 0,0 0.24811401355120938,-0.6314231013986645 l 17.077011182344382 6.880570287593419" fill="#ffc212" stroke="none" /><path d="M 80.52162464483688 92.15188598940014 l -29.373921314244612 -11.83516998769994 a52.668572781437234,52.668572781437234 0 0,0 0.3460533726901964,-0.8379956906766073 l 29.165846254668214 12.339040248829859" fill="#93ff23" stroke="none" /><path d="M 80.65960295795068 91.81776055985345 l -23.550172550078326 -9.963246889014714 a46.571017103547604,46.571017103547604 0 0,0 0.31869941951691433,-0.7356022005104217 l 23.37518242071873 10.367148234111736" fill="#deff1b" stroke="none" /><path d="M 80.803312248108 91.48605970444005 l -16.923193754991313 -7.505620922858852 a39.5129368903649,39.5129368903649 0 0,0 0.28110196292351547,-0.6193709138247784 l 16.791489475104445 7.795813845525702" fill="#ffc312" stroke="none" /><line stroke="#e1ed5e" stroke-width="0.3" x1="26.266209847984243" x2="21.928928074336255" y1="57.711370442889674" y2="55.22380399835377" /><path d="M 25.398753493254645 57.213857153982495 a86.0,86.0 0 0,1 29.58750427330803,-30.492523968695096" fill="none" id="id47" stroke="none" /><text fill="#e1ed5e" style="font-size:6.75px; font-family:Arial;" text-anchor="middle"><textPath startOffset="21.46611528233685" xlink:href="#id47">November</textPath></text><line stroke="#e1ed5e" stroke-width="0.3" x1="56.762969772571076" x2="54.21961505331055" y1="26.818313649435495" y2="22.513508569990535" /><path d="M 56.25429882871897 25.957352633546506 a86.0,86.0 0 0,1 42.265352541879196,-11.944610805530505" fill="none" id="id48" stroke="none" /><text fill="#e1ed5e" style="font-size:6.75px; font-family:Arial;" text-anchor="middle"><textPath startOffset="22.20632615414155" xlink:href="#id48">December</textPath></text></svg>