<?xml version="1.0" encoding="utf-8" ?>
<svg baseProfile="full" height="200mm" version="1.1" viewBox="0,0,200,200" width="200mm" xmlns="http://www.w3.org/2000/svg" xmlns:ev="http://www.w3.org/2001/xml-events" xmlns:xlink="http://www.w3.org/1999/xlink"><defs /><rect fill="#1a1a1a" height="200" width="200" x="0" y="0" /><text alignment-baseline="middle" fill="#e1ed5e" style="dominant-baseline: central; font-size:9.0px; font-family:Arial;" text-anchor="middle" x="100.0" y="100.0">2020</text><line stroke="#e1ed5e" stroke-width="0.3" x1="100.0" x2="100.0" y1="15.0" y2="10.0" /><path d="M 100.0 14.0 a86.0,86.0 0 0,1 42.35913384403234,11.155469271406648" fill="none" id="id1" stroke="none" /><text fill="#e1ed5e" style="font-size:6.75px; font-family:Arial;" text-anchor="middle"><textPath startOffset="22.145653131862478" xlink:href="#id1">January</textPath></text><line stroke="#e1ed5e" stroke-width="0.3" x1="143.13028292997686" x2="145.6673583964461" y1="26.7553504044142" y2="22.446841604673864" /><path d="M 143.63769802327073 25.89364864446614 a86.0,86.0 0 0,1 29.32050498858742,28.57503671076993" fill="none" id="id2" stroke="none" /><text fill="#e1ed5e" style="font-size:6.75px; font-family:Arial;" text-anchor="middle"><textPath startOffset="20.669276256404974" xlink:href="#id2">February</textPath></text><line stroke="#e1ed5e" stroke-width="0.3" x1="172.87174338648825" x2="177.1583165268699" y1="56.24261187166439" y2="53.66864786411523" /><path d="M 173.72905801456457 55.72781907015455 a86.0,86.0 0 0,1 12.242430191666344,42.057860355516425" fill="none" id="id3" stroke="none" /><text fill="#e1ed5e" style="font-size:6.75px; font-family:Arial;" text-anchor="middle"><textPath startOffset="22.145653131862474" xlink:href="#id3">March</textPath></text><path d="M 120.05942366710727 93.78553927170692 l 14.502063166547108 -4.492776239404736 a36.182057647890886,36.182057647890886 0 0,0 0.17871124614667344,0.5948716157394952 l -14.57705073269741 4.243167020074518" fill="#ff8c0c" stroke="none" /><path d="M 120.16314734710363 94.1308016681162 l 5.712592324345433 -1.6628523694043547 a26.94968814868511,26.94968814868511 0 0,0 0.1254848164427712,0.4453013448037432 l -5.740295632862787 1.5645431006975983" fill="#ff0000" stroke="none" /><path d="M 120.35273937422433 94.82641323984039 l 20.918477291502878 -5.3173951264309025 a42.583729592582294,42.583729592582294 0 0,0 0.17401024602385207,0.7100211849193616 l -21.00667506404302 4.957518116903446" fill="#ffe615" stroke="none" /><path d="M 120.51834098615036 95.52812308129327 l 17.575038561066968 -3.830397854274172 a38.98760484736695,38.98760484736695 0 0,0 0.136906439567612,0.655146874020058 l -17.63820271145895 3.5281345289687094" fill="#ffb410" stroke="none" /><path d="M 120.65975698304385 96.23510406497455 l 25.184835910255558 -4.589516053873466 a46.59960189993704,46.59960189993704 0 0,0 0.13665928513318318,0.7882144408564011 l -25.259910012880976 4.156508580096472" fill="#e3ff1b" stroke="none" /><path d="M 120.77682067341334 96.94652285012252 l 18.826904455430668 -2.7669066148867985 a40.02913827763673,40.02913827763673 0 0,0 0.09407892721766704,0.680708251981884 l -18.87162789920355 2.4433100547048285" fill="#ffc312" stroke="none" /><path d="M 120.86939407059847 97.66154086499901 l 18.919544168273355 -2.1199743864477556 a40.037947445416506,40.037947445416506 0 0,0 0.07067194865458952,0.6836869948095247 l -18.953148509409612 1.7948828693552996" fill="#ffc312" stroke="none" /><path d="M 120.93736805541906 98.37931529534042 l 20.918418202527285 -1.619217866198508 a41.98099346060718,41.98099346060718 0 0,0 0.04944968974146124,0.7189876361257747 l -20.943131853433812 1.259886805918399" fill="#ffdd14" stroke="none" /><line stroke="#e1ed5e" stroke-width="0.3" x1="184.99686870605535" x2="189.99668451229388" y1="99.2704041080226" y2="99.22748670261217" /><path d="M 185.99683186730306 99.26182062694052 a86.0,86.0 0 0,1 -10.086455211305974,41.156179273409016" fill="none" id="id4" stroke="none" /><text fill="#e1ed5e" style="font-size:6.75px; font-family:Arial;" text-anchor="middle"><textPath startOffset="21.40746469413373" xlink:href="#id4">April</textPath></text><path d="M 120.99922638620191 99.81974689727618 l 21.66240320450299 -0.18594567810516854 a42.66320124980764,42.66320124980764 0 0,0 0.0,0.7323975616579882 l -21.66240320450299 -0.1859456781051659" fill="#ffe715" stroke="none" /><path d="M 120.99303781780057 100.54070618675476 l 22.432128682605523 0.5777720626253964 a43.43956812840487,43.43956812840487 0 0,0 -0.025598964395754834,0.745285917462133 l -22.418905031212923 -0.9627642446516401" fill="#fff116" stroke="none" /><path d="M 120.96210409425399 101.26102812881392 l 24.293080465747327 1.4614113957789407 a45.33699820813953,45.33699820813953 0 0,0 -0.05340274992075566,0.7764642635552443 l -24.264413754661504 -1.8782190834885286" fill="#f4ff19" stroke="none" /><path d="M 120.86939407059847 102.33845913500097 l 22.252938458282323 2.4934881694383892 a43.39220295726237,43.39220295726237 0 0,0 -0.08930097544810156,0.7395401814584271 l -22.206855396574557 -2.875122027820225" fill="#fff016" stroke="none" /><path d="M 120.77682067341334 103.0534771498775 l 26.357830322560847 3.873693375679758 a47.64095943620825,47.64095943620825 0 0,0 -0.12585949250581702,0.8081082273953217 l -26.28744933791676 -4.32558978500653" fill="#d6ff1c" stroke="none" /><path d="M 120.65975698304385 103.76489593502545 l 23.922832998482562 4.359537083819556 a45.31681521619318,45.31681521619318 0 0,0 -0.14603604322114552,0.764122287091108 l -23.844470662979255 -4.769561935943979" fill="#f4ff19" stroke="none" /><path d="M 120.43855184770803 104.8234425847677 l 23.319573503145318 5.503355850835652 a44.96016348002501,44.96016348002501 0 0,0 -0.18372108745012614,0.749644731771352 l -23.221664889178896 -5.902856407215103" fill="#f9ff18" stroke="none" /><path d="M 120.26092885502905 105.52220625578681 l 26.48191959051067 7.217764944259336 a48.44791788075831,48.44791788075831 0 0,0 -0.22558621267749904,0.8005258860962325 l -26.35411488575859 -7.6712987542585775" fill="#ccff1d" stroke="none" /><path d="M 120.05942366710727 106.21446072829308 l 26.100797871265076 8.086093899799623 a48.32465121594441,48.32465121594441 0 0,0 -0.2522898510011949,0.7902943649342212 l -25.958143304486626 -8.532957298425227" fill="#ceff1d" stroke="none" /><path d="M 119.71291397450082 107.23885506374661 l 24.302934146890742 8.924374049452279 a46.88970954496487,46.88970954496487 0 0,0 -0.28394915709393714,0.7532088743809221 l -24.146154305982364 -9.34025120402736" fill="#e0ff1b" stroke="none" /><path d="M 119.4528033332814 107.91128576633889 l 23.762188255902696 9.663875098370053 a46.65213582970932,46.65213582970932 0 0,0 -0.3080688350835288,0.7392530556789058 l -23.59279357628268 -10.070360663490236" fill="#e3ff1b" stroke="none" /><path d="M 119.16976305983485 108.57439118712176 l 24.12420340755969 10.79044933672199 a47.42746652514536,47.42746652514536 0 0,0 -0.33880270339707597,0.7403450510755559 l -23.93541623930756 -11.202983370012234" fill="#d9ff1c" stroke="none" /><path d="M 118.70294669586154 109.54985784667822 l 24.66940768557232 12.596375340742238 a48.69924813567751,48.69924813567751 0 0,0 -0.38656055767638986,0.7412808392645405 l -24.44953905892098 -13.018002423111282" fill="#c9ff1d" stroke="none" /><line stroke="#e1ed5e" stroke-width="0.3" x1="174.33088141563837" x2="178.70328620479359" y1="141.23008692659167" y2="143.65538615756765" /><path d="M 175.20536237346943 141.71514677278685 a86.0,86.0 0 0,1 -30.301960400862466,31.631185727798858" fill="none" id="id5" stroke="none" /><text fill="#e1ed5e" style="font-size:6.75px; font-family:Arial;" text-anchor="middle"><textPath startOffset="22.145653131862474" xlink:href="#id5">May</textPath></text><path d="M 118.36410011445183 110.18625677009912 l 25.931353564907017 14.383684697977515 a50.6534227906164,50.6534227906164 0 0,0 -0.4283027540513895,0.7567699272315571 l -25.680617445834248 -14.826711395308195" fill="#b1ff20" stroke="none" /><path d="M 118.00360718960297 110.81064883170644 l 31.92604120863275 19.170670436113234 a58.239585285357066,58.239585285357066 0 0,0 -0.5220264613112297,0.8526909927402713 l -31.592246782866116 -19.715898544978064" fill="#58ff2a" stroke="none" /><path d="M 117.62189284568427 111.42229804090321 l 23.788300090671523 15.4192887166852 a49.34850411807188,49.34850411807188 0 0,0 -0.4668734163847981,0.7069058577420824 l -23.520102235366 -15.825374452766344" fill="#c1ff1e" stroke="none" /><path d="M 117.21940702142032 112.02048342749411 l 22.124379068563858 15.4445348557266 a47.981879216971905,47.981879216971905 0 0,0 -0.4772709577421193,0.6713413723438237 l -21.855993012291776 -15.822053454779926" fill="#d2ff1c" stroke="none" /><path d="M 116.79662413953412 112.60449989151573 l 31.83142037595545 23.88689127901452 a60.797272496067514,60.797272496067514 0 0,0 -0.6335887080007575,0.8293879572437595 l -31.41667969060039 -24.429800149499158" fill="#3cff2e" stroke="none" /><path d="M 115.89218393027572 113.72728997021213 l 14.335840775432844 12.382957820935756 a39.94344148072459,39.94344148072459 0 0,0 -0.4526712923728641,0.5150568349973009 l -14.121158419101395 -12.62722693374435" fill="#ffc112" stroke="none" /><path d="M 115.41159269507618 114.26474011684316 l 17.445833328367044 16.14760287756791 a44.77187790673681,44.77187790673681 0 0,0 -0.5269099255867824,0.5595600814735888 l -17.166067569044003 -16.444704418985996" fill="#fbff18" stroke="none" /><path d="M 114.91283532996324 114.78537596483092 l 19.294022965806185 19.129117777513176 a48.16951359798381,48.16951359798381 0 0,0 -0.5872278421187326,0.5822088308919328 l -18.962803203557485 -19.45750661863377" fill="#cfff1d" stroke="none" /><path d="M 114.39649973595853 115.28858382429668 l 14.748096345064932 15.661967238963472 a42.5128697201857,42.5128697201857 0 0,0 -0.5356018887604308,0.4957451121647422 l -14.477064684990534 -15.912830097260594" fill="#ffe515" stroke="none" /><path d="M 113.86319453409587 115.77377054828091 l 13.313603086578926 15.14843636811713 a41.16747757023316,41.16747757023316 0 0,0 -0.5348253641696183,0.4619694114786939 l -13.05159824264645 -15.374749912060542" fill="#ffd213" stroke="none" /><path d="M 113.31354834802062 116.24036423190432 l 13.336895776185301 16.268844298026515 a42.03682684575455,42.03682684575455 0 0,0 -0.5619907977931061,0.45270000546088796 l -13.055654208036943 -16.49539259728081" fill="#ffde14" stroke="none" /><path d="M 112.7482090630111 116.68781488649013 l 31.528831702526784 41.27225278770203 a72.93713583456673,72.93713583456673 0 0,0 -1.0014859578717503,0.7515337333552489 l -30.815692755744266 -41.80740554832129" fill="#3effb6" stroke="none" /><path d="M 112.16784306229584 117.11559508785304 l 4.134142235229435 5.815188786666348 a28.134952883213586,28.134952883213586 0 0,0 -0.3960395324701407,0.2764663516442739 l -4.033707611585536 -5.8852999541157445" fill="#ff1302" stroke="none" /><path d="M 111.5731344415666 117.5232005979908 l 11.118069125699344 16.83417370943332 a41.1742624540082,41.1742624540082 0 0,0 -0.5931336177884875,0.3844620450134304 l -10.827449875653848 -17.022549596150643" fill="#ffd213" stroke="none" /><path d="M 110.96478420261333 117.91015095944535 l 11.726838797928758 19.154909870266913 a43.459504009008214,43.459504009008214 0 0,0 -0.6396147193069144,0.3840702613202302 l -11.396291322064407 -19.353394132123064" fill="#fff116" stroke="none" /><line stroke="#e1ed5e" stroke-width="0.3" x1="143.1302829299769" x2="145.66735839644613" y1="173.24464959558577" y2="177.55315839532614" /><path d="M 143.63769802327073 174.10635135553383 a86.0,86.0 0 0,1 -40.68552437913181,11.842963189579606" fill="none" id="id6" stroke="none" /><text fill="#e1ed5e" style="font-size:6.75px; font-family:Arial;" text-anchor="middle"><textPath startOffset="21.407464694133747" xlink:href="#id6">June</textPath></text><path d="M 110.34350942703117 118.27599006163325 l 18.13706207408739 32.04645082519031 a57.82292806351282,57.82292806351282 0 0,0 -0.8680482918978325,0.48149175483740686 l -17.58426959403346 -32.353075495460864" fill="#5dff2a" stroke="none" /><path d="M 110.02825361518725 118.45085714620011 l 10.33229293678749 19.010255253282065 a42.636683713696215,42.636683713696215 0 0,0 -0.6460699816890205,0.34399587521296815 l -10.004434139311915 -19.184821596217603" fill="#ffe615" stroke="none" /><path d="M 109.3889696526874 118.78422872680471 l 13.413272337950986 26.8355298708284 a51.001025620137796,51.001025620137796 0 0,0 -0.7864837821049636,0.38470862903245023 l -12.950628306583951 -27.061832249958073" fill="#acff20" stroke="none" /><path d="M 108.73861861582097 119.09545874513695 l 12.71368044289139 27.78168622172775 a51.55257370053293,51.55257370053293 0 0,0 -0.8078695739591849,0.361349784745807 l -12.234897466076577 -27.995839757383408" fill="#a6ff21" stroke="none" /><path d="M 108.07796709384702 119.3841803445677 l 11.901686353767413 28.55971459225615 a51.94038518917601,51.94038518917601 0 0,0 -0.82596475799883,0.33591267651763523 l -11.409667134578143 -28.759814525353075" fill="#a1ff22" stroke="none" /><path d="M 107.74402155503746 119.51999308798841 l 9.812613746152897 24.7341967140325 a47.609544821729756,47.609544821729756 0 0,0 -0.7622690256725285,0.29486203453386395 l -9.386572457986837 -24.898998636704405" fill="#d7ff1c" stroke="none" /><path d="M 107.06938296918513 119.77432235084164 l 8.448553160965654 23.63210683752421 a46.09690267929135,46.09690267929135 0 0,0 -0.7474156804238606,0.25998997176516236 l -8.041631708496771 -23.773655241857963" fill="#eaff1a" stroke="none" /><path d="M 106.72888874123015 119.89276391827305 l 7.838902828677697 23.174323331234113 a45.464211808640655,45.464211808640655 0 0,0 -0.741450418820324,0.24372947974286677 l -7.439929672209639 -23.305473732379" fill="#f2ff19" stroke="none" /><path d="M 106.38641147887787 120.00534299687104 l 10.059789893599534 31.51214856160128 a54.07891896165588,54.07891896165588 0 0,0 -0.8867896337439302,0.2747296953598767 l -9.51735962698398 -31.6801948447678" fill="#88ff25" stroke="none" /><path d="M 105.69591212413111 120.21278271476187 l 6.882611806430436 24.42396124126561 a46.37518922082869,46.37518922082869 0 0,0 -0.7681025402941458,0.20934976295745092 l -6.462327865201595 -24.538511498367203" fill="#e6ff1a" stroke="none" /><path d="M 104.9986988182912 120.39639698878246 l 5.925324296681467 24.177345152334585 a45.892840067697385,45.892840067697385 0 0,0 -0.7667772358720553,0.18095733983963702 l -5.509414907069532 -24.275498635820448" fill="#edff1a" stroke="none" /><path d="M 104.64783097203109 120.47920084513623 l 5.772244757317654 25.433575451375596 a47.08036751618344,47.08036751618344 0 0,0 -0.7896892799325426,0.17210910308314456 l -5.334793060765975 -25.52891601259246" fill="#ddff1b" stroke="none" /><path d="M 104.29559338865022 120.5559693870025 l 6.4594155731196805 30.910641852137246 a52.578344308360435,52.578344308360435 0 0,0 -0.8850775951413681,0.17704030707199855 l -5.927841492447354 -31.016971555872107" fill="#99ff23" stroke="none" /><path d="M 103.94208987418118 120.62667999033965 l 4.908014217819391 25.680804317031413 a47.14559836630205,47.14559836630205 0 0,0 -0.7962336288799696,0.14510029111964864 l -4.466445855388364 -25.761272782082425" fill="#dcff1b" stroke="none" /><path d="M 103.2317021107853 120.74984581791261 l 4.487868230751427 28.81533342086767 a50.162722805190214,50.162722805190214 0 0,0 -0.8519897075701032,0.12521314713589263 l -3.9925534175736384 -28.888127641302447" fill="#b7ff1f" stroke="none" /><path d="M 102.51750503828377 120.84855314841334 l 3.244662686478709 26.87046160346157 a48.065652453471905,48.065652453471905 0 0,0 -0.8200094114386877,0.09188376492766095 l -2.782917373439222 -26.9222011288962" fill="#d1ff1c" stroke="none" /><path d="M 101.80034050326958 120.92268563240118 l 3.003064815837966 34.90016525284724 a56.02912977743195,56.02912977743195 0 0,0 -0.9589812589414825,0.07423121446343284 l -2.4035145621212473 -34.94657423430572" fill="#71ff27" stroke="none" /><path d="M 101.44090949804482 120.95050786540614 l 2.1306148291621234 30.978672010338617 a52.05185403602147,52.05185403602147 0 0,0 -0.8919596979447079,0.0536580804970334 l -1.5985107790849507 -31.01068206866034" fill="#a0ff22" stroke="none" /><line stroke="#e1ed5e" stroke-width="0.3" x1="101.45913802915013" x2="101.54496967792366" y1="184.9874750549273" y2="189.98673829345242" /><path d="M 101.47630435890484 185.9873277026323 a86.0,86.0 0 0,1 -42.54439059252881,-10.42667462771756" fill="none" id="id7" stroke="none" /><text fill="#e1ed5e" style="font-size:6.75px; font-family:Arial;" text-anchor="middle"><textPath startOffset="22.145653131862474" xlink:href="#id7">July</textPath></text><path d="M 100.36049292484886 120.99690560180557 l 0.5482522536112893 31.932945202405616 a52.937651288619044,52.937651288619044 0 0,0 -0.9087451784601377,0.007800484407863224 l -3.911234242289165e-15 -31.937651288619044" fill="#95ff23" stroke="none" /><path d="M 99.63950707515114 120.99690560180557 l -0.42588081579684445 24.805422438333945 a45.80907811293005,45.80907811293005 0 0,0 -0.7861419926949181,-0.020248229094189166 l 0.8516361225625065 -24.794456491889708" fill="#eeff19" stroke="none" /><path d="M 98.91894614982273 120.97215588758144 l -1.7626816914272168 34.19555390948894 a55.24095433719769,55.24095433719769 0 0,0 -0.9466080672302012,-0.05694559068937364 l 2.3494341107898644 -34.16025634097488" fill="#7aff26" stroke="none" /><path d="M 98.19965949673042 120.92268563240118 l -2.1892155001608193 25.44200255910478 a46.53601689229623,46.53601689229623 0 0,0 -0.7953236562365439,-0.07531797714048885 l 2.6256387197823785 -25.400672826459108" fill="#e4ff1a" stroke="none" /><path d="M 97.48249496171623 120.84855314841334 l -3.9960048163664283 33.092652260241664 a54.333041987038946,54.333041987038946 0 0,0 -0.9250127387859574,-0.11976141843604007 l 4.563495377043179 -33.01917924560522" fill="#85ff25" stroke="none" /><path d="M 96.76829788921471 120.74984581791261 l -3.7253213697691776 23.919235559153044 a45.20759899375216,45.20759899375216 0 0,0 -0.7657790473825395,-0.12600865083369095 l 4.135377920204781 -23.851760909823685" fill="#f6ff19" stroke="none" /><path d="M 96.05791012581884 120.62667999033965 l -4.207258122206184 22.014152313442658 a43.41258403188536,43.41258403188536 0 0,0 -0.7307857632120992,-0.1461776194913733 l 4.584540370949242 -21.938685297288423" fill="#fff116" stroke="none" /><path d="M 95.00130118170881 120.39639698878247 l -6.969944325476158 28.439751347275912 a50.28138624783873,50.28138624783873 0 0,0 -0.836573819251671,-0.21265379345730437 l 7.457123437953207 -28.315912321983344" fill="#b5ff1f" stroke="none" /><path d="M 94.6519064749342 120.30758222061772 l -9.085654042501726 34.49970828509796 a56.676028102030706,56.676028102030706 0 0,0 -0.9387131759540082,-0.255850450378338 l 9.67654861939043 -34.33865734057547" fill="#6aff28" stroke="none" /><path d="M 93.95794788825049 120.11202640906438 l -8.138483508318217 27.090364700882425 a49.2864415125336,49.2864415125336 0 0,0 -0.8082022765364435,-0.25038313121071937 l 8.602326417726294 -26.946664981865055" fill="#c1ff1e" stroke="none" /><path d="M 93.61358852112213 120.00534299687104 l -9.869445001218942 30.915895897273245 a53.453020872687986,53.453020872687986 0 0,0 -0.8717354406160097,-0.286556754196463 l 10.398703179482695 -30.74191822167476" fill="#8fff24" stroke="none" /><path d="M 92.93061703081489 119.77432235084164 l -9.180095626674207 25.67836131168496 a48.269990747492415,48.269990747492415 0 0,0 -0.7778613580241306,-0.285641465168945 l 9.619546136352456 -25.516988997507294" fill="#ceff1d" stroke="none" /><path d="M 92.59220618246901 119.65005319985036 l -8.720369994092927 23.131817451611735 a45.72095935534391,45.72095935534391 0 0,0 -0.7320311771748874,-0.2831653851520061 l 9.116173433761343 -22.978712178321686" fill="#efff19" stroke="none" /><path d="M 91.92203290615298 119.3841803445677 l -14.139131560740944 33.92876857566484 a57.75699087728704,57.75699087728704 0 0,0 -0.9119139208861795,-0.38924182707269817 l 14.719480556797555 -33.68105209893274" fill="#5eff2a" stroke="none" /><path d="M 91.26138138417905 119.09545874513695 l -14.63223866808054 31.974082188398658 a56.16311050277184,56.16311050277184 0 0,0 -0.8732328306303652,-0.40871705684545384 l 15.178960212582394 -31.718188899982675" fill="#70ff27" stroke="none" /><path d="M 90.93487009805054 118.94263497670748 l -11.400409335834812 23.822470827177668 a47.409836223201395,47.409836223201395 0 0,0 -0.7311042640498883,-0.35761973164867894 l 11.80767384914677 -23.623257345431767" fill="#d9ff1c" stroke="none" /><path d="M 90.28995756902619 118.62028667847754 l -12.800117014789878 24.54591213455105 a48.682933336433365,48.682933336433365 0 0,0 -0.7376882794271584,-0.39277745833738364 l 13.219594110003598 -24.32256420849109" fill="#c9ff1d" stroke="none" /><path d="M 89.97174638481275 118.45085714620012 l -7.217259675915512 13.278944906785862 a36.113544093529164,36.113544093529164 0 0,0 -0.5421430791317106,-0.30071762709580424 l 7.444146943203325 -13.15309436425691" fill="#ff8b0c" stroke="none" /><line stroke="#e1ed5e" stroke-width="0.3" x1="58.13341422392154" x2="55.67067388415222" y1="173.97424548756322" y2="178.32567169271397" /><path d="M 57.64086615596768 174.84453072859336 a86.0,86.0 0 0,1 -31.369924170532247,-30.572349798747897" fill="none" id="id8" stroke="none" /><text fill="#e1ed5e" style="font-size:6.75px; font-family:Arial;" text-anchor="middle"><textPath startOffset="22.145653131862474" xlink:href="#id8">August</textPath></text><path d="M 89.65649057296885 118.27599006163327 l -12.833384650261074 22.675361005844614 a47.055090833212134,47.055090833212134 0 0,0 -0.6995692277924709,-0.40389648198276473 l 13.220746345913945 -22.451717626585676" fill="#deff1b" stroke="none" /><path d="M 89.03521579738668 117.91015095944536 l -11.516727680773204 18.8117091508568 a43.0570944969984,43.0570944969984 0 0,0 -0.627066857489199,-0.39133609673751346 l 11.837958667052117 -18.611237257277736" fill="#ffec16" stroke="none" /><path d="M 88.72937992617639 117.7192867562869 l -17.781744009486516 27.95585505208908 a54.13186157933665,54.13186157933665 0 0,0 -0.7797936133535285,-0.5054527989766032 l 18.259023255097052 -27.646488411408583" fill="#87ff25" stroke="none" /><path d="M 88.4268655584334 117.5232005979908 l -14.230149072362824 21.546259398726214 a46.82127875801015,46.82127875801015 0 0,0 -0.6668770605983646,-0.4487046481481873 l 14.597922421058193 -21.298805076520907" fill="#e1ff1b" stroke="none" /><path d="M 87.83215693770417 117.11559508785305 l -16.419838802924424 23.096559589062156 a49.338351595763676,49.338351595763676 0 0,0 -0.6860826468004537,-0.49667092709852045 l 16.813902460098834 -22.81128789059057" fill="#c1ff1e" stroke="none" /><path d="M 87.54013794807813 116.9041958592261 l -12.851760729470522 17.435881681641153 a42.66051070182211,42.66051070182211 0 0,0 -0.5857633691624129,-0.4395677525273415 l 13.149177087543702 -17.212694901849797" fill="#ffe715" stroke="none" /><path d="M 87.2517909369889 116.68781488649013 l -8.13610753878213 10.6504259408265 a34.40253030601526,34.40253030601526 0 0,0 -0.46621990497510085,-0.3625354180145223 l 8.31773738839246 -10.509189471191183" fill="#ff720a" stroke="none" /><path d="M 86.68645165197938 116.24036423190432 l -13.721006571720885 16.737397013038212 a42.64270038865918,42.64270038865918 0 0,0 -0.5621235203916902,-0.4689434333265426 l 14.006304426274468 -16.4993913957998" fill="#ffe615" stroke="none" /><path d="M 86.40962598614128 116.0094264158162 l -27.888526163845516 32.85261369630845 a64.093666800011,64.093666800011 0 0,0 -0.832669881918321,-0.7192404120606484 l 28.4483755255267 -32.36902915178308" fill="#32ff4a" stroke="none" /><path d="M 86.13680546590413 115.77377054828092 l -26.53762262350369 30.194943101353253 a61.19925376672377,61.19925376672377 0 0,0 -0.7831609437823919,-0.700307345140237 l 27.05204859410945 -29.734940226329634" fill="#38ff2e" stroke="none" /><path d="M 85.86807049272751 115.53346607816431 l -16.537355848979725 18.17745099637408 a45.57445550162536,45.57445550162536 0 0,0 -0.5741735292526878,-0.5314464467632237 l 16.84695914954638 -17.89088680347848" fill="#f1ff19" stroke="none" /><path d="M 85.60350026404147 115.28858382429668 l -19.348965392099988 20.54793072872171 a49.22410173906388,49.22410173906388 0 0,0 -0.6102089543449216,-0.5845663747774483 l 19.69884683231022 -20.21275222363868" fill="#c2ff1e" stroke="none" /><path d="M 85.34317274990678 115.03919595460226 l -13.025704093995785 13.365519902339148 a39.66296036014015,39.66296036014015 0 0,0 -0.4835256344648043,-0.4793929615672314 l 13.253221648590552 -13.139946930543257" fill="#ffbe11" stroke="none" /><path d="M 85.08716467003676 114.78537596483092 l -26.93877566048341 26.708531098188242 a58.934723770033465,58.934723770033465 0 0,0 -0.7061311605272165,-0.7245527774608939 l 27.393293622161437 -26.242155628659614" fill="#51ff2b" stroke="none" /><path d="M 84.58840730492382 114.26474011684316 l -29.226930586667468 27.052010618281177 a60.82492623984979,60.82492623984979 0 0,0 -0.7026793786624109,-0.7723677284592376 l 29.68700766617176 -26.546305314264266" fill="#3cff2e" stroke="none" /><path d="M 84.3458050057657 113.99807769240083 l -12.251956965337538 10.955775467720567 a37.43591997971488,37.43591997971488 0 0,0 -0.4242540364620768,-0.48272321425454434 l 12.438222065758207 -10.743839975654723" fill="#ff9e0e" stroke="none" /><path d="M 83.4222238831116 112.89097897827486 l -9.151482039364865 7.116247786054385 a32.592696238120865,32.592696238120865 0 0,0 -0.3396593868764217,-0.44462504063402797 l 9.272293403595583 -6.958101832179486" fill="#ff5708" stroke="none" /><path d="M 83.20337586046588 112.60449989151573 l -16.625673888054813 12.476215635803067 a41.786269237720475,41.786269237720475 0 0,0 -0.4256189809083202,-0.5774338900942088 l 16.837394888546964 -12.188975436439978" fill="#ffdb14" stroke="none" /><path d="M 82.98947788004972 112.3143062007846 l -34.44379581890468 24.934651943096057 a63.521899509990604,63.521899509990604 0 0,0 -0.6318459866825775,-0.8887705085097923 l 34.86675690411722 -24.33970420787676" fill="#31ff43" stroke="none" /><path d="M 82.576782715395 111.72311816256416 l -13.706025043308902 9.222025329601264 a37.51971167023257,37.51971167023257 0 0,0 -0.3549642746483816,-0.537461153777272 l 13.862313756878011 -8.98538429748493" fill="#ff9f0e" stroke="none" /><path d="M 82.18462484594161 111.11811171558189 l -36.30803743122452 22.65890068792207 a63.79835700692628,63.79835700692628 0 0,0 -0.5718521239911681,-0.9340774681840299 l 36.69165751967109 -22.032286103613483" fill="#32ff46" stroke="none" /><line stroke="#e1ed5e" stroke-width="0.3" x1="26.387840678322732" x2="22.057713659400548" y1="142.50000000000003" y2="145.00000000000006" /><path d="M 25.521815274538298 143.00000000000003 a86.0,86.0 0 0,1 -11.493303480769221,-40.785679425670985" fill="none" id="id9" stroke="none" /><text fill="#e1ed5e" style="font-size:6.75px; font-family:Arial;" text-anchor="middle"><textPath startOffset="21.40746469413373" xlink:href="#id9">September</textPath></text><path d="M 81.81346652052679 110.50000000000001 l -48.71145561294781 28.123572010753957 a77.24714402150786,77.24714402150786 0 0,0 -0.6531674012194336,-1.1540842126631528 l 49.18705637918862 -27.283231027991683" fill="#44ffe6" stroke="none" /><path d="M 81.4637452351635 109.86951160357371 l -17.75263181503434 9.452276520542249 a41.11222185092845,41.11222185092845 0 0,0 -0.3263369356695976,-0.6257941032843061 l 17.91227681967889 -9.146136174153439" fill="#ffd213" stroke="none" /><path d="M 80.9802524753101 108.90220220490708 l -48.20199522905909 22.560967628619792 a74.22057501006415,74.22057501006415 0 0,0 -0.5302018704238203,-1.158586773079055 l 48.582181564337965 -21.73019187332605" fill="#40ffc5" stroke="none" /><path d="M 80.68587082218212 108.24405325689762 l -49.706252094416726 21.216643302654326 a75.04495767697273,75.04495767697273 0 0,0 -0.49556172036425616,-1.1891677259643556 l 50.063139659317464 -20.36024306724869" fill="#41ffce" stroke="none" /><path d="M 80.41425534168474 107.57618678355246 l -13.59460824482369 5.2586865145451185 a35.57625319444222,35.57625319444222 0 0,0 -0.21543846624674787,-0.5714761273490352 l 13.682877394884873 -5.024542107001938" fill="#ff830c" stroke="none" /><path d="M 80.16572619554312 106.89939002012753 l -45.0422629312203 15.668037177231609 a68.68954643265434,68.68954643265434 0 0,0 -0.37784019040730316,-1.11701738513718 l 45.30458854319997 -14.892518117620266" fill="#38ff84" stroke="none" /><path d="M 80.05021161711548 106.5578916946017 l -36.19893093098308 11.899307599143086 a59.10454201122365,59.10454201122365 0 0,0 -0.3085687267740803,-0.9665871417210606 l 36.39786437353442 -11.276151423730633" fill="#4fff2b" stroke="none" /><path d="M 79.83685265289637 105.86919833188381 l -60.4894420413109 17.607594995651418 a84.0,84.0 0 0,0 -0.3911260317016998,-1.3879683043880173 l 60.78278656508718 -16.566618767360406" fill="#4dd2ff" stroke="none" /><path d="M 79.48165901384964 104.47187691870673 l -27.166691416343586 5.9208539513197875 a48.804417527142974,48.804417527142974 0 0,0 -0.17137854620642468,-0.8201083833298473 l 27.26432767337438 -5.453629116704531" fill="#c8ff1d" stroke="none" /><path d="M 79.407916724674 104.11899336999214 l -44.26428413259407 8.854096520096595 a66.14113284974366,66.14113284974366 0 0,0 -0.21314360440955155,-1.1152574041850003 l 44.40975402928578 -8.09293655087828" fill="#35ff64" stroke="none" /><path d="M 79.34024301695615 103.76489593502545 l -26.093632080048803 4.755128989603035 a47.523364922963964,47.523364922963964 0 0,0 -0.13936833819828026,-0.8038395390330438 l 26.171415235739317 -4.306496417649399" fill="#d8ff1c" stroke="none" /><path d="M 79.22317932658666 103.0534771498775 l -55.642855203782034 8.177583548001895 a77.24055661098674,77.24055661098674 0 0,0 -0.18153547681332025,-1.313500278424597 l 55.775035197150565 -7.221194961377213" fill="#44ffe6" stroke="none" /><path d="M 79.0935383218832 101.97986365728391 l -29.29905865193829 2.7746513164549818 a50.43014658165374,50.43014658165374 0 0,0 -0.07421967322194417,-0.8625451061852489 l 29.342371947857973 -2.271285162894071" fill="#b3ff20" stroke="none" /><path d="M 79.06263194458094 101.62068470465958 l -35.63194767580135 2.7581381022938567 a56.73853691692443,56.73853691692443 0 0,0 -0.06683269774354164,-0.971732757430163 l 35.67404433470996 -2.1460619207093505" fill="#69ff28" stroke="none" /><path d="M 79.03789590574601 101.26102812881392 l -26.65783089734377 1.6036689095504475 a47.706023704828,47.706023704828 0 0,0 -0.04215942730041305,-0.8178816266464949 l 26.68143191410076 -1.145815489527222" fill="#d5ff1c" stroke="none" /><line stroke="#e1ed5e" stroke-width="0.3" x1="15.003131293944662" x2="10.003315487706104" y1="100.72959589197737" y2="100.7725132973878" /><path d="M 14.003168132696942 100.73817937305945 a86.0,86.0 0 0,1 10.791469493833604,-42.45332614584628" fill="none" id="id10" stroke="none" /><text fill="#e1ed5e" style="font-size:6.75px; font-family:Arial;" text-anchor="middle"><textPath startOffset="22.145653131862435" xlink:href="#id10">October</textPath></text><path d="M 79.00077361379809 100.18025310272382 l -26.876166883703167 0.23069956868953648 a47.87715700463232,47.87715700463232 0 0,0 0.0,-0.8219053428266981 l 26.876166883703167 0.2306995686895266" fill="#d3ff1c" stroke="none" /><path d="M 79.00696218219943 99.45929381324524 l -23.990220132206172 -0.6179029714362481 a44.99817630724927,44.99817630724927 0 0,0 0.026517453160624628,-0.772026715692396 l 23.976077992048694 1.0296359516927827" fill="#f8ff18" stroke="none" /><path d="M 79.06263194458094 98.37931529534042 l -46.51002906668355 -3.6001703997431163 a67.64915894944876,67.64915894944876 0 0,0 0.09956144907961954,-1.1570549551132907 l 46.441373994906186 4.3980464022320875" fill="#37ff77" stroke="none" /><path d="M 79.13060592940154 97.66154086499901 l -35.98766953571597 -4.032493434572373 a57.212889444392154,57.212889444392154 0 0,0 0.11774389146870824,-0.9750883282680163 l 35.913143557987595 4.6496754397638265" fill="#64ff29" stroke="none" /><path d="M 79.22317932658666 96.9465228501225 l -47.541259257261174 -6.986927937641957 a69.05193538008561,69.05193538008561 0 0,0 0.18242373046913915,-1.1712912115663012 l 47.41431403465377 7.802007331139708" fill="#39ff88" stroke="none" /><path d="M 79.34024301695615 96.23510406497455 l -56.9739884362097 -10.382558596488863 a78.91228610009176,78.91228610009176 0 0,0 0.25429938023258275,-1.3306018140666533 l 56.78736276369496 11.359062975588833" fill="#46fff8" stroke="none" /><path d="M 79.407916724674 95.88100663000787 l -45.03500383150019 -9.008262045141851 a66.92712004009374,66.92712004009374 0 0,0 0.23501709712804322,-1.1246418869045567 l 44.87372902354778 9.780020383331818" fill="#36ff6e" stroke="none" /><path d="M 79.56144815229197 95.17655741523228 l -35.385490319527804 -8.350879365713775 a57.35753170024197,57.35753170024197 0 0,0 0.2343805556246476,-0.9563526495092846 l 35.23692223738686 8.957087839831177" fill="#62ff29" stroke="none" /><path d="M 79.83685265289637 94.1308016681162 l -44.403447854659845 -12.925196527708502 a67.24637160536363,67.24637160536363 0 0,0 0.3321448156815115,-1.1056020671569797 l 44.175026718974706 13.685536198456205" fill="#36ff72" stroke="none" /><path d="M 80.05021161711548 93.44210830539832 l -36.52811339216713 -12.007516412528753 a59.45105354067905,59.45105354067905 0 0,0 0.32702206603953804,-0.9667826302328029 l 36.316605904555225 12.632800717235718" fill="#4bff2c" stroke="none" /><path d="M 80.28708602549916 92.7611449362534 l -37.33042197609587 -13.708248029845203 a60.767781795834885,60.767781795834885 0 0,0 0.36799034557570903,-0.9761381115226626 l 37.08960094670573 14.34705442156201" fill="#3dff2e" stroke="none" /><path d="M 80.5471966667186 92.08871423366112 l -26.24357552354388 -10.673033698029448 a49.330882523832955,49.330882523832955 0 0,0 0.3257580224887012,-0.7817006659287479 l 26.0564916565187 11.121966873399458" fill="#c1ff1e" stroke="none" /><path d="M 80.68587082218212 91.75594674310238 l -36.07832283019301 -15.399690666522718 a60.227488459806004,60.227488459806004 0 0,0 0.4140385097528329,-0.9474011371623896 l 35.8086504384232 16.016753873460974" fill="#42ff2d" stroke="none" /><path d="M 80.9802524753101 91.09779779509293 l -32.73860416310779 -15.323319817367015 a57.147203664653944,57.147203664653944 0 0,0 0.4234900114195183,-0.8849312463659855 l 32.47073489372837 15.883063565798087" fill="#64ff29" stroke="none" /><path d="M 81.29705330413844 90.45014215332179 l -36.78137900651858 -18.78083419842983 a62.29878418077313,62.29878418077313 0 0,0 0.49450974455269237,-0.9482876387336626 l 36.453561192990946 19.409468080267978" fill="#30ff33" stroke="none" /><path d="M 81.63589988554816 89.8137432299009 l -29.858938847067506 -16.562250046739923 a55.14475590312008,55.14475590312008 0 0,0 0.46627946392547764,-0.8238711347210156 l 29.57022601812066 17.072377951560043" fill="#7bff26" stroke="none" /><line stroke="#e1ed5e" stroke-width="0.3" x1="26.387840678322718" x2="22.05771365940052" y1="57.49999999999999" y2="54.99999999999999" /><path d="M 25.521815274538284 56.99999999999999 a86.0,86.0 0 0,1 29.574782752854787,-30.34633250058573" fill="none" id="id11" stroke="none" /><text fill="#e1ed5e" style="font-size:6.75px; font-family:Arial;" text-anchor="middle"><textPath startOffset="21.40746469413373" xlink:href="#id11">November</textPath></text><path d="M 81.81346652052679 89.5 l -33.27497581982642 -19.211316246855077 a59.42263249371015,59.42263249371015 0 0,0 0.5176172236379054,-0.8790272076710208 l 32.940284886058734 19.779694622819672" fill="#4bff2c" stroke="none" /><path d="M 82.18462484594161 88.88188828441811 l -39.54741956564245 -24.680514723465627 a67.61680170621064,67.61680170621064 0 0,0 0.6229835656662904,-0.9794336400472914 l 39.11791830835027 25.35576203819159" fill="#37ff77" stroke="none" /><path d="M 82.37810715431573 88.57770195909679 l -41.81849016964621 -27.10624009130003 a70.83507170613882,70.83507170613882 0 0,0 0.6701522673955963,-1.0146959470715244 l 41.34701346332989 27.820115916710616" fill="#3bff9e" stroke="none" /><path d="M 82.98947788004972 87.6856937992154 l -42.01266826930214 -30.413931902384526 a72.86589967280342,72.86589967280342 0 0,0 0.7421842276771778,-1.006915445452169 l 41.484382022041146 31.130653657105558" fill="#3effb5" stroke="none" /><path d="M 83.2033758604659 87.39550010848427 l -44.99685428313683 -33.76647832438067 a77.25737243960758,77.25737243960758 0 0,0 0.8051249139623808,-1.0539343572336979 l 44.41057739182014 34.53393359485525" fill="#44ffe6" stroke="none" /><path d="M 83.64595745247003 86.82634096563983 l -25.758865321727097 -20.74951852878045 a54.076602936805315,54.076602936805315 0 0,0 0.588541885998881,-0.7179254053465667 l 25.398876616489588 21.188646215825507" fill="#88ff25" stroke="none" /><path d="M 84.10781606972428 86.27271002978789 l -44.505679387555226 -38.442945850278974 a79.80999560785003,79.80999560785003 0 0,0 0.9044712352467443,-1.0291222342161832 l 43.83919708834989 39.201280362306456" fill="#47fcff" stroke="none" /><path d="M 84.58840730492382 85.73525988315684 l -40.354438266431934 -37.35146560262746 a75.9873864669301,75.9873864669301 0 0,0 0.8942780607109122,-0.9496923102258422 l 39.707304371984755 38.03869937279781" fill="#42ffd8" stroke="none" /><path d="M 85.08716467003674 85.21462403516908 l -13.635906773954785 -13.519361262524114 a40.20185101740516,40.20185101740516 0 0,0 0.49009517553269744,-0.48590635304886537 l 13.401819678292112 13.751447625801653" fill="#ffc512" stroke="none" /><path d="M 85.34317274990677 84.96080404539775 l -14.67794911120252 -15.060868844834783 a42.03026296726615,42.03026296726615 0 0,0 0.5210301846045771,-0.49913513067158377 l 14.417246440732644 15.310616105811937" fill="#ffde14" stroke="none" /><path d="M 85.60350026404147 84.71141617570332 l -19.77830248465768 -21.0038718428005 a49.85037056197726,49.85037056197726 0 0,0 0.628043997126976,-0.5813081475882744 l 19.41482871621675 21.34029773652114" fill="#baff1f" stroke="none" /><path d="M 86.40962598614128 83.9905735841838 l -24.95783404102827 -29.400265744750268 a59.56512810663859,59.56512810663859 0 0,0 0.7851979166119721,-0.6550400285693381 l 24.44946179025439 29.824367957231487" fill="#4aff2c" stroke="none" /><path d="M 86.68645165197937 83.75963576809568 l -20.611460163521436 -25.14263002295258 a53.51129241576698,53.51129241576698 0 0,0 0.7153930534772273,-0.5762700038640979 l 20.176816339688965 25.49274832061008" fill="#8eff24" stroke="none" /><path d="M 87.25179093698888 83.31218511350988 l -11.682556649882624 -15.29284166980289 a40.2445612112975,40.2445612112975 0 0,0 0.5525904256131384,-0.4146741572492386 l 11.418313235358733 15.491134854316128" fill="#ffc612" stroke="none" /><path d="M 88.4268655584334 82.4767994020092 l -22.956504048142456 -34.75907304933499 a62.65566272863015,62.65566272863015 0 0,0 0.9025827712318367,-0.5850432476168013 l 22.35643564465359 35.1480301386557" fill="#30ff38" stroke="none" /><path d="M 89.03521579738668 82.08984904055464 l -19.92137311038107 -32.540065826495955 a59.15385944561446,59.15385944561446 0 0,0 0.8705962037069067,-0.522768006065327 l 19.35984415011673 32.8772478330972" fill="#4eff2b" stroke="none" /><line stroke="#e1ed5e" stroke-width="0.3" x1="56.869717070023135" x2="54.33264160355391" y1="26.7553504044142" y2="22.446841604673864" /><path d="M 56.362301976729285 25.89364864446614 a86.0,86.0 0 0,1 42.16139366436587,-11.88097634709845" fill="none" id="id12" stroke="none" /><text fill="#e1ed5e" style="font-size:6.75px; font-family:Arial;" text-anchor="middle"><textPath startOffset="22.145653131862474" xlink:href="#id12">December</textPath></text><path d="M 89.65649057296885 81.72400993836675 l -26.436777286370003 -46.71125234194217 a74.6734970785557,74.6734970785557 0 0,0 1.121012092605856,-0.6218065108827867 l 25.63102100560804 47.158191768258106" fill="#40ffca" stroke="none" /><path d="M 90.61103034731259 81.2157712731953 l -8.451428987865732 -16.908519363568026 a39.903033592656286,39.903033592656286 0 0,0 0.6153423072539873,-0.30099475767417 l 8.159926431349692 17.051107871339408" fill="#ffc111" stroke="none" /><path d="M 91.26138138417902 80.90454125486306 l -22.152407220091117 -48.40700764888372 a74.2350216977868,74.2350216977868 0 0,0 1.1633214609268554,-0.5203388926209734 l 21.31817235630864 48.78015029241454" fill="#40ffc5" stroke="none" /><path d="M 91.92203290615298 80.6158196554323 l -19.622970985553973 -47.08798687356979 a72.01313064403492,72.01313064403492 0 0,0 1.1451649387754959,-0.4657286111942995 l 18.811751585588038 47.41790274134338" fill="#3dffab" stroke="none" /><path d="M 93.61358852112211 79.99465700312896 l -13.977640946059676 -43.78476118205963 a66.96172057470173,66.96172057470173 0 0,0 1.0980426532824745,-0.34017642082130306 l 13.223957659905587 44.01825419068758" fill="#36ff6f" stroke="none" /><path d="M 94.30408787586887 79.78721728523814 l -13.688448711661149 -48.575475442956304 a71.46732054152497,71.46732054152497 0 0,0 1.1836982528431215,-0.3226222224847114 l 12.852569057883349 48.803298159585154" fill="#3cffa5" stroke="none" /><path d="M 95.35216902796891 79.52079915486377 l -5.8884885157822415 -25.94576689958336 a47.605584319988445,47.605584319988445 0 0,0 0.7984988560146439,-0.17402910918752554 l 5.44222724314848 26.0430274669046" fill="#d7ff1c" stroke="none" /><path d="M 96.41257539226777 79.30868818359171 l -8.569644642913321 -49.42743300588069 a71.16482774670553,71.16482774670553 0 0,0 1.205472867659812,-0.19836010163719822 l 7.7198942722004364 49.56725910601355" fill="#3cffa1" stroke="none" /></svg>