<?xml version="1.0" encoding="utf-8" ?>
<svg baseProfile="full" height="200mm" version="1.1" viewBox="0,0,200,200" width="200mm" xmlns="http://www.w3.org/2000/svg" xmlns:ev="http://www.w3.org/2001/xml-events" xmlns:xlink="http://www.w3.org/1999/xlink"><defs /><rect fill="#1a1a1a" height="200" width="200" x="0" y="0" /><text alignment-baseline="middle" fill="#e1ed5e" style="dominant-baseline: central; font-size:9.0px; font-family:Arial;" text-anchor="middle" x="100.0" y="100.0">2025</text><line stroke="#e1ed5e" stroke-width="0.3" x1="100.0" x2="100.0" y1="15.0" y2="10.0" /><path d="M 100.0 14.0 a86.0,86.0 0 0,1 42.46469731375804,11.215312516191453" fill="none" id="id61" stroke="none" /><text fill="#e1ed5e" style="font-size:6.75px; font-family:Arial;" text-anchor="middle"><textPath startOffset="22.20632615414155" xlink:href="#id61">January</textPath></text><path d="M 100.36148047927253 79.00311137660856 l 0.3293807865386708 -19.132351776106372 a40.13518686052534,40.13518686052534 0 0,0 0.690656548708132,0.017837621017834242 l -0.6586639704416706 19.12384736294618" fill="#ffb711" stroke="none" /><path d="M 101.08401301168833 79.027996857942 l 2.808544851589305 -54.33588971446463 a75.40842614196676,75.40842614196676 0 0,0 1.2957248566331778,0.07816166182321076 l -3.7434317570620945 54.279494783261114" fill="#41ffd0" stroke="none" /><path d="M 102.16513564639614 79.11191278185805 l 1.4468139165821334 -13.958097880976784 a35.03288163436663,35.03288163436663 0 0,0 0.5992846454793871,0.06733661258802422 l -1.6868652655712457 13.931125314918159" fill="#ff6c09" stroke="none" /><path d="M 102.88285421437855 79.19881850522331 l 4.849186256854667 -34.98921413636394 a56.32364241176154,56.32364241176154 0 0,0 0.959194364842385,0.14136031558309614 l -5.450749602125708 34.90055933661988" fill="#74ff27" stroke="none" /><path d="M 103.95276090670814 79.375362276772 l 1.6959331271785343 -8.84900634680893 a30.01005563233248,30.01005563233248 0 0,0 0.5065034176123295,0.10159982063627294 l -1.848002954257989 8.818502570095447" fill="#ff1e03" stroke="none" /><path d="M 104.307194497241 79.44645832069477 l 3.407849753007609 -16.261950088420328 a37.61518764917652,37.61518764917652 0 0,0 0.63257510479224,0.1382564168146357 l -3.687267581953377 16.200880173509823" fill="#ff920d" stroke="none" /><path d="M 104.66035177308747 79.52364482259891 l 4.310165423320905 -18.937728819299494 a40.42202612524547,40.42202612524547 0 0,0 0.6771195864687335,0.16025232926072808 l -4.635508696752162 18.860730577897897" fill="#ffbb11" stroke="none" /><path d="M 105.36241919743992 79.69619591428918 l 3.9762499533920304 -15.055331759223774 a36.571563122311844,36.571563122311844 0 0,0 0.6072657740542112,0.16598867564652836 l -4.234813616669952 14.984656542750953" fill="#ff830c" stroke="none" /><path d="M 105.71112130821622 79.79150937346287 l 4.758159375203915 -16.836486907579047 a38.49592444053533,38.49592444053533 0 0,0 0.6361172551735984,0.1857000702688359 l -5.04726684810094 16.75208850839151" fill="#ff9f0e" stroke="none" /><path d="M 106.40334571778207 80.00007090966166 l 8.781352965284288 -27.42729260036735 a49.798759335899746,49.798759335899746 0 0,0 0.8141318814776269,0.2684064812257659 l -9.252167669004333 27.272072394882347" fill="#c4ff1e" stroke="none" /><path d="M 107.08798089147638 80.2323363322302 l 4.884835245012625 -13.623312714061823 a35.47260393557552,35.47260393557552 0 0,0 0.5729968669436418,0.21103958181482432 l -5.118614437728843 13.537209864440673" fill="#ff730a" stroke="none" /><path d="M 107.4271985657038 80.35727306442388 l 6.7668227564818055 -17.89622970911094 a40.13282331541545,40.13282331541545 0 0,0 0.6440684330185183,0.24988854580772119 l -7.07387435449999 17.777098459412674" fill="#ffb711" stroke="none" /><path d="M 108.09893153111575 80.62456947434976 l 5.699570163244561 -13.635332673173046 a35.77861282914767,35.77861282914767 0 0,0 0.5661816269932176,0.24240942486512754 l -5.933435548028093 13.535203720345129" fill="#ff770b" stroke="none" /><path d="M 108.43124777332544 80.76684994638697 l 7.784345327589428 -17.757452488627045 a40.38873773779537,40.38873773779537 0 0,0 0.6343299008800226,0.2846053362520695 l -8.08885734693623 17.620826821858444" fill="#ffbb11" stroke="none" /><path d="M 109.41281617654863 81.2277094730956 l 5.583150498007283 -11.13466163985512 a33.45601297837555,33.45601297837555 0 0,0 0.5125772048993721,0.2625619529561086 l -5.773988190495411 11.03690716158651" fill="#ff5407" stroke="none" /><path d="M 110.05341064243156 81.56283822128135 l 9.45875463479244 -17.346609586484952 a40.75785675085076,40.75785675085076 0 0,0 0.6130678632688804,0.34117160215463993 l -9.755946587133355 17.18122258677013" fill="#ffc011" stroke="none" /><line stroke="#e1ed5e" stroke-width="0.3" x1="143.23703022742887" x2="145.7803849466894" y1="26.81831364943548" y2="22.513508569990506" /><path d="M 143.74570117128098 25.957352633546492 a86.0,86.0 0 0,1 28.547481713284135,27.462654790039103" fill="none" id="id62" stroke="none" /><text fill="#e1ed5e" style="font-size:6.75px; font-family:Arial;" text-anchor="middle"><textPath startOffset="19.985693538727396" xlink:href="#id62">February</textPath></text><path d="M 110.99172775467656 82.1063720568725 l 9.430276715147222 -15.351714189772371 a39.016804585961026,39.016804585961026 0 0,0 0.5692381743225002,0.3564568925387392 l -9.693134041841985 15.187112955910688" fill="#ffa70f" stroke="none" /><path d="M 111.2981086023043 82.29822771554956 l 19.91123640097926 -31.196741426269256 a58.00937733376753,58.00937733376753 0 0,0 0.8370835307549305,0.5444624133962606 l -20.44528695751847 30.849380088713467" fill="#61ff29" stroke="none" /><path d="M 111.90073688211348 82.69761687909136 l 25.96444786619 -37.74949643487082 a66.81677677535188,66.81677677535188 0 0,0 0.9420174741224767,0.6599434409936489 l -26.610396479896128 37.29696815111324" fill="#35ff68" stroke="none" /><path d="M 112.48926042617603 83.11751280151076 l 5.368145564217179 -7.25644639274063 a30.026239585195103,30.026239585195103 0 0,0 0.41286629373320866,0.3109623328239411 l -5.4922580117087705 7.162967470410842" fill="#ff1e03" stroke="none" /><path d="M 113.06298171725822 83.55741782278167 l 15.81721666054469 -19.90938136369527 a46.42769767736885,46.42769767736885 0 0,0 0.6214603823611262,0.5025110761966795 l -16.15758044147031 19.63416419023446" fill="#f0ff19" stroke="none" /><path d="M 113.89432698308785 84.25364557470407 l 10.775765525037384 -12.212108104815506 a37.28658058078137,37.28658058078137 0 0,0 0.4776038326831865,0.4287974366601031 l -10.984380345316561 12.024811659386105" fill="#ff8e0d" stroke="none" /><path d="M 114.68862486808459 84.99185889309783 l 24.025265177636232 -24.547877909263203 a55.34838681370397,55.34838681370397 0 0,0 0.6751559628648568,0.6722566285964566 l -24.444256940668414 24.13068543001663" fill="#80ff26" stroke="none" /><path d="M 115.4437574822437 85.77008943001954 l 27.276848130285686 -25.132945137941494 a58.09031376558369,58.09031376558369 0 0,0 0.6712373358966061,0.7411970314345474 l -27.705429106798327 24.659695319237397" fill="#60ff29" stroke="none" /><path d="M 115.68641384162765 86.03803664274999 l 15.39526180287727 -13.702818460432749 a41.610223670273655,41.610223670273655 0 0,0 0.47159865675574963,0.5391187887427307 l -15.628852323210868 13.43578411548707" fill="#ffcc13" stroke="none" /><path d="M 116.38621287248628 86.86637796730983 l 20.139797449863867 -16.14213665962924 a46.810463329039436,46.810463329039436 0 0,0 0.4985223385259788,0.6330727441918845 l -20.41467386898381 15.793071521484318" fill="#ebff1a" stroke="none" /><path d="M 116.82858285166822 87.43820079747576 l 27.658712652004994 -20.64601622116753 a55.51466893033879,55.51466893033879 0 0,0 0.5650266811591224,0.7706957581112869 l -28.010001945677743 20.16685801938475" fill="#7eff26" stroke="none" /><path d="M 117.2510076193507 88.02491185347247 l 19.4289843671706 -13.48696873412722 a44.651295084520946,44.651295084520946 0 0,0 0.43285291692449573,0.6351582443421181 l -19.658261749763827 13.150532466514695" fill="#fff617" stroke="none" /><path d="M 117.65298651832404 88.62581576622439 l 15.04205733927637 -9.691908576169311 a38.8940375781125,38.8940375781125 0 0,0 0.35777403479352954,0.5659126034230635 l -15.206658970315855 9.431548325032042" fill="#ffa50f" stroke="none" /><line stroke="#e1ed5e" stroke-width="0.3" x1="172.23445277983987" x2="176.4835382374775" y1="55.19839476539836" y2="52.563006222186495" /><path d="M 173.08426987136738 54.67131705675599 a86.0,86.0 0 0,1 12.851231095245387,41.99856678651699" fill="none" id="id63" stroke="none" /><text fill="#e1ed5e" style="font-size:6.75px; font-family:Arial;" text-anchor="middle"><textPath startOffset="22.20632615414155" xlink:href="#id63">March</textPath></text><path d="M 117.84615892207809 88.93136811851018 l 20.83948952187674 -12.92517001125967 a45.52232336774753,45.52232336774753 0 0,0 0.4072821612431247,0.669464785449942 l -21.05888748140609 12.564537452602647" fill="#fcff18" stroke="none" /><path d="M 118.21658344932153 89.55222093294921 l 24.5737202891226 -14.093795422753583 a49.32848033810613,49.32848033810613 0 0,0 0.41610301707390296,0.7402008373521207 l -24.81268094748894 13.668711075466668" fill="#caff1d" stroke="none" /><path d="M 118.3937258080291 89.86733742301442 l 17.506410240690865 -9.643861703417045 a40.98695744904661,40.98695744904661 0 0,0 0.3351013634132722,0.6208919333278602 l -17.669819703322602 9.341088786756726" fill="#ffc312" stroke="none" /><path d="M 118.73160827565052 90.50648371742162 l 10.949685932210548 -5.549497947898462 a33.2756893691466,33.2756893691466 0 0,0 0.2545431575821964,0.5131434732516931 l -11.043589102746152 5.360194886147818" fill="#ff5107" stroke="none" /><path d="M 119.04729006885535 91.15688171328212 l 23.22887960679675 -10.78451209008006 a46.61028209153778,46.61028209153778 0 0,0 0.33159372143621646,0.7306228107712944 l -23.411075645196313 10.383067270466702" fill="#eeff19" stroke="none" /><path d="M 119.196687751892 91.48605970444005 l 27.40228437898983 -12.1532118550858 a50.976419859309885,50.976419859309885 0 0,0 0.3488469101306141,0.8051867653926467 l -27.607421998963122 11.67972594510655" fill="#b5ff1f" stroke="none" /><path d="M 119.47837535516314 92.15188598940014 l 15.222148511627651 -6.133219779742566 a37.41128240500033,37.41128240500033 0 0,0 0.23552442100658544,0.5993839615851044 l -15.325466482515937 5.870286813261677" fill="#ff8f0d" stroke="none" /><path d="M 119.7369772167798 92.82701384747503 l 35.61307040243773 -12.942815814186819 a58.89204751249199,58.89204751249199 0 0,0 0.3380597567825347,0.95574045604066 l -35.83058324003007 12.327877731719544" fill="#57ff2a" stroke="none" /><path d="M 119.85752413597 93.16781622104841 l 17.14648409446442 -5.899422792796656 a39.13298392680835,39.13298392680835 0 0,0 0.21367113523017475,0.6388494977627936 l -17.245492523466364 5.603400192111549" fill="#ffa90f" stroke="none" /><path d="M 120.08093135843002 93.85539295169968 l 24.997035819441965 -7.648896345551135 a47.141105850048696,47.141105850048696 0 0,0 0.23075369928657327,0.777986760185625 l -25.12499541584024 7.21748019861898" fill="#e7ff1a" stroke="none" /><path d="M 120.18372546131832 94.20196356495316 l 19.626703722213097 -5.6380247293468875 a41.42045106867771,41.42045106867771 0 0,0 0.19095464916936314,0.6869654721194686 l -19.720845141948825 5.299347953808467" fill="#ffc912" stroke="none" /><path d="M 120.45610955862082 95.25157060432595 l 11.397314620403538 -2.645632280184102 a32.700348316115054,32.700348316115054 0 0,0 0.12255718854603445,0.5493998452021652 l -11.44116619595161 2.4490542654319727" fill="#ff4806" stroke="none" /><path d="M 120.53481517161879 95.60439243477599 l 33.84197672491598 -7.244089984300021 a55.608614944120355,55.608614944120355 0 0,0 0.19230175097304025,0.9377316323213387 l -33.96165777180401 6.66048269581527" fill="#7dff26" stroke="none" /><path d="M 120.6074358757038 95.95851677861258 l 15.56003056530017 -3.0515976287995366 a36.85644346255397,36.85644346255397 0 0,0 0.11673712648423697,0.6236143975717636 l -15.610253415694267 2.78330515376521" fill="#ff870c" stroke="none" /><path d="M 120.73433829027371 96.67025291283417 l 14.095715065180082 -2.2636442756323576 a35.276318454186566,35.276318454186566 0 0,0 0.09112058939514704,0.6003708346221834 l -14.13259154801453 2.020674328618092" fill="#ff700a" stroke="none" /><path d="M 120.78858239683441 97.02765380044208 l 17.662928784469724 -2.525441044675328 a38.84255883317692,38.84255883317692 0 0,0 0.08893836359669201,0.6626941132000688 l -17.703783147124252 2.221028589410595" fill="#ffa40f" stroke="none" /><path d="M 120.83666639777658 97.38593545837742 l 28.611386555648927 -3.589442267490524 a49.83566431397785,49.83566431397785 0 0,0 0.09945690948716443,0.8520860631749728 l -28.66893381813968 3.0964124659906984" fill="#c4ff1e" stroke="none" /><path d="M 120.96714384426684 98.82574320788733 l 28.41648480298684 -1.5914542550819466 a49.46101430385784,49.46101430385784 0 0,0 0.040290451802401275,0.8504677581087622 l -28.439668863022735 1.1020753903501845" fill="#c9ff1d" stroke="none" /><path d="M 120.98425023603335 99.18683210126433 l 7.1414811308608765 -0.27674199171865677 a28.146841181418708,28.146841181418708 0 0,0 0.014593876518653294,0.484299713073047 l -7.145186701835175 0.15377213122061067" fill="#ff0000" stroke="none" /><line stroke="#e1ed5e" stroke-width="0.3" x1="184.98032266829074" x2="189.97916517819016" y1="98.17113171792111" y2="98.06355123074" /><path d="M 185.9800911702706 98.14961562048488 a86.0,86.0 0 0,1 -9.607161424134198,41.387399972396054" fill="none" id="id64" stroke="none" /><text fill="#e1ed5e" style="font-size:6.75px; font-family:Arial;" text-anchor="middle"><textPath startOffset="21.466115282336823" xlink:href="#id64">April</textPath></text><path d="M 120.99513854157772 99.54816195383933 l 15.593951197661317 -0.33559866381079906 a36.5975620023834,36.5975620023834 0 0,0 0.00813336006543272,0.6299377003450346 l -15.597417564844465 0.0671247054053017" fill="#ff830c" stroke="none" /><path d="M 120.99980553446 99.90962569577887 l 37.9005948404496 -0.1631081717710137 a58.90094581320648,58.90094581320648 0 0,0 -0.0043634457644019745,1.0139111255386906 l -37.8977870973957 -0.48931243197136154" fill="#57ff2a" stroke="none" /><path d="M 120.9764740272857 100.99374915477107 l 34.79379241130737 1.6483371683458585 a55.832815071161,55.832815071161 0 0,0 -0.053742139657614964,0.959602005514088 l -34.76026392076223 -2.24701089019537" fill="#7aff26" stroke="none" /><path d="M 120.95626037817324 101.35467743843564 l 14.49902454451651 0.9372617573619434 a35.52928671147711,35.52928671147711 0 0,0 -0.04470504871993535,0.609964871456944 l -14.480742937132238 -1.1866997653156577" fill="#ff730a" stroke="none" /><path d="M 120.92983693683757 101.71520430193887 l 21.24573636690091 1.7410923230954531 a42.316958419282,42.316958419282 0 0,0 -0.06574323108358529,0.7254710767122754 l -21.21261853954025 -2.1065447883562993" fill="#ffd614" stroke="none" /><path d="M 120.89721153311464 102.0752229133903 l 55.75264899553909 5.536584366503032 a77.026883158598,77.026883158598 0 0,0 -0.14238125365543625,1.3182735771881207 l -55.649085440382606 -6.495454265575944" fill="#43ffe2" stroke="none" /><path d="M 120.8583938346157 102.4346265915055 l 15.998137690555136 1.8673293708431735 a37.106747919588685,37.106747919588685 0 0,0 -0.07951179300662614,0.6337872226137907 l -15.963624388301662 -2.1424343477443593" fill="#ff8b0c" stroke="none" /><path d="M 120.70491114924044 103.5080841355445 l 22.955823163884993 3.8894617068928676 a44.28299227979395,44.28299227979395 0 0,0 -0.1338054001913889,0.7504517435144914 l -22.885471321354416 -4.284032201140577" fill="#fff116" stroke="none" /><path d="M 120.64145759157962 103.86396538481128 l 33.64337680461846 6.297851923705173 a55.22776273247284,55.22776273247284 0 0,0 -0.182961864519155,0.9329186054330126 l -33.52998500712364 -6.876034256206131" fill="#81ff25" stroke="none" /><path d="M 120.5718875245553 104.21870165774334 l 26.944476779199558 5.525536182314571 a48.50520639818745,48.50520639818745 0 0,0 -0.1747710985232451,0.8164723880059848 l -26.84537164195187 -5.988522389736725" fill="#d5ff1c" stroke="none" /><path d="M 120.49622156327973 104.57218783832717 l 20.102013929081025 4.484250100862026 a41.59610310160756,41.59610310160756 0 0,0 -0.16190675842951324,0.6974900778207902 l -20.02184660472096 -4.8296088360313805" fill="#ffcc13" stroke="none" /><path d="M 120.41448212921028 104.9243191809786 l 19.589508247071652 4.725321494634707 a41.15136463343724,41.15136463343724 0 0,0 -0.17202972457781762,0.6871732356072868 l -19.505267208198777 -5.061822569639389" fill="#ffc512" stroke="none" /><path d="M 120.32669344350535 105.2749913415812 l 24.829816575855943 6.443599290495452 a46.65228572675589,46.65228572675589 0 0,0 -0.20840669843238188,0.7755588540616876 l -24.715221801081785 -6.870049077732688" fill="#edff1a" stroke="none" /><path d="M 120.23288151984713 105.62410040840565 l 17.915548974161204 4.979955336740039 a39.594807076210664,39.594807076210664 0 0,0 -0.18818348987048564,0.6550914155936988 l -17.82717284740462 -5.28760422783832" fill="#ffaf10" stroke="none" /><path d="M 120.13307415673323 105.97154293290107 l 19.37945475561714 5.748016680834556 a41.21392990954911,41.21392990954911 0 0,0 -0.20758716115424,0.6784068535648172 l -19.277640821956766 -6.08075050695143" fill="#ffc612" stroke="none" /><path d="M 120.02730092923936 106.31721596034902 l 36.77819843051274 11.600955262968753 a59.56446606407992,59.56446606407992 0 0,0 -0.31684821063988167,0.9751585216698078 l -36.57305796885661 -12.232312684616355" fill="#4fff2b" stroke="none" /><path d="M 119.9155931802556 106.66101706037122 l 19.168081799301966 6.411002611075773 a41.21178652034381,41.21178652034381 0 0,0 -0.23080399847631416,0.6708244565290443 l -19.05488696988242 -6.7399997706941175" fill="#ffc612" stroke="none" /><path d="M 119.79798401119884 107.00284435728193 l 24.40283055643408 8.631647756012272 a46.88442547459581,46.88442547459581 0 0,0 -0.2756709087057662,0.7585279448140854 l -24.250635386723086 -9.050423497832488" fill="#eaff1a" stroke="none" /><path d="M 119.67450827220406 107.3425965602758 l 13.833212848061354 5.162604303520898 a35.765170533878106,35.765170533878106 0 0,0 -0.22022100673067585,0.574927557163377 l -13.742297561737173 -5.399955427517419" fill="#ff770b" stroke="none" /><path d="M 119.54520255179757 107.68017299344265 l 23.587581500322056 9.268602151311034 a46.34326314572815,46.34326314572815 0 0,0 -0.29813589036998117,0.7399488299518805 l -23.42454299569468 -9.673250349105729" fill="#f1ff19" stroke="none" /><path d="M 119.12269723197855 108.67885076344098 l 57.368091695935625 26.036552290322952 a84.0,84.0 0 0,0 -0.6089015326406746,1.3115197308846775 l -56.911415546455125 -27.02019208848646" fill="#4dd2ff" stroke="none" /><path d="M 118.81262510543309 109.33194174019688 l 26.90722112745179 13.347239874538186 a51.03576802863629,51.03576802863629 0 0,0 -0.39715871903424493,0.7836318311120029 l -26.673483738631276 -13.808425917352881" fill="#b5ff20" stroke="none" /><path d="M 118.64920377521936 109.65438752849418 l 7.600217037334574 3.934507953449013 a29.558250513413608,29.558250513413608 0 0,0 -0.23779963264292836,0.4498272878290262 l -7.531364896466753 -4.0647502563641735" fill="#ff1702" stroke="none" /><line stroke="#e1ed5e" stroke-width="0.3" x1="174.80103733775053" x2="179.2010983576182" y1="140.37084112569926" y2="142.7455964860345" /><path d="M 175.68104954172406 140.8457921977663 a86.0,86.0 0 0,1 -30.038265399797805,32.042727171017184" fill="none" id="id65" stroke="none" /><text fill="#e1ed5e" style="font-size:6.75px; font-family:Arial;" text-anchor="middle"><textPath startOffset="22.206326154141568" xlink:href="#id65">May</textPath></text><path d="M 118.48025628344425 109.97397251340804 l 20.780254681207538 11.215303826584954 a44.61359829713504,44.61359829713504 0 0,0 -0.3705554286797292,0.6726657381538302 l -20.5841228430763 -11.571340083136588" fill="#fff517" stroke="none" /><path d="M 118.30583269289576 110.29060199501025 l 22.008682461626947 12.372154572081278 a46.247817974078416,46.247817974078416 0 0,0 -0.3960751307117193,0.6905903756680045 l -21.792455334762845 -12.749164793607598" fill="#f3ff19" stroke="none" /><path d="M 117.94076556474637 110.91462005526583 l 14.165797507911359 8.618043473155979 a37.58132963125557,37.58132963125557 0 0,0 -0.3409796277642068,0.549767730232984 l -14.015353240479188 -8.860607534754235" fill="#ff920d" stroke="none" /><path d="M 117.55443506779139 111.5257021239791 l 19.401356664092162 12.738334036262279 a44.20943330688432,44.20943330688432 0 0,0 -0.42314089553502787,0.6325382263142402 l -19.179212663146412 -13.070409176782325" fill="#fff016" stroke="none" /><path d="M 117.35343817320211 111.8261652097733 l 18.463825454752982 12.58288115893489 a43.343718327159934,43.343718327159934 0 0,0 -0.4254683226752686,0.6129188517407029 l -18.244496224915576 -12.898841272862613" fill="#ffe415" stroke="none" /><path d="M 116.93607887273984 112.41649034213515 l 13.76691739033165 10.093056255965102 a38.07037782295085,38.07037782295085 0 0,0 -0.39201382270829294,0.5251665775010984 l -13.591142300928265 -10.328535712975516" fill="#ff990e" stroke="none" /><path d="M 116.498646956653 112.99209946851258 l 19.0768613780705 15.022351906922529 a45.281632911596716,45.281632911596716 0 0,0 -0.48749362448663947,0.6082232521184994 l -18.815449841529006 -15.348502992619277" fill="#ffff18" stroke="none" /><path d="M 116.27256486870786 113.27417163493432 l 15.239857183463895 12.431751329761338 a40.66727454675403,40.66727454675403 0 0,0 -0.4471541126796663,0.5386259342401584 l -15.023607070890685 -12.692238521115268" fill="#ffbf11" stroke="none" /><path d="M 116.0416608686014 113.55231037782055 l 17.22664330159857 14.55340682636072 a43.55125029114957,43.55125029114957 0 0,0 -0.48872277850796186,0.5684950030929652 l -16.97357801351983 -14.847778928615211" fill="#ffe715" stroke="none" /><path d="M 115.80600337817218 113.82643327865902 l 19.504153656274294 17.061421077361256 a46.913396130700136,46.913396130700136 0 0,0 -0.5369152187121745,0.6032299400222821 l -19.20757958791378 -17.394625187124404" fill="#eaff1a" stroke="none" /><path d="M 115.32070863581623 114.36230785411682 l 16.442201005189666 15.413644254270611 a43.53722261265282,43.53722261265282 0 0,0 -0.5172500863339277,0.5423346475825297 l -16.174444367476777 -15.69438601843565" fill="#ffe715" stroke="none" /><path d="M 115.07121518719521 114.62390073753431 l 11.709471065871323 11.361933356363966 a37.31579732152045,37.31579732152045 0 0,0 -0.4512712649203644,0.45713540884057086 l -11.512159175895423 -11.561809259185203" fill="#ff8e0d" stroke="none" /><path d="M 114.81725581225074 114.88116024355365 l 23.76824314755087 23.870751741629256 a54.68593432030044,54.68593432030044 0 0,0 -0.6727673207630385,0.6584444221176644 l -23.35382587441204 -24.276346266669492" fill="#88ff25" stroke="none" /><path d="M 114.55890576462653 115.13401014063108 l 13.135384021819737 13.654256590512576 a39.94668932664051,39.94668932664051 0 0,0 -0.49964589623007905,0.47244638120994725 l -12.89840229119885 -13.878337608468446" fill="#ffb410" stroke="none" /><line stroke="#e1ed5e" stroke-width="0.3" x1="143.8653032363475" x2="146.44561519142675" y1="172.8068346515853" y2="177.08958963109032" /><path d="M 144.38136562736335 173.6633856474863 a86.0,86.0 0 0,1 -40.68145358897372,12.25698825130547" fill="none" id="id66" stroke="none" /><text fill="#e1ed5e" style="font-size:6.75px; font-family:Arial;" text-anchor="middle"><textPath startOffset="21.466115282336833" xlink:href="#id66">June</textPath></text><line stroke="#e1ed5e" stroke-width="0.3" x1="102.19456741930631" x2="102.32365962044197" y1="184.97166512339345" y2="189.96999836594603" /><path d="M 102.22038585953345 185.97133177190398 a86.0,86.0 0 0,1 -42.740103519485714,-10.115201625700543" fill="none" id="id67" stroke="none" /><text fill="#e1ed5e" style="font-size:6.75px; font-family:Arial;" text-anchor="middle"><textPath startOffset="22.20632615414155" xlink:href="#id67">July</textPath></text><line stroke="#e1ed5e" stroke-width="0.3" x1="58.666819895761336" x2="56.23545636021788" y1="174.27360380694188" y2="178.64263932499728" /><path d="M 58.180547188652646 175.14741091055294 a86.0,86.0 0 0,1 -31.652253787137756,-30.449443065178592" fill="none" id="id68" stroke="none" /><text fill="#e1ed5e" style="font-size:6.75px; font-family:Arial;" text-anchor="middle"><textPath startOffset="22.20632615414155" xlink:href="#id68">August</textPath></text><line stroke="#e1ed5e" stroke-width="0.3" x1="26.63291911575756" x2="22.317208475507996" y1="142.92168965132927" y2="145.44649492493687" /><path d="M 25.769776987707644 143.4266507060508 a86.0,86.0 0 0,1 -11.730757126820373,-40.83630448921669" fill="none" id="id69" stroke="none" /><text fill="#e1ed5e" style="font-size:6.75px; font-family:Arial;" text-anchor="middle"><textPath startOffset="21.46611528233685" xlink:href="#id69">September</textPath></text><line stroke="#e1ed5e" stroke-width="0.3" x1="15.007084014347285" x2="10.007500721073583" y1="101.09737516637583" y2="101.16192664675087" /><path d="M 14.007167355692545 101.11028546245083 a86.0,86.0 0 0,1 10.666146001902534,-42.60595125391555" fill="none" id="id70" stroke="none" /><text fill="#e1ed5e" style="font-size:6.75px; font-family:Arial;" text-anchor="middle"><textPath startOffset="22.20632615414155" xlink:href="#id70">October</textPath></text><line stroke="#e1ed5e" stroke-width="0.3" x1="26.266209847984243" x2="21.928928074336255" y1="57.711370442889674" y2="55.22380399835377" /><path d="M 25.398753493254645 57.213857153982495 a86.0,86.0 0 0,1 29.58750427330803,-30.492523968695096" fill="none" id="id71" stroke="none" /><text fill="#e1ed5e" style="font-size:6.75px; font-family:Arial;" text-anchor="middle"><textPath startOffset="21.46611528233685" xlink:href="#id71">November</textPath></text><line stroke="#e1ed5e" stroke-width="0.3" x1="56.762969772571076" x2="54.21961505331055" y1="26.818313649435495" y2="22.513508569990535" /><path d="M 56.25429882871897 25.957352633546506 a86.0,86.0 0 0,1 42.265352541879196,-11.944610805530505" fill="none" id="id72" stroke="none" /><text fill="#e1ed5e" style="font-size:6.75px; font-family:Arial;" text-anchor="middle"><textPath startOffset="22.20632615414155" xlink:href="#id72">December</textPath></text></svg>