<?xml version="1.0" encoding="utf-8" ?>
<svg baseProfile="full" height="200mm" version="1.1" viewBox="0,0,200,200" width="200mm" xmlns="http://www.w3.org/2000/svg" xmlns:ev="http://www.w3.org/2001/xml-events" xmlns:xlink="http://www.w3.org/1999/xlink"><defs /><rect fill="#1a1a1a" height="200" width="200" x="0" y="0" /><text alignment-baseline="middle" fill="#e1ed5e" style="dominant-baseline: central; font-size:9.0px; font-family:Arial;" text-anchor="middle" x="100.0" y="100.0">2024</text><line stroke="#e1ed5e" stroke-width="0.3" x1="100.0" x2="100.0" y1="15.0" y2="10.0" /><path d="M 100.0 14.0 a86.0,86.0 0 0,1 42.35913384403234,11.155469271406648" fill="none" id="id49" stroke="none" /><text fill="#e1ed5e" style="font-size:6.75px; font-family:Arial;" text-anchor="middle"><textPath startOffset="22.145653131862478" xlink:href="#id49">January</textPath></text><path d="M 100.36049292484886 79.00309439819443 l 0.9001326195079012 -52.42821242285862 a73.43593897880622,73.43593897880622 0 0,0 1.2602540322226305,0.03245967344124379 l -1.799999965801273 52.40503503206734" fill="#3dffab" stroke="none" /><path d="M 100.72087961077811 79.0123766808444 l 0.44272479181272495 -12.889449258507403 a33.8970503383108,33.8970503383108 0 0,0 0.5813735392131552,0.024966681270189858 l -0.6639240916267164 12.879950008811383" fill="#ff0000" stroke="none" /><path d="M 101.44090949804482 79.04949213459386 l 2.0756217361829625 -30.179084507746527 a51.25037763925306,51.25037763925306 0 0,0 0.8771892739536011,0.06789999753670432 l -2.5933800049117974 30.139006743214768" fill="#e2ff1b" stroke="none" /><path d="M 101.80034050326958 79.07731436759882 l 3.6274824362523765 -42.15684450409798 a63.31262420800695,63.31262420800695 0 0,0 1.0820442129282997,0.10247071196143645 l -4.350626212565689 42.088362036631366" fill="#40ff2d" stroke="none" /><path d="M 102.87502721639298 79.19773525538626 l 6.517193284587135 -47.15516407106921 a68.60339595951243,68.60339595951243 0 0,0 1.1651956670863557,0.17124363734521086 l -7.325714057281173 47.03633936042512" fill="#35ff68" stroke="none" /><path d="M 104.29559338865022 79.4440306129975 l 11.232917851675957 -53.75357828230588 a75.91471225103967,75.91471225103967 0 0,0 1.2733340374457156,0.27751722693860154 l -12.154014305740807 53.55282959723356" fill="#41ffcb" stroke="none" /><path d="M 104.9986988182912 79.60360301121754 l 9.543292642808746 -38.93989063925933 a61.092262563539165,61.092262563539165 0 0,0 1.0164434840278562,0.2583759588685565 l -10.210341420061996 38.77032944855551" fill="#5cff2a" stroke="none" /><path d="M 105.3480935250658 79.69241777938227 l 7.310906149684424 -27.760701462323336 a49.707244632840236,49.707244632840236 0 0,0 0.8232906757900477,0.22439153469759532 l -7.786378226409164 27.6311094334816" fill="#f9ff18" stroke="none" /><path d="M 106.38641147887787 79.99465700312896 l 9.407080527356676 -29.46754576828848 a51.93265940158314,51.93265940158314 0 0,0 0.846940715167925,0.2784062354558511 l -9.911543980172343 29.30171861143061" fill="#d8ff1c" stroke="none" /><path d="M 106.72888874123014 80.10723608172694 l 18.6714208986343 -55.19873819274057 a79.2711133963019,79.2711133963019 0 0,0 1.2853026930955058,0.4470949963186192 l -19.61622936377482 54.87008476385336" fill="#46fff5" stroke="none" /><path d="M 108.4095320186766 80.7573450057729 l 7.3859408304279315 -16.90047803992618 a39.443922574349784,39.443922574349784 0 0,0 0.6181174408580336,0.27647606915935613 l -7.674971674141597 16.771198219856974" fill="#ff6109" stroke="none" /><path d="M 109.06512990194946 81.05736502329252 l 25.088128439677043 -52.42453935264146 a79.11838362293281,79.11838362293281 0 0,0 1.2200798872018437,0.5968022118132486 l -25.984368576140955 51.98614339073099" fill="#45fff3" stroke="none" /><line stroke="#e1ed5e" stroke-width="0.3" x1="143.13028292997686" x2="145.6673583964461" y1="26.7553504044142" y2="22.446841604673864" /><path d="M 143.63769802327073 25.89364864446614 a86.0,86.0 0 0,1 29.32050498858742,28.57503671076993" fill="none" id="id50" stroke="none" /><text fill="#e1ed5e" style="font-size:6.75px; font-family:Arial;" text-anchor="middle"><textPath startOffset="20.669276256404974" xlink:href="#id50">February</textPath></text><path d="M 110.96478420261332 82.08984904055464 l 13.184939787447592 -21.536608256102443 a46.25209164357358,46.25209164357358 0 0,0 0.6735975591957324,0.4203746959982138 l -13.552701475433036 21.307097763262686" fill="#ffd013" stroke="none" /><path d="M 111.8722381534696 82.67804972795209 l 27.177224871005656 -39.652383288002504 a69.07195702390187,69.07195702390187 0 0,0 0.9722861694524013,0.6787312578270307 l -27.853906131631817 39.18000721437035" fill="#36ff6f" stroke="none" /><path d="M 112.45986205192187 83.09580414077388 l 22.55039598242585 -30.593943079107735 a59.00670614630913,59.00670614630913 0 0,0 0.8102098738813786,0.6079965939945143 l -23.072258845217995 30.202327457849204" fill="#77ff27" stroke="none" /><path d="M 113.59037401385872 83.9905735841838 l 24.58041621492927 -28.955668494609256 a58.98193780297241,58.98193780297241 0 0,0 0.7662610931429311,0.6618780819938758 l -25.073856787835062 28.52944628015066" fill="#77ff27" stroke="none" /><path d="M 114.39649973595853 84.71141617570332 l 32.23443774065492 -34.23185583063279 a68.0199843690466,68.0199843690466 0 0,0 0.8432130210606775,0.8077789999259175 l -32.81732324758091 33.67346470040129" fill="#34ff60" stroke="none" /><path d="M 114.91283532996326 85.21462403516908 l 34.93898734083284 -34.64036531180248 a70.20048521445705,70.20048521445705 0 0,0 0.8411127926464131,0.8630558232479429 l -35.52848693463007 34.0354867964868" fill="#38ff7f" stroke="none" /><path d="M 115.41159269507618 85.73525988315684 l 46.23477808522854 -42.794220350529464 a84.0,84.0 0 0,0 0.9704091966324899,1.066649697769313 l -46.96258498270291 41.99423307720248" fill="#4dd2ff" stroke="none" /><path d="M 115.6541949942343 86.00192230759917 l 15.470138615683002 -13.833493343752304 a41.7530895743281,41.7530895743281 0 0,0 0.4731796840112393,0.5383916200082455 l -15.705329363652831 13.56588944593276" fill="#ff880c" stroke="none" /><path d="M 116.7966241395341 87.39550010848427 l 11.626389554891093 -8.724659471210218 a35.5359078481758,35.5359078481758 0 0,0 0.3619551867133372,0.49106172628301364 l -11.774446761188257 8.52379143565833" fill="#ff1d03" stroke="none" /><path d="M 117.21940702142032 87.97951657250589 l 29.731954067985928 -20.755213039372244 a57.25972919108129,57.25972919108129 0 0,0 0.5557200226817854,0.8108121209868169 l -30.08386382748304 20.24176618331538" fill="#8eff24" stroke="none" /><path d="M 117.42321728460499 88.27688183743584 l 22.84117437688698 -15.36856148999404 a48.5302003114232,48.5302003114232 0 0,0 0.45913165600769723,0.6951838458053419 l -23.101630471815398 14.97419776584964" fill="#fff316" stroke="none" /><line stroke="#e1ed5e" stroke-width="0.3" x1="172.87174338648825" x2="177.1583165268699" y1="56.24261187166439" y2="53.66864786411523" /><path d="M 173.72905801456457 55.72781907015455 a86.0,86.0 0 0,1 12.242430191666344,42.057860355516425" fill="none" id="id51" stroke="none" /><text fill="#e1ed5e" style="font-size:6.75px; font-family:Arial;" text-anchor="middle"><textPath startOffset="22.145653131862474" xlink:href="#id51">March</textPath></text><path d="M 118.00360718960297 89.18935116829356 l 22.41640989817542 -13.460410068084084 a47.14723832308101,47.14723832308101 0 0,0 0.41068901828899246,0.697439738250018 l -22.64417262659418 13.07361916154051" fill="#ffde14" stroke="none" /><path d="M 118.18653347947321 89.5 l 50.081324004063866 -28.91446589511915 a78.82893179023829,78.82893179023829 0 0,0 0.6665422931881949,1.1777163652145557 l -50.57029966227344 28.050492759805476" fill="#45fff0" stroke="none" /><path d="M 118.70294669586156 90.45014215332178 l 29.39228368038787 -15.007909475518842 a54.0021770005217,54.0021770005217 0 0,0 0.41447978931901086,0.829237227641659 l -29.64558338291862 14.501140391713433" fill="#bbff1f" stroke="none" /><path d="M 118.8641267826498 90.77261029715802 l 22.04983845221006 -10.785680918471439 a45.54641091165143,45.54641091165143 0 0,0 0.33752220301590274,0.7052915906797427 l -22.231739913185876 10.405576825726593" fill="#ffc512" stroke="none" /><path d="M 119.16976305983485 91.42560881287824 l 44.089646582673566 -19.72073811876557 a69.29911435765662,69.29911435765662 0 0,0 0.4764021009274724,1.090101238251191 l -44.421682565618006 18.96097481073853" fill="#36ff72" stroke="none" /><path d="M 119.31412917781788 91.75594674310238 l 51.91438106062525 -22.159162254864093 a77.44582741660538,77.44582741660538 0 0,0 0.5114159386271917,1.2272120782698885 l -52.28712284378893 21.26471766715293" fill="#43ffdf" stroke="none" /><path d="M 119.58574465831526 92.42381321644754 l 18.31239431472992 -7.083627515972727 a40.634703061752646,40.634703061752646 0 0,0 0.24607082865554,0.6527321079819401 l -18.431295827199904 6.768227127796629" fill="#ff750a" stroke="none" /><path d="M 119.71291397450082 92.76114493625339 l 25.49572233728903 -9.362382394804506 a48.16037668381431,48.16037668381431 0 0,0 0.2783207202365403,0.7785125891277382 l -25.652683227569515 8.92333484929585" fill="#ffee16" stroke="none" /><path d="M 119.83427380445688 93.10060997987247 l 37.13316256209363 -12.916841509927782 a60.315601947006556,60.315601947006556 0 0,0 0.3317776824532145,0.9808417651421779 l -37.34942566611921 12.277498070311442" fill="#66ff29" stroke="none" /><line stroke="#e1ed5e" stroke-width="0.3" x1="184.99686870605535" x2="189.99668451229388" y1="99.2704041080226" y2="99.22748670261217" /><path d="M 185.99683186730306 99.26182062694052 a86.0,86.0 0 0,1 -10.086455211305974,41.156179273409016" fill="none" id="id52" stroke="none" /><text fill="#e1ed5e" style="font-size:6.75px; font-family:Arial;" text-anchor="middle"><textPath startOffset="21.40746469413373" xlink:href="#id52">April</textPath></text><line stroke="#e1ed5e" stroke-width="0.3" x1="174.33088141563837" x2="178.70328620479359" y1="141.23008692659167" y2="143.65538615756765" /><path d="M 175.20536237346943 141.71514677278685 a86.0,86.0 0 0,1 -30.301960400862466,31.631185727798858" fill="none" id="id53" stroke="none" /><text fill="#e1ed5e" style="font-size:6.75px; font-family:Arial;" text-anchor="middle"><textPath startOffset="22.145653131862474" xlink:href="#id53">May</textPath></text><line stroke="#e1ed5e" stroke-width="0.3" x1="143.1302829299769" x2="145.66735839644613" y1="173.24464959558577" y2="177.55315839532614" /><path d="M 143.63769802327073 174.10635135553383 a86.0,86.0 0 0,1 -40.68552437913181,11.842963189579606" fill="none" id="id54" stroke="none" /><text fill="#e1ed5e" style="font-size:6.75px; font-family:Arial;" text-anchor="middle"><textPath startOffset="21.407464694133747" xlink:href="#id54">June</textPath></text><line stroke="#e1ed5e" stroke-width="0.3" x1="101.45913802915013" x2="101.54496967792366" y1="184.9874750549273" y2="189.98673829345242" /><path d="M 101.47630435890484 185.9873277026323 a86.0,86.0 0 0,1 -42.54439059252881,-10.42667462771756" fill="none" id="id55" stroke="none" /><text fill="#e1ed5e" style="font-size:6.75px; font-family:Arial;" text-anchor="middle"><textPath startOffset="22.145653131862474" xlink:href="#id55">July</textPath></text><line stroke="#e1ed5e" stroke-width="0.3" x1="58.13341422392154" x2="55.67067388415222" y1="173.97424548756322" y2="178.32567169271397" /><path d="M 57.64086615596768 174.84453072859336 a86.0,86.0 0 0,1 -31.369924170532247,-30.572349798747897" fill="none" id="id56" stroke="none" /><text fill="#e1ed5e" style="font-size:6.75px; font-family:Arial;" text-anchor="middle"><textPath startOffset="22.145653131862474" xlink:href="#id56">August</textPath></text><line stroke="#e1ed5e" stroke-width="0.3" x1="26.387840678322732" x2="22.057713659400548" y1="142.50000000000003" y2="145.00000000000006" /><path d="M 25.521815274538298 143.00000000000003 a86.0,86.0 0 0,1 -11.493303480769221,-40.785679425670985" fill="none" id="id57" stroke="none" /><text fill="#e1ed5e" style="font-size:6.75px; font-family:Arial;" text-anchor="middle"><textPath startOffset="21.40746469413373" xlink:href="#id57">September</textPath></text><line stroke="#e1ed5e" stroke-width="0.3" x1="15.003131293944662" x2="10.003315487706104" y1="100.72959589197737" y2="100.7725132973878" /><path d="M 14.003168132696942 100.73817937305945 a86.0,86.0 0 0,1 10.791469493833604,-42.45332614584628" fill="none" id="id58" stroke="none" /><text fill="#e1ed5e" style="font-size:6.75px; font-family:Arial;" text-anchor="middle"><textPath startOffset="22.145653131862435" xlink:href="#id58">October</textPath></text><line stroke="#e1ed5e" stroke-width="0.3" x1="26.387840678322718" x2="22.05771365940052" y1="57.49999999999999" y2="54.99999999999999" /><path d="M 25.521815274538284 56.99999999999999 a86.0,86.0 0 0,1 29.574782752854787,-30.34633250058573" fill="none" id="id59" stroke="none" /><text fill="#e1ed5e" style="font-size:6.75px; font-family:Arial;" text-anchor="middle"><textPath startOffset="21.40746469413373" xlink:href="#id59">November</textPath></text><line stroke="#e1ed5e" stroke-width="0.3" x1="56.869717070023135" x2="54.33264160355391" y1="26.7553504044142" y2="22.446841604673864" /><path d="M 56.362301976729285 25.89364864446614 a86.0,86.0 0 0,1 42.16139366436587,-11.88097634709845" fill="none" id="id60" stroke="none" /><text fill="#e1ed5e" style="font-size:6.75px; font-family:Arial;" text-anchor="middle"><textPath startOffset="22.145653131862474" xlink:href="#id60">December</textPath></text></svg>