<?xml version="1.0" encoding="utf-8" ?>
<svg baseProfile="full" height="200mm" version="1.1" viewBox="0,0,200,200" width="200mm" xmlns="http://www.w3.org/2000/svg" xmlns:ev="http://www.w3.org/2001/xml-events" xmlns:xlink="http://www.w3.org/1999/xlink"><defs /><rect fill="#1a1a1a" height="200" width="200" x="0" y="0" /><text alignment-baseline="middle" fill="#e1ed5e" style="dominant-baseline: central; font-size:9.0px; font-family:Arial;" text-anchor="middle" x="100.0" y="100.0">2021</text><line stroke="#e1ed5e" stroke-width="0.3" x1="100.0" x2="100.0" y1="15.0" y2="10.0" /><path d="M 100.0 14.0 a86.0,86.0 0 0,1 42.46469731375804,11.215312516191453" fill="none" id="id13" stroke="none" /><text fill="#e1ed5e" style="font-size:6.75px; font-family:Arial;" text-anchor="middle"><textPath startOffset="22.20632615414155" xlink:href="#id13">January</textPath></text><path d="M 101.08401301168833 79.027996857942 l 2.0462674162441794 -39.58838705831179 a60.641236108596445,60.641236108596445 0 0,0 1.0419837806313945,0.06285530718196171 l -2.727413245715186 39.54729848174952" fill="#6aff28" stroke="none" /><path d="M 104.307194497241 79.44645832069477 l 12.921583491723009 -61.66062503791566 a84.0,84.0 0 0,0 1.4126291033858882,0.3087460076165178 l -13.981055319262426 61.429065532203275" fill="#4dd2ff" stroke="none" /><path d="M 106.74666289553966 80.11325718540242 l 17.629962915107672 -51.96680844324226 a75.87590338358638,75.87590338358638 0 0,0 1.2332291087035416,0.4302494209383563 l -18.521874027874485 51.6556381691317" fill="#40ffc8" stroke="none" /><path d="M 108.43124777332544 80.76684994638697 l 15.93051545764092 -36.34029060296047 a60.678685006609705,60.678685006609705 0 0,0 0.9529959687191218,0.4275815119985531 l -16.55369354482682 36.060688760445395" fill="#6aff28" stroke="none" /><path d="M 109.08828744355905 81.06846463323043 l 22.2518782732962 -46.35221136260499 a72.41666641171128,72.41666641171128 0 0,0 1.1191089999009942,0.549141926014393 l -23.046458540207627 45.962314276455764" fill="#3bff99" stroke="none" /><path d="M 110.05341064243156 81.56283822128135 l 12.59880625377884 -23.105216466465862 a47.31693270467708,47.31693270467708 0 0,0 0.711727581924147,0.39607562876968483 l -12.994657924775021 22.884925440135998" fill="#ffd013" stroke="none" /><line stroke="#e1ed5e" stroke-width="0.3" x1="143.23703022742887" x2="145.7803849466894" y1="26.81831364943548" y2="22.513508569990506" /><path d="M 143.74570117128098 25.957352633546492 a86.0,86.0 0 0,1 28.547481713284135,27.462654790039103" fill="none" id="id14" stroke="none" /><text fill="#e1ed5e" style="font-size:6.75px; font-family:Arial;" text-anchor="middle"><textPath startOffset="19.985693538727396" xlink:href="#id14">February</textPath></text><path d="M 110.99172775467656 82.1063720568725 l 25.298469204070248 -41.18382528858608 a69.33342538523493,69.33342538523493 0 0,0 1.0115444589744151,0.6334290474105119 l -26.003632815416925 40.74225189985262" fill="#36ff6d" stroke="none" /><path d="M 111.90073688211348 82.69761687909136 l 8.113582614452998 -11.796270791382984 a35.317200404589904,35.317200404589904 0 0,0 0.49792015604203593,0.3488248892883625 l -8.315433910078685 11.654861059330687" fill="#ff0000" stroke="none" /><path d="M 112.19680574252982 82.90503203632743 l 29.65341026042093 -41.56203756266359 a72.05612310421833,72.05612310421833 0 0,0 1.0034833660579348,0.7290733415870564 l -30.364438942832653 41.04544498625986" fill="#3aff94" stroke="none" /><path d="M 112.48926042617603 83.11751280151076 l 16.54951425741796 -22.370977388420105 a48.82709204120481,48.82709204120481 0 0,0 0.6713814584614922,0.5056705953158628 l -16.932141869637835 22.082790203598396" fill="#ffe815" stroke="none" /><path d="M 114.42810811169701 84.74124197986012 l 42.39928772844202 -44.84028444104087 a82.71183604976169,82.71183604976169 0 0,0 1.0260866305973986,0.9870945256673254 l -43.164857602651836 44.10380682861125" fill="#4be1ff" stroke="none" /><path d="M 114.94478906791727 85.2469230424477 l 18.645208310728762 -18.40602713411933 a47.199725720175124,47.199725720175124 0 0,0 0.5658027479609327,0.5831094672394092 l -18.959275322392806 18.082353471329807" fill="#ffce13" stroke="none" /><path d="M 115.68641384162765 86.03803664274999 l 16.391012879051573 -14.58910389054131 a42.94327358281444,42.94327358281444 0 0,0 0.48670707225296606,0.5563903194097483 l -16.639711814882386 14.304798014928615" fill="#ff880c" stroke="none" /><path d="M 115.9244219780498 86.31012108654704 l 23.647875811492273 -20.32956404106474 a52.18514397105638,52.18514397105638 0 0,0 0.5797257248616289,0.686212403329705 l -23.99431214984102 19.91949268810593" fill="#e2ff1b" stroke="none" /><path d="M 116.15771136456269 86.58626213691792 l 35.48193254403649 -29.456234938390832 a67.11547802858854,67.11547802858854 0 0,0 0.7302851397402443,0.8952432314346352 l -35.98371617585314 28.841107537348094" fill="#32ff4c" stroke="none" /><path d="M 116.82858285166822 87.43820079747576 l 38.462188602624686 -28.710337309709537 a68.99607713700331,68.99607713700331 0 0,0 0.7022400606700666,0.9578546535607175 l -38.95069127580838 28.044020212477324" fill="#35ff68" stroke="none" /><path d="M 117.45458315368197 88.32363383020206 l 17.048769413769598 -11.404894214138405 a41.5117563986991,41.5117563986991 0 0,0 0.3921939115097186,0.5973382341069559 l -17.24255996063724 11.109737916053776" fill="#ff6f0a" stroke="none" /><path d="M 117.65298651832404 88.62581576622439 l 34.880622489423565 -22.474306314779113 a62.494002814626135,62.494002814626135 0 0,0 0.5748627020911116,0.9092947411316207 l -35.262312787760635 21.87056392593329" fill="#52ff2b" stroke="none" /><line stroke="#e1ed5e" stroke-width="0.3" x1="172.23445277983987" x2="176.4835382374775" y1="55.19839476539836" y2="52.563006222186495" /><path d="M 173.08426987136738 54.67131705675599 a86.0,86.0 0 0,1 12.851231095245387,41.99856678651699" fill="none" id="id15" stroke="none" /><text fill="#e1ed5e" style="font-size:6.75px; font-family:Arial;" text-anchor="middle"><textPath startOffset="22.20632615414155" xlink:href="#id15">March</textPath></text><line stroke="#e1ed5e" stroke-width="0.3" x1="184.98032266829074" x2="189.97916517819016" y1="98.17113171792111" y2="98.06355123074" /><path d="M 185.9800911702706 98.14961562048488 a86.0,86.0 0 0,1 -9.607161424134198,41.387399972396054" fill="none" id="id16" stroke="none" /><text fill="#e1ed5e" style="font-size:6.75px; font-family:Arial;" text-anchor="middle"><textPath startOffset="21.466115282336823" xlink:href="#id16">April</textPath></text><line stroke="#e1ed5e" stroke-width="0.3" x1="174.80103733775053" x2="179.2010983576182" y1="140.37084112569926" y2="142.7455964860345" /><path d="M 175.68104954172406 140.8457921977663 a86.0,86.0 0 0,1 -30.038265399797805,32.042727171017184" fill="none" id="id17" stroke="none" /><text fill="#e1ed5e" style="font-size:6.75px; font-family:Arial;" text-anchor="middle"><textPath startOffset="22.206326154141568" xlink:href="#id17">May</textPath></text><line stroke="#e1ed5e" stroke-width="0.3" x1="143.8653032363475" x2="146.44561519142675" y1="172.8068346515853" y2="177.08958963109032" /><path d="M 144.38136562736335 173.6633856474863 a86.0,86.0 0 0,1 -40.68145358897372,12.25698825130547" fill="none" id="id18" stroke="none" /><text fill="#e1ed5e" style="font-size:6.75px; font-family:Arial;" text-anchor="middle"><textPath startOffset="21.466115282336833" xlink:href="#id18">June</textPath></text><line stroke="#e1ed5e" stroke-width="0.3" x1="102.19456741930631" x2="102.32365962044197" y1="184.97166512339345" y2="189.96999836594603" /><path d="M 102.22038585953345 185.97133177190398 a86.0,86.0 0 0,1 -42.740103519485714,-10.115201625700543" fill="none" id="id19" stroke="none" /><text fill="#e1ed5e" style="font-size:6.75px; font-family:Arial;" text-anchor="middle"><textPath startOffset="22.20632615414155" xlink:href="#id19">July</textPath></text><line stroke="#e1ed5e" stroke-width="0.3" x1="58.666819895761336" x2="56.23545636021788" y1="174.27360380694188" y2="178.64263932499728" /><path d="M 58.180547188652646 175.14741091055294 a86.0,86.0 0 0,1 -31.652253787137756,-30.449443065178592" fill="none" id="id20" stroke="none" /><text fill="#e1ed5e" style="font-size:6.75px; font-family:Arial;" text-anchor="middle"><textPath startOffset="22.20632615414155" xlink:href="#id20">August</textPath></text><line stroke="#e1ed5e" stroke-width="0.3" x1="26.63291911575756" x2="22.317208475507996" y1="142.92168965132927" y2="145.44649492493687" /><path d="M 25.769776987707644 143.4266507060508 a86.0,86.0 0 0,1 -11.730757126820373,-40.83630448921669" fill="none" id="id21" stroke="none" /><text fill="#e1ed5e" style="font-size:6.75px; font-family:Arial;" text-anchor="middle"><textPath startOffset="21.46611528233685" xlink:href="#id21">September</textPath></text><line stroke="#e1ed5e" stroke-width="0.3" x1="15.007084014347285" x2="10.007500721073583" y1="101.09737516637583" y2="101.16192664675087" /><path d="M 14.007167355692545 101.11028546245083 a86.0,86.0 0 0,1 10.666146001902534,-42.60595125391555" fill="none" id="id22" stroke="none" /><text fill="#e1ed5e" style="font-size:6.75px; font-family:Arial;" text-anchor="middle"><textPath startOffset="22.20632615414155" xlink:href="#id22">October</textPath></text><line stroke="#e1ed5e" stroke-width="0.3" x1="26.266209847984243" x2="21.928928074336255" y1="57.711370442889674" y2="55.22380399835377" /><path d="M 25.398753493254645 57.213857153982495 a86.0,86.0 0 0,1 29.58750427330803,-30.492523968695096" fill="none" id="id23" stroke="none" /><text fill="#e1ed5e" style="font-size:6.75px; font-family:Arial;" text-anchor="middle"><textPath startOffset="21.46611528233685" xlink:href="#id23">November</textPath></text><line stroke="#e1ed5e" stroke-width="0.3" x1="56.762969772571076" x2="54.21961505331055" y1="26.818313649435495" y2="22.513508569990535" /><path d="M 56.25429882871897 25.957352633546506 a86.0,86.0 0 0,1 42.265352541879196,-11.944610805530505" fill="none" id="id24" stroke="none" /><text fill="#e1ed5e" style="font-size:6.75px; font-family:Arial;" text-anchor="middle"><textPath startOffset="22.20632615414155" xlink:href="#id24">December</textPath></text></svg>